  0
SECTION
  2
BLOCKS
  0
ENDSEC
  0
SECTION
  2
ENTITIES
  0
LINE
  8
0
 10
1.302e-14
 20
58.637
 11
0.2724
 21
56.0452
  0
LINE
  8
0
 10
0.2724
 20
56.0452
 11
0.914871
 21
54.0679
  0
LINE
  8
0
 10
0.914871
 20
54.0679
 11
1.95442
 21
52.2674
  0
LINE
  8
0
 10
1.95442
 20
52.2674
 11
3.34549
 21
50.7224
  0
LINE
  8
0
 10
3.34549
 20
50.7224
 11
5.02759
 21
49.5003
  0
LINE
  8
0
 10
5.02759
 20
49.5003
 11
7.14943
 21
48.5556
  0
LINE
  8
0
 10
7.14943
 20
48.5556
 11
8.27644
 21
48.2585
  0
LINE
  8
0
 10
8.27644
 20
48.2585
 11
234.131
 21
2.15616
  0
LINE
  8
0
 10
234.131
 20
2.15616
 11
236.725
 21
1.90471
  0
LINE
  8
0
 10
236.725
 20
1.90471
 11
238.791
 21
2.13873
  0
LINE
  8
0
 10
238.791
 20
2.13873
 11
240.763
 21
2.79716
  0
LINE
  8
0
 10
240.763
 20
2.79716
 11
242.555
 21
3.8512
  0
LINE
  8
0
 10
242.555
 20
3.8512
 11
244.088
 21
5.25485
  0
LINE
  8
0
 10
244.088
 20
5.25485
 11
245.297
 21
6.94658
  0
LINE
  8
0
 10
245.297
 20
6.94658
 11
246.223
 21
9.07314
  0
LINE
  8
0
 10
246.223
 20
9.07314
 11
246.515
 21
10.2213
  0
LINE
  8
0
 10
246.515
 20
10.2213
 11
252.162
 21
39.271
  0
LINE
  8
0
 10
252.162
 20
39.271
 11
252.253
 21
39.7867
  0
LINE
  8
0
 10
252.253
 20
39.7867
 11
260.361
 21
90.981
  0
LINE
  8
0
 10
260.361
 20
90.981
 11
260.434
 21
91.5004
  0
LINE
  8
0
 10
260.434
 20
91.5004
 11
266.751
 21
142.947
  0
LINE
  8
0
 10
266.751
 20
142.947
 11
266.806
 21
143.468
  0
LINE
  8
0
 10
266.806
 20
143.468
 11
271.323
 21
195.104
  0
LINE
  8
0
 10
271.323
 20
195.104
 11
271.36
 21
195.627
  0
LINE
  8
0
 10
271.36
 20
195.627
 11
274.073
 21
247.39
  0
LINE
  8
0
 10
274.073
 20
247.39
 11
274.091
 21
247.913
  0
LINE
  8
0
 10
274.091
 20
247.913
 11
274.995
 21
299.738
  0
LINE
  8
0
 10
274.995
 20
299.738
 11
274.995
 21
300.262
  0
LINE
  8
0
 10
274.995
 20
300.262
 11
274.091
 21
352.087
  0
LINE
  8
0
 10
274.091
 20
352.087
 11
274.073
 21
352.61
  0
LINE
  8
0
 10
274.073
 20
352.61
 11
271.36
 21
404.373
  0
LINE
  8
0
 10
271.36
 20
404.373
 11
271.323
 21
404.896
  0
LINE
  8
0
 10
271.323
 20
404.896
 11
266.806
 21
456.532
  0
LINE
  8
0
 10
266.806
 20
456.532
 11
266.751
 21
457.053
  0
LINE
  8
0
 10
266.751
 20
457.053
 11
260.434
 21
508.5
  0
LINE
  8
0
 10
260.434
 20
508.5
 11
260.361
 21
509.019
  0
LINE
  8
0
 10
260.361
 20
509.019
 11
252.253
 21
560.213
  0
LINE
  8
0
 10
252.253
 20
560.213
 11
252.162
 21
560.729
  0
LINE
  8
0
 10
252.162
 20
560.729
 11
246.561
 21
589.544
  0
LINE
  8
0
 10
246.561
 20
589.544
 11
245.799
 21
592.036
  0
LINE
  8
0
 10
245.799
 20
592.036
 11
244.791
 21
593.855
  0
LINE
  8
0
 10
244.791
 20
593.855
 11
243.427
 21
595.424
  0
LINE
  8
0
 10
243.427
 20
595.424
 11
241.766
 21
596.675
  0
LINE
  8
0
 10
241.766
 20
596.675
 11
239.882
 21
597.554
  0
LINE
  8
0
 10
239.882
 20
597.554
 11
237.856
 21
598.021
  0
LINE
  8
0
 10
237.856
 20
598.021
 11
235.537
 21
598.062
  0
LINE
  8
0
 10
235.537
 20
598.062
 11
234.365
 21
597.892
  0
LINE
  8
0
 10
234.365
 20
597.892
 11
8.51346
 21
551.79
  0
LINE
  8
0
 10
8.51346
 20
551.79
 11
6.02859
 21
551.005
  0
LINE
  8
0
 10
6.02859
 20
551.005
 11
4.21977
 21
549.98
  0
LINE
  8
0
 10
4.21977
 20
549.98
 11
2.66347
 21
548.601
  0
LINE
  8
0
 10
2.66347
 20
548.601
 11
1.42793
 21
546.929
  0
LINE
  8
0
 10
1.42793
 20
546.929
 11
0.566971
 21
545.037
  0
LINE
  8
0
 10
0.566971
 20
545.037
 11
0.0656891
 21
542.769
  0
LINE
  8
0
 10
0.0656891
 20
542.769
 11
1.2026e-13
 21
541.605
  0
LINE
  8
0
 10
1.2026e-13
 20
541.605
 11
1.302e-14
 21
58.637
  0
LINE
  8
0
 10
29.6517
 20
218.537
 11
29.6517
 21
221.463
  0
LINE
  8
0
 10
29.6517
 20
221.463
 11
30.2602
 21
224.326
  0
LINE
  8
0
 10
30.2602
 20
224.326
 11
31.4506
 21
227
  0
LINE
  8
0
 10
31.4506
 20
227
 11
33.171
 21
229.368
  0
LINE
  8
0
 10
33.171
 20
229.368
 11
35.346
 21
231.326
  0
LINE
  8
0
 10
35.346
 20
231.326
 11
37.8807
 21
232.79
  0
LINE
  8
0
 10
37.8807
 20
232.79
 11
40.6642
 21
233.694
  0
LINE
  8
0
 10
40.6642
 20
233.694
 11
43.575
 21
234
  0
LINE
  8
0
 10
43.575
 20
234
 11
46.4858
 21
233.694
  0
LINE
  8
0
 10
46.4858
 20
233.694
 11
49.2693
 21
232.79
  0
LINE
  8
0
 10
49.2693
 20
232.79
 11
51.804
 21
231.326
  0
LINE
  8
0
 10
51.804
 20
231.326
 11
53.979
 21
229.368
  0
LINE
  8
0
 10
53.979
 20
229.368
 11
55.6994
 21
227
  0
LINE
  8
0
 10
55.6994
 20
227
 11
56.8898
 21
224.326
  0
LINE
  8
0
 10
56.8898
 20
224.326
 11
57.4983
 21
221.463
  0
LINE
  8
0
 10
57.4983
 20
221.463
 11
57.4983
 21
218.537
  0
LINE
  8
0
 10
57.4983
 20
218.537
 11
56.8898
 21
215.674
  0
LINE
  8
0
 10
56.8898
 20
215.674
 11
55.6994
 21
213
  0
LINE
  8
0
 10
55.6994
 20
213
 11
53.979
 21
210.632
  0
LINE
  8
0
 10
53.979
 20
210.632
 11
51.804
 21
208.674
  0
LINE
  8
0
 10
51.804
 20
208.674
 11
49.2693
 21
207.21
  0
LINE
  8
0
 10
49.2693
 20
207.21
 11
46.4858
 21
206.306
  0
LINE
  8
0
 10
46.4858
 20
206.306
 11
43.575
 21
206
  0
LINE
  8
0
 10
43.575
 20
206
 11
40.6642
 21
206.306
  0
LINE
  8
0
 10
40.6642
 20
206.306
 11
37.8807
 21
207.21
  0
LINE
  8
0
 10
37.8807
 20
207.21
 11
35.346
 21
208.674
  0
LINE
  8
0
 10
35.346
 20
208.674
 11
33.171
 21
210.632
  0
LINE
  8
0
 10
33.171
 20
210.632
 11
31.4506
 21
213
  0
LINE
  8
0
 10
31.4506
 20
213
 11
30.2602
 21
215.674
  0
LINE
  8
0
 10
30.2602
 20
215.674
 11
29.6517
 21
218.537
  0
LINE
  8
0
 10
29.6517
 20
258.537
 11
29.6517
 21
261.463
  0
LINE
  8
0
 10
29.6517
 20
261.463
 11
30.2602
 21
264.326
  0
LINE
  8
0
 10
30.2602
 20
264.326
 11
31.4506
 21
267
  0
LINE
  8
0
 10
31.4506
 20
267
 11
33.171
 21
269.368
  0
LINE
  8
0
 10
33.171
 20
269.368
 11
35.346
 21
271.326
  0
LINE
  8
0
 10
35.346
 20
271.326
 11
37.8807
 21
272.79
  0
LINE
  8
0
 10
37.8807
 20
272.79
 11
40.6642
 21
273.694
  0
LINE
  8
0
 10
40.6642
 20
273.694
 11
43.575
 21
274
  0
LINE
  8
0
 10
43.575
 20
274
 11
46.4858
 21
273.694
  0
LINE
  8
0
 10
46.4858
 20
273.694
 11
49.2693
 21
272.79
  0
LINE
  8
0
 10
49.2693
 20
272.79
 11
51.804
 21
271.326
  0
LINE
  8
0
 10
51.804
 20
271.326
 11
53.979
 21
269.368
  0
LINE
  8
0
 10
53.979
 20
269.368
 11
55.6994
 21
267
  0
LINE
  8
0
 10
55.6994
 20
267
 11
56.8898
 21
264.326
  0
LINE
  8
0
 10
56.8898
 20
264.326
 11
57.4983
 21
261.463
  0
LINE
  8
0
 10
57.4983
 20
261.463
 11
57.4983
 21
258.537
  0
LINE
  8
0
 10
57.4983
 20
258.537
 11
56.8898
 21
255.674
  0
LINE
  8
0
 10
56.8898
 20
255.674
 11
55.6994
 21
253
  0
LINE
  8
0
 10
55.6994
 20
253
 11
53.979
 21
250.632
  0
LINE
  8
0
 10
53.979
 20
250.632
 11
51.804
 21
248.674
  0
LINE
  8
0
 10
51.804
 20
248.674
 11
49.2693
 21
247.21
  0
LINE
  8
0
 10
49.2693
 20
247.21
 11
46.4858
 21
246.306
  0
LINE
  8
0
 10
46.4858
 20
246.306
 11
43.575
 21
246
  0
LINE
  8
0
 10
43.575
 20
246
 11
40.6642
 21
246.306
  0
LINE
  8
0
 10
40.6642
 20
246.306
 11
37.8807
 21
247.21
  0
LINE
  8
0
 10
37.8807
 20
247.21
 11
35.346
 21
248.674
  0
LINE
  8
0
 10
35.346
 20
248.674
 11
33.171
 21
250.632
  0
LINE
  8
0
 10
33.171
 20
250.632
 11
31.4506
 21
253
  0
LINE
  8
0
 10
31.4506
 20
253
 11
30.2602
 21
255.674
  0
LINE
  8
0
 10
30.2602
 20
255.674
 11
29.6517
 21
258.537
  0
LINE
  8
0
 10
29.6517
 20
338.537
 11
29.6517
 21
341.463
  0
LINE
  8
0
 10
29.6517
 20
341.463
 11
30.2602
 21
344.326
  0
LINE
  8
0
 10
30.2602
 20
344.326
 11
31.4506
 21
347
  0
LINE
  8
0
 10
31.4506
 20
347
 11
33.171
 21
349.368
  0
LINE
  8
0
 10
33.171
 20
349.368
 11
35.346
 21
351.326
  0
LINE
  8
0
 10
35.346
 20
351.326
 11
37.8807
 21
352.79
  0
LINE
  8
0
 10
37.8807
 20
352.79
 11
40.6642
 21
353.694
  0
LINE
  8
0
 10
40.6642
 20
353.694
 11
43.575
 21
354
  0
LINE
  8
0
 10
43.575
 20
354
 11
46.4858
 21
353.694
  0
LINE
  8
0
 10
46.4858
 20
353.694
 11
49.2693
 21
352.79
  0
LINE
  8
0
 10
49.2693
 20
352.79
 11
51.804
 21
351.326
  0
LINE
  8
0
 10
51.804
 20
351.326
 11
53.979
 21
349.368
  0
LINE
  8
0
 10
53.979
 20
349.368
 11
55.6994
 21
347
  0
LINE
  8
0
 10
55.6994
 20
347
 11
56.8898
 21
344.326
  0
LINE
  8
0
 10
56.8898
 20
344.326
 11
57.4983
 21
341.463
  0
LINE
  8
0
 10
57.4983
 20
341.463
 11
57.4983
 21
338.537
  0
LINE
  8
0
 10
57.4983
 20
338.537
 11
56.8898
 21
335.674
  0
LINE
  8
0
 10
56.8898
 20
335.674
 11
55.6994
 21
333
  0
LINE
  8
0
 10
55.6994
 20
333
 11
53.979
 21
330.632
  0
LINE
  8
0
 10
53.979
 20
330.632
 11
51.804
 21
328.674
  0
LINE
  8
0
 10
51.804
 20
328.674
 11
49.2693
 21
327.21
  0
LINE
  8
0
 10
49.2693
 20
327.21
 11
46.4858
 21
326.306
  0
LINE
  8
0
 10
46.4858
 20
326.306
 11
43.575
 21
326
  0
LINE
  8
0
 10
43.575
 20
326
 11
40.6642
 21
326.306
  0
LINE
  8
0
 10
40.6642
 20
326.306
 11
37.8807
 21
327.21
  0
LINE
  8
0
 10
37.8807
 20
327.21
 11
35.346
 21
328.674
  0
LINE
  8
0
 10
35.346
 20
328.674
 11
33.171
 21
330.632
  0
LINE
  8
0
 10
33.171
 20
330.632
 11
31.4506
 21
333
  0
LINE
  8
0
 10
31.4506
 20
333
 11
30.2602
 21
335.674
  0
LINE
  8
0
 10
30.2602
 20
335.674
 11
29.6517
 21
338.537
  0
LINE
  8
0
 10
29.6517
 20
378.537
 11
29.6517
 21
381.463
  0
LINE
  8
0
 10
29.6517
 20
381.463
 11
30.2602
 21
384.326
  0
LINE
  8
0
 10
30.2602
 20
384.326
 11
31.4506
 21
387
  0
LINE
  8
0
 10
31.4506
 20
387
 11
33.171
 21
389.368
  0
LINE
  8
0
 10
33.171
 20
389.368
 11
35.346
 21
391.326
  0
LINE
  8
0
 10
35.346
 20
391.326
 11
37.8807
 21
392.79
  0
LINE
  8
0
 10
37.8807
 20
392.79
 11
40.6642
 21
393.694
  0
LINE
  8
0
 10
40.6642
 20
393.694
 11
43.575
 21
394
  0
LINE
  8
0
 10
43.575
 20
394
 11
46.4858
 21
393.694
  0
LINE
  8
0
 10
46.4858
 20
393.694
 11
49.2693
 21
392.79
  0
LINE
  8
0
 10
49.2693
 20
392.79
 11
51.804
 21
391.326
  0
LINE
  8
0
 10
51.804
 20
391.326
 11
53.979
 21
389.368
  0
LINE
  8
0
 10
53.979
 20
389.368
 11
55.6994
 21
387
  0
LINE
  8
0
 10
55.6994
 20
387
 11
56.8898
 21
384.326
  0
LINE
  8
0
 10
56.8898
 20
384.326
 11
57.4983
 21
381.463
  0
LINE
  8
0
 10
57.4983
 20
381.463
 11
57.4983
 21
378.537
  0
LINE
  8
0
 10
57.4983
 20
378.537
 11
56.8898
 21
375.674
  0
LINE
  8
0
 10
56.8898
 20
375.674
 11
55.6994
 21
373
  0
LINE
  8
0
 10
55.6994
 20
373
 11
53.979
 21
370.632
  0
LINE
  8
0
 10
53.979
 20
370.632
 11
51.804
 21
368.674
  0
LINE
  8
0
 10
51.804
 20
368.674
 11
49.2693
 21
367.21
  0
LINE
  8
0
 10
49.2693
 20
367.21
 11
46.4858
 21
366.306
  0
LINE
  8
0
 10
46.4858
 20
366.306
 11
43.575
 21
366
  0
LINE
  8
0
 10
43.575
 20
366
 11
40.6642
 21
366.306
  0
LINE
  8
0
 10
40.6642
 20
366.306
 11
37.8807
 21
367.21
  0
LINE
  8
0
 10
37.8807
 20
367.21
 11
35.346
 21
368.674
  0
LINE
  8
0
 10
35.346
 20
368.674
 11
33.171
 21
370.632
  0
LINE
  8
0
 10
33.171
 20
370.632
 11
31.4506
 21
373
  0
LINE
  8
0
 10
31.4506
 20
373
 11
30.2602
 21
375.674
  0
LINE
  8
0
 10
30.2602
 20
375.674
 11
29.6517
 21
378.537
  0
LINE
  8
0
 10
82.6935
 20
72.5142
 11
89.7764
 21
142.155
  0
LINE
  8
0
 10
89.7764
 20
142.155
 11
191.253
 21
131.834
  0
LINE
  8
0
 10
191.253
 20
131.834
 11
184.17
 21
62.1934
  0
LINE
  8
0
 10
184.17
 20
62.1934
 11
82.6935
 21
72.5142
  0
LINE
  8
0
 10
83.4145
 20
501.388
 11
83.7303
 21
504.298
  0
LINE
  8
0
 10
83.7303
 20
504.298
 11
84.644
 21
507.078
  0
LINE
  8
0
 10
84.644
 20
507.078
 11
86.1159
 21
509.608
  0
LINE
  8
0
 10
86.1159
 20
509.608
 11
88.0817
 21
511.777
  0
LINE
  8
0
 10
88.0817
 20
511.777
 11
90.4553
 21
513.489
  0
LINE
  8
0
 10
90.4553
 20
513.489
 11
93.133
 21
514.67
  0
LINE
  8
0
 10
93.133
 20
514.67
 11
95.9979
 21
515.269
  0
LINE
  8
0
 10
95.9979
 20
515.269
 11
98.9247
 21
515.259
  0
LINE
  8
0
 10
98.9247
 20
515.259
 11
101.785
 21
514.641
  0
LINE
  8
0
 10
101.785
 20
514.641
 11
104.455
 21
513.442
  0
LINE
  8
0
 10
104.455
 20
513.442
 11
106.817
 21
511.714
  0
LINE
  8
0
 10
106.817
 20
511.714
 11
108.768
 21
509.532
  0
LINE
  8
0
 10
108.768
 20
509.532
 11
110.223
 21
506.992
  0
LINE
  8
0
 10
110.223
 20
506.992
 11
111.118
 21
504.206
  0
LINE
  8
0
 10
111.118
 20
504.206
 11
111.414
 21
501.294
  0
LINE
  8
0
 10
111.414
 20
501.294
 11
111.099
 21
498.384
  0
LINE
  8
0
 10
111.099
 20
498.384
 11
110.185
 21
495.604
  0
LINE
  8
0
 10
110.185
 20
495.604
 11
108.713
 21
493.074
  0
LINE
  8
0
 10
108.713
 20
493.074
 11
106.747
 21
490.906
  0
LINE
  8
0
 10
106.747
 20
490.906
 11
104.374
 21
489.193
  0
LINE
  8
0
 10
104.374
 20
489.193
 11
101.696
 21
488.012
  0
LINE
  8
0
 10
101.696
 20
488.012
 11
98.831
 21
487.413
  0
LINE
  8
0
 10
98.831
 20
487.413
 11
95.9043
 21
487.423
  0
LINE
  8
0
 10
95.9043
 20
487.423
 11
93.0435
 21
488.041
  0
LINE
  8
0
 10
93.0435
 20
488.041
 11
90.3737
 21
489.24
  0
LINE
  8
0
 10
90.3737
 20
489.24
 11
88.0117
 21
490.969
  0
LINE
  8
0
 10
88.0117
 20
490.969
 11
86.0606
 21
493.15
  0
LINE
  8
0
 10
86.0606
 20
493.15
 11
84.6057
 21
495.69
  0
LINE
  8
0
 10
84.6057
 20
495.69
 11
83.7107
 21
498.476
  0
LINE
  8
0
 10
83.7107
 20
498.476
 11
83.4145
 21
501.388
  0
LINE
  8
0
 10
87.0572
 20
465.573
 11
87.3729
 21
468.483
  0
LINE
  8
0
 10
87.3729
 20
468.483
 11
88.2867
 21
471.263
  0
LINE
  8
0
 10
88.2867
 20
471.263
 11
89.7586
 21
473.793
  0
LINE
  8
0
 10
89.7586
 20
473.793
 11
91.7243
 21
475.961
  0
LINE
  8
0
 10
91.7243
 20
475.961
 11
94.0979
 21
477.674
  0
LINE
  8
0
 10
94.0979
 20
477.674
 11
96.7756
 21
478.855
  0
LINE
  8
0
 10
96.7756
 20
478.855
 11
99.6405
 21
479.454
  0
LINE
  8
0
 10
99.6405
 20
479.454
 11
102.567
 21
479.444
  0
LINE
  8
0
 10
102.567
 20
479.444
 11
105.428
 21
478.826
  0
LINE
  8
0
 10
105.428
 20
478.826
 11
108.098
 21
477.627
  0
LINE
  8
0
 10
108.098
 20
477.627
 11
110.46
 21
475.898
  0
LINE
  8
0
 10
110.46
 20
475.898
 11
112.411
 21
473.717
  0
LINE
  8
0
 10
112.411
 20
473.717
 11
113.866
 21
471.177
  0
LINE
  8
0
 10
113.866
 20
471.177
 11
114.761
 21
468.391
  0
LINE
  8
0
 10
114.761
 20
468.391
 11
115.057
 21
465.479
  0
LINE
  8
0
 10
115.057
 20
465.479
 11
114.741
 21
462.569
  0
LINE
  8
0
 10
114.741
 20
462.569
 11
113.828
 21
459.789
  0
LINE
  8
0
 10
113.828
 20
459.789
 11
112.356
 21
457.259
  0
LINE
  8
0
 10
112.356
 20
457.259
 11
110.39
 21
455.09
  0
LINE
  8
0
 10
110.39
 20
455.09
 11
108.016
 21
453.378
  0
LINE
  8
0
 10
108.016
 20
453.378
 11
105.339
 21
452.197
  0
LINE
  8
0
 10
105.339
 20
452.197
 11
102.474
 21
451.598
  0
LINE
  8
0
 10
102.474
 20
451.598
 11
99.5469
 21
451.608
  0
LINE
  8
0
 10
99.5469
 20
451.608
 11
96.6861
 21
452.226
  0
LINE
  8
0
 10
96.6861
 20
452.226
 11
94.0164
 21
453.425
  0
LINE
  8
0
 10
94.0164
 20
453.425
 11
91.6543
 21
455.153
  0
LINE
  8
0
 10
91.6543
 20
455.153
 11
89.7033
 21
457.335
  0
LINE
  8
0
 10
89.7033
 20
457.335
 11
88.2484
 21
459.875
  0
LINE
  8
0
 10
88.2484
 20
459.875
 11
87.3533
 21
462.661
  0
LINE
  8
0
 10
87.3533
 20
462.661
 11
87.0572
 21
465.573
  0
LINE
  8
0
 10
93.2294
 20
195.114
 11
93.5256
 21
198.026
  0
LINE
  8
0
 10
93.5256
 20
198.026
 11
94.4206
 21
200.812
  0
LINE
  8
0
 10
94.4206
 20
200.812
 11
95.8755
 21
203.352
  0
LINE
  8
0
 10
95.8755
 20
203.352
 11
97.8266
 21
205.533
  0
LINE
  8
0
 10
97.8266
 20
205.533
 11
100.189
 21
207.262
  0
LINE
  8
0
 10
100.189
 20
207.262
 11
102.858
 21
208.461
  0
LINE
  8
0
 10
102.858
 20
208.461
 11
105.719
 21
209.079
  0
LINE
  8
0
 10
105.719
 20
209.079
 11
108.646
 21
209.089
  0
LINE
  8
0
 10
108.646
 20
209.089
 11
111.511
 21
208.49
  0
LINE
  8
0
 10
111.511
 20
208.49
 11
114.189
 21
207.309
  0
LINE
  8
0
 10
114.189
 20
207.309
 11
116.562
 21
205.596
  0
LINE
  8
0
 10
116.562
 20
205.596
 11
118.528
 21
203.428
  0
LINE
  8
0
 10
118.528
 20
203.428
 11
120
 21
200.898
  0
LINE
  8
0
 10
120
 20
200.898
 11
120.914
 21
198.118
  0
LINE
  8
0
 10
120.914
 20
198.118
 11
121.229
 21
195.208
  0
LINE
  8
0
 10
121.229
 20
195.208
 11
120.933
 21
192.296
  0
LINE
  8
0
 10
120.933
 20
192.296
 11
120.038
 21
189.51
  0
LINE
  8
0
 10
120.038
 20
189.51
 11
118.583
 21
186.97
  0
LINE
  8
0
 10
118.583
 20
186.97
 11
116.632
 21
184.789
  0
LINE
  8
0
 10
116.632
 20
184.789
 11
114.27
 21
183.06
  0
LINE
  8
0
 10
114.27
 20
183.06
 11
111.6
 21
181.861
  0
LINE
  8
0
 10
111.6
 20
181.861
 11
108.74
 21
181.243
  0
LINE
  8
0
 10
108.74
 20
181.243
 11
105.813
 21
181.233
  0
LINE
  8
0
 10
105.813
 20
181.233
 11
102.948
 21
181.832
  0
LINE
  8
0
 10
102.948
 20
181.832
 11
100.27
 21
183.013
  0
LINE
  8
0
 10
100.27
 20
183.013
 11
97.8966
 21
184.726
  0
LINE
  8
0
 10
97.8966
 20
184.726
 11
95.9308
 21
186.894
  0
LINE
  8
0
 10
95.9308
 20
186.894
 11
94.4589
 21
189.424
  0
LINE
  8
0
 10
94.4589
 20
189.424
 11
93.5451
 21
192.204
  0
LINE
  8
0
 10
93.5451
 20
192.204
 11
93.2294
 21
195.114
  0
LINE
  8
0
 10
94.6332
 20
410.091
 11
196.11
 21
420.412
  0
LINE
  8
0
 10
196.11
 20
420.412
 11
203.193
 21
350.771
  0
LINE
  8
0
 10
203.193
 20
350.771
 11
101.716
 21
340.451
  0
LINE
  8
0
 10
101.716
 20
340.451
 11
94.6332
 21
410.091
  0
LINE
  8
0
 10
96.8721
 20
230.929
 11
97.1682
 21
233.841
  0
LINE
  8
0
 10
97.1682
 20
233.841
 11
98.0633
 21
236.628
  0
LINE
  8
0
 10
98.0633
 20
236.628
 11
99.5182
 21
239.167
  0
LINE
  8
0
 10
99.5182
 20
239.167
 11
101.469
 21
241.349
  0
LINE
  8
0
 10
101.469
 20
241.349
 11
103.831
 21
243.077
  0
LINE
  8
0
 10
103.831
 20
243.077
 11
106.501
 21
244.276
  0
LINE
  8
0
 10
106.501
 20
244.276
 11
109.362
 21
244.895
  0
LINE
  8
0
 10
109.362
 20
244.895
 11
112.289
 21
244.904
  0
LINE
  8
0
 10
112.289
 20
244.904
 11
115.153
 21
244.306
  0
LINE
  8
0
 10
115.153
 20
244.306
 11
117.831
 21
243.124
  0
LINE
  8
0
 10
117.831
 20
243.124
 11
120.205
 21
241.412
  0
LINE
  8
0
 10
120.205
 20
241.412
 11
122.17
 21
239.243
  0
LINE
  8
0
 10
122.17
 20
239.243
 11
123.642
 21
236.714
  0
LINE
  8
0
 10
123.642
 20
236.714
 11
124.556
 21
233.933
  0
LINE
  8
0
 10
124.556
 20
233.933
 11
124.872
 21
231.023
  0
LINE
  8
0
 10
124.872
 20
231.023
 11
124.576
 21
228.112
  0
LINE
  8
0
 10
124.576
 20
228.112
 11
123.681
 21
225.325
  0
LINE
  8
0
 10
123.681
 20
225.325
 11
122.226
 21
222.785
  0
LINE
  8
0
 10
122.226
 20
222.785
 11
120.275
 21
220.604
  0
LINE
  8
0
 10
120.275
 20
220.604
 11
117.913
 21
218.876
  0
LINE
  8
0
 10
117.913
 20
218.876
 11
115.243
 21
217.676
  0
LINE
  8
0
 10
115.243
 20
217.676
 11
112.382
 21
217.058
  0
LINE
  8
0
 10
112.382
 20
217.058
 11
109.455
 21
217.048
  0
LINE
  8
0
 10
109.455
 20
217.048
 11
106.591
 21
217.647
  0
LINE
  8
0
 10
106.591
 20
217.647
 11
103.913
 21
218.828
  0
LINE
  8
0
 10
103.913
 20
218.828
 11
101.539
 21
220.541
  0
LINE
  8
0
 10
101.539
 20
220.541
 11
99.5735
 21
222.709
  0
LINE
  8
0
 10
99.5735
 20
222.709
 11
98.1016
 21
225.239
  0
LINE
  8
0
 10
98.1016
 20
225.239
 11
97.1878
 21
228.019
  0
LINE
  8
0
 10
97.1878
 20
228.019
 11
96.8721
 21
230.929
  0
LINE
  8
0
 10
110.041
 20
162.747
 11
110.337
 21
165.659
  0
LINE
  8
0
 10
110.337
 20
165.659
 11
111.232
 21
168.445
  0
LINE
  8
0
 10
111.232
 20
168.445
 11
112.687
 21
170.985
  0
LINE
  8
0
 10
112.687
 20
170.985
 11
114.638
 21
173.166
  0
LINE
  8
0
 10
114.638
 20
173.166
 11
117
 21
174.895
  0
LINE
  8
0
 10
117
 20
174.895
 11
119.67
 21
176.094
  0
LINE
  8
0
 10
119.67
 20
176.094
 11
122.53
 21
176.712
  0
LINE
  8
0
 10
122.53
 20
176.712
 11
125.457
 21
176.722
  0
LINE
  8
0
 10
125.457
 20
176.722
 11
128.322
 21
176.123
  0
LINE
  8
0
 10
128.322
 20
176.123
 11
131
 21
174.942
  0
LINE
  8
0
 10
131
 20
174.942
 11
133.373
 21
173.229
  0
LINE
  8
0
 10
133.373
 20
173.229
 11
135.339
 21
171.061
  0
LINE
  8
0
 10
135.339
 20
171.061
 11
136.811
 21
168.531
  0
LINE
  8
0
 10
136.811
 20
168.531
 11
137.725
 21
165.751
  0
LINE
  8
0
 10
137.725
 20
165.751
 11
138.04
 21
162.841
  0
LINE
  8
0
 10
138.04
 20
162.841
 11
137.744
 21
159.929
  0
LINE
  8
0
 10
137.744
 20
159.929
 11
136.849
 21
157.143
  0
LINE
  8
0
 10
136.849
 20
157.143
 11
135.394
 21
154.603
  0
LINE
  8
0
 10
135.394
 20
154.603
 11
133.443
 21
152.421
  0
LINE
  8
0
 10
133.443
 20
152.421
 11
131.081
 21
150.693
  0
LINE
  8
0
 10
131.081
 20
150.693
 11
128.412
 21
149.494
  0
LINE
  8
0
 10
128.412
 20
149.494
 11
125.551
 21
148.876
  0
LINE
  8
0
 10
125.551
 20
148.876
 11
122.624
 21
148.866
  0
LINE
  8
0
 10
122.624
 20
148.866
 11
119.759
 21
149.465
  0
LINE
  8
0
 10
119.759
 20
149.465
 11
117.081
 21
150.646
  0
LINE
  8
0
 10
117.081
 20
150.646
 11
114.708
 21
152.358
  0
LINE
  8
0
 10
114.708
 20
152.358
 11
112.742
 21
154.527
  0
LINE
  8
0
 10
112.742
 20
154.527
 11
111.27
 21
157.057
  0
LINE
  8
0
 10
111.27
 20
157.057
 11
110.356
 21
159.837
  0
LINE
  8
0
 10
110.356
 20
159.837
 11
110.041
 21
162.747
  0
LINE
  8
0
 10
110.041
 20
437.253
 11
110.356
 21
440.163
  0
LINE
  8
0
 10
110.356
 20
440.163
 11
111.27
 21
442.943
  0
LINE
  8
0
 10
111.27
 20
442.943
 11
112.742
 21
445.473
  0
LINE
  8
0
 10
112.742
 20
445.473
 11
114.708
 21
447.642
  0
LINE
  8
0
 10
114.708
 20
447.642
 11
117.081
 21
449.354
  0
LINE
  8
0
 10
117.081
 20
449.354
 11
119.759
 21
450.535
  0
LINE
  8
0
 10
119.759
 20
450.535
 11
122.624
 21
451.134
  0
LINE
  8
0
 10
122.624
 20
451.134
 11
125.551
 21
451.124
  0
LINE
  8
0
 10
125.551
 20
451.124
 11
128.412
 21
450.506
  0
LINE
  8
0
 10
128.412
 20
450.506
 11
131.081
 21
449.307
  0
LINE
  8
0
 10
131.081
 20
449.307
 11
133.443
 21
447.579
  0
LINE
  8
0
 10
133.443
 20
447.579
 11
135.394
 21
445.397
  0
LINE
  8
0
 10
135.394
 20
445.397
 11
136.849
 21
442.857
  0
LINE
  8
0
 10
136.849
 20
442.857
 11
137.744
 21
440.071
  0
LINE
  8
0
 10
137.744
 20
440.071
 11
138.04
 21
437.159
  0
LINE
  8
0
 10
138.04
 20
437.159
 11
137.725
 21
434.249
  0
LINE
  8
0
 10
137.725
 20
434.249
 11
136.811
 21
431.469
  0
LINE
  8
0
 10
136.811
 20
431.469
 11
135.339
 21
428.939
  0
LINE
  8
0
 10
135.339
 20
428.939
 11
133.373
 21
426.771
  0
LINE
  8
0
 10
133.373
 20
426.771
 11
131
 21
425.058
  0
LINE
  8
0
 10
131
 20
425.058
 11
128.322
 21
423.877
  0
LINE
  8
0
 10
128.322
 20
423.877
 11
125.457
 21
423.278
  0
LINE
  8
0
 10
125.457
 20
423.278
 11
122.53
 21
423.288
  0
LINE
  8
0
 10
122.53
 20
423.288
 11
119.67
 21
423.906
  0
LINE
  8
0
 10
119.67
 20
423.906
 11
117
 21
425.105
  0
LINE
  8
0
 10
117
 20
425.105
 11
114.638
 21
426.834
  0
LINE
  8
0
 10
114.638
 20
426.834
 11
112.687
 21
429.015
  0
LINE
  8
0
 10
112.687
 20
429.015
 11
111.232
 21
431.555
  0
LINE
  8
0
 10
111.232
 20
431.555
 11
110.337
 21
434.341
  0
LINE
  8
0
 10
110.337
 20
434.341
 11
110.041
 21
437.253
  0
LINE
  8
0
 10
122.214
 20
505.334
 11
122.53
 21
508.244
  0
LINE
  8
0
 10
122.53
 20
508.244
 11
123.444
 21
511.025
  0
LINE
  8
0
 10
123.444
 20
511.025
 11
124.916
 21
513.554
  0
LINE
  8
0
 10
124.916
 20
513.554
 11
126.881
 21
515.723
  0
LINE
  8
0
 10
126.881
 20
515.723
 11
129.255
 21
517.435
  0
LINE
  8
0
 10
129.255
 20
517.435
 11
131.933
 21
518.617
  0
LINE
  8
0
 10
131.933
 20
518.617
 11
134.798
 21
519.215
  0
LINE
  8
0
 10
134.798
 20
519.215
 11
137.724
 21
519.206
  0
LINE
  8
0
 10
137.724
 20
519.206
 11
140.585
 21
518.588
  0
LINE
  8
0
 10
140.585
 20
518.588
 11
143.255
 21
517.388
  0
LINE
  8
0
 10
143.255
 20
517.388
 11
145.617
 21
515.66
  0
LINE
  8
0
 10
145.617
 20
515.66
 11
147.568
 21
513.478
  0
LINE
  8
0
 10
147.568
 20
513.478
 11
149.023
 21
510.939
  0
LINE
  8
0
 10
149.023
 20
510.939
 11
149.918
 21
508.152
  0
LINE
  8
0
 10
149.918
 20
508.152
 11
150.214
 21
505.24
  0
LINE
  8
0
 10
150.214
 20
505.24
 11
149.898
 21
502.331
  0
LINE
  8
0
 10
149.898
 20
502.331
 11
148.985
 21
499.55
  0
LINE
  8
0
 10
148.985
 20
499.55
 11
147.513
 21
497.02
  0
LINE
  8
0
 10
147.513
 20
497.02
 11
145.547
 21
494.852
  0
LINE
  8
0
 10
145.547
 20
494.852
 11
143.173
 21
493.14
  0
LINE
  8
0
 10
143.173
 20
493.14
 11
140.496
 21
491.958
  0
LINE
  8
0
 10
140.496
 20
491.958
 11
137.631
 21
491.359
  0
LINE
  8
0
 10
137.631
 20
491.359
 11
134.704
 21
491.369
  0
LINE
  8
0
 10
134.704
 20
491.369
 11
131.843
 21
491.987
  0
LINE
  8
0
 10
131.843
 20
491.987
 11
129.174
 21
493.187
  0
LINE
  8
0
 10
129.174
 20
493.187
 11
126.812
 21
494.915
  0
LINE
  8
0
 10
126.812
 20
494.915
 11
124.86
 21
497.096
  0
LINE
  8
0
 10
124.86
 20
497.096
 11
123.406
 21
499.636
  0
LINE
  8
0
 10
123.406
 20
499.636
 11
122.511
 21
502.423
  0
LINE
  8
0
 10
122.511
 20
502.423
 11
122.214
 21
505.334
  0
LINE
  8
0
 10
125.857
 20
469.519
 11
126.173
 21
472.429
  0
LINE
  8
0
 10
126.173
 20
472.429
 11
127.087
 21
475.209
  0
LINE
  8
0
 10
127.087
 20
475.209
 11
128.558
 21
477.739
  0
LINE
  8
0
 10
128.558
 20
477.739
 11
130.524
 21
479.908
  0
LINE
  8
0
 10
130.524
 20
479.908
 11
132.898
 21
481.62
  0
LINE
  8
0
 10
132.898
 20
481.62
 11
135.575
 21
482.801
  0
LINE
  8
0
 10
135.575
 20
482.801
 11
138.44
 21
483.4
  0
LINE
  8
0
 10
138.44
 20
483.4
 11
141.367
 21
483.39
  0
LINE
  8
0
 10
141.367
 20
483.39
 11
144.228
 21
482.772
  0
LINE
  8
0
 10
144.228
 20
482.772
 11
146.898
 21
481.573
  0
LINE
  8
0
 10
146.898
 20
481.573
 11
149.26
 21
479.845
  0
LINE
  8
0
 10
149.26
 20
479.845
 11
151.211
 21
477.663
  0
LINE
  8
0
 10
151.211
 20
477.663
 11
152.666
 21
475.123
  0
LINE
  8
0
 10
152.666
 20
475.123
 11
153.561
 21
472.337
  0
LINE
  8
0
 10
153.561
 20
472.337
 11
153.857
 21
469.425
  0
LINE
  8
0
 10
153.857
 20
469.425
 11
153.541
 21
466.515
  0
LINE
  8
0
 10
153.541
 20
466.515
 11
152.627
 21
463.735
  0
LINE
  8
0
 10
152.627
 20
463.735
 11
151.155
 21
461.205
  0
LINE
  8
0
 10
151.155
 20
461.205
 11
149.19
 21
459.037
  0
LINE
  8
0
 10
149.19
 20
459.037
 11
146.816
 21
457.324
  0
LINE
  8
0
 10
146.816
 20
457.324
 11
144.138
 21
456.143
  0
LINE
  8
0
 10
144.138
 20
456.143
 11
141.274
 21
455.544
  0
LINE
  8
0
 10
141.274
 20
455.544
 11
138.347
 21
455.554
  0
LINE
  8
0
 10
138.347
 20
455.554
 11
135.486
 21
456.172
  0
LINE
  8
0
 10
135.486
 20
456.172
 11
132.816
 21
457.371
  0
LINE
  8
0
 10
132.816
 20
457.371
 11
130.454
 21
459.1
  0
LINE
  8
0
 10
130.454
 20
459.1
 11
128.503
 21
461.281
  0
LINE
  8
0
 10
128.503
 20
461.281
 11
127.048
 21
463.821
  0
LINE
  8
0
 10
127.048
 20
463.821
 11
126.153
 21
466.607
  0
LINE
  8
0
 10
126.153
 20
466.607
 11
125.857
 21
469.519
  0
LINE
  8
0
 10
132.029
 20
191.168
 11
132.325
 21
194.08
  0
LINE
  8
0
 10
132.325
 20
194.08
 11
133.22
 21
196.866
  0
LINE
  8
0
 10
133.22
 20
196.866
 11
134.675
 21
199.406
  0
LINE
  8
0
 10
134.675
 20
199.406
 11
136.626
 21
201.587
  0
LINE
  8
0
 10
136.626
 20
201.587
 11
138.988
 21
203.316
  0
LINE
  8
0
 10
138.988
 20
203.316
 11
141.658
 21
204.515
  0
LINE
  8
0
 10
141.658
 20
204.515
 11
144.519
 21
205.133
  0
LINE
  8
0
 10
144.519
 20
205.133
 11
147.446
 21
205.143
  0
LINE
  8
0
 10
147.446
 20
205.143
 11
150.311
 21
204.544
  0
LINE
  8
0
 10
150.311
 20
204.544
 11
152.988
 21
203.363
  0
LINE
  8
0
 10
152.988
 20
203.363
 11
155.362
 21
201.65
  0
LINE
  8
0
 10
155.362
 20
201.65
 11
157.328
 21
199.482
  0
LINE
  8
0
 10
157.328
 20
199.482
 11
158.8
 21
196.952
  0
LINE
  8
0
 10
158.8
 20
196.952
 11
159.713
 21
194.172
  0
LINE
  8
0
 10
159.713
 20
194.172
 11
160.029
 21
191.262
  0
LINE
  8
0
 10
160.029
 20
191.262
 11
159.733
 21
188.35
  0
LINE
  8
0
 10
159.733
 20
188.35
 11
158.838
 21
185.564
  0
LINE
  8
0
 10
158.838
 20
185.564
 11
157.383
 21
183.024
  0
LINE
  8
0
 10
157.383
 20
183.024
 11
155.432
 21
180.842
  0
LINE
  8
0
 10
155.432
 20
180.842
 11
153.07
 21
179.114
  0
LINE
  8
0
 10
153.07
 20
179.114
 11
150.4
 21
177.915
  0
LINE
  8
0
 10
150.4
 20
177.915
 11
147.539
 21
177.297
  0
LINE
  8
0
 10
147.539
 20
177.297
 11
144.613
 21
177.287
  0
LINE
  8
0
 10
144.613
 20
177.287
 11
141.748
 21
177.886
  0
LINE
  8
0
 10
141.748
 20
177.886
 11
139.07
 21
179.067
  0
LINE
  8
0
 10
139.07
 20
179.067
 11
136.696
 21
180.779
  0
LINE
  8
0
 10
136.696
 20
180.779
 11
134.731
 21
182.948
  0
LINE
  8
0
 10
134.731
 20
182.948
 11
133.259
 21
185.478
  0
LINE
  8
0
 10
133.259
 20
185.478
 11
132.345
 21
188.258
  0
LINE
  8
0
 10
132.345
 20
188.258
 11
132.029
 21
191.168
  0
LINE
  8
0
 10
135.672
 20
226.983
 11
135.968
 21
229.895
  0
LINE
  8
0
 10
135.968
 20
229.895
 11
136.863
 21
232.681
  0
LINE
  8
0
 10
136.863
 20
232.681
 11
138.318
 21
235.221
  0
LINE
  8
0
 10
138.318
 20
235.221
 11
140.269
 21
237.403
  0
LINE
  8
0
 10
140.269
 20
237.403
 11
142.631
 21
239.131
  0
LINE
  8
0
 10
142.631
 20
239.131
 11
145.301
 21
240.33
  0
LINE
  8
0
 10
145.301
 20
240.33
 11
148.162
 21
240.948
  0
LINE
  8
0
 10
148.162
 20
240.948
 11
151.088
 21
240.958
  0
LINE
  8
0
 10
151.088
 20
240.958
 11
153.953
 21
240.359
  0
LINE
  8
0
 10
153.953
 20
240.359
 11
156.631
 21
239.178
  0
LINE
  8
0
 10
156.631
 20
239.178
 11
159.005
 21
237.466
  0
LINE
  8
0
 10
159.005
 20
237.466
 11
160.97
 21
235.297
  0
LINE
  8
0
 10
160.97
 20
235.297
 11
162.442
 21
232.767
  0
LINE
  8
0
 10
162.442
 20
232.767
 11
163.356
 21
229.987
  0
LINE
  8
0
 10
163.356
 20
229.987
 11
163.672
 21
227.077
  0
LINE
  8
0
 10
163.672
 20
227.077
 11
163.376
 21
224.165
  0
LINE
  8
0
 10
163.376
 20
224.165
 11
162.481
 21
221.379
  0
LINE
  8
0
 10
162.481
 20
221.379
 11
161.026
 21
218.839
  0
LINE
  8
0
 10
161.026
 20
218.839
 11
159.075
 21
216.658
  0
LINE
  8
0
 10
159.075
 20
216.658
 11
156.713
 21
214.929
  0
LINE
  8
0
 10
156.713
 20
214.929
 11
154.043
 21
213.73
  0
LINE
  8
0
 10
154.043
 20
213.73
 11
151.182
 21
213.112
  0
LINE
  8
0
 10
151.182
 20
213.112
 11
148.255
 21
213.102
  0
LINE
  8
0
 10
148.255
 20
213.102
 11
145.39
 21
213.701
  0
LINE
  8
0
 10
145.39
 20
213.701
 11
142.713
 21
214.882
  0
LINE
  8
0
 10
142.713
 20
214.882
 11
140.339
 21
216.595
  0
LINE
  8
0
 10
140.339
 20
216.595
 11
138.373
 21
218.763
  0
LINE
  8
0
 10
138.373
 20
218.763
 11
136.901
 21
221.293
  0
LINE
  8
0
 10
136.901
 20
221.293
 11
135.988
 21
224.073
  0
LINE
  8
0
 10
135.988
 20
224.073
 11
135.672
 21
226.983
  0
LINE
  8
0
 10
148.84
 20
158.801
 11
149.137
 21
161.712
  0
LINE
  8
0
 10
149.137
 20
161.712
 11
150.032
 21
164.499
  0
LINE
  8
0
 10
150.032
 20
164.499
 11
151.487
 21
167.039
  0
LINE
  8
0
 10
151.487
 20
167.039
 11
153.438
 21
169.22
  0
LINE
  8
0
 10
153.438
 20
169.22
 11
155.8
 21
170.948
  0
LINE
  8
0
 10
155.8
 20
170.948
 11
158.469
 21
172.148
  0
LINE
  8
0
 10
158.469
 20
172.148
 11
161.33
 21
172.766
  0
LINE
  8
0
 10
161.33
 20
172.766
 11
164.257
 21
172.776
  0
LINE
  8
0
 10
164.257
 20
172.776
 11
167.122
 21
172.177
  0
LINE
  8
0
 10
167.122
 20
172.177
 11
169.8
 21
170.995
  0
LINE
  8
0
 10
169.8
 20
170.995
 11
172.173
 21
169.283
  0
LINE
  8
0
 10
172.173
 20
169.283
 11
174.139
 21
167.115
  0
LINE
  8
0
 10
174.139
 20
167.115
 11
175.611
 21
164.585
  0
LINE
  8
0
 10
175.611
 20
164.585
 11
176.525
 21
161.804
  0
LINE
  8
0
 10
176.525
 20
161.804
 11
176.84
 21
158.895
  0
LINE
  8
0
 10
176.84
 20
158.895
 11
176.544
 21
155.983
  0
LINE
  8
0
 10
176.544
 20
155.983
 11
175.649
 21
153.196
  0
LINE
  8
0
 10
175.649
 20
153.196
 11
174.194
 21
150.657
  0
LINE
  8
0
 10
174.194
 20
150.657
 11
172.243
 21
148.475
  0
LINE
  8
0
 10
172.243
 20
148.475
 11
169.881
 21
146.747
  0
LINE
  8
0
 10
169.881
 20
146.747
 11
167.211
 21
145.548
  0
LINE
  8
0
 10
167.211
 20
145.548
 11
164.351
 21
144.929
  0
LINE
  8
0
 10
164.351
 20
144.929
 11
161.424
 21
144.92
  0
LINE
  8
0
 10
161.424
 20
144.92
 11
158.559
 21
145.518
  0
LINE
  8
0
 10
158.559
 20
145.518
 11
155.881
 21
146.7
  0
LINE
  8
0
 10
155.881
 20
146.7
 11
153.508
 21
148.412
  0
LINE
  8
0
 10
153.508
 20
148.412
 11
151.542
 21
150.581
  0
LINE
  8
0
 10
151.542
 20
150.581
 11
150.07
 21
153.11
  0
LINE
  8
0
 10
150.07
 20
153.11
 11
149.156
 21
155.891
  0
LINE
  8
0
 10
149.156
 20
155.891
 11
148.84
 21
158.801
  0
LINE
  8
0
 10
148.84
 20
441.199
 11
149.156
 21
444.109
  0
LINE
  8
0
 10
149.156
 20
444.109
 11
150.07
 21
446.89
  0
LINE
  8
0
 10
150.07
 20
446.89
 11
151.542
 21
449.419
  0
LINE
  8
0
 10
151.542
 20
449.419
 11
153.508
 21
451.588
  0
LINE
  8
0
 10
153.508
 20
451.588
 11
155.881
 21
453.3
  0
LINE
  8
0
 10
155.881
 20
453.3
 11
158.559
 21
454.482
  0
LINE
  8
0
 10
158.559
 20
454.482
 11
161.424
 21
455.08
  0
LINE
  8
0
 10
161.424
 20
455.08
 11
164.351
 21
455.071
  0
LINE
  8
0
 10
164.351
 20
455.071
 11
167.211
 21
454.452
  0
LINE
  8
0
 10
167.211
 20
454.452
 11
169.881
 21
453.253
  0
LINE
  8
0
 10
169.881
 20
453.253
 11
172.243
 21
451.525
  0
LINE
  8
0
 10
172.243
 20
451.525
 11
174.194
 21
449.343
  0
LINE
  8
0
 10
174.194
 20
449.343
 11
175.649
 21
446.804
  0
LINE
  8
0
 10
175.649
 20
446.804
 11
176.544
 21
444.017
  0
LINE
  8
0
 10
176.544
 20
444.017
 11
176.84
 21
441.105
  0
LINE
  8
0
 10
176.84
 20
441.105
 11
176.525
 21
438.196
  0
LINE
  8
0
 10
176.525
 20
438.196
 11
175.611
 21
435.415
  0
LINE
  8
0
 10
175.611
 20
435.415
 11
174.139
 21
432.885
  0
LINE
  8
0
 10
174.139
 20
432.885
 11
172.173
 21
430.717
  0
LINE
  8
0
 10
172.173
 20
430.717
 11
169.8
 21
429.005
  0
LINE
  8
0
 10
169.8
 20
429.005
 11
167.122
 21
427.823
  0
LINE
  8
0
 10
167.122
 20
427.823
 11
164.257
 21
427.224
  0
LINE
  8
0
 10
164.257
 20
427.224
 11
161.33
 21
427.234
  0
LINE
  8
0
 10
161.33
 20
427.234
 11
158.469
 21
427.852
  0
LINE
  8
0
 10
158.469
 20
427.852
 11
155.8
 21
429.052
  0
LINE
  8
0
 10
155.8
 20
429.052
 11
153.438
 21
430.78
  0
LINE
  8
0
 10
153.438
 20
430.78
 11
151.487
 21
432.961
  0
LINE
  8
0
 10
151.487
 20
432.961
 11
150.032
 21
435.501
  0
LINE
  8
0
 10
150.032
 20
435.501
 11
149.137
 21
438.288
  0
LINE
  8
0
 10
149.137
 20
438.288
 11
148.84
 21
441.199
  0
LINE
  8
0
 10
295
 20
58.637
 11
295.272
 21
56.0452
  0
LINE
  8
0
 10
295.272
 20
56.0452
 11
295.915
 21
54.0679
  0
LINE
  8
0
 10
295.915
 20
54.0679
 11
296.954
 21
52.2674
  0
LINE
  8
0
 10
296.954
 20
52.2674
 11
298.345
 21
50.7224
  0
LINE
  8
0
 10
298.345
 20
50.7224
 11
300.028
 21
49.5003
  0
LINE
  8
0
 10
300.028
 20
49.5003
 11
302.149
 21
48.5556
  0
LINE
  8
0
 10
302.149
 20
48.5556
 11
303.276
 21
48.2585
  0
LINE
  8
0
 10
303.276
 20
48.2585
 11
529.131
 21
2.15616
  0
LINE
  8
0
 10
529.131
 20
2.15616
 11
531.725
 21
1.90471
  0
LINE
  8
0
 10
531.725
 20
1.90471
 11
533.791
 21
2.13873
  0
LINE
  8
0
 10
533.791
 20
2.13873
 11
535.763
 21
2.79716
  0
LINE
  8
0
 10
535.763
 20
2.79716
 11
537.555
 21
3.8512
  0
LINE
  8
0
 10
537.555
 20
3.8512
 11
539.088
 21
5.25485
  0
LINE
  8
0
 10
539.088
 20
5.25485
 11
540.297
 21
6.94658
  0
LINE
  8
0
 10
540.297
 20
6.94658
 11
541.223
 21
9.07314
  0
LINE
  8
0
 10
541.223
 20
9.07314
 11
541.515
 21
10.2213
  0
LINE
  8
0
 10
541.515
 20
10.2213
 11
547.162
 21
39.271
  0
LINE
  8
0
 10
547.162
 20
39.271
 11
547.253
 21
39.7867
  0
LINE
  8
0
 10
547.253
 20
39.7867
 11
555.361
 21
90.981
  0
LINE
  8
0
 10
555.361
 20
90.981
 11
555.434
 21
91.5004
  0
LINE
  8
0
 10
555.434
 20
91.5004
 11
561.751
 21
142.947
  0
LINE
  8
0
 10
561.751
 20
142.947
 11
561.806
 21
143.468
  0
LINE
  8
0
 10
561.806
 20
143.468
 11
566.323
 21
195.104
  0
LINE
  8
0
 10
566.323
 20
195.104
 11
566.36
 21
195.627
  0
LINE
  8
0
 10
566.36
 20
195.627
 11
569.073
 21
247.39
  0
LINE
  8
0
 10
569.073
 20
247.39
 11
569.091
 21
247.913
  0
LINE
  8
0
 10
569.091
 20
247.913
 11
569.995
 21
299.738
  0
LINE
  8
0
 10
569.995
 20
299.738
 11
569.995
 21
300.262
  0
LINE
  8
0
 10
569.995
 20
300.262
 11
569.091
 21
352.087
  0
LINE
  8
0
 10
569.091
 20
352.087
 11
569.073
 21
352.61
  0
LINE
  8
0
 10
569.073
 20
352.61
 11
566.36
 21
404.373
  0
LINE
  8
0
 10
566.36
 20
404.373
 11
566.323
 21
404.896
  0
LINE
  8
0
 10
566.323
 20
404.896
 11
561.806
 21
456.532
  0
LINE
  8
0
 10
561.806
 20
456.532
 11
561.751
 21
457.053
  0
LINE
  8
0
 10
561.751
 20
457.053
 11
555.434
 21
508.5
  0
LINE
  8
0
 10
555.434
 20
508.5
 11
555.361
 21
509.019
  0
LINE
  8
0
 10
555.361
 20
509.019
 11
547.253
 21
560.213
  0
LINE
  8
0
 10
547.253
 20
560.213
 11
547.162
 21
560.729
  0
LINE
  8
0
 10
547.162
 20
560.729
 11
541.561
 21
589.544
  0
LINE
  8
0
 10
541.561
 20
589.544
 11
540.799
 21
592.036
  0
LINE
  8
0
 10
540.799
 20
592.036
 11
539.791
 21
593.855
  0
LINE
  8
0
 10
539.791
 20
593.855
 11
538.427
 21
595.424
  0
LINE
  8
0
 10
538.427
 20
595.424
 11
536.766
 21
596.675
  0
LINE
  8
0
 10
536.766
 20
596.675
 11
534.882
 21
597.554
  0
LINE
  8
0
 10
534.882
 20
597.554
 11
532.856
 21
598.021
  0
LINE
  8
0
 10
532.856
 20
598.021
 11
530.537
 21
598.062
  0
LINE
  8
0
 10
530.537
 20
598.062
 11
529.365
 21
597.892
  0
LINE
  8
0
 10
529.365
 20
597.892
 11
303.513
 21
551.79
  0
LINE
  8
0
 10
303.513
 20
551.79
 11
301.029
 21
551.005
  0
LINE
  8
0
 10
301.029
 20
551.005
 11
299.22
 21
549.98
  0
LINE
  8
0
 10
299.22
 20
549.98
 11
297.663
 21
548.601
  0
LINE
  8
0
 10
297.663
 20
548.601
 11
296.428
 21
546.929
  0
LINE
  8
0
 10
296.428
 20
546.929
 11
295.567
 21
545.037
  0
LINE
  8
0
 10
295.567
 20
545.037
 11
295.066
 21
542.769
  0
LINE
  8
0
 10
295.066
 20
542.769
 11
295
 21
541.605
  0
LINE
  8
0
 10
295
 20
541.605
 11
295
 21
58.637
  0
LINE
  8
0
 10
324.652
 20
218.537
 11
324.652
 21
221.463
  0
LINE
  8
0
 10
324.652
 20
221.463
 11
325.26
 21
224.326
  0
LINE
  8
0
 10
325.26
 20
224.326
 11
326.451
 21
227
  0
LINE
  8
0
 10
326.451
 20
227
 11
328.171
 21
229.368
  0
LINE
  8
0
 10
328.171
 20
229.368
 11
330.346
 21
231.326
  0
LINE
  8
0
 10
330.346
 20
231.326
 11
332.881
 21
232.79
  0
LINE
  8
0
 10
332.881
 20
232.79
 11
335.664
 21
233.694
  0
LINE
  8
0
 10
335.664
 20
233.694
 11
338.575
 21
234
  0
LINE
  8
0
 10
338.575
 20
234
 11
341.486
 21
233.694
  0
LINE
  8
0
 10
341.486
 20
233.694
 11
344.269
 21
232.79
  0
LINE
  8
0
 10
344.269
 20
232.79
 11
346.804
 21
231.326
  0
LINE
  8
0
 10
346.804
 20
231.326
 11
348.979
 21
229.368
  0
LINE
  8
0
 10
348.979
 20
229.368
 11
350.699
 21
227
  0
LINE
  8
0
 10
350.699
 20
227
 11
351.89
 21
224.326
  0
LINE
  8
0
 10
351.89
 20
224.326
 11
352.498
 21
221.463
  0
LINE
  8
0
 10
352.498
 20
221.463
 11
352.498
 21
218.537
  0
LINE
  8
0
 10
352.498
 20
218.537
 11
351.89
 21
215.674
  0
LINE
  8
0
 10
351.89
 20
215.674
 11
350.699
 21
213
  0
LINE
  8
0
 10
350.699
 20
213
 11
348.979
 21
210.632
  0
LINE
  8
0
 10
348.979
 20
210.632
 11
346.804
 21
208.674
  0
LINE
  8
0
 10
346.804
 20
208.674
 11
344.269
 21
207.21
  0
LINE
  8
0
 10
344.269
 20
207.21
 11
341.486
 21
206.306
  0
LINE
  8
0
 10
341.486
 20
206.306
 11
338.575
 21
206
  0
LINE
  8
0
 10
338.575
 20
206
 11
335.664
 21
206.306
  0
LINE
  8
0
 10
335.664
 20
206.306
 11
332.881
 21
207.21
  0
LINE
  8
0
 10
332.881
 20
207.21
 11
330.346
 21
208.674
  0
LINE
  8
0
 10
330.346
 20
208.674
 11
328.171
 21
210.632
  0
LINE
  8
0
 10
328.171
 20
210.632
 11
326.451
 21
213
  0
LINE
  8
0
 10
326.451
 20
213
 11
325.26
 21
215.674
  0
LINE
  8
0
 10
325.26
 20
215.674
 11
324.652
 21
218.537
  0
LINE
  8
0
 10
324.652
 20
258.537
 11
324.652
 21
261.463
  0
LINE
  8
0
 10
324.652
 20
261.463
 11
325.26
 21
264.326
  0
LINE
  8
0
 10
325.26
 20
264.326
 11
326.451
 21
267
  0
LINE
  8
0
 10
326.451
 20
267
 11
328.171
 21
269.368
  0
LINE
  8
0
 10
328.171
 20
269.368
 11
330.346
 21
271.326
  0
LINE
  8
0
 10
330.346
 20
271.326
 11
332.881
 21
272.79
  0
LINE
  8
0
 10
332.881
 20
272.79
 11
335.664
 21
273.694
  0
LINE
  8
0
 10
335.664
 20
273.694
 11
338.575
 21
274
  0
LINE
  8
0
 10
338.575
 20
274
 11
341.486
 21
273.694
  0
LINE
  8
0
 10
341.486
 20
273.694
 11
344.269
 21
272.79
  0
LINE
  8
0
 10
344.269
 20
272.79
 11
346.804
 21
271.326
  0
LINE
  8
0
 10
346.804
 20
271.326
 11
348.979
 21
269.368
  0
LINE
  8
0
 10
348.979
 20
269.368
 11
350.699
 21
267
  0
LINE
  8
0
 10
350.699
 20
267
 11
351.89
 21
264.326
  0
LINE
  8
0
 10
351.89
 20
264.326
 11
352.498
 21
261.463
  0
LINE
  8
0
 10
352.498
 20
261.463
 11
352.498
 21
258.537
  0
LINE
  8
0
 10
352.498
 20
258.537
 11
351.89
 21
255.674
  0
LINE
  8
0
 10
351.89
 20
255.674
 11
350.699
 21
253
  0
LINE
  8
0
 10
350.699
 20
253
 11
348.979
 21
250.632
  0
LINE
  8
0
 10
348.979
 20
250.632
 11
346.804
 21
248.674
  0
LINE
  8
0
 10
346.804
 20
248.674
 11
344.269
 21
247.21
  0
LINE
  8
0
 10
344.269
 20
247.21
 11
341.486
 21
246.306
  0
LINE
  8
0
 10
341.486
 20
246.306
 11
338.575
 21
246
  0
LINE
  8
0
 10
338.575
 20
246
 11
335.664
 21
246.306
  0
LINE
  8
0
 10
335.664
 20
246.306
 11
332.881
 21
247.21
  0
LINE
  8
0
 10
332.881
 20
247.21
 11
330.346
 21
248.674
  0
LINE
  8
0
 10
330.346
 20
248.674
 11
328.171
 21
250.632
  0
LINE
  8
0
 10
328.171
 20
250.632
 11
326.451
 21
253
  0
LINE
  8
0
 10
326.451
 20
253
 11
325.26
 21
255.674
  0
LINE
  8
0
 10
325.26
 20
255.674
 11
324.652
 21
258.537
  0
LINE
  8
0
 10
324.652
 20
338.537
 11
324.652
 21
341.463
  0
LINE
  8
0
 10
324.652
 20
341.463
 11
325.26
 21
344.326
  0
LINE
  8
0
 10
325.26
 20
344.326
 11
326.451
 21
347
  0
LINE
  8
0
 10
326.451
 20
347
 11
328.171
 21
349.368
  0
LINE
  8
0
 10
328.171
 20
349.368
 11
330.346
 21
351.326
  0
LINE
  8
0
 10
330.346
 20
351.326
 11
332.881
 21
352.79
  0
LINE
  8
0
 10
332.881
 20
352.79
 11
335.664
 21
353.694
  0
LINE
  8
0
 10
335.664
 20
353.694
 11
338.575
 21
354
  0
LINE
  8
0
 10
338.575
 20
354
 11
341.486
 21
353.694
  0
LINE
  8
0
 10
341.486
 20
353.694
 11
344.269
 21
352.79
  0
LINE
  8
0
 10
344.269
 20
352.79
 11
346.804
 21
351.326
  0
LINE
  8
0
 10
346.804
 20
351.326
 11
348.979
 21
349.368
  0
LINE
  8
0
 10
348.979
 20
349.368
 11
350.699
 21
347
  0
LINE
  8
0
 10
350.699
 20
347
 11
351.89
 21
344.326
  0
LINE
  8
0
 10
351.89
 20
344.326
 11
352.498
 21
341.463
  0
LINE
  8
0
 10
352.498
 20
341.463
 11
352.498
 21
338.537
  0
LINE
  8
0
 10
352.498
 20
338.537
 11
351.89
 21
335.674
  0
LINE
  8
0
 10
351.89
 20
335.674
 11
350.699
 21
333
  0
LINE
  8
0
 10
350.699
 20
333
 11
348.979
 21
330.632
  0
LINE
  8
0
 10
348.979
 20
330.632
 11
346.804
 21
328.674
  0
LINE
  8
0
 10
346.804
 20
328.674
 11
344.269
 21
327.21
  0
LINE
  8
0
 10
344.269
 20
327.21
 11
341.486
 21
326.306
  0
LINE
  8
0
 10
341.486
 20
326.306
 11
338.575
 21
326
  0
LINE
  8
0
 10
338.575
 20
326
 11
335.664
 21
326.306
  0
LINE
  8
0
 10
335.664
 20
326.306
 11
332.881
 21
327.21
  0
LINE
  8
0
 10
332.881
 20
327.21
 11
330.346
 21
328.674
  0
LINE
  8
0
 10
330.346
 20
328.674
 11
328.171
 21
330.632
  0
LINE
  8
0
 10
328.171
 20
330.632
 11
326.451
 21
333
  0
LINE
  8
0
 10
326.451
 20
333
 11
325.26
 21
335.674
  0
LINE
  8
0
 10
325.26
 20
335.674
 11
324.652
 21
338.537
  0
LINE
  8
0
 10
324.652
 20
378.537
 11
324.652
 21
381.463
  0
LINE
  8
0
 10
324.652
 20
381.463
 11
325.26
 21
384.326
  0
LINE
  8
0
 10
325.26
 20
384.326
 11
326.451
 21
387
  0
LINE
  8
0
 10
326.451
 20
387
 11
328.171
 21
389.368
  0
LINE
  8
0
 10
328.171
 20
389.368
 11
330.346
 21
391.326
  0
LINE
  8
0
 10
330.346
 20
391.326
 11
332.881
 21
392.79
  0
LINE
  8
0
 10
332.881
 20
392.79
 11
335.664
 21
393.694
  0
LINE
  8
0
 10
335.664
 20
393.694
 11
338.575
 21
394
  0
LINE
  8
0
 10
338.575
 20
394
 11
341.486
 21
393.694
  0
LINE
  8
0
 10
341.486
 20
393.694
 11
344.269
 21
392.79
  0
LINE
  8
0
 10
344.269
 20
392.79
 11
346.804
 21
391.326
  0
LINE
  8
0
 10
346.804
 20
391.326
 11
348.979
 21
389.368
  0
LINE
  8
0
 10
348.979
 20
389.368
 11
350.699
 21
387
  0
LINE
  8
0
 10
350.699
 20
387
 11
351.89
 21
384.326
  0
LINE
  8
0
 10
351.89
 20
384.326
 11
352.498
 21
381.463
  0
LINE
  8
0
 10
352.498
 20
381.463
 11
352.498
 21
378.537
  0
LINE
  8
0
 10
352.498
 20
378.537
 11
351.89
 21
375.674
  0
LINE
  8
0
 10
351.89
 20
375.674
 11
350.699
 21
373
  0
LINE
  8
0
 10
350.699
 20
373
 11
348.979
 21
370.632
  0
LINE
  8
0
 10
348.979
 20
370.632
 11
346.804
 21
368.674
  0
LINE
  8
0
 10
346.804
 20
368.674
 11
344.269
 21
367.21
  0
LINE
  8
0
 10
344.269
 20
367.21
 11
341.486
 21
366.306
  0
LINE
  8
0
 10
341.486
 20
366.306
 11
338.575
 21
366
  0
LINE
  8
0
 10
338.575
 20
366
 11
335.664
 21
366.306
  0
LINE
  8
0
 10
335.664
 20
366.306
 11
332.881
 21
367.21
  0
LINE
  8
0
 10
332.881
 20
367.21
 11
330.346
 21
368.674
  0
LINE
  8
0
 10
330.346
 20
368.674
 11
328.171
 21
370.632
  0
LINE
  8
0
 10
328.171
 20
370.632
 11
326.451
 21
373
  0
LINE
  8
0
 10
326.451
 20
373
 11
325.26
 21
375.674
  0
LINE
  8
0
 10
325.26
 20
375.674
 11
324.652
 21
378.537
  0
LINE
  8
0
 10
378.415
 20
501.388
 11
378.73
 21
504.298
  0
LINE
  8
0
 10
378.73
 20
504.298
 11
379.644
 21
507.078
  0
LINE
  8
0
 10
379.644
 20
507.078
 11
381.116
 21
509.608
  0
LINE
  8
0
 10
381.116
 20
509.608
 11
383.082
 21
511.777
  0
LINE
  8
0
 10
383.082
 20
511.777
 11
385.455
 21
513.489
  0
LINE
  8
0
 10
385.455
 20
513.489
 11
388.133
 21
514.67
  0
LINE
  8
0
 10
388.133
 20
514.67
 11
390.998
 21
515.269
  0
LINE
  8
0
 10
390.998
 20
515.269
 11
393.925
 21
515.259
  0
LINE
  8
0
 10
393.925
 20
515.259
 11
396.785
 21
514.641
  0
LINE
  8
0
 10
396.785
 20
514.641
 11
399.455
 21
513.442
  0
LINE
  8
0
 10
399.455
 20
513.442
 11
401.817
 21
511.714
  0
LINE
  8
0
 10
401.817
 20
511.714
 11
403.768
 21
509.532
  0
LINE
  8
0
 10
403.768
 20
509.532
 11
405.223
 21
506.992
  0
LINE
  8
0
 10
405.223
 20
506.992
 11
406.118
 21
504.206
  0
LINE
  8
0
 10
406.118
 20
504.206
 11
406.414
 21
501.294
  0
LINE
  8
0
 10
406.414
 20
501.294
 11
406.099
 21
498.384
  0
LINE
  8
0
 10
406.099
 20
498.384
 11
405.185
 21
495.604
  0
LINE
  8
0
 10
405.185
 20
495.604
 11
403.713
 21
493.074
  0
LINE
  8
0
 10
403.713
 20
493.074
 11
401.747
 21
490.906
  0
LINE
  8
0
 10
401.747
 20
490.906
 11
399.374
 21
489.193
  0
LINE
  8
0
 10
399.374
 20
489.193
 11
396.696
 21
488.012
  0
LINE
  8
0
 10
396.696
 20
488.012
 11
393.831
 21
487.413
  0
LINE
  8
0
 10
393.831
 20
487.413
 11
390.904
 21
487.423
  0
LINE
  8
0
 10
390.904
 20
487.423
 11
388.043
 21
488.041
  0
LINE
  8
0
 10
388.043
 20
488.041
 11
385.374
 21
489.24
  0
LINE
  8
0
 10
385.374
 20
489.24
 11
383.012
 21
490.969
  0
LINE
  8
0
 10
383.012
 20
490.969
 11
381.061
 21
493.15
  0
LINE
  8
0
 10
381.061
 20
493.15
 11
379.606
 21
495.69
  0
LINE
  8
0
 10
379.606
 20
495.69
 11
378.711
 21
498.476
  0
LINE
  8
0
 10
378.711
 20
498.476
 11
378.415
 21
501.388
  0
LINE
  8
0
 10
382.057
 20
465.573
 11
382.373
 21
468.483
  0
LINE
  8
0
 10
382.373
 20
468.483
 11
383.287
 21
471.263
  0
LINE
  8
0
 10
383.287
 20
471.263
 11
384.759
 21
473.793
  0
LINE
  8
0
 10
384.759
 20
473.793
 11
386.724
 21
475.961
  0
LINE
  8
0
 10
386.724
 20
475.961
 11
389.098
 21
477.674
  0
LINE
  8
0
 10
389.098
 20
477.674
 11
391.776
 21
478.855
  0
LINE
  8
0
 10
391.776
 20
478.855
 11
394.641
 21
479.454
  0
LINE
  8
0
 10
394.641
 20
479.454
 11
397.567
 21
479.444
  0
LINE
  8
0
 10
397.567
 20
479.444
 11
400.428
 21
478.826
  0
LINE
  8
0
 10
400.428
 20
478.826
 11
403.098
 21
477.627
  0
LINE
  8
0
 10
403.098
 20
477.627
 11
405.46
 21
475.898
  0
LINE
  8
0
 10
405.46
 20
475.898
 11
407.411
 21
473.717
  0
LINE
  8
0
 10
407.411
 20
473.717
 11
408.866
 21
471.177
  0
LINE
  8
0
 10
408.866
 20
471.177
 11
409.761
 21
468.391
  0
LINE
  8
0
 10
409.761
 20
468.391
 11
410.057
 21
465.479
  0
LINE
  8
0
 10
410.057
 20
465.479
 11
409.741
 21
462.569
  0
LINE
  8
0
 10
409.741
 20
462.569
 11
408.828
 21
459.789
  0
LINE
  8
0
 10
408.828
 20
459.789
 11
407.356
 21
457.259
  0
LINE
  8
0
 10
407.356
 20
457.259
 11
405.39
 21
455.09
  0
LINE
  8
0
 10
405.39
 20
455.09
 11
403.016
 21
453.378
  0
LINE
  8
0
 10
403.016
 20
453.378
 11
400.339
 21
452.197
  0
LINE
  8
0
 10
400.339
 20
452.197
 11
397.474
 21
451.598
  0
LINE
  8
0
 10
397.474
 20
451.598
 11
394.547
 21
451.608
  0
LINE
  8
0
 10
394.547
 20
451.608
 11
391.686
 21
452.226
  0
LINE
  8
0
 10
391.686
 20
452.226
 11
389.016
 21
453.425
  0
LINE
  8
0
 10
389.016
 20
453.425
 11
386.654
 21
455.153
  0
LINE
  8
0
 10
386.654
 20
455.153
 11
384.703
 21
457.335
  0
LINE
  8
0
 10
384.703
 20
457.335
 11
383.248
 21
459.875
  0
LINE
  8
0
 10
383.248
 20
459.875
 11
382.353
 21
462.661
  0
LINE
  8
0
 10
382.353
 20
462.661
 11
382.057
 21
465.573
  0
LINE
  8
0
 10
387.063
 20
85.0757
 11
388.277
 21
86.3161
  0
LINE
  8
0
 10
388.277
 20
86.3161
 11
390.003
 21
86.1405
  0
LINE
  8
0
 10
390.003
 20
86.1405
 11
390.942
 21
84.6811
  0
LINE
  8
0
 10
390.942
 20
84.6811
 11
390.387
 21
83.0368
  0
LINE
  8
0
 10
390.387
 20
83.0368
 11
388.755
 21
82.4459
  0
LINE
  8
0
 10
388.755
 20
82.4459
 11
387.276
 21
83.3533
  0
LINE
  8
0
 10
387.276
 20
83.3533
 11
387.063
 21
85.0757
  0
LINE
  8
0
 10
388.229
 20
195.114
 11
388.526
 21
198.026
  0
LINE
  8
0
 10
388.526
 20
198.026
 11
389.421
 21
200.812
  0
LINE
  8
0
 10
389.421
 20
200.812
 11
390.876
 21
203.352
  0
LINE
  8
0
 10
390.876
 20
203.352
 11
392.827
 21
205.533
  0
LINE
  8
0
 10
392.827
 20
205.533
 11
395.189
 21
207.262
  0
LINE
  8
0
 10
395.189
 20
207.262
 11
397.858
 21
208.461
  0
LINE
  8
0
 10
397.858
 20
208.461
 11
400.719
 21
209.079
  0
LINE
  8
0
 10
400.719
 20
209.079
 11
403.646
 21
209.089
  0
LINE
  8
0
 10
403.646
 20
209.089
 11
406.511
 21
208.49
  0
LINE
  8
0
 10
406.511
 20
208.49
 11
409.189
 21
207.309
  0
LINE
  8
0
 10
409.189
 20
207.309
 11
411.562
 21
205.596
  0
LINE
  8
0
 10
411.562
 20
205.596
 11
413.528
 21
203.428
  0
LINE
  8
0
 10
413.528
 20
203.428
 11
415
 21
200.898
  0
LINE
  8
0
 10
415
 20
200.898
 11
415.914
 21
198.118
  0
LINE
  8
0
 10
415.914
 20
198.118
 11
416.229
 21
195.208
  0
LINE
  8
0
 10
416.229
 20
195.208
 11
415.933
 21
192.296
  0
LINE
  8
0
 10
415.933
 20
192.296
 11
415.038
 21
189.51
  0
LINE
  8
0
 10
415.038
 20
189.51
 11
413.583
 21
186.97
  0
LINE
  8
0
 10
413.583
 20
186.97
 11
411.632
 21
184.789
  0
LINE
  8
0
 10
411.632
 20
184.789
 11
409.27
 21
183.06
  0
LINE
  8
0
 10
409.27
 20
183.06
 11
406.6
 21
181.861
  0
LINE
  8
0
 10
406.6
 20
181.861
 11
403.74
 21
181.243
  0
LINE
  8
0
 10
403.74
 20
181.243
 11
400.813
 21
181.233
  0
LINE
  8
0
 10
400.813
 20
181.233
 11
397.948
 21
181.832
  0
LINE
  8
0
 10
397.948
 20
181.832
 11
395.27
 21
183.013
  0
LINE
  8
0
 10
395.27
 20
183.013
 11
392.897
 21
184.726
  0
LINE
  8
0
 10
392.897
 20
184.726
 11
390.931
 21
186.894
  0
LINE
  8
0
 10
390.931
 20
186.894
 11
389.459
 21
189.424
  0
LINE
  8
0
 10
389.459
 20
189.424
 11
388.545
 21
192.204
  0
LINE
  8
0
 10
388.545
 20
192.204
 11
388.229
 21
195.114
  0
LINE
  8
0
 10
388.924
 20
93.9881
 11
391.454
 21
118.86
  0
LINE
  8
0
 10
391.454
 20
118.86
 11
403.392
 21
117.646
  0
LINE
  8
0
 10
403.392
 20
117.646
 11
405.416
 21
137.543
  0
LINE
  8
0
 10
405.416
 20
137.543
 11
465.108
 21
131.472
  0
LINE
  8
0
 10
465.108
 20
131.472
 11
463.084
 21
111.574
  0
LINE
  8
0
 10
463.084
 20
111.574
 11
475.022
 21
110.36
  0
LINE
  8
0
 10
475.022
 20
110.36
 11
472.493
 21
85.4886
  0
LINE
  8
0
 10
472.493
 20
85.4886
 11
460.554
 21
86.7028
  0
LINE
  8
0
 10
460.554
 20
86.7028
 11
458.531
 21
66.8054
  0
LINE
  8
0
 10
458.531
 20
66.8054
 11
398.839
 21
72.8765
  0
LINE
  8
0
 10
398.839
 20
72.8765
 11
400.862
 21
92.7739
  0
LINE
  8
0
 10
400.862
 20
92.7739
 11
388.924
 21
93.9881
  0
LINE
  8
0
 10
391.425
 20
127.964
 11
391.98
 21
129.609
  0
LINE
  8
0
 10
391.98
 20
129.609
 11
393.612
 21
130.2
  0
LINE
  8
0
 10
393.612
 20
130.2
 11
395.091
 21
129.292
  0
LINE
  8
0
 10
395.091
 20
129.292
 11
395.304
 21
127.57
  0
LINE
  8
0
 10
395.304
 20
127.57
 11
394.091
 21
126.329
  0
LINE
  8
0
 10
394.091
 20
126.329
 11
392.364
 21
126.505
  0
LINE
  8
0
 10
392.364
 20
126.505
 11
391.425
 21
127.964
  0
LINE
  8
0
 10
391.872
 20
230.929
 11
392.168
 21
233.841
  0
LINE
  8
0
 10
392.168
 20
233.841
 11
393.063
 21
236.628
  0
LINE
  8
0
 10
393.063
 20
236.628
 11
394.518
 21
239.167
  0
LINE
  8
0
 10
394.518
 20
239.167
 11
396.469
 21
241.349
  0
LINE
  8
0
 10
396.469
 20
241.349
 11
398.831
 21
243.077
  0
LINE
  8
0
 10
398.831
 20
243.077
 11
401.501
 21
244.276
  0
LINE
  8
0
 10
401.501
 20
244.276
 11
404.362
 21
244.895
  0
LINE
  8
0
 10
404.362
 20
244.895
 11
407.289
 21
244.904
  0
LINE
  8
0
 10
407.289
 20
244.904
 11
410.153
 21
244.306
  0
LINE
  8
0
 10
410.153
 20
244.306
 11
412.831
 21
243.124
  0
LINE
  8
0
 10
412.831
 20
243.124
 11
415.205
 21
241.412
  0
LINE
  8
0
 10
415.205
 20
241.412
 11
417.17
 21
239.243
  0
LINE
  8
0
 10
417.17
 20
239.243
 11
418.642
 21
236.714
  0
LINE
  8
0
 10
418.642
 20
236.714
 11
419.556
 21
233.933
  0
LINE
  8
0
 10
419.556
 20
233.933
 11
419.872
 21
231.023
  0
LINE
  8
0
 10
419.872
 20
231.023
 11
419.576
 21
228.112
  0
LINE
  8
0
 10
419.576
 20
228.112
 11
418.681
 21
225.325
  0
LINE
  8
0
 10
418.681
 20
225.325
 11
417.226
 21
222.785
  0
LINE
  8
0
 10
417.226
 20
222.785
 11
415.275
 21
220.604
  0
LINE
  8
0
 10
415.275
 20
220.604
 11
412.913
 21
218.876
  0
LINE
  8
0
 10
412.913
 20
218.876
 11
410.243
 21
217.676
  0
LINE
  8
0
 10
410.243
 20
217.676
 11
407.382
 21
217.058
  0
LINE
  8
0
 10
407.382
 20
217.058
 11
404.455
 21
217.048
  0
LINE
  8
0
 10
404.455
 20
217.048
 11
401.591
 21
217.647
  0
LINE
  8
0
 10
401.591
 20
217.647
 11
398.913
 21
218.828
  0
LINE
  8
0
 10
398.913
 20
218.828
 11
396.539
 21
220.541
  0
LINE
  8
0
 10
396.539
 20
220.541
 11
394.573
 21
222.709
  0
LINE
  8
0
 10
394.573
 20
222.709
 11
393.102
 21
225.239
  0
LINE
  8
0
 10
393.102
 20
225.239
 11
392.188
 21
228.019
  0
LINE
  8
0
 10
392.188
 20
228.019
 11
391.872
 21
230.929
  0
LINE
  8
0
 10
399.002
 20
397.53
 11
399.216
 21
399.252
  0
LINE
  8
0
 10
399.216
 20
399.252
 11
400.695
 21
400.16
  0
LINE
  8
0
 10
400.695
 20
400.16
 11
402.327
 21
399.569
  0
LINE
  8
0
 10
402.327
 20
399.569
 11
402.882
 21
397.925
  0
LINE
  8
0
 10
402.882
 20
397.925
 11
401.943
 21
396.465
  0
LINE
  8
0
 10
401.943
 20
396.465
 11
400.216
 21
396.289
  0
LINE
  8
0
 10
400.216
 20
396.289
 11
399.002
 21
397.53
  0
LINE
  8
0
 10
400.864
 20
388.618
 11
412.802
 21
389.832
  0
LINE
  8
0
 10
412.802
 20
389.832
 11
410.778
 21
409.729
  0
LINE
  8
0
 10
410.778
 20
409.729
 11
470.47
 21
415.8
  0
LINE
  8
0
 10
470.47
 20
415.8
 11
472.494
 21
395.903
  0
LINE
  8
0
 10
472.494
 20
395.903
 11
484.433
 21
397.117
  0
LINE
  8
0
 10
484.433
 20
397.117
 11
486.962
 21
372.245
  0
LINE
  8
0
 10
486.962
 20
372.245
 11
475.024
 21
371.031
  0
LINE
  8
0
 10
475.024
 20
371.031
 11
477.047
 21
351.134
  0
LINE
  8
0
 10
477.047
 20
351.134
 11
417.355
 21
345.063
  0
LINE
  8
0
 10
417.355
 20
345.063
 11
415.332
 21
364.96
  0
LINE
  8
0
 10
415.332
 20
364.96
 11
403.393
 21
363.746
  0
LINE
  8
0
 10
403.393
 20
363.746
 11
400.864
 21
388.618
  0
LINE
  8
0
 10
403.365
 20
354.641
 11
404.304
 21
356.101
  0
LINE
  8
0
 10
404.304
 20
356.101
 11
406.03
 21
356.276
  0
LINE
  8
0
 10
406.03
 20
356.276
 11
407.244
 21
355.036
  0
LINE
  8
0
 10
407.244
 20
355.036
 11
407.031
 21
353.313
  0
LINE
  8
0
 10
407.031
 20
353.313
 11
405.552
 21
352.406
  0
LINE
  8
0
 10
405.552
 20
352.406
 11
403.92
 21
352.997
  0
LINE
  8
0
 10
403.92
 20
352.997
 11
403.365
 21
354.641
  0
LINE
  8
0
 10
405.041
 20
162.747
 11
405.337
 21
165.659
  0
LINE
  8
0
 10
405.337
 20
165.659
 11
406.232
 21
168.445
  0
LINE
  8
0
 10
406.232
 20
168.445
 11
407.687
 21
170.985
  0
LINE
  8
0
 10
407.687
 20
170.985
 11
409.638
 21
173.166
  0
LINE
  8
0
 10
409.638
 20
173.166
 11
412
 21
174.895
  0
LINE
  8
0
 10
412
 20
174.895
 11
414.67
 21
176.094
  0
LINE
  8
0
 10
414.67
 20
176.094
 11
417.53
 21
176.712
  0
LINE
  8
0
 10
417.53
 20
176.712
 11
420.457
 21
176.722
  0
LINE
  8
0
 10
420.457
 20
176.722
 11
423.322
 21
176.123
  0
LINE
  8
0
 10
423.322
 20
176.123
 11
426
 21
174.942
  0
LINE
  8
0
 10
426
 20
174.942
 11
428.373
 21
173.229
  0
LINE
  8
0
 10
428.373
 20
173.229
 11
430.339
 21
171.061
  0
LINE
  8
0
 10
430.339
 20
171.061
 11
431.811
 21
168.531
  0
LINE
  8
0
 10
431.811
 20
168.531
 11
432.725
 21
165.751
  0
LINE
  8
0
 10
432.725
 20
165.751
 11
433.04
 21
162.841
  0
LINE
  8
0
 10
433.04
 20
162.841
 11
432.744
 21
159.929
  0
LINE
  8
0
 10
432.744
 20
159.929
 11
431.849
 21
157.143
  0
LINE
  8
0
 10
431.849
 20
157.143
 11
430.394
 21
154.603
  0
LINE
  8
0
 10
430.394
 20
154.603
 11
428.443
 21
152.421
  0
LINE
  8
0
 10
428.443
 20
152.421
 11
426.081
 21
150.693
  0
LINE
  8
0
 10
426.081
 20
150.693
 11
423.412
 21
149.494
  0
LINE
  8
0
 10
423.412
 20
149.494
 11
420.551
 21
148.876
  0
LINE
  8
0
 10
420.551
 20
148.876
 11
417.624
 21
148.866
  0
LINE
  8
0
 10
417.624
 20
148.866
 11
414.759
 21
149.465
  0
LINE
  8
0
 10
414.759
 20
149.465
 11
412.081
 21
150.646
  0
LINE
  8
0
 10
412.081
 20
150.646
 11
409.708
 21
152.358
  0
LINE
  8
0
 10
409.708
 20
152.358
 11
407.742
 21
154.527
  0
LINE
  8
0
 10
407.742
 20
154.527
 11
406.27
 21
157.057
  0
LINE
  8
0
 10
406.27
 20
157.057
 11
405.356
 21
159.837
  0
LINE
  8
0
 10
405.356
 20
159.837
 11
405.041
 21
162.747
  0
LINE
  8
0
 10
405.041
 20
437.253
 11
405.356
 21
440.163
  0
LINE
  8
0
 10
405.356
 20
440.163
 11
406.27
 21
442.943
  0
LINE
  8
0
 10
406.27
 20
442.943
 11
407.742
 21
445.473
  0
LINE
  8
0
 10
407.742
 20
445.473
 11
409.708
 21
447.642
  0
LINE
  8
0
 10
409.708
 20
447.642
 11
412.081
 21
449.354
  0
LINE
  8
0
 10
412.081
 20
449.354
 11
414.759
 21
450.535
  0
LINE
  8
0
 10
414.759
 20
450.535
 11
417.624
 21
451.134
  0
LINE
  8
0
 10
417.624
 20
451.134
 11
420.551
 21
451.124
  0
LINE
  8
0
 10
420.551
 20
451.124
 11
423.412
 21
450.506
  0
LINE
  8
0
 10
423.412
 20
450.506
 11
426.081
 21
449.307
  0
LINE
  8
0
 10
426.081
 20
449.307
 11
428.443
 21
447.579
  0
LINE
  8
0
 10
428.443
 20
447.579
 11
430.394
 21
445.397
  0
LINE
  8
0
 10
430.394
 20
445.397
 11
431.849
 21
442.857
  0
LINE
  8
0
 10
431.849
 20
442.857
 11
432.744
 21
440.071
  0
LINE
  8
0
 10
432.744
 20
440.071
 11
433.04
 21
437.159
  0
LINE
  8
0
 10
433.04
 20
437.159
 11
432.725
 21
434.249
  0
LINE
  8
0
 10
432.725
 20
434.249
 11
431.811
 21
431.469
  0
LINE
  8
0
 10
431.811
 20
431.469
 11
430.339
 21
428.939
  0
LINE
  8
0
 10
430.339
 20
428.939
 11
428.373
 21
426.771
  0
LINE
  8
0
 10
428.373
 20
426.771
 11
426
 21
425.058
  0
LINE
  8
0
 10
426
 20
425.058
 11
423.322
 21
423.877
  0
LINE
  8
0
 10
423.322
 20
423.877
 11
420.457
 21
423.278
  0
LINE
  8
0
 10
420.457
 20
423.278
 11
417.53
 21
423.288
  0
LINE
  8
0
 10
417.53
 20
423.288
 11
414.67
 21
423.906
  0
LINE
  8
0
 10
414.67
 20
423.906
 11
412
 21
425.105
  0
LINE
  8
0
 10
412
 20
425.105
 11
409.638
 21
426.834
  0
LINE
  8
0
 10
409.638
 20
426.834
 11
407.687
 21
429.015
  0
LINE
  8
0
 10
407.687
 20
429.015
 11
406.232
 21
431.555
  0
LINE
  8
0
 10
406.232
 20
431.555
 11
405.337
 21
434.341
  0
LINE
  8
0
 10
405.337
 20
434.341
 11
405.041
 21
437.253
  0
LINE
  8
0
 10
417.214
 20
505.334
 11
417.53
 21
508.244
  0
LINE
  8
0
 10
417.53
 20
508.244
 11
418.444
 21
511.025
  0
LINE
  8
0
 10
418.444
 20
511.025
 11
419.916
 21
513.554
  0
LINE
  8
0
 10
419.916
 20
513.554
 11
421.881
 21
515.723
  0
LINE
  8
0
 10
421.881
 20
515.723
 11
424.255
 21
517.435
  0
LINE
  8
0
 10
424.255
 20
517.435
 11
426.933
 21
518.617
  0
LINE
  8
0
 10
426.933
 20
518.617
 11
429.798
 21
519.215
  0
LINE
  8
0
 10
429.798
 20
519.215
 11
432.724
 21
519.206
  0
LINE
  8
0
 10
432.724
 20
519.206
 11
435.585
 21
518.588
  0
LINE
  8
0
 10
435.585
 20
518.588
 11
438.255
 21
517.388
  0
LINE
  8
0
 10
438.255
 20
517.388
 11
440.617
 21
515.66
  0
LINE
  8
0
 10
440.617
 20
515.66
 11
442.568
 21
513.478
  0
LINE
  8
0
 10
442.568
 20
513.478
 11
444.023
 21
510.939
  0
LINE
  8
0
 10
444.023
 20
510.939
 11
444.918
 21
508.152
  0
LINE
  8
0
 10
444.918
 20
508.152
 11
445.214
 21
505.24
  0
LINE
  8
0
 10
445.214
 20
505.24
 11
444.898
 21
502.331
  0
LINE
  8
0
 10
444.898
 20
502.331
 11
443.985
 21
499.55
  0
LINE
  8
0
 10
443.985
 20
499.55
 11
442.513
 21
497.02
  0
LINE
  8
0
 10
442.513
 20
497.02
 11
440.547
 21
494.852
  0
LINE
  8
0
 10
440.547
 20
494.852
 11
438.173
 21
493.14
  0
LINE
  8
0
 10
438.173
 20
493.14
 11
435.496
 21
491.958
  0
LINE
  8
0
 10
435.496
 20
491.958
 11
432.631
 21
491.359
  0
LINE
  8
0
 10
432.631
 20
491.359
 11
429.704
 21
491.369
  0
LINE
  8
0
 10
429.704
 20
491.369
 11
426.843
 21
491.987
  0
LINE
  8
0
 10
426.843
 20
491.987
 11
424.174
 21
493.187
  0
LINE
  8
0
 10
424.174
 20
493.187
 11
421.812
 21
494.915
  0
LINE
  8
0
 10
421.812
 20
494.915
 11
419.86
 21
497.096
  0
LINE
  8
0
 10
419.86
 20
497.096
 11
418.406
 21
499.636
  0
LINE
  8
0
 10
418.406
 20
499.636
 11
417.511
 21
502.423
  0
LINE
  8
0
 10
417.511
 20
502.423
 11
417.214
 21
505.334
  0
LINE
  8
0
 10
420.857
 20
469.519
 11
421.173
 21
472.429
  0
LINE
  8
0
 10
421.173
 20
472.429
 11
422.087
 21
475.209
  0
LINE
  8
0
 10
422.087
 20
475.209
 11
423.558
 21
477.739
  0
LINE
  8
0
 10
423.558
 20
477.739
 11
425.524
 21
479.908
  0
LINE
  8
0
 10
425.524
 20
479.908
 11
427.898
 21
481.62
  0
LINE
  8
0
 10
427.898
 20
481.62
 11
430.575
 21
482.801
  0
LINE
  8
0
 10
430.575
 20
482.801
 11
433.44
 21
483.4
  0
LINE
  8
0
 10
433.44
 20
483.4
 11
436.367
 21
483.39
  0
LINE
  8
0
 10
436.367
 20
483.39
 11
439.228
 21
482.772
  0
LINE
  8
0
 10
439.228
 20
482.772
 11
441.898
 21
481.573
  0
LINE
  8
0
 10
441.898
 20
481.573
 11
444.26
 21
479.845
  0
LINE
  8
0
 10
444.26
 20
479.845
 11
446.211
 21
477.663
  0
LINE
  8
0
 10
446.211
 20
477.663
 11
447.666
 21
475.123
  0
LINE
  8
0
 10
447.666
 20
475.123
 11
448.561
 21
472.337
  0
LINE
  8
0
 10
448.561
 20
472.337
 11
448.857
 21
469.425
  0
LINE
  8
0
 10
448.857
 20
469.425
 11
448.541
 21
466.515
  0
LINE
  8
0
 10
448.541
 20
466.515
 11
447.627
 21
463.735
  0
LINE
  8
0
 10
447.627
 20
463.735
 11
446.155
 21
461.205
  0
LINE
  8
0
 10
446.155
 20
461.205
 11
444.19
 21
459.037
  0
LINE
  8
0
 10
444.19
 20
459.037
 11
441.816
 21
457.324
  0
LINE
  8
0
 10
441.816
 20
457.324
 11
439.138
 21
456.143
  0
LINE
  8
0
 10
439.138
 20
456.143
 11
436.274
 21
455.544
  0
LINE
  8
0
 10
436.274
 20
455.544
 11
433.347
 21
455.554
  0
LINE
  8
0
 10
433.347
 20
455.554
 11
430.486
 21
456.172
  0
LINE
  8
0
 10
430.486
 20
456.172
 11
427.816
 21
457.371
  0
LINE
  8
0
 10
427.816
 20
457.371
 11
425.454
 21
459.1
  0
LINE
  8
0
 10
425.454
 20
459.1
 11
423.503
 21
461.281
  0
LINE
  8
0
 10
423.503
 20
461.281
 11
422.048
 21
463.821
  0
LINE
  8
0
 10
422.048
 20
463.821
 11
421.153
 21
466.607
  0
LINE
  8
0
 10
421.153
 20
466.607
 11
420.857
 21
469.519
  0
LINE
  8
0
 10
427.029
 20
191.168
 11
427.325
 21
194.08
  0
LINE
  8
0
 10
427.325
 20
194.08
 11
428.22
 21
196.866
  0
LINE
  8
0
 10
428.22
 20
196.866
 11
429.675
 21
199.406
  0
LINE
  8
0
 10
429.675
 20
199.406
 11
431.626
 21
201.587
  0
LINE
  8
0
 10
431.626
 20
201.587
 11
433.988
 21
203.316
  0
LINE
  8
0
 10
433.988
 20
203.316
 11
436.658
 21
204.515
  0
LINE
  8
0
 10
436.658
 20
204.515
 11
439.519
 21
205.133
  0
LINE
  8
0
 10
439.519
 20
205.133
 11
442.446
 21
205.143
  0
LINE
  8
0
 10
442.446
 20
205.143
 11
445.311
 21
204.544
  0
LINE
  8
0
 10
445.311
 20
204.544
 11
447.988
 21
203.363
  0
LINE
  8
0
 10
447.988
 20
203.363
 11
450.362
 21
201.65
  0
LINE
  8
0
 10
450.362
 20
201.65
 11
452.328
 21
199.482
  0
LINE
  8
0
 10
452.328
 20
199.482
 11
453.8
 21
196.952
  0
LINE
  8
0
 10
453.8
 20
196.952
 11
454.713
 21
194.172
  0
LINE
  8
0
 10
454.713
 20
194.172
 11
455.029
 21
191.262
  0
LINE
  8
0
 10
455.029
 20
191.262
 11
454.733
 21
188.35
  0
LINE
  8
0
 10
454.733
 20
188.35
 11
453.838
 21
185.564
  0
LINE
  8
0
 10
453.838
 20
185.564
 11
452.383
 21
183.024
  0
LINE
  8
0
 10
452.383
 20
183.024
 11
450.432
 21
180.842
  0
LINE
  8
0
 10
450.432
 20
180.842
 11
448.07
 21
179.114
  0
LINE
  8
0
 10
448.07
 20
179.114
 11
445.4
 21
177.915
  0
LINE
  8
0
 10
445.4
 20
177.915
 11
442.539
 21
177.297
  0
LINE
  8
0
 10
442.539
 20
177.297
 11
439.613
 21
177.287
  0
LINE
  8
0
 10
439.613
 20
177.287
 11
436.748
 21
177.886
  0
LINE
  8
0
 10
436.748
 20
177.886
 11
434.07
 21
179.067
  0
LINE
  8
0
 10
434.07
 20
179.067
 11
431.696
 21
180.779
  0
LINE
  8
0
 10
431.696
 20
180.779
 11
429.731
 21
182.948
  0
LINE
  8
0
 10
429.731
 20
182.948
 11
428.259
 21
185.478
  0
LINE
  8
0
 10
428.259
 20
185.478
 11
427.345
 21
188.258
  0
LINE
  8
0
 10
427.345
 20
188.258
 11
427.029
 21
191.168
  0
LINE
  8
0
 10
430.672
 20
226.983
 11
430.968
 21
229.895
  0
LINE
  8
0
 10
430.968
 20
229.895
 11
431.863
 21
232.681
  0
LINE
  8
0
 10
431.863
 20
232.681
 11
433.318
 21
235.221
  0
LINE
  8
0
 10
433.318
 20
235.221
 11
435.269
 21
237.403
  0
LINE
  8
0
 10
435.269
 20
237.403
 11
437.631
 21
239.131
  0
LINE
  8
0
 10
437.631
 20
239.131
 11
440.301
 21
240.33
  0
LINE
  8
0
 10
440.301
 20
240.33
 11
443.162
 21
240.948
  0
LINE
  8
0
 10
443.162
 20
240.948
 11
446.088
 21
240.958
  0
LINE
  8
0
 10
446.088
 20
240.958
 11
448.953
 21
240.359
  0
LINE
  8
0
 10
448.953
 20
240.359
 11
451.631
 21
239.178
  0
LINE
  8
0
 10
451.631
 20
239.178
 11
454.005
 21
237.466
  0
LINE
  8
0
 10
454.005
 20
237.466
 11
455.97
 21
235.297
  0
LINE
  8
0
 10
455.97
 20
235.297
 11
457.442
 21
232.767
  0
LINE
  8
0
 10
457.442
 20
232.767
 11
458.356
 21
229.987
  0
LINE
  8
0
 10
458.356
 20
229.987
 11
458.672
 21
227.077
  0
LINE
  8
0
 10
458.672
 20
227.077
 11
458.376
 21
224.165
  0
LINE
  8
0
 10
458.376
 20
224.165
 11
457.481
 21
221.379
  0
LINE
  8
0
 10
457.481
 20
221.379
 11
456.026
 21
218.839
  0
LINE
  8
0
 10
456.026
 20
218.839
 11
454.075
 21
216.658
  0
LINE
  8
0
 10
454.075
 20
216.658
 11
451.713
 21
214.929
  0
LINE
  8
0
 10
451.713
 20
214.929
 11
449.043
 21
213.73
  0
LINE
  8
0
 10
449.043
 20
213.73
 11
446.182
 21
213.112
  0
LINE
  8
0
 10
446.182
 20
213.112
 11
443.255
 21
213.102
  0
LINE
  8
0
 10
443.255
 20
213.102
 11
440.39
 21
213.701
  0
LINE
  8
0
 10
440.39
 20
213.701
 11
437.713
 21
214.882
  0
LINE
  8
0
 10
437.713
 20
214.882
 11
435.339
 21
216.595
  0
LINE
  8
0
 10
435.339
 20
216.595
 11
433.373
 21
218.763
  0
LINE
  8
0
 10
433.373
 20
218.763
 11
431.901
 21
221.293
  0
LINE
  8
0
 10
431.901
 20
221.293
 11
430.988
 21
224.073
  0
LINE
  8
0
 10
430.988
 20
224.073
 11
430.672
 21
226.983
  0
LINE
  8
0
 10
443.84
 20
158.801
 11
444.137
 21
161.712
  0
LINE
  8
0
 10
444.137
 20
161.712
 11
445.032
 21
164.499
  0
LINE
  8
0
 10
445.032
 20
164.499
 11
446.487
 21
167.039
  0
LINE
  8
0
 10
446.487
 20
167.039
 11
448.438
 21
169.22
  0
LINE
  8
0
 10
448.438
 20
169.22
 11
450.8
 21
170.948
  0
LINE
  8
0
 10
450.8
 20
170.948
 11
453.469
 21
172.148
  0
LINE
  8
0
 10
453.469
 20
172.148
 11
456.33
 21
172.766
  0
LINE
  8
0
 10
456.33
 20
172.766
 11
459.257
 21
172.776
  0
LINE
  8
0
 10
459.257
 20
172.776
 11
462.122
 21
172.177
  0
LINE
  8
0
 10
462.122
 20
172.177
 11
464.8
 21
170.995
  0
LINE
  8
0
 10
464.8
 20
170.995
 11
467.173
 21
169.283
  0
LINE
  8
0
 10
467.173
 20
169.283
 11
469.139
 21
167.115
  0
LINE
  8
0
 10
469.139
 20
167.115
 11
470.611
 21
164.585
  0
LINE
  8
0
 10
470.611
 20
164.585
 11
471.525
 21
161.804
  0
LINE
  8
0
 10
471.525
 20
161.804
 11
471.84
 21
158.895
  0
LINE
  8
0
 10
471.84
 20
158.895
 11
471.544
 21
155.983
  0
LINE
  8
0
 10
471.544
 20
155.983
 11
470.649
 21
153.196
  0
LINE
  8
0
 10
470.649
 20
153.196
 11
469.194
 21
150.657
  0
LINE
  8
0
 10
469.194
 20
150.657
 11
467.243
 21
148.475
  0
LINE
  8
0
 10
467.243
 20
148.475
 11
464.881
 21
146.747
  0
LINE
  8
0
 10
464.881
 20
146.747
 11
462.211
 21
145.548
  0
LINE
  8
0
 10
462.211
 20
145.548
 11
459.351
 21
144.929
  0
LINE
  8
0
 10
459.351
 20
144.929
 11
456.424
 21
144.92
  0
LINE
  8
0
 10
456.424
 20
144.92
 11
453.559
 21
145.518
  0
LINE
  8
0
 10
453.559
 20
145.518
 11
450.881
 21
146.7
  0
LINE
  8
0
 10
450.881
 20
146.7
 11
448.508
 21
148.412
  0
LINE
  8
0
 10
448.508
 20
148.412
 11
446.542
 21
150.581
  0
LINE
  8
0
 10
446.542
 20
150.581
 11
445.07
 21
153.11
  0
LINE
  8
0
 10
445.07
 20
153.11
 11
444.156
 21
155.891
  0
LINE
  8
0
 10
444.156
 20
155.891
 11
443.84
 21
158.801
  0
LINE
  8
0
 10
443.84
 20
441.199
 11
444.156
 21
444.109
  0
LINE
  8
0
 10
444.156
 20
444.109
 11
445.07
 21
446.89
  0
LINE
  8
0
 10
445.07
 20
446.89
 11
446.542
 21
449.419
  0
LINE
  8
0
 10
446.542
 20
449.419
 11
448.508
 21
451.588
  0
LINE
  8
0
 10
448.508
 20
451.588
 11
450.881
 21
453.3
  0
LINE
  8
0
 10
450.881
 20
453.3
 11
453.559
 21
454.482
  0
LINE
  8
0
 10
453.559
 20
454.482
 11
456.424
 21
455.08
  0
LINE
  8
0
 10
456.424
 20
455.08
 11
459.351
 21
455.071
  0
LINE
  8
0
 10
459.351
 20
455.071
 11
462.211
 21
454.452
  0
LINE
  8
0
 10
462.211
 20
454.452
 11
464.881
 21
453.253
  0
LINE
  8
0
 10
464.881
 20
453.253
 11
467.243
 21
451.525
  0
LINE
  8
0
 10
467.243
 20
451.525
 11
469.194
 21
449.343
  0
LINE
  8
0
 10
469.194
 20
449.343
 11
470.649
 21
446.804
  0
LINE
  8
0
 10
470.649
 20
446.804
 11
471.544
 21
444.017
  0
LINE
  8
0
 10
471.544
 20
444.017
 11
471.84
 21
441.105
  0
LINE
  8
0
 10
471.84
 20
441.105
 11
471.525
 21
438.196
  0
LINE
  8
0
 10
471.525
 20
438.196
 11
470.611
 21
435.415
  0
LINE
  8
0
 10
470.611
 20
435.415
 11
469.139
 21
432.885
  0
LINE
  8
0
 10
469.139
 20
432.885
 11
467.173
 21
430.717
  0
LINE
  8
0
 10
467.173
 20
430.717
 11
464.8
 21
429.005
  0
LINE
  8
0
 10
464.8
 20
429.005
 11
462.122
 21
427.823
  0
LINE
  8
0
 10
462.122
 20
427.823
 11
459.257
 21
427.224
  0
LINE
  8
0
 10
459.257
 20
427.224
 11
456.33
 21
427.234
  0
LINE
  8
0
 10
456.33
 20
427.234
 11
453.469
 21
427.852
  0
LINE
  8
0
 10
453.469
 20
427.852
 11
450.8
 21
429.052
  0
LINE
  8
0
 10
450.8
 20
429.052
 11
448.438
 21
430.78
  0
LINE
  8
0
 10
448.438
 20
430.78
 11
446.487
 21
432.961
  0
LINE
  8
0
 10
446.487
 20
432.961
 11
445.032
 21
435.501
  0
LINE
  8
0
 10
445.032
 20
435.501
 11
444.137
 21
438.288
  0
LINE
  8
0
 10
444.137
 20
438.288
 11
443.84
 21
441.199
  0
LINE
  8
0
 10
468.642
 20
76.7786
 11
469.856
 21
78.019
  0
LINE
  8
0
 10
469.856
 20
78.019
 11
471.582
 21
77.8434
  0
LINE
  8
0
 10
471.582
 20
77.8434
 11
472.522
 21
76.384
  0
LINE
  8
0
 10
472.522
 20
76.384
 11
471.966
 21
74.7397
  0
LINE
  8
0
 10
471.966
 20
74.7397
 11
470.334
 21
74.1488
  0
LINE
  8
0
 10
470.334
 20
74.1488
 11
468.855
 21
75.0562
  0
LINE
  8
0
 10
468.855
 20
75.0562
 11
468.642
 21
76.7786
  0
LINE
  8
0
 10
473.004
 20
119.667
 11
473.559
 21
121.311
  0
LINE
  8
0
 10
473.559
 20
121.311
 11
475.191
 21
121.902
  0
LINE
  8
0
 10
475.191
 20
121.902
 11
476.671
 21
120.995
  0
LINE
  8
0
 10
476.671
 20
120.995
 11
476.884
 21
119.273
  0
LINE
  8
0
 10
476.884
 20
119.273
 11
475.67
 21
118.032
  0
LINE
  8
0
 10
475.67
 20
118.032
 11
473.943
 21
118.208
  0
LINE
  8
0
 10
473.943
 20
118.208
 11
473.004
 21
119.667
  0
LINE
  8
0
 10
480.582
 20
405.827
 11
480.795
 21
407.549
  0
LINE
  8
0
 10
480.795
 20
407.549
 11
482.274
 21
408.457
  0
LINE
  8
0
 10
482.274
 20
408.457
 11
483.906
 21
407.866
  0
LINE
  8
0
 10
483.906
 20
407.866
 11
484.461
 21
406.222
  0
LINE
  8
0
 10
484.461
 20
406.222
 11
483.522
 21
404.762
  0
LINE
  8
0
 10
483.522
 20
404.762
 11
481.795
 21
404.587
  0
LINE
  8
0
 10
481.795
 20
404.587
 11
480.582
 21
405.827
  0
LINE
  8
0
 10
484.944
 20
362.938
 11
485.883
 21
364.398
  0
LINE
  8
0
 10
485.883
 20
364.398
 11
487.61
 21
364.573
  0
LINE
  8
0
 10
487.61
 20
364.573
 11
488.823
 21
363.333
  0
LINE
  8
0
 10
488.823
 20
363.333
 11
488.61
 21
361.611
  0
LINE
  8
0
 10
488.61
 20
361.611
 11
487.131
 21
360.703
  0
LINE
  8
0
 10
487.131
 20
360.703
 11
485.499
 21
361.294
  0
LINE
  8
0
 10
485.499
 20
361.294
 11
484.944
 21
362.938
  0
ENDSEC
  0
SECTION
  2
OBJECTS
  0
DICTIONARY
  0
ENDSEC
  0
EOF
