<?xml version="1.0" standalone="no"?>
<!DOCTYPE svg PUBLIC "-//W3C//DTD SVG 1.1//EN" "http://www.w3.org/Graphics/SVG/1.1/DTD/svg11.dtd">
<svg width="275" height="598" viewBox="0 -599 275 598" xmlns="http://www.w3.org/2000/svg" version="1.1">
<title>OpenSCAD Model</title>
<path d="
M 1.302e-14,-58.637 L 0.2724,-56.0452 L 0.914871,-54.0679 L 1.95442,-52.2674 L 3.34549,-50.7224 L 5.02759,-49.5003
 L 7.14943,-48.5556 L 8.27644,-48.2585 L 234.131,-2.15616 L 236.725,-1.90471 L 238.791,-2.13873 L 240.763,-2.79716
 L 242.555,-3.8512 L 244.088,-5.25485 L 245.297,-6.94658 L 246.223,-9.07314 L 246.515,-10.2213 L 252.162,-39.271
 L 252.253,-39.7867 L 260.361,-90.981 L 260.434,-91.5004 L 266.751,-142.947 L 266.806,-143.468 L 271.323,-195.104
 L 271.36,-195.627 L 274.073,-247.39 L 274.091,-247.913 L 274.995,-299.738 L 274.995,-300.262 L 274.091,-352.087
 L 274.073,-352.61 L 271.36,-404.373 L 271.323,-404.896 L 266.806,-456.532 L 266.751,-457.053 L 260.434,-508.5
 L 260.361,-509.019 L 252.253,-560.213 L 252.162,-560.729 L 246.561,-589.544 L 245.799,-592.036 L 244.791,-593.855
 L 243.427,-595.424 L 241.766,-596.675 L 239.882,-597.554 L 237.856,-598.021 L 235.537,-598.062 L 234.365,-597.892
 L 8.51346,-551.79 L 6.02859,-551.005 L 4.21977,-549.98 L 2.66347,-548.601 L 1.42793,-546.929 L 0.566971,-545.037
 L 0.0656891,-542.769 L 1.2026e-13,-541.605 z
M 29.6517,-218.537 L 29.6517,-221.463 L 30.2602,-224.326 L 31.4506,-227 L 33.171,-229.368 L 35.346,-231.326
 L 37.8807,-232.79 L 40.6642,-233.694 L 43.575,-234 L 46.4858,-233.694 L 49.2693,-232.79 L 51.804,-231.326
 L 53.979,-229.368 L 55.6994,-227 L 56.8898,-224.326 L 57.4983,-221.463 L 57.4983,-218.537 L 56.8898,-215.674
 L 55.6994,-213 L 53.979,-210.632 L 51.804,-208.674 L 49.2693,-207.21 L 46.4858,-206.306 L 43.575,-206
 L 40.6642,-206.306 L 37.8807,-207.21 L 35.346,-208.674 L 33.171,-210.632 L 31.4506,-213 L 30.2602,-215.674
 z
M 29.6517,-258.537 L 29.6517,-261.463 L 30.2602,-264.326 L 31.4506,-267 L 33.171,-269.368 L 35.346,-271.326
 L 37.8807,-272.79 L 40.6642,-273.694 L 43.575,-274 L 46.4858,-273.694 L 49.2693,-272.79 L 51.804,-271.326
 L 53.979,-269.368 L 55.6994,-267 L 56.8898,-264.326 L 57.4983,-261.463 L 57.4983,-258.537 L 56.8898,-255.674
 L 55.6994,-253 L 53.979,-250.632 L 51.804,-248.674 L 49.2693,-247.21 L 46.4858,-246.306 L 43.575,-246
 L 40.6642,-246.306 L 37.8807,-247.21 L 35.346,-248.674 L 33.171,-250.632 L 31.4506,-253 L 30.2602,-255.674
 z
M 29.6517,-338.537 L 29.6517,-341.463 L 30.2602,-344.326 L 31.4506,-347 L 33.171,-349.368 L 35.346,-351.326
 L 37.8807,-352.79 L 40.6642,-353.694 L 43.575,-354 L 46.4858,-353.694 L 49.2693,-352.79 L 51.804,-351.326
 L 53.979,-349.368 L 55.6994,-347 L 56.8898,-344.326 L 57.4983,-341.463 L 57.4983,-338.537 L 56.8898,-335.674
 L 55.6994,-333 L 53.979,-330.632 L 51.804,-328.674 L 49.2693,-327.21 L 46.4858,-326.306 L 43.575,-326
 L 40.6642,-326.306 L 37.8807,-327.21 L 35.346,-328.674 L 33.171,-330.632 L 31.4506,-333 L 30.2602,-335.674
 z
M 29.6517,-378.537 L 29.6517,-381.463 L 30.2602,-384.326 L 31.4506,-387 L 33.171,-389.368 L 35.346,-391.326
 L 37.8807,-392.79 L 40.6642,-393.694 L 43.575,-394 L 46.4858,-393.694 L 49.2693,-392.79 L 51.804,-391.326
 L 53.979,-389.368 L 55.6994,-387 L 56.8898,-384.326 L 57.4983,-381.463 L 57.4983,-378.537 L 56.8898,-375.674
 L 55.6994,-373 L 53.979,-370.632 L 51.804,-368.674 L 49.2693,-367.21 L 46.4858,-366.306 L 43.575,-366
 L 40.6642,-366.306 L 37.8807,-367.21 L 35.346,-368.674 L 33.171,-370.632 L 31.4506,-373 L 30.2602,-375.674
 z
M 83.4145,-501.388 L 83.7303,-504.298 L 84.644,-507.078 L 86.1159,-509.608 L 88.0817,-511.777 L 90.4553,-513.489
 L 93.133,-514.67 L 95.9979,-515.269 L 98.9247,-515.259 L 101.785,-514.641 L 104.455,-513.442 L 106.817,-511.714
 L 108.768,-509.532 L 110.223,-506.992 L 111.118,-504.206 L 111.414,-501.294 L 111.099,-498.384 L 110.185,-495.604
 L 108.713,-493.074 L 106.747,-490.906 L 104.374,-489.193 L 101.696,-488.012 L 98.831,-487.413 L 95.9043,-487.423
 L 93.0435,-488.041 L 90.3737,-489.24 L 88.0117,-490.969 L 86.0606,-493.15 L 84.6057,-495.69 L 83.7107,-498.476
 z
M 87.0572,-465.573 L 87.3729,-468.483 L 88.2867,-471.263 L 89.7586,-473.793 L 91.7243,-475.961 L 94.0979,-477.674
 L 96.7756,-478.855 L 99.6405,-479.454 L 102.567,-479.444 L 105.428,-478.826 L 108.098,-477.627 L 110.46,-475.898
 L 112.411,-473.717 L 113.866,-471.177 L 114.761,-468.391 L 115.057,-465.479 L 114.741,-462.569 L 113.828,-459.789
 L 112.356,-457.259 L 110.39,-455.09 L 108.016,-453.378 L 105.339,-452.197 L 102.474,-451.598 L 99.5469,-451.608
 L 96.6861,-452.226 L 94.0164,-453.425 L 91.6543,-455.153 L 89.7033,-457.335 L 88.2484,-459.875 L 87.3533,-462.661
 z
M 93.2294,-195.114 L 93.5256,-198.026 L 94.4206,-200.812 L 95.8755,-203.352 L 97.8266,-205.533 L 100.189,-207.262
 L 102.858,-208.461 L 105.719,-209.079 L 108.646,-209.089 L 111.511,-208.49 L 114.189,-207.309 L 116.562,-205.596
 L 118.528,-203.428 L 120,-200.898 L 120.914,-198.118 L 121.229,-195.208 L 120.933,-192.296 L 120.038,-189.51
 L 118.583,-186.97 L 116.632,-184.789 L 114.27,-183.06 L 111.6,-181.861 L 108.74,-181.243 L 105.813,-181.233
 L 102.948,-181.832 L 100.27,-183.013 L 97.8966,-184.726 L 95.9308,-186.894 L 94.4589,-189.424 L 93.5451,-192.204
 z
M 96.8721,-230.929 L 97.1682,-233.841 L 98.0633,-236.628 L 99.5182,-239.167 L 101.469,-241.349 L 103.831,-243.077
 L 106.501,-244.276 L 109.362,-244.895 L 112.289,-244.904 L 115.153,-244.306 L 117.831,-243.124 L 120.205,-241.412
 L 122.17,-239.243 L 123.642,-236.714 L 124.556,-233.933 L 124.872,-231.023 L 124.576,-228.112 L 123.681,-225.325
 L 122.226,-222.785 L 120.275,-220.604 L 117.913,-218.876 L 115.243,-217.676 L 112.382,-217.058 L 109.455,-217.048
 L 106.591,-217.647 L 103.913,-218.828 L 101.539,-220.541 L 99.5735,-222.709 L 98.1016,-225.239 L 97.1878,-228.019
 z
M 110.041,-162.747 L 110.337,-165.659 L 111.232,-168.445 L 112.687,-170.985 L 114.638,-173.166 L 117,-174.895
 L 119.67,-176.094 L 122.53,-176.712 L 125.457,-176.722 L 128.322,-176.123 L 131,-174.942 L 133.373,-173.229
 L 135.339,-171.061 L 136.811,-168.531 L 137.725,-165.751 L 138.04,-162.841 L 137.744,-159.929 L 136.849,-157.143
 L 135.394,-154.603 L 133.443,-152.421 L 131.081,-150.693 L 128.412,-149.494 L 125.551,-148.876 L 122.624,-148.866
 L 119.759,-149.465 L 117.081,-150.646 L 114.708,-152.358 L 112.742,-154.527 L 111.27,-157.057 L 110.356,-159.837
 z
M 110.041,-437.253 L 110.356,-440.163 L 111.27,-442.943 L 112.742,-445.473 L 114.708,-447.642 L 117.081,-449.354
 L 119.759,-450.535 L 122.624,-451.134 L 125.551,-451.124 L 128.412,-450.506 L 131.081,-449.307 L 133.443,-447.579
 L 135.394,-445.397 L 136.849,-442.857 L 137.744,-440.071 L 138.04,-437.159 L 137.725,-434.249 L 136.811,-431.469
 L 135.339,-428.939 L 133.373,-426.771 L 131,-425.058 L 128.322,-423.877 L 125.457,-423.278 L 122.53,-423.288
 L 119.67,-423.906 L 117,-425.105 L 114.638,-426.834 L 112.687,-429.015 L 111.232,-431.555 L 110.337,-434.341
 z
M 122.214,-505.334 L 122.53,-508.244 L 123.444,-511.025 L 124.916,-513.554 L 126.881,-515.723 L 129.255,-517.435
 L 131.933,-518.617 L 134.798,-519.215 L 137.724,-519.206 L 140.585,-518.588 L 143.255,-517.388 L 145.617,-515.66
 L 147.568,-513.478 L 149.023,-510.939 L 149.918,-508.152 L 150.214,-505.24 L 149.898,-502.331 L 148.985,-499.55
 L 147.513,-497.02 L 145.547,-494.852 L 143.173,-493.14 L 140.496,-491.958 L 137.631,-491.359 L 134.704,-491.369
 L 131.843,-491.987 L 129.174,-493.187 L 126.812,-494.915 L 124.86,-497.096 L 123.406,-499.636 L 122.511,-502.423
 z
M 125.857,-469.519 L 126.173,-472.429 L 127.087,-475.209 L 128.558,-477.739 L 130.524,-479.908 L 132.898,-481.62
 L 135.575,-482.801 L 138.44,-483.4 L 141.367,-483.39 L 144.228,-482.772 L 146.898,-481.573 L 149.26,-479.845
 L 151.211,-477.663 L 152.666,-475.123 L 153.561,-472.337 L 153.857,-469.425 L 153.541,-466.515 L 152.627,-463.735
 L 151.155,-461.205 L 149.19,-459.037 L 146.816,-457.324 L 144.138,-456.143 L 141.274,-455.544 L 138.347,-455.554
 L 135.486,-456.172 L 132.816,-457.371 L 130.454,-459.1 L 128.503,-461.281 L 127.048,-463.821 L 126.153,-466.607
 z
M 125.973,-102.137 L 126.206,-104.425 L 126.909,-106.614 L 128.052,-108.61 L 129.585,-110.324 L 131.441,-111.682
 L 133.539,-112.624 L 135.787,-113.11 L 138.086,-113.118 L 140.337,-112.647 L 142.441,-111.719 L 144.306,-110.373
 L 145.851,-108.67 L 147.007,-106.682 L 147.725,-104.497 L 147.973,-102.211 L 147.74,-99.9233 L 147.037,-97.7339
 L 145.894,-95.7385 L 144.361,-94.0244 L 142.505,-92.6664 L 140.408,-91.724 L 138.16,-91.2384 L 135.86,-91.2306
 L 133.609,-91.7012 L 131.505,-92.6295 L 129.64,-93.9749 L 128.096,-95.6787 L 126.939,-97.6663 L 126.221,-99.851
 z
M 132.029,-191.168 L 132.325,-194.08 L 133.22,-196.866 L 134.675,-199.406 L 136.626,-201.587 L 138.988,-203.316
 L 141.658,-204.515 L 144.519,-205.133 L 147.446,-205.143 L 150.311,-204.544 L 152.988,-203.363 L 155.362,-201.65
 L 157.328,-199.482 L 158.8,-196.952 L 159.713,-194.172 L 160.029,-191.262 L 159.733,-188.35 L 158.838,-185.564
 L 157.383,-183.024 L 155.432,-180.842 L 153.07,-179.114 L 150.4,-177.915 L 147.539,-177.297 L 144.613,-177.287
 L 141.748,-177.886 L 139.07,-179.067 L 136.696,-180.779 L 134.731,-182.948 L 133.259,-185.478 L 132.345,-188.258
 z
M 135.672,-226.983 L 135.968,-229.895 L 136.863,-232.681 L 138.318,-235.221 L 140.269,-237.403 L 142.631,-239.131
 L 145.301,-240.33 L 148.162,-240.948 L 151.088,-240.958 L 153.953,-240.359 L 156.631,-239.178 L 159.005,-237.466
 L 160.97,-235.297 L 162.442,-232.767 L 163.356,-229.987 L 163.672,-227.077 L 163.376,-224.165 L 162.481,-221.379
 L 161.026,-218.839 L 159.075,-216.658 L 156.713,-214.929 L 154.043,-213.73 L 151.182,-213.112 L 148.255,-213.102
 L 145.39,-213.701 L 142.713,-214.882 L 140.339,-216.595 L 138.373,-218.763 L 136.901,-221.293 L 135.988,-224.073
 z
M 137.913,-380.468 L 138.161,-382.755 L 138.879,-384.939 L 140.036,-386.927 L 141.58,-388.631 L 143.445,-389.976
 L 145.549,-390.904 L 147.8,-391.375 L 150.1,-391.367 L 152.347,-390.882 L 154.445,-389.939 L 156.301,-388.581
 L 157.834,-386.867 L 158.977,-384.872 L 159.68,-382.682 L 159.913,-380.394 L 159.665,-378.108 L 158.947,-375.924
 L 157.79,-373.936 L 156.246,-372.232 L 154.381,-370.887 L 152.277,-369.958 L 150.026,-369.488 L 147.726,-369.496
 L 145.479,-369.981 L 143.381,-370.924 L 141.525,-372.282 L 139.992,-373.996 L 138.849,-375.991 L 138.146,-378.181
 z
M 148.84,-158.801 L 149.137,-161.712 L 150.032,-164.499 L 151.487,-167.039 L 153.438,-169.22 L 155.8,-170.948
 L 158.469,-172.148 L 161.33,-172.766 L 164.257,-172.776 L 167.122,-172.177 L 169.8,-170.995 L 172.173,-169.283
 L 174.139,-167.115 L 175.611,-164.585 L 176.525,-161.804 L 176.84,-158.895 L 176.544,-155.983 L 175.649,-153.196
 L 174.194,-150.657 L 172.243,-148.475 L 169.881,-146.747 L 167.211,-145.548 L 164.351,-144.929 L 161.424,-144.92
 L 158.559,-145.518 L 155.881,-146.7 L 153.508,-148.412 L 151.542,-150.581 L 150.07,-153.11 L 149.156,-155.891
 z
M 148.84,-441.199 L 149.156,-444.109 L 150.07,-446.89 L 151.542,-449.419 L 153.508,-451.588 L 155.881,-453.3
 L 158.559,-454.482 L 161.424,-455.08 L 164.351,-455.071 L 167.211,-454.452 L 169.881,-453.253 L 172.243,-451.525
 L 174.194,-449.343 L 175.649,-446.804 L 176.544,-444.017 L 176.84,-441.105 L 176.525,-438.196 L 175.611,-435.415
 L 174.139,-432.885 L 172.173,-430.717 L 169.8,-429.005 L 167.122,-427.823 L 164.257,-427.224 L 161.33,-427.234
 L 158.469,-427.852 L 155.8,-429.052 L 153.438,-430.78 L 151.487,-432.961 L 150.032,-435.501 L 149.137,-438.288
 z
" stroke="black" fill="lightgray" stroke-width="0.5"/></svg>
