  0
SECTION
  2
BLOCKS
  0
ENDSEC
  0
SECTION
  2
ENTITIES
  0
LINE
  8
0
 10
1.90471
 20
38.2753
 11
2.13873
 21
36.2095
  0
LINE
  8
0
 10
2.13873
 20
36.2095
 11
2.79716
 21
34.2374
  0
LINE
  8
0
 10
2.79716
 20
34.2374
 11
3.8512
 21
32.4454
  0
LINE
  8
0
 10
3.8512
 20
32.4454
 11
5.25485
 21
30.9116
  0
LINE
  8
0
 10
5.25485
 20
30.9116
 11
6.94658
 21
29.7032
  0
LINE
  8
0
 10
6.94658
 20
29.7032
 11
9.07314
 21
28.777
  0
LINE
  8
0
 10
9.07314
 20
28.777
 11
10.2213
 21
28.485
  0
LINE
  8
0
 10
10.2213
 20
28.485
 11
39.271
 21
22.8383
  0
LINE
  8
0
 10
39.271
 20
22.8383
 11
39.7867
 21
22.7473
  0
LINE
  8
0
 10
39.7867
 20
22.7473
 11
90.981
 21
14.639
  0
LINE
  8
0
 10
90.981
 20
14.639
 11
91.5004
 21
14.566
  0
LINE
  8
0
 10
91.5004
 20
14.566
 11
142.947
 21
8.24907
  0
LINE
  8
0
 10
142.947
 20
8.24907
 11
143.468
 21
8.19434
  0
LINE
  8
0
 10
143.468
 20
8.19434
 11
195.104
 21
3.67677
  0
LINE
  8
0
 10
195.104
 20
3.67677
 11
195.627
 21
3.64024
  0
LINE
  8
0
 10
195.627
 20
3.64024
 11
247.39
 21
0.92746
  0
LINE
  8
0
 10
247.39
 20
0.92746
 11
247.913
 21
0.909195
  0
LINE
  8
0
 10
247.913
 20
0.909195
 11
299.738
 21
0.00457764
  0
LINE
  8
0
 10
299.738
 20
0.00457764
 11
300.262
 21
0.00457764
  0
LINE
  8
0
 10
300.262
 20
0.00457764
 11
352.087
 21
0.909195
  0
LINE
  8
0
 10
352.087
 20
0.909195
 11
352.61
 21
0.92746
  0
LINE
  8
0
 10
352.61
 20
0.92746
 11
404.373
 21
3.64024
  0
LINE
  8
0
 10
404.373
 20
3.64024
 11
404.896
 21
3.67677
  0
LINE
  8
0
 10
404.896
 20
3.67677
 11
456.532
 21
8.19434
  0
LINE
  8
0
 10
456.532
 20
8.19434
 11
457.053
 21
8.24907
  0
LINE
  8
0
 10
457.053
 20
8.24907
 11
508.5
 21
14.566
  0
LINE
  8
0
 10
508.5
 20
14.566
 11
509.019
 21
14.639
  0
LINE
  8
0
 10
509.019
 20
14.639
 11
560.213
 21
22.7473
  0
LINE
  8
0
 10
560.213
 20
22.7473
 11
560.729
 21
22.8383
  0
LINE
  8
0
 10
560.729
 20
22.8383
 11
589.544
 21
28.4394
  0
LINE
  8
0
 10
589.544
 20
28.4394
 11
592.036
 21
29.2013
  0
LINE
  8
0
 10
592.036
 20
29.2013
 11
593.855
 21
30.2093
  0
LINE
  8
0
 10
593.855
 20
30.2093
 11
595.424
 21
31.5733
  0
LINE
  8
0
 10
595.424
 20
31.5733
 11
596.675
 21
33.2336
  0
LINE
  8
0
 10
596.675
 20
33.2336
 11
597.554
 21
35.118
  0
LINE
  8
0
 10
597.554
 20
35.118
 11
598.021
 21
37.1437
  0
LINE
  8
0
 10
598.021
 20
37.1437
 11
598.062
 21
39.4628
  0
LINE
  8
0
 10
598.062
 20
39.4628
 11
597.892
 21
40.6353
  0
LINE
  8
0
 10
597.892
 20
40.6353
 11
551.79
 21
266.487
  0
LINE
  8
0
 10
551.79
 20
266.487
 11
551.005
 21
268.971
  0
LINE
  8
0
 10
551.005
 20
268.971
 11
549.98
 21
270.78
  0
LINE
  8
0
 10
549.98
 20
270.78
 11
548.601
 21
272.337
  0
LINE
  8
0
 10
548.601
 20
272.337
 11
546.929
 21
273.572
  0
LINE
  8
0
 10
546.929
 20
273.572
 11
545.037
 21
274.433
  0
LINE
  8
0
 10
545.037
 20
274.433
 11
542.769
 21
274.934
  0
LINE
  8
0
 10
542.769
 20
274.934
 11
541.605
 21
275
  0
LINE
  8
0
 10
541.605
 20
275
 11
58.637
 21
275
  0
LINE
  8
0
 10
58.637
 20
275
 11
56.0452
 21
274.728
  0
LINE
  8
0
 10
56.0452
 20
274.728
 11
54.0679
 21
274.085
  0
LINE
  8
0
 10
54.0679
 20
274.085
 11
52.2674
 21
273.046
  0
LINE
  8
0
 10
52.2674
 20
273.046
 11
50.7224
 21
271.655
  0
LINE
  8
0
 10
50.7224
 20
271.655
 11
49.5003
 21
269.972
  0
LINE
  8
0
 10
49.5003
 20
269.972
 11
48.5556
 21
267.851
  0
LINE
  8
0
 10
48.5556
 20
267.851
 11
48.2585
 21
266.724
  0
LINE
  8
0
 10
48.2585
 20
266.724
 11
2.15616
 21
40.8691
  0
LINE
  8
0
 10
2.15616
 20
40.8691
 11
1.90471
 21
38.2753
  0
LINE
  8
0
 10
91.2306
 20
139.14
 11
91.7012
 21
141.391
  0
LINE
  8
0
 10
91.7012
 20
141.391
 11
92.6295
 21
143.495
  0
LINE
  8
0
 10
92.6295
 20
143.495
 11
93.9749
 21
145.36
  0
LINE
  8
0
 10
93.9749
 20
145.36
 11
95.6787
 21
146.904
  0
LINE
  8
0
 10
95.6787
 20
146.904
 11
97.6663
 21
148.061
  0
LINE
  8
0
 10
97.6663
 20
148.061
 11
99.851
 21
148.779
  0
LINE
  8
0
 10
99.851
 20
148.779
 11
102.137
 21
149.027
  0
LINE
  8
0
 10
102.137
 20
149.027
 11
104.425
 21
148.794
  0
LINE
  8
0
 10
104.425
 20
148.794
 11
106.614
 21
148.091
  0
LINE
  8
0
 10
106.614
 20
148.091
 11
108.61
 21
146.948
  0
LINE
  8
0
 10
108.61
 20
146.948
 11
110.324
 21
145.415
  0
LINE
  8
0
 10
110.324
 20
145.415
 11
111.682
 21
143.559
  0
LINE
  8
0
 10
111.682
 20
143.559
 11
112.624
 21
141.461
  0
LINE
  8
0
 10
112.624
 20
141.461
 11
113.11
 21
139.213
  0
LINE
  8
0
 10
113.11
 20
139.213
 11
113.118
 21
136.914
  0
LINE
  8
0
 10
113.118
 20
136.914
 11
112.647
 21
134.663
  0
LINE
  8
0
 10
112.647
 20
134.663
 11
111.719
 21
132.559
  0
LINE
  8
0
 10
111.719
 20
132.559
 11
110.373
 21
130.694
  0
LINE
  8
0
 10
110.373
 20
130.694
 11
108.67
 21
129.149
  0
LINE
  8
0
 10
108.67
 20
129.149
 11
106.682
 21
127.993
  0
LINE
  8
0
 10
106.682
 20
127.993
 11
104.497
 21
127.275
  0
LINE
  8
0
 10
104.497
 20
127.275
 11
102.211
 21
127.027
  0
LINE
  8
0
 10
102.211
 20
127.027
 11
99.9233
 21
127.26
  0
LINE
  8
0
 10
99.9233
 20
127.26
 11
97.7339
 21
127.963
  0
LINE
  8
0
 10
97.7339
 20
127.963
 11
95.7385
 21
129.106
  0
LINE
  8
0
 10
95.7385
 20
129.106
 11
94.0244
 21
130.639
  0
LINE
  8
0
 10
94.0244
 20
130.639
 11
92.6664
 21
132.495
  0
LINE
  8
0
 10
92.6664
 20
132.495
 11
91.724
 21
134.592
  0
LINE
  8
0
 10
91.724
 20
134.592
 11
91.2384
 21
136.84
  0
LINE
  8
0
 10
91.2384
 20
136.84
 11
91.2306
 21
139.14
  0
LINE
  8
0
 10
144.92
 20
113.576
 11
145.518
 21
116.441
  0
LINE
  8
0
 10
145.518
 20
116.441
 11
146.7
 21
119.119
  0
LINE
  8
0
 10
146.7
 20
119.119
 11
148.412
 21
121.492
  0
LINE
  8
0
 10
148.412
 20
121.492
 11
150.581
 21
123.458
  0
LINE
  8
0
 10
150.581
 20
123.458
 11
153.11
 21
124.93
  0
LINE
  8
0
 10
153.11
 20
124.93
 11
155.891
 21
125.844
  0
LINE
  8
0
 10
155.891
 20
125.844
 11
158.801
 21
126.16
  0
LINE
  8
0
 10
158.801
 20
126.16
 11
161.712
 21
125.863
  0
LINE
  8
0
 10
161.712
 20
125.863
 11
164.499
 21
124.968
  0
LINE
  8
0
 10
164.499
 20
124.968
 11
167.039
 21
123.513
  0
LINE
  8
0
 10
167.039
 20
123.513
 11
169.22
 21
121.562
  0
LINE
  8
0
 10
169.22
 20
121.562
 11
170.948
 21
119.2
  0
LINE
  8
0
 10
170.948
 20
119.2
 11
172.148
 21
116.531
  0
LINE
  8
0
 10
172.148
 20
116.531
 11
172.766
 21
113.67
  0
LINE
  8
0
 10
172.766
 20
113.67
 11
172.776
 21
110.743
  0
LINE
  8
0
 10
172.776
 20
110.743
 11
172.177
 21
107.878
  0
LINE
  8
0
 10
172.177
 20
107.878
 11
170.995
 21
105.2
  0
LINE
  8
0
 10
170.995
 20
105.2
 11
169.283
 21
102.827
  0
LINE
  8
0
 10
169.283
 20
102.827
 11
167.115
 21
100.861
  0
LINE
  8
0
 10
167.115
 20
100.861
 11
164.585
 21
99.3892
  0
LINE
  8
0
 10
164.585
 20
99.3892
 11
161.804
 21
98.4754
  0
LINE
  8
0
 10
161.804
 20
98.4754
 11
158.895
 21
98.1597
  0
LINE
  8
0
 10
158.895
 20
98.1597
 11
155.983
 21
98.4558
  0
LINE
  8
0
 10
155.983
 20
98.4558
 11
153.196
 21
99.3509
  0
LINE
  8
0
 10
153.196
 20
99.3509
 11
150.657
 21
100.806
  0
LINE
  8
0
 10
150.657
 20
100.806
 11
148.475
 21
102.757
  0
LINE
  8
0
 10
148.475
 20
102.757
 11
146.747
 21
105.119
  0
LINE
  8
0
 10
146.747
 20
105.119
 11
145.548
 21
107.789
  0
LINE
  8
0
 10
145.548
 20
107.789
 11
144.929
 21
110.649
  0
LINE
  8
0
 10
144.929
 20
110.649
 11
144.92
 21
113.576
  0
LINE
  8
0
 10
148.866
 20
152.376
 11
149.465
 21
155.241
  0
LINE
  8
0
 10
149.465
 20
155.241
 11
150.646
 21
157.919
  0
LINE
  8
0
 10
150.646
 20
157.919
 11
152.358
 21
160.292
  0
LINE
  8
0
 10
152.358
 20
160.292
 11
154.527
 21
162.258
  0
LINE
  8
0
 10
154.527
 20
162.258
 11
157.057
 21
163.73
  0
LINE
  8
0
 10
157.057
 20
163.73
 11
159.837
 21
164.644
  0
LINE
  8
0
 10
159.837
 20
164.644
 11
162.747
 21
164.959
  0
LINE
  8
0
 10
162.747
 20
164.959
 11
165.659
 21
164.663
  0
LINE
  8
0
 10
165.659
 20
164.663
 11
168.445
 21
163.768
  0
LINE
  8
0
 10
168.445
 20
163.768
 11
170.985
 21
162.313
  0
LINE
  8
0
 10
170.985
 20
162.313
 11
173.166
 21
160.362
  0
LINE
  8
0
 10
173.166
 20
160.362
 11
174.895
 21
158
  0
LINE
  8
0
 10
174.895
 20
158
 11
176.094
 21
155.33
  0
LINE
  8
0
 10
176.094
 20
155.33
 11
176.712
 21
152.47
  0
LINE
  8
0
 10
176.712
 20
152.47
 11
176.722
 21
149.543
  0
LINE
  8
0
 10
176.722
 20
149.543
 11
176.123
 21
146.678
  0
LINE
  8
0
 10
176.123
 20
146.678
 11
174.942
 21
144
  0
LINE
  8
0
 10
174.942
 20
144
 11
173.229
 21
141.627
  0
LINE
  8
0
 10
173.229
 20
141.627
 11
171.061
 21
139.661
  0
LINE
  8
0
 10
171.061
 20
139.661
 11
168.531
 21
138.189
  0
LINE
  8
0
 10
168.531
 20
138.189
 11
165.751
 21
137.275
  0
LINE
  8
0
 10
165.751
 20
137.275
 11
162.841
 21
136.96
  0
LINE
  8
0
 10
162.841
 20
136.96
 11
159.929
 21
137.256
  0
LINE
  8
0
 10
159.929
 20
137.256
 11
157.143
 21
138.151
  0
LINE
  8
0
 10
157.143
 20
138.151
 11
154.603
 21
139.606
  0
LINE
  8
0
 10
154.603
 20
139.606
 11
152.421
 21
141.557
  0
LINE
  8
0
 10
152.421
 20
141.557
 11
150.693
 21
143.919
  0
LINE
  8
0
 10
150.693
 20
143.919
 11
149.494
 21
146.588
  0
LINE
  8
0
 10
149.494
 20
146.588
 11
148.876
 21
149.449
  0
LINE
  8
0
 10
148.876
 20
149.449
 11
148.866
 21
152.376
  0
LINE
  8
0
 10
177.287
 20
130.387
 11
177.886
 21
133.252
  0
LINE
  8
0
 10
177.886
 20
133.252
 11
179.067
 21
135.93
  0
LINE
  8
0
 10
179.067
 20
135.93
 11
180.779
 21
138.304
  0
LINE
  8
0
 10
180.779
 20
138.304
 11
182.948
 21
140.269
  0
LINE
  8
0
 10
182.948
 20
140.269
 11
185.478
 21
141.741
  0
LINE
  8
0
 10
185.478
 20
141.741
 11
188.258
 21
142.655
  0
LINE
  8
0
 10
188.258
 20
142.655
 11
191.168
 21
142.971
  0
LINE
  8
0
 10
191.168
 20
142.971
 11
194.08
 21
142.675
  0
LINE
  8
0
 10
194.08
 20
142.675
 11
196.866
 21
141.78
  0
LINE
  8
0
 10
196.866
 20
141.78
 11
199.406
 21
140.325
  0
LINE
  8
0
 10
199.406
 20
140.325
 11
201.587
 21
138.374
  0
LINE
  8
0
 10
201.587
 20
138.374
 11
203.316
 21
136.012
  0
LINE
  8
0
 10
203.316
 20
136.012
 11
204.515
 21
133.342
  0
LINE
  8
0
 10
204.515
 20
133.342
 11
205.133
 21
130.481
  0
LINE
  8
0
 10
205.133
 20
130.481
 11
205.143
 21
127.554
  0
LINE
  8
0
 10
205.143
 20
127.554
 11
204.544
 21
124.689
  0
LINE
  8
0
 10
204.544
 20
124.689
 11
203.363
 21
122.012
  0
LINE
  8
0
 10
203.363
 20
122.012
 11
201.65
 21
119.638
  0
LINE
  8
0
 10
201.65
 20
119.638
 11
199.482
 21
117.672
  0
LINE
  8
0
 10
199.482
 20
117.672
 11
196.952
 21
116.2
  0
LINE
  8
0
 10
196.952
 20
116.2
 11
194.172
 21
115.287
  0
LINE
  8
0
 10
194.172
 20
115.287
 11
191.262
 21
114.971
  0
LINE
  8
0
 10
191.262
 20
114.971
 11
188.35
 21
115.267
  0
LINE
  8
0
 10
188.35
 20
115.267
 11
185.564
 21
116.162
  0
LINE
  8
0
 10
185.564
 20
116.162
 11
183.024
 21
117.617
  0
LINE
  8
0
 10
183.024
 20
117.617
 11
180.842
 21
119.568
  0
LINE
  8
0
 10
180.842
 20
119.568
 11
179.114
 21
121.93
  0
LINE
  8
0
 10
179.114
 20
121.93
 11
177.915
 21
124.6
  0
LINE
  8
0
 10
177.915
 20
124.6
 11
177.297
 21
127.461
  0
LINE
  8
0
 10
177.297
 20
127.461
 11
177.287
 21
130.387
  0
LINE
  8
0
 10
181.233
 20
169.187
 11
181.832
 21
172.052
  0
LINE
  8
0
 10
181.832
 20
172.052
 11
183.013
 21
174.73
  0
LINE
  8
0
 10
183.013
 20
174.73
 11
184.726
 21
177.103
  0
LINE
  8
0
 10
184.726
 20
177.103
 11
186.894
 21
179.069
  0
LINE
  8
0
 10
186.894
 20
179.069
 11
189.424
 21
180.541
  0
LINE
  8
0
 10
189.424
 20
180.541
 11
192.204
 21
181.455
  0
LINE
  8
0
 10
192.204
 20
181.455
 11
195.114
 21
181.771
  0
LINE
  8
0
 10
195.114
 20
181.771
 11
198.026
 21
181.474
  0
LINE
  8
0
 10
198.026
 20
181.474
 11
200.812
 21
180.579
  0
LINE
  8
0
 10
200.812
 20
180.579
 11
203.352
 21
179.124
  0
LINE
  8
0
 10
203.352
 20
179.124
 11
205.533
 21
177.173
  0
LINE
  8
0
 10
205.533
 20
177.173
 11
207.262
 21
174.811
  0
LINE
  8
0
 10
207.262
 20
174.811
 11
208.461
 21
172.142
  0
LINE
  8
0
 10
208.461
 20
172.142
 11
209.079
 21
169.281
  0
LINE
  8
0
 10
209.079
 20
169.281
 11
209.089
 21
166.354
  0
LINE
  8
0
 10
209.089
 20
166.354
 11
208.49
 21
163.489
  0
LINE
  8
0
 10
208.49
 20
163.489
 11
207.309
 21
160.811
  0
LINE
  8
0
 10
207.309
 20
160.811
 11
205.596
 21
158.438
  0
LINE
  8
0
 10
205.596
 20
158.438
 11
203.428
 21
156.472
  0
LINE
  8
0
 10
203.428
 20
156.472
 11
200.898
 21
155
  0
LINE
  8
0
 10
200.898
 20
155
 11
198.118
 21
154.086
  0
LINE
  8
0
 10
198.118
 20
154.086
 11
195.208
 21
153.771
  0
LINE
  8
0
 10
195.208
 20
153.771
 11
192.296
 21
154.067
  0
LINE
  8
0
 10
192.296
 20
154.067
 11
189.51
 21
154.962
  0
LINE
  8
0
 10
189.51
 20
154.962
 11
186.97
 21
156.417
  0
LINE
  8
0
 10
186.97
 20
156.417
 11
184.789
 21
158.368
  0
LINE
  8
0
 10
184.789
 20
158.368
 11
183.06
 21
160.73
  0
LINE
  8
0
 10
183.06
 20
160.73
 11
181.861
 21
163.4
  0
LINE
  8
0
 10
181.861
 20
163.4
 11
181.243
 21
166.26
  0
LINE
  8
0
 10
181.243
 20
166.26
 11
181.233
 21
169.187
  0
LINE
  8
0
 10
206
 20
231.425
 11
206.306
 21
234.336
  0
LINE
  8
0
 10
206.306
 20
234.336
 11
207.21
 21
237.119
  0
LINE
  8
0
 10
207.21
 20
237.119
 11
208.674
 21
239.654
  0
LINE
  8
0
 10
208.674
 20
239.654
 11
210.632
 21
241.829
  0
LINE
  8
0
 10
210.632
 20
241.829
 11
213
 21
243.549
  0
LINE
  8
0
 10
213
 20
243.549
 11
215.674
 21
244.74
  0
LINE
  8
0
 10
215.674
 20
244.74
 11
218.537
 21
245.348
  0
LINE
  8
0
 10
218.537
 20
245.348
 11
221.463
 21
245.348
  0
LINE
  8
0
 10
221.463
 20
245.348
 11
224.326
 21
244.74
  0
LINE
  8
0
 10
224.326
 20
244.74
 11
227
 21
243.549
  0
LINE
  8
0
 10
227
 20
243.549
 11
229.368
 21
241.829
  0
LINE
  8
0
 10
229.368
 20
241.829
 11
231.326
 21
239.654
  0
LINE
  8
0
 10
231.326
 20
239.654
 11
232.79
 21
237.119
  0
LINE
  8
0
 10
232.79
 20
237.119
 11
233.694
 21
234.336
  0
LINE
  8
0
 10
233.694
 20
234.336
 11
234
 21
231.425
  0
LINE
  8
0
 10
234
 20
231.425
 11
233.694
 21
228.514
  0
LINE
  8
0
 10
233.694
 20
228.514
 11
232.79
 21
225.731
  0
LINE
  8
0
 10
232.79
 20
225.731
 11
231.326
 21
223.196
  0
LINE
  8
0
 10
231.326
 20
223.196
 11
229.368
 21
221.021
  0
LINE
  8
0
 10
229.368
 20
221.021
 11
227
 21
219.301
  0
LINE
  8
0
 10
227
 20
219.301
 11
224.326
 21
218.11
  0
LINE
  8
0
 10
224.326
 20
218.11
 11
221.463
 21
217.502
  0
LINE
  8
0
 10
221.463
 20
217.502
 11
218.537
 21
217.502
  0
LINE
  8
0
 10
218.537
 20
217.502
 11
215.674
 21
218.11
  0
LINE
  8
0
 10
215.674
 20
218.11
 11
213
 21
219.301
  0
LINE
  8
0
 10
213
 20
219.301
 11
210.632
 21
221.021
  0
LINE
  8
0
 10
210.632
 20
221.021
 11
208.674
 21
223.196
  0
LINE
  8
0
 10
208.674
 20
223.196
 11
207.21
 21
225.731
  0
LINE
  8
0
 10
207.21
 20
225.731
 11
206.306
 21
228.514
  0
LINE
  8
0
 10
206.306
 20
228.514
 11
206
 21
231.425
  0
LINE
  8
0
 10
213.102
 20
126.745
 11
213.701
 21
129.61
  0
LINE
  8
0
 10
213.701
 20
129.61
 11
214.882
 21
132.287
  0
LINE
  8
0
 10
214.882
 20
132.287
 11
216.595
 21
134.661
  0
LINE
  8
0
 10
216.595
 20
134.661
 11
218.763
 21
136.627
  0
LINE
  8
0
 10
218.763
 20
136.627
 11
221.293
 21
138.099
  0
LINE
  8
0
 10
221.293
 20
138.099
 11
224.073
 21
139.012
  0
LINE
  8
0
 10
224.073
 20
139.012
 11
226.983
 21
139.328
  0
LINE
  8
0
 10
226.983
 20
139.328
 11
229.895
 21
139.032
  0
LINE
  8
0
 10
229.895
 20
139.032
 11
232.681
 21
138.137
  0
LINE
  8
0
 10
232.681
 20
138.137
 11
235.221
 21
136.682
  0
LINE
  8
0
 10
235.221
 20
136.682
 11
237.403
 21
134.731
  0
LINE
  8
0
 10
237.403
 20
134.731
 11
239.131
 21
132.369
  0
LINE
  8
0
 10
239.131
 20
132.369
 11
240.33
 21
129.699
  0
LINE
  8
0
 10
240.33
 20
129.699
 11
240.948
 21
126.838
  0
LINE
  8
0
 10
240.948
 20
126.838
 11
240.958
 21
123.912
  0
LINE
  8
0
 10
240.958
 20
123.912
 11
240.359
 21
121.047
  0
LINE
  8
0
 10
240.359
 20
121.047
 11
239.178
 21
118.369
  0
LINE
  8
0
 10
239.178
 20
118.369
 11
237.466
 21
115.995
  0
LINE
  8
0
 10
237.466
 20
115.995
 11
235.297
 21
114.03
  0
LINE
  8
0
 10
235.297
 20
114.03
 11
232.767
 21
112.558
  0
LINE
  8
0
 10
232.767
 20
112.558
 11
229.987
 21
111.644
  0
LINE
  8
0
 10
229.987
 20
111.644
 11
227.077
 21
111.328
  0
LINE
  8
0
 10
227.077
 20
111.328
 11
224.165
 21
111.624
  0
LINE
  8
0
 10
224.165
 20
111.624
 11
221.379
 21
112.519
  0
LINE
  8
0
 10
221.379
 20
112.519
 11
218.839
 21
113.974
  0
LINE
  8
0
 10
218.839
 20
113.974
 11
216.658
 21
115.925
  0
LINE
  8
0
 10
216.658
 20
115.925
 11
214.929
 21
118.287
  0
LINE
  8
0
 10
214.929
 20
118.287
 11
213.73
 21
120.957
  0
LINE
  8
0
 10
213.73
 20
120.957
 11
213.112
 21
123.818
  0
LINE
  8
0
 10
213.112
 20
123.818
 11
213.102
 21
126.745
  0
LINE
  8
0
 10
217.048
 20
165.545
 11
217.647
 21
168.409
  0
LINE
  8
0
 10
217.647
 20
168.409
 11
218.828
 21
171.087
  0
LINE
  8
0
 10
218.828
 20
171.087
 11
220.541
 21
173.461
  0
LINE
  8
0
 10
220.541
 20
173.461
 11
222.709
 21
175.427
  0
LINE
  8
0
 10
222.709
 20
175.427
 11
225.239
 21
176.898
  0
LINE
  8
0
 10
225.239
 20
176.898
 11
228.019
 21
177.812
  0
LINE
  8
0
 10
228.019
 20
177.812
 11
230.929
 21
178.128
  0
LINE
  8
0
 10
230.929
 20
178.128
 11
233.841
 21
177.832
  0
LINE
  8
0
 10
233.841
 20
177.832
 11
236.628
 21
176.937
  0
LINE
  8
0
 10
236.628
 20
176.937
 11
239.167
 21
175.482
  0
LINE
  8
0
 10
239.167
 20
175.482
 11
241.349
 21
173.531
  0
LINE
  8
0
 10
241.349
 20
173.531
 11
243.077
 21
171.169
  0
LINE
  8
0
 10
243.077
 20
171.169
 11
244.276
 21
168.499
  0
LINE
  8
0
 10
244.276
 20
168.499
 11
244.895
 21
165.638
  0
LINE
  8
0
 10
244.895
 20
165.638
 11
244.904
 21
162.711
  0
LINE
  8
0
 10
244.904
 20
162.711
 11
244.306
 21
159.847
  0
LINE
  8
0
 10
244.306
 20
159.847
 11
243.124
 21
157.169
  0
LINE
  8
0
 10
243.124
 20
157.169
 11
241.412
 21
154.795
  0
LINE
  8
0
 10
241.412
 20
154.795
 11
239.243
 21
152.83
  0
LINE
  8
0
 10
239.243
 20
152.83
 11
236.714
 21
151.358
  0
LINE
  8
0
 10
236.714
 20
151.358
 11
233.933
 21
150.444
  0
LINE
  8
0
 10
233.933
 20
150.444
 11
231.023
 21
150.128
  0
LINE
  8
0
 10
231.023
 20
150.128
 11
228.112
 21
150.424
  0
LINE
  8
0
 10
228.112
 20
150.424
 11
225.325
 21
151.319
  0
LINE
  8
0
 10
225.325
 20
151.319
 11
222.785
 21
152.774
  0
LINE
  8
0
 10
222.785
 20
152.774
 11
220.604
 21
154.725
  0
LINE
  8
0
 10
220.604
 20
154.725
 11
218.876
 21
157.087
  0
LINE
  8
0
 10
218.876
 20
157.087
 11
217.676
 21
159.757
  0
LINE
  8
0
 10
217.676
 20
159.757
 11
217.058
 21
162.618
  0
LINE
  8
0
 10
217.058
 20
162.618
 11
217.048
 21
165.545
  0
LINE
  8
0
 10
246
 20
231.425
 11
246.306
 21
234.336
  0
LINE
  8
0
 10
246.306
 20
234.336
 11
247.21
 21
237.119
  0
LINE
  8
0
 10
247.21
 20
237.119
 11
248.674
 21
239.654
  0
LINE
  8
0
 10
248.674
 20
239.654
 11
250.632
 21
241.829
  0
LINE
  8
0
 10
250.632
 20
241.829
 11
253
 21
243.549
  0
LINE
  8
0
 10
253
 20
243.549
 11
255.674
 21
244.74
  0
LINE
  8
0
 10
255.674
 20
244.74
 11
258.537
 21
245.348
  0
LINE
  8
0
 10
258.537
 20
245.348
 11
261.463
 21
245.348
  0
LINE
  8
0
 10
261.463
 20
245.348
 11
264.326
 21
244.74
  0
LINE
  8
0
 10
264.326
 20
244.74
 11
267
 21
243.549
  0
LINE
  8
0
 10
267
 20
243.549
 11
269.368
 21
241.829
  0
LINE
  8
0
 10
269.368
 20
241.829
 11
271.326
 21
239.654
  0
LINE
  8
0
 10
271.326
 20
239.654
 11
272.79
 21
237.119
  0
LINE
  8
0
 10
272.79
 20
237.119
 11
273.694
 21
234.336
  0
LINE
  8
0
 10
273.694
 20
234.336
 11
274
 21
231.425
  0
LINE
  8
0
 10
274
 20
231.425
 11
273.694
 21
228.514
  0
LINE
  8
0
 10
273.694
 20
228.514
 11
272.79
 21
225.731
  0
LINE
  8
0
 10
272.79
 20
225.731
 11
271.326
 21
223.196
  0
LINE
  8
0
 10
271.326
 20
223.196
 11
269.368
 21
221.021
  0
LINE
  8
0
 10
269.368
 20
221.021
 11
267
 21
219.301
  0
LINE
  8
0
 10
267
 20
219.301
 11
264.326
 21
218.11
  0
LINE
  8
0
 10
264.326
 20
218.11
 11
261.463
 21
217.502
  0
LINE
  8
0
 10
261.463
 20
217.502
 11
258.537
 21
217.502
  0
LINE
  8
0
 10
258.537
 20
217.502
 11
255.674
 21
218.11
  0
LINE
  8
0
 10
255.674
 20
218.11
 11
253
 21
219.301
  0
LINE
  8
0
 10
253
 20
219.301
 11
250.632
 21
221.021
  0
LINE
  8
0
 10
250.632
 20
221.021
 11
248.674
 21
223.196
  0
LINE
  8
0
 10
248.674
 20
223.196
 11
247.21
 21
225.731
  0
LINE
  8
0
 10
247.21
 20
225.731
 11
246.306
 21
228.514
  0
LINE
  8
0
 10
246.306
 20
228.514
 11
246
 21
231.425
  0
LINE
  8
0
 10
326
 20
231.425
 11
326.306
 21
234.336
  0
LINE
  8
0
 10
326.306
 20
234.336
 11
327.21
 21
237.119
  0
LINE
  8
0
 10
327.21
 20
237.119
 11
328.674
 21
239.654
  0
LINE
  8
0
 10
328.674
 20
239.654
 11
330.632
 21
241.829
  0
LINE
  8
0
 10
330.632
 20
241.829
 11
333
 21
243.549
  0
LINE
  8
0
 10
333
 20
243.549
 11
335.674
 21
244.74
  0
LINE
  8
0
 10
335.674
 20
244.74
 11
338.537
 21
245.348
  0
LINE
  8
0
 10
338.537
 20
245.348
 11
341.463
 21
245.348
  0
LINE
  8
0
 10
341.463
 20
245.348
 11
344.326
 21
244.74
  0
LINE
  8
0
 10
344.326
 20
244.74
 11
347
 21
243.549
  0
LINE
  8
0
 10
347
 20
243.549
 11
349.368
 21
241.829
  0
LINE
  8
0
 10
349.368
 20
241.829
 11
351.326
 21
239.654
  0
LINE
  8
0
 10
351.326
 20
239.654
 11
352.79
 21
237.119
  0
LINE
  8
0
 10
352.79
 20
237.119
 11
353.694
 21
234.336
  0
LINE
  8
0
 10
353.694
 20
234.336
 11
354
 21
231.425
  0
LINE
  8
0
 10
354
 20
231.425
 11
353.694
 21
228.514
  0
LINE
  8
0
 10
353.694
 20
228.514
 11
352.79
 21
225.731
  0
LINE
  8
0
 10
352.79
 20
225.731
 11
351.326
 21
223.196
  0
LINE
  8
0
 10
351.326
 20
223.196
 11
349.368
 21
221.021
  0
LINE
  8
0
 10
349.368
 20
221.021
 11
347
 21
219.301
  0
LINE
  8
0
 10
347
 20
219.301
 11
344.326
 21
218.11
  0
LINE
  8
0
 10
344.326
 20
218.11
 11
341.463
 21
217.502
  0
LINE
  8
0
 10
341.463
 20
217.502
 11
338.537
 21
217.502
  0
LINE
  8
0
 10
338.537
 20
217.502
 11
335.674
 21
218.11
  0
LINE
  8
0
 10
335.674
 20
218.11
 11
333
 21
219.301
  0
LINE
  8
0
 10
333
 20
219.301
 11
330.632
 21
221.021
  0
LINE
  8
0
 10
330.632
 20
221.021
 11
328.674
 21
223.196
  0
LINE
  8
0
 10
328.674
 20
223.196
 11
327.21
 21
225.731
  0
LINE
  8
0
 10
327.21
 20
225.731
 11
326.306
 21
228.514
  0
LINE
  8
0
 10
326.306
 20
228.514
 11
326
 21
231.425
  0
LINE
  8
0
 10
366
 20
231.425
 11
366.306
 21
234.336
  0
LINE
  8
0
 10
366.306
 20
234.336
 11
367.21
 21
237.119
  0
LINE
  8
0
 10
367.21
 20
237.119
 11
368.674
 21
239.654
  0
LINE
  8
0
 10
368.674
 20
239.654
 11
370.632
 21
241.829
  0
LINE
  8
0
 10
370.632
 20
241.829
 11
373
 21
243.549
  0
LINE
  8
0
 10
373
 20
243.549
 11
375.674
 21
244.74
  0
LINE
  8
0
 10
375.674
 20
244.74
 11
378.537
 21
245.348
  0
LINE
  8
0
 10
378.537
 20
245.348
 11
381.463
 21
245.348
  0
LINE
  8
0
 10
381.463
 20
245.348
 11
384.326
 21
244.74
  0
LINE
  8
0
 10
384.326
 20
244.74
 11
387
 21
243.549
  0
LINE
  8
0
 10
387
 20
243.549
 11
389.368
 21
241.829
  0
LINE
  8
0
 10
389.368
 20
241.829
 11
391.326
 21
239.654
  0
LINE
  8
0
 10
391.326
 20
239.654
 11
392.79
 21
237.119
  0
LINE
  8
0
 10
392.79
 20
237.119
 11
393.694
 21
234.336
  0
LINE
  8
0
 10
393.694
 20
234.336
 11
394
 21
231.425
  0
LINE
  8
0
 10
394
 20
231.425
 11
393.694
 21
228.514
  0
LINE
  8
0
 10
393.694
 20
228.514
 11
392.79
 21
225.731
  0
LINE
  8
0
 10
392.79
 20
225.731
 11
391.326
 21
223.196
  0
LINE
  8
0
 10
391.326
 20
223.196
 11
389.368
 21
221.021
  0
LINE
  8
0
 10
389.368
 20
221.021
 11
387
 21
219.301
  0
LINE
  8
0
 10
387
 20
219.301
 11
384.326
 21
218.11
  0
LINE
  8
0
 10
384.326
 20
218.11
 11
381.463
 21
217.502
  0
LINE
  8
0
 10
381.463
 20
217.502
 11
378.537
 21
217.502
  0
LINE
  8
0
 10
378.537
 20
217.502
 11
375.674
 21
218.11
  0
LINE
  8
0
 10
375.674
 20
218.11
 11
373
 21
219.301
  0
LINE
  8
0
 10
373
 20
219.301
 11
370.632
 21
221.021
  0
LINE
  8
0
 10
370.632
 20
221.021
 11
368.674
 21
223.196
  0
LINE
  8
0
 10
368.674
 20
223.196
 11
367.21
 21
225.731
  0
LINE
  8
0
 10
367.21
 20
225.731
 11
366.306
 21
228.514
  0
LINE
  8
0
 10
366.306
 20
228.514
 11
366
 21
231.425
  0
LINE
  8
0
 10
369.488
 20
124.974
 11
369.496
 21
127.274
  0
LINE
  8
0
 10
369.496
 20
127.274
 11
369.981
 21
129.521
  0
LINE
  8
0
 10
369.981
 20
129.521
 11
370.924
 21
131.619
  0
LINE
  8
0
 10
370.924
 20
131.619
 11
372.282
 21
133.475
  0
LINE
  8
0
 10
372.282
 20
133.475
 11
373.996
 21
135.008
  0
LINE
  8
0
 10
373.996
 20
135.008
 11
375.991
 21
136.151
  0
LINE
  8
0
 10
375.991
 20
136.151
 11
378.181
 21
136.854
  0
LINE
  8
0
 10
378.181
 20
136.854
 11
380.468
 21
137.087
  0
LINE
  8
0
 10
380.468
 20
137.087
 11
382.755
 21
136.839
  0
LINE
  8
0
 10
382.755
 20
136.839
 11
384.939
 21
136.121
  0
LINE
  8
0
 10
384.939
 20
136.121
 11
386.927
 21
134.964
  0
LINE
  8
0
 10
386.927
 20
134.964
 11
388.631
 21
133.42
  0
LINE
  8
0
 10
388.631
 20
133.42
 11
389.976
 21
131.555
  0
LINE
  8
0
 10
389.976
 20
131.555
 11
390.904
 21
129.451
  0
LINE
  8
0
 10
390.904
 20
129.451
 11
391.375
 21
127.2
  0
LINE
  8
0
 10
391.375
 20
127.2
 11
391.367
 21
124.9
  0
LINE
  8
0
 10
391.367
 20
124.9
 11
390.882
 21
122.653
  0
LINE
  8
0
 10
390.882
 20
122.653
 11
389.939
 21
120.555
  0
LINE
  8
0
 10
389.939
 20
120.555
 11
388.581
 21
118.699
  0
LINE
  8
0
 10
388.581
 20
118.699
 11
386.867
 21
117.166
  0
LINE
  8
0
 10
386.867
 20
117.166
 11
384.872
 21
116.023
  0
LINE
  8
0
 10
384.872
 20
116.023
 11
382.682
 21
115.32
  0
LINE
  8
0
 10
382.682
 20
115.32
 11
380.394
 21
115.087
  0
LINE
  8
0
 10
380.394
 20
115.087
 11
378.108
 21
115.335
  0
LINE
  8
0
 10
378.108
 20
115.335
 11
375.924
 21
116.053
  0
LINE
  8
0
 10
375.924
 20
116.053
 11
373.936
 21
117.21
  0
LINE
  8
0
 10
373.936
 20
117.21
 11
372.232
 21
118.754
  0
LINE
  8
0
 10
372.232
 20
118.754
 11
370.887
 21
120.619
  0
LINE
  8
0
 10
370.887
 20
120.619
 11
369.958
 21
122.723
  0
LINE
  8
0
 10
369.958
 20
122.723
 11
369.488
 21
124.974
  0
LINE
  8
0
 10
423.278
 20
149.543
 11
423.288
 21
152.47
  0
LINE
  8
0
 10
423.288
 20
152.47
 11
423.906
 21
155.33
  0
LINE
  8
0
 10
423.906
 20
155.33
 11
425.105
 21
158
  0
LINE
  8
0
 10
425.105
 20
158
 11
426.834
 21
160.362
  0
LINE
  8
0
 10
426.834
 20
160.362
 11
429.015
 21
162.313
  0
LINE
  8
0
 10
429.015
 20
162.313
 11
431.555
 21
163.768
  0
LINE
  8
0
 10
431.555
 20
163.768
 11
434.341
 21
164.663
  0
LINE
  8
0
 10
434.341
 20
164.663
 11
437.253
 21
164.959
  0
LINE
  8
0
 10
437.253
 20
164.959
 11
440.163
 21
164.644
  0
LINE
  8
0
 10
440.163
 20
164.644
 11
442.943
 21
163.73
  0
LINE
  8
0
 10
442.943
 20
163.73
 11
445.473
 21
162.258
  0
LINE
  8
0
 10
445.473
 20
162.258
 11
447.642
 21
160.292
  0
LINE
  8
0
 10
447.642
 20
160.292
 11
449.354
 21
157.919
  0
LINE
  8
0
 10
449.354
 20
157.919
 11
450.535
 21
155.241
  0
LINE
  8
0
 10
450.535
 20
155.241
 11
451.134
 21
152.376
  0
LINE
  8
0
 10
451.134
 20
152.376
 11
451.124
 21
149.449
  0
LINE
  8
0
 10
451.124
 20
149.449
 11
450.506
 21
146.588
  0
LINE
  8
0
 10
450.506
 20
146.588
 11
449.307
 21
143.919
  0
LINE
  8
0
 10
449.307
 20
143.919
 11
447.579
 21
141.557
  0
LINE
  8
0
 10
447.579
 20
141.557
 11
445.397
 21
139.606
  0
LINE
  8
0
 10
445.397
 20
139.606
 11
442.857
 21
138.151
  0
LINE
  8
0
 10
442.857
 20
138.151
 11
440.071
 21
137.256
  0
LINE
  8
0
 10
440.071
 20
137.256
 11
437.159
 21
136.96
  0
LINE
  8
0
 10
437.159
 20
136.96
 11
434.249
 21
137.275
  0
LINE
  8
0
 10
434.249
 20
137.275
 11
431.469
 21
138.189
  0
LINE
  8
0
 10
431.469
 20
138.189
 11
428.939
 21
139.661
  0
LINE
  8
0
 10
428.939
 20
139.661
 11
426.771
 21
141.627
  0
LINE
  8
0
 10
426.771
 20
141.627
 11
425.058
 21
144
  0
LINE
  8
0
 10
425.058
 20
144
 11
423.877
 21
146.678
  0
LINE
  8
0
 10
423.877
 20
146.678
 11
423.278
 21
149.543
  0
LINE
  8
0
 10
427.224
 20
110.743
 11
427.234
 21
113.67
  0
LINE
  8
0
 10
427.234
 20
113.67
 11
427.852
 21
116.531
  0
LINE
  8
0
 10
427.852
 20
116.531
 11
429.052
 21
119.2
  0
LINE
  8
0
 10
429.052
 20
119.2
 11
430.78
 21
121.562
  0
LINE
  8
0
 10
430.78
 20
121.562
 11
432.961
 21
123.513
  0
LINE
  8
0
 10
432.961
 20
123.513
 11
435.501
 21
124.968
  0
LINE
  8
0
 10
435.501
 20
124.968
 11
438.288
 21
125.863
  0
LINE
  8
0
 10
438.288
 20
125.863
 11
441.199
 21
126.16
  0
LINE
  8
0
 10
441.199
 20
126.16
 11
444.109
 21
125.844
  0
LINE
  8
0
 10
444.109
 20
125.844
 11
446.89
 21
124.93
  0
LINE
  8
0
 10
446.89
 20
124.93
 11
449.419
 21
123.458
  0
LINE
  8
0
 10
449.419
 20
123.458
 11
451.588
 21
121.492
  0
LINE
  8
0
 10
451.588
 20
121.492
 11
453.3
 21
119.119
  0
LINE
  8
0
 10
453.3
 20
119.119
 11
454.482
 21
116.441
  0
LINE
  8
0
 10
454.482
 20
116.441
 11
455.08
 21
113.576
  0
LINE
  8
0
 10
455.08
 20
113.576
 11
455.071
 21
110.649
  0
LINE
  8
0
 10
455.071
 20
110.649
 11
454.452
 21
107.789
  0
LINE
  8
0
 10
454.452
 20
107.789
 11
453.253
 21
105.119
  0
LINE
  8
0
 10
453.253
 20
105.119
 11
451.525
 21
102.757
  0
LINE
  8
0
 10
451.525
 20
102.757
 11
449.343
 21
100.806
  0
LINE
  8
0
 10
449.343
 20
100.806
 11
446.804
 21
99.3509
  0
LINE
  8
0
 10
446.804
 20
99.3509
 11
444.017
 21
98.4558
  0
LINE
  8
0
 10
444.017
 20
98.4558
 11
441.105
 21
98.1597
  0
LINE
  8
0
 10
441.105
 20
98.1597
 11
438.196
 21
98.4754
  0
LINE
  8
0
 10
438.196
 20
98.4754
 11
435.415
 21
99.3892
  0
LINE
  8
0
 10
435.415
 20
99.3892
 11
432.885
 21
100.861
  0
LINE
  8
0
 10
432.885
 20
100.861
 11
430.717
 21
102.827
  0
LINE
  8
0
 10
430.717
 20
102.827
 11
429.005
 21
105.2
  0
LINE
  8
0
 10
429.005
 20
105.2
 11
427.823
 21
107.878
  0
LINE
  8
0
 10
427.823
 20
107.878
 11
427.224
 21
110.743
  0
LINE
  8
0
 10
451.598
 20
172.526
 11
451.608
 21
175.453
  0
LINE
  8
0
 10
451.608
 20
175.453
 11
452.226
 21
178.314
  0
LINE
  8
0
 10
452.226
 20
178.314
 11
453.425
 21
180.984
  0
LINE
  8
0
 10
453.425
 20
180.984
 11
455.153
 21
183.346
  0
LINE
  8
0
 10
455.153
 20
183.346
 11
457.335
 21
185.297
  0
LINE
  8
0
 10
457.335
 20
185.297
 11
459.875
 21
186.752
  0
LINE
  8
0
 10
459.875
 20
186.752
 11
462.661
 21
187.647
  0
LINE
  8
0
 10
462.661
 20
187.647
 11
465.573
 21
187.943
  0
LINE
  8
0
 10
465.573
 20
187.943
 11
468.483
 21
187.627
  0
LINE
  8
0
 10
468.483
 20
187.627
 11
471.263
 21
186.713
  0
LINE
  8
0
 10
471.263
 20
186.713
 11
473.793
 21
185.241
  0
LINE
  8
0
 10
473.793
 20
185.241
 11
475.961
 21
183.276
  0
LINE
  8
0
 10
475.961
 20
183.276
 11
477.674
 21
180.902
  0
LINE
  8
0
 10
477.674
 20
180.902
 11
478.855
 21
178.224
  0
LINE
  8
0
 10
478.855
 20
178.224
 11
479.454
 21
175.359
  0
LINE
  8
0
 10
479.454
 20
175.359
 11
479.444
 21
172.433
  0
LINE
  8
0
 10
479.444
 20
172.433
 11
478.826
 21
169.572
  0
LINE
  8
0
 10
478.826
 20
169.572
 11
477.627
 21
166.902
  0
LINE
  8
0
 10
477.627
 20
166.902
 11
475.898
 21
164.54
  0
LINE
  8
0
 10
475.898
 20
164.54
 11
473.717
 21
162.589
  0
LINE
  8
0
 10
473.717
 20
162.589
 11
471.177
 21
161.134
  0
LINE
  8
0
 10
471.177
 20
161.134
 11
468.391
 21
160.239
  0
LINE
  8
0
 10
468.391
 20
160.239
 11
465.479
 21
159.943
  0
LINE
  8
0
 10
465.479
 20
159.943
 11
462.569
 21
160.259
  0
LINE
  8
0
 10
462.569
 20
160.259
 11
459.789
 21
161.172
  0
LINE
  8
0
 10
459.789
 20
161.172
 11
457.259
 21
162.644
  0
LINE
  8
0
 10
457.259
 20
162.644
 11
455.09
 21
164.61
  0
LINE
  8
0
 10
455.09
 20
164.61
 11
453.378
 21
166.984
  0
LINE
  8
0
 10
453.378
 20
166.984
 11
452.197
 21
169.661
  0
LINE
  8
0
 10
452.197
 20
169.661
 11
451.598
 21
172.526
  0
LINE
  8
0
 10
455.544
 20
133.726
 11
455.554
 21
136.653
  0
LINE
  8
0
 10
455.554
 20
136.653
 11
456.172
 21
139.514
  0
LINE
  8
0
 10
456.172
 20
139.514
 11
457.371
 21
142.184
  0
LINE
  8
0
 10
457.371
 20
142.184
 11
459.1
 21
144.546
  0
LINE
  8
0
 10
459.1
 20
144.546
 11
461.281
 21
146.497
  0
LINE
  8
0
 10
461.281
 20
146.497
 11
463.821
 21
147.952
  0
LINE
  8
0
 10
463.821
 20
147.952
 11
466.607
 21
148.847
  0
LINE
  8
0
 10
466.607
 20
148.847
 11
469.519
 21
149.143
  0
LINE
  8
0
 10
469.519
 20
149.143
 11
472.429
 21
148.827
  0
LINE
  8
0
 10
472.429
 20
148.827
 11
475.209
 21
147.913
  0
LINE
  8
0
 10
475.209
 20
147.913
 11
477.739
 21
146.442
  0
LINE
  8
0
 10
477.739
 20
146.442
 11
479.908
 21
144.476
  0
LINE
  8
0
 10
479.908
 20
144.476
 11
481.62
 21
142.102
  0
LINE
  8
0
 10
481.62
 20
142.102
 11
482.801
 21
139.425
  0
LINE
  8
0
 10
482.801
 20
139.425
 11
483.4
 21
136.56
  0
LINE
  8
0
 10
483.4
 20
136.56
 11
483.39
 21
133.633
  0
LINE
  8
0
 10
483.39
 20
133.633
 11
482.772
 21
130.772
  0
LINE
  8
0
 10
482.772
 20
130.772
 11
481.573
 21
128.102
  0
LINE
  8
0
 10
481.573
 20
128.102
 11
479.845
 21
125.74
  0
LINE
  8
0
 10
479.845
 20
125.74
 11
477.663
 21
123.789
  0
LINE
  8
0
 10
477.663
 20
123.789
 11
475.123
 21
122.334
  0
LINE
  8
0
 10
475.123
 20
122.334
 11
472.337
 21
121.439
  0
LINE
  8
0
 10
472.337
 20
121.439
 11
469.425
 21
121.143
  0
LINE
  8
0
 10
469.425
 20
121.143
 11
466.515
 21
121.459
  0
LINE
  8
0
 10
466.515
 20
121.459
 11
463.735
 21
122.373
  0
LINE
  8
0
 10
463.735
 20
122.373
 11
461.205
 21
123.845
  0
LINE
  8
0
 10
461.205
 20
123.845
 11
459.037
 21
125.81
  0
LINE
  8
0
 10
459.037
 20
125.81
 11
457.324
 21
128.184
  0
LINE
  8
0
 10
457.324
 20
128.184
 11
456.143
 21
130.862
  0
LINE
  8
0
 10
456.143
 20
130.862
 11
455.544
 21
133.726
  0
LINE
  8
0
 10
487.413
 20
176.169
 11
487.423
 21
179.096
  0
LINE
  8
0
 10
487.423
 20
179.096
 11
488.041
 21
181.957
  0
LINE
  8
0
 10
488.041
 20
181.957
 11
489.24
 21
184.626
  0
LINE
  8
0
 10
489.24
 20
184.626
 11
490.969
 21
186.988
  0
LINE
  8
0
 10
490.969
 20
186.988
 11
493.15
 21
188.939
  0
LINE
  8
0
 10
493.15
 20
188.939
 11
495.69
 21
190.394
  0
LINE
  8
0
 10
495.69
 20
190.394
 11
498.476
 21
191.289
  0
LINE
  8
0
 10
498.476
 20
191.289
 11
501.388
 21
191.585
  0
LINE
  8
0
 10
501.388
 20
191.585
 11
504.298
 21
191.27
  0
LINE
  8
0
 10
504.298
 20
191.27
 11
507.078
 21
190.356
  0
LINE
  8
0
 10
507.078
 20
190.356
 11
509.608
 21
188.884
  0
LINE
  8
0
 10
509.608
 20
188.884
 11
511.777
 21
186.918
  0
LINE
  8
0
 10
511.777
 20
186.918
 11
513.489
 21
184.545
  0
LINE
  8
0
 10
513.489
 20
184.545
 11
514.67
 21
181.867
  0
LINE
  8
0
 10
514.67
 20
181.867
 11
515.269
 21
179.002
  0
LINE
  8
0
 10
515.269
 20
179.002
 11
515.259
 21
176.075
  0
LINE
  8
0
 10
515.259
 20
176.075
 11
514.641
 21
173.215
  0
LINE
  8
0
 10
514.641
 20
173.215
 11
513.442
 21
170.545
  0
LINE
  8
0
 10
513.442
 20
170.545
 11
511.714
 21
168.183
  0
LINE
  8
0
 10
511.714
 20
168.183
 11
509.532
 21
166.232
  0
LINE
  8
0
 10
509.532
 20
166.232
 11
506.992
 21
164.777
  0
LINE
  8
0
 10
506.992
 20
164.777
 11
504.206
 21
163.882
  0
LINE
  8
0
 10
504.206
 20
163.882
 11
501.294
 21
163.586
  0
LINE
  8
0
 10
501.294
 20
163.586
 11
498.384
 21
163.901
  0
LINE
  8
0
 10
498.384
 20
163.901
 11
495.604
 21
164.815
  0
LINE
  8
0
 10
495.604
 20
164.815
 11
493.074
 21
166.287
  0
LINE
  8
0
 10
493.074
 20
166.287
 11
490.906
 21
168.253
  0
LINE
  8
0
 10
490.906
 20
168.253
 11
489.193
 21
170.626
  0
LINE
  8
0
 10
489.193
 20
170.626
 11
488.012
 21
173.304
  0
LINE
  8
0
 10
488.012
 20
173.304
 11
487.413
 21
176.169
  0
LINE
  8
0
 10
491.359
 20
137.369
 11
491.369
 21
140.296
  0
LINE
  8
0
 10
491.369
 20
140.296
 11
491.987
 21
143.157
  0
LINE
  8
0
 10
491.987
 20
143.157
 11
493.187
 21
145.826
  0
LINE
  8
0
 10
493.187
 20
145.826
 11
494.915
 21
148.188
  0
LINE
  8
0
 10
494.915
 20
148.188
 11
497.096
 21
150.14
  0
LINE
  8
0
 10
497.096
 20
150.14
 11
499.636
 21
151.594
  0
LINE
  8
0
 10
499.636
 20
151.594
 11
502.423
 21
152.489
  0
LINE
  8
0
 10
502.423
 20
152.489
 11
505.334
 21
152.786
  0
LINE
  8
0
 10
505.334
 20
152.786
 11
508.244
 21
152.47
  0
LINE
  8
0
 10
508.244
 20
152.47
 11
511.025
 21
151.556
  0
LINE
  8
0
 10
511.025
 20
151.556
 11
513.554
 21
150.084
  0
LINE
  8
0
 10
513.554
 20
150.084
 11
515.723
 21
148.119
  0
LINE
  8
0
 10
515.723
 20
148.119
 11
517.435
 21
145.745
  0
LINE
  8
0
 10
517.435
 20
145.745
 11
518.617
 21
143.067
  0
LINE
  8
0
 10
518.617
 20
143.067
 11
519.215
 21
140.202
  0
LINE
  8
0
 10
519.215
 20
140.202
 11
519.206
 21
137.276
  0
LINE
  8
0
 10
519.206
 20
137.276
 11
518.588
 21
134.415
  0
LINE
  8
0
 10
518.588
 20
134.415
 11
517.388
 21
131.745
  0
LINE
  8
0
 10
517.388
 20
131.745
 11
515.66
 21
129.383
  0
LINE
  8
0
 10
515.66
 20
129.383
 11
513.478
 21
127.432
  0
LINE
  8
0
 10
513.478
 20
127.432
 11
510.939
 21
125.977
  0
LINE
  8
0
 10
510.939
 20
125.977
 11
508.152
 21
125.082
  0
LINE
  8
0
 10
508.152
 20
125.082
 11
505.24
 21
124.786
  0
LINE
  8
0
 10
505.24
 20
124.786
 11
502.331
 21
125.102
  0
LINE
  8
0
 10
502.331
 20
125.102
 11
499.55
 21
126.015
  0
LINE
  8
0
 10
499.55
 20
126.015
 11
497.02
 21
127.487
  0
LINE
  8
0
 10
497.02
 20
127.487
 11
494.852
 21
129.453
  0
LINE
  8
0
 10
494.852
 20
129.453
 11
493.14
 21
131.827
  0
LINE
  8
0
 10
493.14
 20
131.827
 11
491.958
 21
134.504
  0
LINE
  8
0
 10
491.958
 20
134.504
 11
491.359
 21
137.369
  0
LINE
  8
0
 10
1.90471
 20
333.275
 11
2.13873
 21
331.209
  0
LINE
  8
0
 10
2.13873
 20
331.209
 11
2.79716
 21
329.237
  0
LINE
  8
0
 10
2.79716
 20
329.237
 11
3.8512
 21
327.445
  0
LINE
  8
0
 10
3.8512
 20
327.445
 11
5.25485
 21
325.912
  0
LINE
  8
0
 10
5.25485
 20
325.912
 11
6.94658
 21
324.703
  0
LINE
  8
0
 10
6.94658
 20
324.703
 11
9.07314
 21
323.777
  0
LINE
  8
0
 10
9.07314
 20
323.777
 11
10.2213
 21
323.485
  0
LINE
  8
0
 10
10.2213
 20
323.485
 11
39.271
 21
317.838
  0
LINE
  8
0
 10
39.271
 20
317.838
 11
39.7867
 21
317.747
  0
LINE
  8
0
 10
39.7867
 20
317.747
 11
90.981
 21
309.639
  0
LINE
  8
0
 10
90.981
 20
309.639
 11
91.5004
 21
309.566
  0
LINE
  8
0
 10
91.5004
 20
309.566
 11
142.947
 21
303.249
  0
LINE
  8
0
 10
142.947
 20
303.249
 11
143.468
 21
303.194
  0
LINE
  8
0
 10
143.468
 20
303.194
 11
195.104
 21
298.677
  0
LINE
  8
0
 10
195.104
 20
298.677
 11
195.627
 21
298.64
  0
LINE
  8
0
 10
195.627
 20
298.64
 11
247.39
 21
295.927
  0
LINE
  8
0
 10
247.39
 20
295.927
 11
247.913
 21
295.909
  0
LINE
  8
0
 10
247.913
 20
295.909
 11
299.738
 21
295.005
  0
LINE
  8
0
 10
299.738
 20
295.005
 11
300.262
 21
295.005
  0
LINE
  8
0
 10
300.262
 20
295.005
 11
352.087
 21
295.909
  0
LINE
  8
0
 10
352.087
 20
295.909
 11
352.61
 21
295.927
  0
LINE
  8
0
 10
352.61
 20
295.927
 11
404.373
 21
298.64
  0
LINE
  8
0
 10
404.373
 20
298.64
 11
404.896
 21
298.677
  0
LINE
  8
0
 10
404.896
 20
298.677
 11
456.532
 21
303.194
  0
LINE
  8
0
 10
456.532
 20
303.194
 11
457.053
 21
303.249
  0
LINE
  8
0
 10
457.053
 20
303.249
 11
508.5
 21
309.566
  0
LINE
  8
0
 10
508.5
 20
309.566
 11
509.019
 21
309.639
  0
LINE
  8
0
 10
509.019
 20
309.639
 11
560.213
 21
317.747
  0
LINE
  8
0
 10
560.213
 20
317.747
 11
560.729
 21
317.838
  0
LINE
  8
0
 10
560.729
 20
317.838
 11
589.544
 21
323.439
  0
LINE
  8
0
 10
589.544
 20
323.439
 11
592.036
 21
324.201
  0
LINE
  8
0
 10
592.036
 20
324.201
 11
593.855
 21
325.209
  0
LINE
  8
0
 10
593.855
 20
325.209
 11
595.424
 21
326.573
  0
LINE
  8
0
 10
595.424
 20
326.573
 11
596.675
 21
328.234
  0
LINE
  8
0
 10
596.675
 20
328.234
 11
597.554
 21
330.118
  0
LINE
  8
0
 10
597.554
 20
330.118
 11
598.021
 21
332.144
  0
LINE
  8
0
 10
598.021
 20
332.144
 11
598.062
 21
334.463
  0
LINE
  8
0
 10
598.062
 20
334.463
 11
597.892
 21
335.635
  0
LINE
  8
0
 10
597.892
 20
335.635
 11
551.79
 21
561.487
  0
LINE
  8
0
 10
551.79
 20
561.487
 11
551.005
 21
563.971
  0
LINE
  8
0
 10
551.005
 20
563.971
 11
549.98
 21
565.78
  0
LINE
  8
0
 10
549.98
 20
565.78
 11
548.601
 21
567.337
  0
LINE
  8
0
 10
548.601
 20
567.337
 11
546.929
 21
568.572
  0
LINE
  8
0
 10
546.929
 20
568.572
 11
545.037
 21
569.433
  0
LINE
  8
0
 10
545.037
 20
569.433
 11
542.769
 21
569.934
  0
LINE
  8
0
 10
542.769
 20
569.934
 11
541.605
 21
570
  0
LINE
  8
0
 10
541.605
 20
570
 11
58.637
 21
570
  0
LINE
  8
0
 10
58.637
 20
570
 11
56.0452
 21
569.728
  0
LINE
  8
0
 10
56.0452
 20
569.728
 11
54.0679
 21
569.085
  0
LINE
  8
0
 10
54.0679
 20
569.085
 11
52.2674
 21
568.046
  0
LINE
  8
0
 10
52.2674
 20
568.046
 11
50.7224
 21
566.655
  0
LINE
  8
0
 10
50.7224
 20
566.655
 11
49.5003
 21
564.972
  0
LINE
  8
0
 10
49.5003
 20
564.972
 11
48.5556
 21
562.851
  0
LINE
  8
0
 10
48.5556
 20
562.851
 11
48.2585
 21
561.724
  0
LINE
  8
0
 10
48.2585
 20
561.724
 11
2.15616
 21
335.869
  0
LINE
  8
0
 10
2.15616
 20
335.869
 11
1.90471
 21
333.275
  0
LINE
  8
0
 10
62.1934
 20
385.83
 11
72.5142
 21
487.307
  0
LINE
  8
0
 10
72.5142
 20
487.307
 11
142.155
 21
480.224
  0
LINE
  8
0
 10
142.155
 20
480.224
 11
131.834
 21
378.747
  0
LINE
  8
0
 10
131.834
 20
378.747
 11
62.1934
 21
385.83
  0
LINE
  8
0
 10
144.92
 20
408.576
 11
145.518
 21
411.441
  0
LINE
  8
0
 10
145.518
 20
411.441
 11
146.7
 21
414.119
  0
LINE
  8
0
 10
146.7
 20
414.119
 11
148.412
 21
416.492
  0
LINE
  8
0
 10
148.412
 20
416.492
 11
150.581
 21
418.458
  0
LINE
  8
0
 10
150.581
 20
418.458
 11
153.11
 21
419.93
  0
LINE
  8
0
 10
153.11
 20
419.93
 11
155.891
 21
420.844
  0
LINE
  8
0
 10
155.891
 20
420.844
 11
158.801
 21
421.16
  0
LINE
  8
0
 10
158.801
 20
421.16
 11
161.712
 21
420.863
  0
LINE
  8
0
 10
161.712
 20
420.863
 11
164.499
 21
419.968
  0
LINE
  8
0
 10
164.499
 20
419.968
 11
167.039
 21
418.513
  0
LINE
  8
0
 10
167.039
 20
418.513
 11
169.22
 21
416.562
  0
LINE
  8
0
 10
169.22
 20
416.562
 11
170.948
 21
414.2
  0
LINE
  8
0
 10
170.948
 20
414.2
 11
172.148
 21
411.531
  0
LINE
  8
0
 10
172.148
 20
411.531
 11
172.766
 21
408.67
  0
LINE
  8
0
 10
172.766
 20
408.67
 11
172.776
 21
405.743
  0
LINE
  8
0
 10
172.776
 20
405.743
 11
172.177
 21
402.878
  0
LINE
  8
0
 10
172.177
 20
402.878
 11
170.995
 21
400.2
  0
LINE
  8
0
 10
170.995
 20
400.2
 11
169.283
 21
397.827
  0
LINE
  8
0
 10
169.283
 20
397.827
 11
167.115
 21
395.861
  0
LINE
  8
0
 10
167.115
 20
395.861
 11
164.585
 21
394.389
  0
LINE
  8
0
 10
164.585
 20
394.389
 11
161.804
 21
393.475
  0
LINE
  8
0
 10
161.804
 20
393.475
 11
158.895
 21
393.16
  0
LINE
  8
0
 10
158.895
 20
393.16
 11
155.983
 21
393.456
  0
LINE
  8
0
 10
155.983
 20
393.456
 11
153.196
 21
394.351
  0
LINE
  8
0
 10
153.196
 20
394.351
 11
150.657
 21
395.806
  0
LINE
  8
0
 10
150.657
 20
395.806
 11
148.475
 21
397.757
  0
LINE
  8
0
 10
148.475
 20
397.757
 11
146.747
 21
400.119
  0
LINE
  8
0
 10
146.747
 20
400.119
 11
145.548
 21
402.789
  0
LINE
  8
0
 10
145.548
 20
402.789
 11
144.929
 21
405.649
  0
LINE
  8
0
 10
144.929
 20
405.649
 11
144.92
 21
408.576
  0
LINE
  8
0
 10
148.866
 20
447.376
 11
149.465
 21
450.241
  0
LINE
  8
0
 10
149.465
 20
450.241
 11
150.646
 21
452.919
  0
LINE
  8
0
 10
150.646
 20
452.919
 11
152.358
 21
455.292
  0
LINE
  8
0
 10
152.358
 20
455.292
 11
154.527
 21
457.258
  0
LINE
  8
0
 10
154.527
 20
457.258
 11
157.057
 21
458.73
  0
LINE
  8
0
 10
157.057
 20
458.73
 11
159.837
 21
459.644
  0
LINE
  8
0
 10
159.837
 20
459.644
 11
162.747
 21
459.959
  0
LINE
  8
0
 10
162.747
 20
459.959
 11
165.659
 21
459.663
  0
LINE
  8
0
 10
165.659
 20
459.663
 11
168.445
 21
458.768
  0
LINE
  8
0
 10
168.445
 20
458.768
 11
170.985
 21
457.313
  0
LINE
  8
0
 10
170.985
 20
457.313
 11
173.166
 21
455.362
  0
LINE
  8
0
 10
173.166
 20
455.362
 11
174.895
 21
453
  0
LINE
  8
0
 10
174.895
 20
453
 11
176.094
 21
450.33
  0
LINE
  8
0
 10
176.094
 20
450.33
 11
176.712
 21
447.47
  0
LINE
  8
0
 10
176.712
 20
447.47
 11
176.722
 21
444.543
  0
LINE
  8
0
 10
176.722
 20
444.543
 11
176.123
 21
441.678
  0
LINE
  8
0
 10
176.123
 20
441.678
 11
174.942
 21
439
  0
LINE
  8
0
 10
174.942
 20
439
 11
173.229
 21
436.627
  0
LINE
  8
0
 10
173.229
 20
436.627
 11
171.061
 21
434.661
  0
LINE
  8
0
 10
171.061
 20
434.661
 11
168.531
 21
433.189
  0
LINE
  8
0
 10
168.531
 20
433.189
 11
165.751
 21
432.275
  0
LINE
  8
0
 10
165.751
 20
432.275
 11
162.841
 21
431.96
  0
LINE
  8
0
 10
162.841
 20
431.96
 11
159.929
 21
432.256
  0
LINE
  8
0
 10
159.929
 20
432.256
 11
157.143
 21
433.151
  0
LINE
  8
0
 10
157.143
 20
433.151
 11
154.603
 21
434.606
  0
LINE
  8
0
 10
154.603
 20
434.606
 11
152.421
 21
436.557
  0
LINE
  8
0
 10
152.421
 20
436.557
 11
150.693
 21
438.919
  0
LINE
  8
0
 10
150.693
 20
438.919
 11
149.494
 21
441.588
  0
LINE
  8
0
 10
149.494
 20
441.588
 11
148.876
 21
444.449
  0
LINE
  8
0
 10
148.876
 20
444.449
 11
148.866
 21
447.376
  0
LINE
  8
0
 10
177.287
 20
425.387
 11
177.886
 21
428.252
  0
LINE
  8
0
 10
177.886
 20
428.252
 11
179.067
 21
430.93
  0
LINE
  8
0
 10
179.067
 20
430.93
 11
180.779
 21
433.304
  0
LINE
  8
0
 10
180.779
 20
433.304
 11
182.948
 21
435.269
  0
LINE
  8
0
 10
182.948
 20
435.269
 11
185.478
 21
436.741
  0
LINE
  8
0
 10
185.478
 20
436.741
 11
188.258
 21
437.655
  0
LINE
  8
0
 10
188.258
 20
437.655
 11
191.168
 21
437.971
  0
LINE
  8
0
 10
191.168
 20
437.971
 11
194.08
 21
437.675
  0
LINE
  8
0
 10
194.08
 20
437.675
 11
196.866
 21
436.78
  0
LINE
  8
0
 10
196.866
 20
436.78
 11
199.406
 21
435.325
  0
LINE
  8
0
 10
199.406
 20
435.325
 11
201.587
 21
433.374
  0
LINE
  8
0
 10
201.587
 20
433.374
 11
203.316
 21
431.012
  0
LINE
  8
0
 10
203.316
 20
431.012
 11
204.515
 21
428.342
  0
LINE
  8
0
 10
204.515
 20
428.342
 11
205.133
 21
425.481
  0
LINE
  8
0
 10
205.133
 20
425.481
 11
205.143
 21
422.554
  0
LINE
  8
0
 10
205.143
 20
422.554
 11
204.544
 21
419.689
  0
LINE
  8
0
 10
204.544
 20
419.689
 11
203.363
 21
417.012
  0
LINE
  8
0
 10
203.363
 20
417.012
 11
201.65
 21
414.638
  0
LINE
  8
0
 10
201.65
 20
414.638
 11
199.482
 21
412.672
  0
LINE
  8
0
 10
199.482
 20
412.672
 11
196.952
 21
411.2
  0
LINE
  8
0
 10
196.952
 20
411.2
 11
194.172
 21
410.287
  0
LINE
  8
0
 10
194.172
 20
410.287
 11
191.262
 21
409.971
  0
LINE
  8
0
 10
191.262
 20
409.971
 11
188.35
 21
410.267
  0
LINE
  8
0
 10
188.35
 20
410.267
 11
185.564
 21
411.162
  0
LINE
  8
0
 10
185.564
 20
411.162
 11
183.024
 21
412.617
  0
LINE
  8
0
 10
183.024
 20
412.617
 11
180.842
 21
414.568
  0
LINE
  8
0
 10
180.842
 20
414.568
 11
179.114
 21
416.93
  0
LINE
  8
0
 10
179.114
 20
416.93
 11
177.915
 21
419.6
  0
LINE
  8
0
 10
177.915
 20
419.6
 11
177.297
 21
422.461
  0
LINE
  8
0
 10
177.297
 20
422.461
 11
177.287
 21
425.387
  0
LINE
  8
0
 10
181.233
 20
464.187
 11
181.832
 21
467.052
  0
LINE
  8
0
 10
181.832
 20
467.052
 11
183.013
 21
469.73
  0
LINE
  8
0
 10
183.013
 20
469.73
 11
184.726
 21
472.103
  0
LINE
  8
0
 10
184.726
 20
472.103
 11
186.894
 21
474.069
  0
LINE
  8
0
 10
186.894
 20
474.069
 11
189.424
 21
475.541
  0
LINE
  8
0
 10
189.424
 20
475.541
 11
192.204
 21
476.455
  0
LINE
  8
0
 10
192.204
 20
476.455
 11
195.114
 21
476.771
  0
LINE
  8
0
 10
195.114
 20
476.771
 11
198.026
 21
476.474
  0
LINE
  8
0
 10
198.026
 20
476.474
 11
200.812
 21
475.579
  0
LINE
  8
0
 10
200.812
 20
475.579
 11
203.352
 21
474.124
  0
LINE
  8
0
 10
203.352
 20
474.124
 11
205.533
 21
472.173
  0
LINE
  8
0
 10
205.533
 20
472.173
 11
207.262
 21
469.811
  0
LINE
  8
0
 10
207.262
 20
469.811
 11
208.461
 21
467.142
  0
LINE
  8
0
 10
208.461
 20
467.142
 11
209.079
 21
464.281
  0
LINE
  8
0
 10
209.079
 20
464.281
 11
209.089
 21
461.354
  0
LINE
  8
0
 10
209.089
 20
461.354
 11
208.49
 21
458.489
  0
LINE
  8
0
 10
208.49
 20
458.489
 11
207.309
 21
455.811
  0
LINE
  8
0
 10
207.309
 20
455.811
 11
205.596
 21
453.438
  0
LINE
  8
0
 10
205.596
 20
453.438
 11
203.428
 21
451.472
  0
LINE
  8
0
 10
203.428
 20
451.472
 11
200.898
 21
450
  0
LINE
  8
0
 10
200.898
 20
450
 11
198.118
 21
449.086
  0
LINE
  8
0
 10
198.118
 20
449.086
 11
195.208
 21
448.771
  0
LINE
  8
0
 10
195.208
 20
448.771
 11
192.296
 21
449.067
  0
LINE
  8
0
 10
192.296
 20
449.067
 11
189.51
 21
449.962
  0
LINE
  8
0
 10
189.51
 20
449.962
 11
186.97
 21
451.417
  0
LINE
  8
0
 10
186.97
 20
451.417
 11
184.789
 21
453.368
  0
LINE
  8
0
 10
184.789
 20
453.368
 11
183.06
 21
455.73
  0
LINE
  8
0
 10
183.06
 20
455.73
 11
181.861
 21
458.4
  0
LINE
  8
0
 10
181.861
 20
458.4
 11
181.243
 21
461.26
  0
LINE
  8
0
 10
181.243
 20
461.26
 11
181.233
 21
464.187
  0
LINE
  8
0
 10
206
 20
526.425
 11
206.306
 21
529.336
  0
LINE
  8
0
 10
206.306
 20
529.336
 11
207.21
 21
532.119
  0
LINE
  8
0
 10
207.21
 20
532.119
 11
208.674
 21
534.654
  0
LINE
  8
0
 10
208.674
 20
534.654
 11
210.632
 21
536.829
  0
LINE
  8
0
 10
210.632
 20
536.829
 11
213
 21
538.549
  0
LINE
  8
0
 10
213
 20
538.549
 11
215.674
 21
539.74
  0
LINE
  8
0
 10
215.674
 20
539.74
 11
218.537
 21
540.348
  0
LINE
  8
0
 10
218.537
 20
540.348
 11
221.463
 21
540.348
  0
LINE
  8
0
 10
221.463
 20
540.348
 11
224.326
 21
539.74
  0
LINE
  8
0
 10
224.326
 20
539.74
 11
227
 21
538.549
  0
LINE
  8
0
 10
227
 20
538.549
 11
229.368
 21
536.829
  0
LINE
  8
0
 10
229.368
 20
536.829
 11
231.326
 21
534.654
  0
LINE
  8
0
 10
231.326
 20
534.654
 11
232.79
 21
532.119
  0
LINE
  8
0
 10
232.79
 20
532.119
 11
233.694
 21
529.336
  0
LINE
  8
0
 10
233.694
 20
529.336
 11
234
 21
526.425
  0
LINE
  8
0
 10
234
 20
526.425
 11
233.694
 21
523.514
  0
LINE
  8
0
 10
233.694
 20
523.514
 11
232.79
 21
520.731
  0
LINE
  8
0
 10
232.79
 20
520.731
 11
231.326
 21
518.196
  0
LINE
  8
0
 10
231.326
 20
518.196
 11
229.368
 21
516.021
  0
LINE
  8
0
 10
229.368
 20
516.021
 11
227
 21
514.301
  0
LINE
  8
0
 10
227
 20
514.301
 11
224.326
 21
513.11
  0
LINE
  8
0
 10
224.326
 20
513.11
 11
221.463
 21
512.502
  0
LINE
  8
0
 10
221.463
 20
512.502
 11
218.537
 21
512.502
  0
LINE
  8
0
 10
218.537
 20
512.502
 11
215.674
 21
513.11
  0
LINE
  8
0
 10
215.674
 20
513.11
 11
213
 21
514.301
  0
LINE
  8
0
 10
213
 20
514.301
 11
210.632
 21
516.021
  0
LINE
  8
0
 10
210.632
 20
516.021
 11
208.674
 21
518.196
  0
LINE
  8
0
 10
208.674
 20
518.196
 11
207.21
 21
520.731
  0
LINE
  8
0
 10
207.21
 20
520.731
 11
206.306
 21
523.514
  0
LINE
  8
0
 10
206.306
 20
523.514
 11
206
 21
526.425
  0
LINE
  8
0
 10
213.102
 20
421.745
 11
213.701
 21
424.61
  0
LINE
  8
0
 10
213.701
 20
424.61
 11
214.882
 21
427.287
  0
LINE
  8
0
 10
214.882
 20
427.287
 11
216.595
 21
429.661
  0
LINE
  8
0
 10
216.595
 20
429.661
 11
218.763
 21
431.627
  0
LINE
  8
0
 10
218.763
 20
431.627
 11
221.293
 21
433.099
  0
LINE
  8
0
 10
221.293
 20
433.099
 11
224.073
 21
434.012
  0
LINE
  8
0
 10
224.073
 20
434.012
 11
226.983
 21
434.328
  0
LINE
  8
0
 10
226.983
 20
434.328
 11
229.895
 21
434.032
  0
LINE
  8
0
 10
229.895
 20
434.032
 11
232.681
 21
433.137
  0
LINE
  8
0
 10
232.681
 20
433.137
 11
235.221
 21
431.682
  0
LINE
  8
0
 10
235.221
 20
431.682
 11
237.403
 21
429.731
  0
LINE
  8
0
 10
237.403
 20
429.731
 11
239.131
 21
427.369
  0
LINE
  8
0
 10
239.131
 20
427.369
 11
240.33
 21
424.699
  0
LINE
  8
0
 10
240.33
 20
424.699
 11
240.948
 21
421.838
  0
LINE
  8
0
 10
240.948
 20
421.838
 11
240.958
 21
418.912
  0
LINE
  8
0
 10
240.958
 20
418.912
 11
240.359
 21
416.047
  0
LINE
  8
0
 10
240.359
 20
416.047
 11
239.178
 21
413.369
  0
LINE
  8
0
 10
239.178
 20
413.369
 11
237.466
 21
410.995
  0
LINE
  8
0
 10
237.466
 20
410.995
 11
235.297
 21
409.03
  0
LINE
  8
0
 10
235.297
 20
409.03
 11
232.767
 21
407.558
  0
LINE
  8
0
 10
232.767
 20
407.558
 11
229.987
 21
406.644
  0
LINE
  8
0
 10
229.987
 20
406.644
 11
227.077
 21
406.328
  0
LINE
  8
0
 10
227.077
 20
406.328
 11
224.165
 21
406.624
  0
LINE
  8
0
 10
224.165
 20
406.624
 11
221.379
 21
407.519
  0
LINE
  8
0
 10
221.379
 20
407.519
 11
218.839
 21
408.974
  0
LINE
  8
0
 10
218.839
 20
408.974
 11
216.658
 21
410.925
  0
LINE
  8
0
 10
216.658
 20
410.925
 11
214.929
 21
413.287
  0
LINE
  8
0
 10
214.929
 20
413.287
 11
213.73
 21
415.957
  0
LINE
  8
0
 10
213.73
 20
415.957
 11
213.112
 21
418.818
  0
LINE
  8
0
 10
213.112
 20
418.818
 11
213.102
 21
421.745
  0
LINE
  8
0
 10
217.048
 20
460.545
 11
217.647
 21
463.409
  0
LINE
  8
0
 10
217.647
 20
463.409
 11
218.828
 21
466.087
  0
LINE
  8
0
 10
218.828
 20
466.087
 11
220.541
 21
468.461
  0
LINE
  8
0
 10
220.541
 20
468.461
 11
222.709
 21
470.427
  0
LINE
  8
0
 10
222.709
 20
470.427
 11
225.239
 21
471.898
  0
LINE
  8
0
 10
225.239
 20
471.898
 11
228.019
 21
472.812
  0
LINE
  8
0
 10
228.019
 20
472.812
 11
230.929
 21
473.128
  0
LINE
  8
0
 10
230.929
 20
473.128
 11
233.841
 21
472.832
  0
LINE
  8
0
 10
233.841
 20
472.832
 11
236.628
 21
471.937
  0
LINE
  8
0
 10
236.628
 20
471.937
 11
239.167
 21
470.482
  0
LINE
  8
0
 10
239.167
 20
470.482
 11
241.349
 21
468.531
  0
LINE
  8
0
 10
241.349
 20
468.531
 11
243.077
 21
466.169
  0
LINE
  8
0
 10
243.077
 20
466.169
 11
244.276
 21
463.499
  0
LINE
  8
0
 10
244.276
 20
463.499
 11
244.895
 21
460.638
  0
LINE
  8
0
 10
244.895
 20
460.638
 11
244.904
 21
457.711
  0
LINE
  8
0
 10
244.904
 20
457.711
 11
244.306
 21
454.847
  0
LINE
  8
0
 10
244.306
 20
454.847
 11
243.124
 21
452.169
  0
LINE
  8
0
 10
243.124
 20
452.169
 11
241.412
 21
449.795
  0
LINE
  8
0
 10
241.412
 20
449.795
 11
239.243
 21
447.83
  0
LINE
  8
0
 10
239.243
 20
447.83
 11
236.714
 21
446.358
  0
LINE
  8
0
 10
236.714
 20
446.358
 11
233.933
 21
445.444
  0
LINE
  8
0
 10
233.933
 20
445.444
 11
231.023
 21
445.128
  0
LINE
  8
0
 10
231.023
 20
445.128
 11
228.112
 21
445.424
  0
LINE
  8
0
 10
228.112
 20
445.424
 11
225.325
 21
446.319
  0
LINE
  8
0
 10
225.325
 20
446.319
 11
222.785
 21
447.774
  0
LINE
  8
0
 10
222.785
 20
447.774
 11
220.604
 21
449.725
  0
LINE
  8
0
 10
220.604
 20
449.725
 11
218.876
 21
452.087
  0
LINE
  8
0
 10
218.876
 20
452.087
 11
217.676
 21
454.757
  0
LINE
  8
0
 10
217.676
 20
454.757
 11
217.058
 21
457.618
  0
LINE
  8
0
 10
217.058
 20
457.618
 11
217.048
 21
460.545
  0
LINE
  8
0
 10
246
 20
526.425
 11
246.306
 21
529.336
  0
LINE
  8
0
 10
246.306
 20
529.336
 11
247.21
 21
532.119
  0
LINE
  8
0
 10
247.21
 20
532.119
 11
248.674
 21
534.654
  0
LINE
  8
0
 10
248.674
 20
534.654
 11
250.632
 21
536.829
  0
LINE
  8
0
 10
250.632
 20
536.829
 11
253
 21
538.549
  0
LINE
  8
0
 10
253
 20
538.549
 11
255.674
 21
539.74
  0
LINE
  8
0
 10
255.674
 20
539.74
 11
258.537
 21
540.348
  0
LINE
  8
0
 10
258.537
 20
540.348
 11
261.463
 21
540.348
  0
LINE
  8
0
 10
261.463
 20
540.348
 11
264.326
 21
539.74
  0
LINE
  8
0
 10
264.326
 20
539.74
 11
267
 21
538.549
  0
LINE
  8
0
 10
267
 20
538.549
 11
269.368
 21
536.829
  0
LINE
  8
0
 10
269.368
 20
536.829
 11
271.326
 21
534.654
  0
LINE
  8
0
 10
271.326
 20
534.654
 11
272.79
 21
532.119
  0
LINE
  8
0
 10
272.79
 20
532.119
 11
273.694
 21
529.336
  0
LINE
  8
0
 10
273.694
 20
529.336
 11
274
 21
526.425
  0
LINE
  8
0
 10
274
 20
526.425
 11
273.694
 21
523.514
  0
LINE
  8
0
 10
273.694
 20
523.514
 11
272.79
 21
520.731
  0
LINE
  8
0
 10
272.79
 20
520.731
 11
271.326
 21
518.196
  0
LINE
  8
0
 10
271.326
 20
518.196
 11
269.368
 21
516.021
  0
LINE
  8
0
 10
269.368
 20
516.021
 11
267
 21
514.301
  0
LINE
  8
0
 10
267
 20
514.301
 11
264.326
 21
513.11
  0
LINE
  8
0
 10
264.326
 20
513.11
 11
261.463
 21
512.502
  0
LINE
  8
0
 10
261.463
 20
512.502
 11
258.537
 21
512.502
  0
LINE
  8
0
 10
258.537
 20
512.502
 11
255.674
 21
513.11
  0
LINE
  8
0
 10
255.674
 20
513.11
 11
253
 21
514.301
  0
LINE
  8
0
 10
253
 20
514.301
 11
250.632
 21
516.021
  0
LINE
  8
0
 10
250.632
 20
516.021
 11
248.674
 21
518.196
  0
LINE
  8
0
 10
248.674
 20
518.196
 11
247.21
 21
520.731
  0
LINE
  8
0
 10
247.21
 20
520.731
 11
246.306
 21
523.514
  0
LINE
  8
0
 10
246.306
 20
523.514
 11
246
 21
526.425
  0
LINE
  8
0
 10
326
 20
526.425
 11
326.306
 21
529.336
  0
LINE
  8
0
 10
326.306
 20
529.336
 11
327.21
 21
532.119
  0
LINE
  8
0
 10
327.21
 20
532.119
 11
328.674
 21
534.654
  0
LINE
  8
0
 10
328.674
 20
534.654
 11
330.632
 21
536.829
  0
LINE
  8
0
 10
330.632
 20
536.829
 11
333
 21
538.549
  0
LINE
  8
0
 10
333
 20
538.549
 11
335.674
 21
539.74
  0
LINE
  8
0
 10
335.674
 20
539.74
 11
338.537
 21
540.348
  0
LINE
  8
0
 10
338.537
 20
540.348
 11
341.463
 21
540.348
  0
LINE
  8
0
 10
341.463
 20
540.348
 11
344.326
 21
539.74
  0
LINE
  8
0
 10
344.326
 20
539.74
 11
347
 21
538.549
  0
LINE
  8
0
 10
347
 20
538.549
 11
349.368
 21
536.829
  0
LINE
  8
0
 10
349.368
 20
536.829
 11
351.326
 21
534.654
  0
LINE
  8
0
 10
351.326
 20
534.654
 11
352.79
 21
532.119
  0
LINE
  8
0
 10
352.79
 20
532.119
 11
353.694
 21
529.336
  0
LINE
  8
0
 10
353.694
 20
529.336
 11
354
 21
526.425
  0
LINE
  8
0
 10
354
 20
526.425
 11
353.694
 21
523.514
  0
LINE
  8
0
 10
353.694
 20
523.514
 11
352.79
 21
520.731
  0
LINE
  8
0
 10
352.79
 20
520.731
 11
351.326
 21
518.196
  0
LINE
  8
0
 10
351.326
 20
518.196
 11
349.368
 21
516.021
  0
LINE
  8
0
 10
349.368
 20
516.021
 11
347
 21
514.301
  0
LINE
  8
0
 10
347
 20
514.301
 11
344.326
 21
513.11
  0
LINE
  8
0
 10
344.326
 20
513.11
 11
341.463
 21
512.502
  0
LINE
  8
0
 10
341.463
 20
512.502
 11
338.537
 21
512.502
  0
LINE
  8
0
 10
338.537
 20
512.502
 11
335.674
 21
513.11
  0
LINE
  8
0
 10
335.674
 20
513.11
 11
333
 21
514.301
  0
LINE
  8
0
 10
333
 20
514.301
 11
330.632
 21
516.021
  0
LINE
  8
0
 10
330.632
 20
516.021
 11
328.674
 21
518.196
  0
LINE
  8
0
 10
328.674
 20
518.196
 11
327.21
 21
520.731
  0
LINE
  8
0
 10
327.21
 20
520.731
 11
326.306
 21
523.514
  0
LINE
  8
0
 10
326.306
 20
523.514
 11
326
 21
526.425
  0
LINE
  8
0
 10
340.451
 20
468.284
 11
410.091
 21
475.367
  0
LINE
  8
0
 10
410.091
 20
475.367
 11
420.412
 21
373.89
  0
LINE
  8
0
 10
420.412
 20
373.89
 11
350.771
 21
366.807
  0
LINE
  8
0
 10
350.771
 20
366.807
 11
340.451
 21
468.284
  0
LINE
  8
0
 10
366
 20
526.425
 11
366.306
 21
529.336
  0
LINE
  8
0
 10
366.306
 20
529.336
 11
367.21
 21
532.119
  0
LINE
  8
0
 10
367.21
 20
532.119
 11
368.674
 21
534.654
  0
LINE
  8
0
 10
368.674
 20
534.654
 11
370.632
 21
536.829
  0
LINE
  8
0
 10
370.632
 20
536.829
 11
373
 21
538.549
  0
LINE
  8
0
 10
373
 20
538.549
 11
375.674
 21
539.74
  0
LINE
  8
0
 10
375.674
 20
539.74
 11
378.537
 21
540.348
  0
LINE
  8
0
 10
378.537
 20
540.348
 11
381.463
 21
540.348
  0
LINE
  8
0
 10
381.463
 20
540.348
 11
384.326
 21
539.74
  0
LINE
  8
0
 10
384.326
 20
539.74
 11
387
 21
538.549
  0
LINE
  8
0
 10
387
 20
538.549
 11
389.368
 21
536.829
  0
LINE
  8
0
 10
389.368
 20
536.829
 11
391.326
 21
534.654
  0
LINE
  8
0
 10
391.326
 20
534.654
 11
392.79
 21
532.119
  0
LINE
  8
0
 10
392.79
 20
532.119
 11
393.694
 21
529.336
  0
LINE
  8
0
 10
393.694
 20
529.336
 11
394
 21
526.425
  0
LINE
  8
0
 10
394
 20
526.425
 11
393.694
 21
523.514
  0
LINE
  8
0
 10
393.694
 20
523.514
 11
392.79
 21
520.731
  0
LINE
  8
0
 10
392.79
 20
520.731
 11
391.326
 21
518.196
  0
LINE
  8
0
 10
391.326
 20
518.196
 11
389.368
 21
516.021
  0
LINE
  8
0
 10
389.368
 20
516.021
 11
387
 21
514.301
  0
LINE
  8
0
 10
387
 20
514.301
 11
384.326
 21
513.11
  0
LINE
  8
0
 10
384.326
 20
513.11
 11
381.463
 21
512.502
  0
LINE
  8
0
 10
381.463
 20
512.502
 11
378.537
 21
512.502
  0
LINE
  8
0
 10
378.537
 20
512.502
 11
375.674
 21
513.11
  0
LINE
  8
0
 10
375.674
 20
513.11
 11
373
 21
514.301
  0
LINE
  8
0
 10
373
 20
514.301
 11
370.632
 21
516.021
  0
LINE
  8
0
 10
370.632
 20
516.021
 11
368.674
 21
518.196
  0
LINE
  8
0
 10
368.674
 20
518.196
 11
367.21
 21
520.731
  0
LINE
  8
0
 10
367.21
 20
520.731
 11
366.306
 21
523.514
  0
LINE
  8
0
 10
366.306
 20
523.514
 11
366
 21
526.425
  0
LINE
  8
0
 10
423.278
 20
444.543
 11
423.288
 21
447.47
  0
LINE
  8
0
 10
423.288
 20
447.47
 11
423.906
 21
450.33
  0
LINE
  8
0
 10
423.906
 20
450.33
 11
425.105
 21
453
  0
LINE
  8
0
 10
425.105
 20
453
 11
426.834
 21
455.362
  0
LINE
  8
0
 10
426.834
 20
455.362
 11
429.015
 21
457.313
  0
LINE
  8
0
 10
429.015
 20
457.313
 11
431.555
 21
458.768
  0
LINE
  8
0
 10
431.555
 20
458.768
 11
434.341
 21
459.663
  0
LINE
  8
0
 10
434.341
 20
459.663
 11
437.253
 21
459.959
  0
LINE
  8
0
 10
437.253
 20
459.959
 11
440.163
 21
459.644
  0
LINE
  8
0
 10
440.163
 20
459.644
 11
442.943
 21
458.73
  0
LINE
  8
0
 10
442.943
 20
458.73
 11
445.473
 21
457.258
  0
LINE
  8
0
 10
445.473
 20
457.258
 11
447.642
 21
455.292
  0
LINE
  8
0
 10
447.642
 20
455.292
 11
449.354
 21
452.919
  0
LINE
  8
0
 10
449.354
 20
452.919
 11
450.535
 21
450.241
  0
LINE
  8
0
 10
450.535
 20
450.241
 11
451.134
 21
447.376
  0
LINE
  8
0
 10
451.134
 20
447.376
 11
451.124
 21
444.449
  0
LINE
  8
0
 10
451.124
 20
444.449
 11
450.506
 21
441.588
  0
LINE
  8
0
 10
450.506
 20
441.588
 11
449.307
 21
438.919
  0
LINE
  8
0
 10
449.307
 20
438.919
 11
447.579
 21
436.557
  0
LINE
  8
0
 10
447.579
 20
436.557
 11
445.397
 21
434.606
  0
LINE
  8
0
 10
445.397
 20
434.606
 11
442.857
 21
433.151
  0
LINE
  8
0
 10
442.857
 20
433.151
 11
440.071
 21
432.256
  0
LINE
  8
0
 10
440.071
 20
432.256
 11
437.159
 21
431.96
  0
LINE
  8
0
 10
437.159
 20
431.96
 11
434.249
 21
432.275
  0
LINE
  8
0
 10
434.249
 20
432.275
 11
431.469
 21
433.189
  0
LINE
  8
0
 10
431.469
 20
433.189
 11
428.939
 21
434.661
  0
LINE
  8
0
 10
428.939
 20
434.661
 11
426.771
 21
436.627
  0
LINE
  8
0
 10
426.771
 20
436.627
 11
425.058
 21
439
  0
LINE
  8
0
 10
425.058
 20
439
 11
423.877
 21
441.678
  0
LINE
  8
0
 10
423.877
 20
441.678
 11
423.278
 21
444.543
  0
LINE
  8
0
 10
427.224
 20
405.743
 11
427.234
 21
408.67
  0
LINE
  8
0
 10
427.234
 20
408.67
 11
427.852
 21
411.531
  0
LINE
  8
0
 10
427.852
 20
411.531
 11
429.052
 21
414.2
  0
LINE
  8
0
 10
429.052
 20
414.2
 11
430.78
 21
416.562
  0
LINE
  8
0
 10
430.78
 20
416.562
 11
432.961
 21
418.513
  0
LINE
  8
0
 10
432.961
 20
418.513
 11
435.501
 21
419.968
  0
LINE
  8
0
 10
435.501
 20
419.968
 11
438.288
 21
420.863
  0
LINE
  8
0
 10
438.288
 20
420.863
 11
441.199
 21
421.16
  0
LINE
  8
0
 10
441.199
 20
421.16
 11
444.109
 21
420.844
  0
LINE
  8
0
 10
444.109
 20
420.844
 11
446.89
 21
419.93
  0
LINE
  8
0
 10
446.89
 20
419.93
 11
449.419
 21
418.458
  0
LINE
  8
0
 10
449.419
 20
418.458
 11
451.588
 21
416.492
  0
LINE
  8
0
 10
451.588
 20
416.492
 11
453.3
 21
414.119
  0
LINE
  8
0
 10
453.3
 20
414.119
 11
454.482
 21
411.441
  0
LINE
  8
0
 10
454.482
 20
411.441
 11
455.08
 21
408.576
  0
LINE
  8
0
 10
455.08
 20
408.576
 11
455.071
 21
405.649
  0
LINE
  8
0
 10
455.071
 20
405.649
 11
454.452
 21
402.789
  0
LINE
  8
0
 10
454.452
 20
402.789
 11
453.253
 21
400.119
  0
LINE
  8
0
 10
453.253
 20
400.119
 11
451.525
 21
397.757
  0
LINE
  8
0
 10
451.525
 20
397.757
 11
449.343
 21
395.806
  0
LINE
  8
0
 10
449.343
 20
395.806
 11
446.804
 21
394.351
  0
LINE
  8
0
 10
446.804
 20
394.351
 11
444.017
 21
393.456
  0
LINE
  8
0
 10
444.017
 20
393.456
 11
441.105
 21
393.16
  0
LINE
  8
0
 10
441.105
 20
393.16
 11
438.196
 21
393.475
  0
LINE
  8
0
 10
438.196
 20
393.475
 11
435.415
 21
394.389
  0
LINE
  8
0
 10
435.415
 20
394.389
 11
432.885
 21
395.861
  0
LINE
  8
0
 10
432.885
 20
395.861
 11
430.717
 21
397.827
  0
LINE
  8
0
 10
430.717
 20
397.827
 11
429.005
 21
400.2
  0
LINE
  8
0
 10
429.005
 20
400.2
 11
427.823
 21
402.878
  0
LINE
  8
0
 10
427.823
 20
402.878
 11
427.224
 21
405.743
  0
LINE
  8
0
 10
451.598
 20
467.526
 11
451.608
 21
470.453
  0
LINE
  8
0
 10
451.608
 20
470.453
 11
452.226
 21
473.314
  0
LINE
  8
0
 10
452.226
 20
473.314
 11
453.425
 21
475.984
  0
LINE
  8
0
 10
453.425
 20
475.984
 11
455.153
 21
478.346
  0
LINE
  8
0
 10
455.153
 20
478.346
 11
457.335
 21
480.297
  0
LINE
  8
0
 10
457.335
 20
480.297
 11
459.875
 21
481.752
  0
LINE
  8
0
 10
459.875
 20
481.752
 11
462.661
 21
482.647
  0
LINE
  8
0
 10
462.661
 20
482.647
 11
465.573
 21
482.943
  0
LINE
  8
0
 10
465.573
 20
482.943
 11
468.483
 21
482.627
  0
LINE
  8
0
 10
468.483
 20
482.627
 11
471.263
 21
481.713
  0
LINE
  8
0
 10
471.263
 20
481.713
 11
473.793
 21
480.241
  0
LINE
  8
0
 10
473.793
 20
480.241
 11
475.961
 21
478.276
  0
LINE
  8
0
 10
475.961
 20
478.276
 11
477.674
 21
475.902
  0
LINE
  8
0
 10
477.674
 20
475.902
 11
478.855
 21
473.224
  0
LINE
  8
0
 10
478.855
 20
473.224
 11
479.454
 21
470.359
  0
LINE
  8
0
 10
479.454
 20
470.359
 11
479.444
 21
467.433
  0
LINE
  8
0
 10
479.444
 20
467.433
 11
478.826
 21
464.572
  0
LINE
  8
0
 10
478.826
 20
464.572
 11
477.627
 21
461.902
  0
LINE
  8
0
 10
477.627
 20
461.902
 11
475.898
 21
459.54
  0
LINE
  8
0
 10
475.898
 20
459.54
 11
473.717
 21
457.589
  0
LINE
  8
0
 10
473.717
 20
457.589
 11
471.177
 21
456.134
  0
LINE
  8
0
 10
471.177
 20
456.134
 11
468.391
 21
455.239
  0
LINE
  8
0
 10
468.391
 20
455.239
 11
465.479
 21
454.943
  0
LINE
  8
0
 10
465.479
 20
454.943
 11
462.569
 21
455.259
  0
LINE
  8
0
 10
462.569
 20
455.259
 11
459.789
 21
456.172
  0
LINE
  8
0
 10
459.789
 20
456.172
 11
457.259
 21
457.644
  0
LINE
  8
0
 10
457.259
 20
457.644
 11
455.09
 21
459.61
  0
LINE
  8
0
 10
455.09
 20
459.61
 11
453.378
 21
461.984
  0
LINE
  8
0
 10
453.378
 20
461.984
 11
452.197
 21
464.661
  0
LINE
  8
0
 10
452.197
 20
464.661
 11
451.598
 21
467.526
  0
LINE
  8
0
 10
455.544
 20
428.726
 11
455.554
 21
431.653
  0
LINE
  8
0
 10
455.554
 20
431.653
 11
456.172
 21
434.514
  0
LINE
  8
0
 10
456.172
 20
434.514
 11
457.371
 21
437.184
  0
LINE
  8
0
 10
457.371
 20
437.184
 11
459.1
 21
439.546
  0
LINE
  8
0
 10
459.1
 20
439.546
 11
461.281
 21
441.497
  0
LINE
  8
0
 10
461.281
 20
441.497
 11
463.821
 21
442.952
  0
LINE
  8
0
 10
463.821
 20
442.952
 11
466.607
 21
443.847
  0
LINE
  8
0
 10
466.607
 20
443.847
 11
469.519
 21
444.143
  0
LINE
  8
0
 10
469.519
 20
444.143
 11
472.429
 21
443.827
  0
LINE
  8
0
 10
472.429
 20
443.827
 11
475.209
 21
442.913
  0
LINE
  8
0
 10
475.209
 20
442.913
 11
477.739
 21
441.442
  0
LINE
  8
0
 10
477.739
 20
441.442
 11
479.908
 21
439.476
  0
LINE
  8
0
 10
479.908
 20
439.476
 11
481.62
 21
437.102
  0
LINE
  8
0
 10
481.62
 20
437.102
 11
482.801
 21
434.425
  0
LINE
  8
0
 10
482.801
 20
434.425
 11
483.4
 21
431.56
  0
LINE
  8
0
 10
483.4
 20
431.56
 11
483.39
 21
428.633
  0
LINE
  8
0
 10
483.39
 20
428.633
 11
482.772
 21
425.772
  0
LINE
  8
0
 10
482.772
 20
425.772
 11
481.573
 21
423.102
  0
LINE
  8
0
 10
481.573
 20
423.102
 11
479.845
 21
420.74
  0
LINE
  8
0
 10
479.845
 20
420.74
 11
477.663
 21
418.789
  0
LINE
  8
0
 10
477.663
 20
418.789
 11
475.123
 21
417.334
  0
LINE
  8
0
 10
475.123
 20
417.334
 11
472.337
 21
416.439
  0
LINE
  8
0
 10
472.337
 20
416.439
 11
469.425
 21
416.143
  0
LINE
  8
0
 10
469.425
 20
416.143
 11
466.515
 21
416.459
  0
LINE
  8
0
 10
466.515
 20
416.459
 11
463.735
 21
417.373
  0
LINE
  8
0
 10
463.735
 20
417.373
 11
461.205
 21
418.845
  0
LINE
  8
0
 10
461.205
 20
418.845
 11
459.037
 21
420.81
  0
LINE
  8
0
 10
459.037
 20
420.81
 11
457.324
 21
423.184
  0
LINE
  8
0
 10
457.324
 20
423.184
 11
456.143
 21
425.862
  0
LINE
  8
0
 10
456.143
 20
425.862
 11
455.544
 21
428.726
  0
LINE
  8
0
 10
487.413
 20
471.169
 11
487.423
 21
474.096
  0
LINE
  8
0
 10
487.423
 20
474.096
 11
488.041
 21
476.957
  0
LINE
  8
0
 10
488.041
 20
476.957
 11
489.24
 21
479.626
  0
LINE
  8
0
 10
489.24
 20
479.626
 11
490.969
 21
481.988
  0
LINE
  8
0
 10
490.969
 20
481.988
 11
493.15
 21
483.939
  0
LINE
  8
0
 10
493.15
 20
483.939
 11
495.69
 21
485.394
  0
LINE
  8
0
 10
495.69
 20
485.394
 11
498.476
 21
486.289
  0
LINE
  8
0
 10
498.476
 20
486.289
 11
501.388
 21
486.585
  0
LINE
  8
0
 10
501.388
 20
486.585
 11
504.298
 21
486.27
  0
LINE
  8
0
 10
504.298
 20
486.27
 11
507.078
 21
485.356
  0
LINE
  8
0
 10
507.078
 20
485.356
 11
509.608
 21
483.884
  0
LINE
  8
0
 10
509.608
 20
483.884
 11
511.777
 21
481.918
  0
LINE
  8
0
 10
511.777
 20
481.918
 11
513.489
 21
479.545
  0
LINE
  8
0
 10
513.489
 20
479.545
 11
514.67
 21
476.867
  0
LINE
  8
0
 10
514.67
 20
476.867
 11
515.269
 21
474.002
  0
LINE
  8
0
 10
515.269
 20
474.002
 11
515.259
 21
471.075
  0
LINE
  8
0
 10
515.259
 20
471.075
 11
514.641
 21
468.215
  0
LINE
  8
0
 10
514.641
 20
468.215
 11
513.442
 21
465.545
  0
LINE
  8
0
 10
513.442
 20
465.545
 11
511.714
 21
463.183
  0
LINE
  8
0
 10
511.714
 20
463.183
 11
509.532
 21
461.232
  0
LINE
  8
0
 10
509.532
 20
461.232
 11
506.992
 21
459.777
  0
LINE
  8
0
 10
506.992
 20
459.777
 11
504.206
 21
458.882
  0
LINE
  8
0
 10
504.206
 20
458.882
 11
501.294
 21
458.586
  0
LINE
  8
0
 10
501.294
 20
458.586
 11
498.384
 21
458.901
  0
LINE
  8
0
 10
498.384
 20
458.901
 11
495.604
 21
459.815
  0
LINE
  8
0
 10
495.604
 20
459.815
 11
493.074
 21
461.287
  0
LINE
  8
0
 10
493.074
 20
461.287
 11
490.906
 21
463.253
  0
LINE
  8
0
 10
490.906
 20
463.253
 11
489.193
 21
465.626
  0
LINE
  8
0
 10
489.193
 20
465.626
 11
488.012
 21
468.304
  0
LINE
  8
0
 10
488.012
 20
468.304
 11
487.413
 21
471.169
  0
LINE
  8
0
 10
491.359
 20
432.369
 11
491.369
 21
435.296
  0
LINE
  8
0
 10
491.369
 20
435.296
 11
491.987
 21
438.157
  0
LINE
  8
0
 10
491.987
 20
438.157
 11
493.187
 21
440.826
  0
LINE
  8
0
 10
493.187
 20
440.826
 11
494.915
 21
443.188
  0
LINE
  8
0
 10
494.915
 20
443.188
 11
497.096
 21
445.14
  0
LINE
  8
0
 10
497.096
 20
445.14
 11
499.636
 21
446.594
  0
LINE
  8
0
 10
499.636
 20
446.594
 11
502.423
 21
447.489
  0
LINE
  8
0
 10
502.423
 20
447.489
 11
505.334
 21
447.786
  0
LINE
  8
0
 10
505.334
 20
447.786
 11
508.244
 21
447.47
  0
LINE
  8
0
 10
508.244
 20
447.47
 11
511.025
 21
446.556
  0
LINE
  8
0
 10
511.025
 20
446.556
 11
513.554
 21
445.084
  0
LINE
  8
0
 10
513.554
 20
445.084
 11
515.723
 21
443.119
  0
LINE
  8
0
 10
515.723
 20
443.119
 11
517.435
 21
440.745
  0
LINE
  8
0
 10
517.435
 20
440.745
 11
518.617
 21
438.067
  0
LINE
  8
0
 10
518.617
 20
438.067
 11
519.215
 21
435.202
  0
LINE
  8
0
 10
519.215
 20
435.202
 11
519.206
 21
432.276
  0
LINE
  8
0
 10
519.206
 20
432.276
 11
518.588
 21
429.415
  0
LINE
  8
0
 10
518.588
 20
429.415
 11
517.388
 21
426.745
  0
LINE
  8
0
 10
517.388
 20
426.745
 11
515.66
 21
424.383
  0
LINE
  8
0
 10
515.66
 20
424.383
 11
513.478
 21
422.432
  0
LINE
  8
0
 10
513.478
 20
422.432
 11
510.939
 21
420.977
  0
LINE
  8
0
 10
510.939
 20
420.977
 11
508.152
 21
420.082
  0
LINE
  8
0
 10
508.152
 20
420.082
 11
505.24
 21
419.786
  0
LINE
  8
0
 10
505.24
 20
419.786
 11
502.331
 21
420.102
  0
LINE
  8
0
 10
502.331
 20
420.102
 11
499.55
 21
421.015
  0
LINE
  8
0
 10
499.55
 20
421.015
 11
497.02
 21
422.487
  0
LINE
  8
0
 10
497.02
 20
422.487
 11
494.852
 21
424.453
  0
LINE
  8
0
 10
494.852
 20
424.453
 11
493.14
 21
426.827
  0
LINE
  8
0
 10
493.14
 20
426.827
 11
491.958
 21
429.504
  0
LINE
  8
0
 10
491.958
 20
429.504
 11
491.359
 21
432.369
  0
LINE
  8
0
 10
1.90471
 20
923.275
 11
2.13873
 21
921.209
  0
LINE
  8
0
 10
2.13873
 20
921.209
 11
2.79716
 21
919.237
  0
LINE
  8
0
 10
2.79716
 20
919.237
 11
3.8512
 21
917.445
  0
LINE
  8
0
 10
3.8512
 20
917.445
 11
5.25485
 21
915.912
  0
LINE
  8
0
 10
5.25485
 20
915.912
 11
6.94658
 21
914.703
  0
LINE
  8
0
 10
6.94658
 20
914.703
 11
9.07314
 21
913.777
  0
LINE
  8
0
 10
9.07314
 20
913.777
 11
10.2213
 21
913.485
  0
LINE
  8
0
 10
10.2213
 20
913.485
 11
39.271
 21
907.838
  0
LINE
  8
0
 10
39.271
 20
907.838
 11
39.7867
 21
907.747
  0
LINE
  8
0
 10
39.7867
 20
907.747
 11
90.981
 21
899.639
  0
LINE
  8
0
 10
90.981
 20
899.639
 11
91.5004
 21
899.566
  0
LINE
  8
0
 10
91.5004
 20
899.566
 11
142.947
 21
893.249
  0
LINE
  8
0
 10
142.947
 20
893.249
 11
143.468
 21
893.194
  0
LINE
  8
0
 10
143.468
 20
893.194
 11
195.104
 21
888.677
  0
LINE
  8
0
 10
195.104
 20
888.677
 11
195.627
 21
888.64
  0
LINE
  8
0
 10
195.627
 20
888.64
 11
247.39
 21
885.927
  0
LINE
  8
0
 10
247.39
 20
885.927
 11
247.913
 21
885.909
  0
LINE
  8
0
 10
247.913
 20
885.909
 11
299.738
 21
885.005
  0
LINE
  8
0
 10
299.738
 20
885.005
 11
300.262
 21
885.005
  0
LINE
  8
0
 10
300.262
 20
885.005
 11
352.087
 21
885.909
  0
LINE
  8
0
 10
352.087
 20
885.909
 11
352.61
 21
885.927
  0
LINE
  8
0
 10
352.61
 20
885.927
 11
404.373
 21
888.64
  0
LINE
  8
0
 10
404.373
 20
888.64
 11
404.896
 21
888.677
  0
LINE
  8
0
 10
404.896
 20
888.677
 11
456.532
 21
893.194
  0
LINE
  8
0
 10
456.532
 20
893.194
 11
457.053
 21
893.249
  0
LINE
  8
0
 10
457.053
 20
893.249
 11
508.5
 21
899.566
  0
LINE
  8
0
 10
508.5
 20
899.566
 11
509.019
 21
899.639
  0
LINE
  8
0
 10
509.019
 20
899.639
 11
560.213
 21
907.747
  0
LINE
  8
0
 10
560.213
 20
907.747
 11
560.729
 21
907.838
  0
LINE
  8
0
 10
560.729
 20
907.838
 11
589.544
 21
913.439
  0
LINE
  8
0
 10
589.544
 20
913.439
 11
592.036
 21
914.201
  0
LINE
  8
0
 10
592.036
 20
914.201
 11
593.855
 21
915.209
  0
LINE
  8
0
 10
593.855
 20
915.209
 11
595.424
 21
916.573
  0
LINE
  8
0
 10
595.424
 20
916.573
 11
596.675
 21
918.234
  0
LINE
  8
0
 10
596.675
 20
918.234
 11
597.554
 21
920.118
  0
LINE
  8
0
 10
597.554
 20
920.118
 11
598.021
 21
922.144
  0
LINE
  8
0
 10
598.021
 20
922.144
 11
598.062
 21
924.463
  0
LINE
  8
0
 10
598.062
 20
924.463
 11
597.892
 21
925.635
  0
LINE
  8
0
 10
597.892
 20
925.635
 11
551.79
 21
1151.49
  0
LINE
  8
0
 10
551.79
 20
1151.49
 11
551.005
 21
1153.97
  0
LINE
  8
0
 10
551.005
 20
1153.97
 11
549.98
 21
1155.78
  0
LINE
  8
0
 10
549.98
 20
1155.78
 11
548.601
 21
1157.34
  0
LINE
  8
0
 10
548.601
 20
1157.34
 11
546.929
 21
1158.57
  0
LINE
  8
0
 10
546.929
 20
1158.57
 11
545.037
 21
1159.43
  0
LINE
  8
0
 10
545.037
 20
1159.43
 11
542.769
 21
1159.93
  0
LINE
  8
0
 10
542.769
 20
1159.93
 11
541.605
 21
1160
  0
LINE
  8
0
 10
541.605
 20
1160
 11
58.637
 21
1160
  0
LINE
  8
0
 10
58.637
 20
1160
 11
56.0452
 21
1159.73
  0
LINE
  8
0
 10
56.0452
 20
1159.73
 11
54.0679
 21
1159.09
  0
LINE
  8
0
 10
54.0679
 20
1159.09
 11
52.2674
 21
1158.05
  0
LINE
  8
0
 10
52.2674
 20
1158.05
 11
50.7224
 21
1156.65
  0
LINE
  8
0
 10
50.7224
 20
1156.65
 11
49.5003
 21
1154.97
  0
LINE
  8
0
 10
49.5003
 20
1154.97
 11
48.5556
 21
1152.85
  0
LINE
  8
0
 10
48.5556
 20
1152.85
 11
48.2585
 21
1151.72
  0
LINE
  8
0
 10
48.2585
 20
1151.72
 11
2.15616
 21
925.869
  0
LINE
  8
0
 10
2.15616
 20
925.869
 11
1.90471
 21
923.275
  0
LINE
  8
0
 10
66.8054
 20
996.469
 11
72.8765
 21
1056.16
  0
LINE
  8
0
 10
72.8765
 20
1056.16
 11
92.7739
 21
1054.14
  0
LINE
  8
0
 10
92.7739
 20
1054.14
 11
93.9881
 21
1066.08
  0
LINE
  8
0
 10
93.9881
 20
1066.08
 11
118.86
 21
1063.55
  0
LINE
  8
0
 10
118.86
 20
1063.55
 11
117.646
 21
1051.61
  0
LINE
  8
0
 10
117.646
 20
1051.61
 11
137.543
 21
1049.58
  0
LINE
  8
0
 10
137.543
 20
1049.58
 11
131.472
 21
989.892
  0
LINE
  8
0
 10
131.472
 20
989.892
 11
111.574
 21
991.916
  0
LINE
  8
0
 10
111.574
 20
991.916
 11
110.36
 21
979.978
  0
LINE
  8
0
 10
110.36
 20
979.978
 11
85.4886
 21
982.507
  0
LINE
  8
0
 10
85.4886
 20
982.507
 11
86.7028
 21
994.446
  0
LINE
  8
0
 10
86.7028
 20
994.446
 11
66.8054
 21
996.469
  0
LINE
  8
0
 10
74.1488
 20
984.666
 11
75.0562
 21
986.145
  0
LINE
  8
0
 10
75.0562
 20
986.145
 11
76.7786
 21
986.358
  0
LINE
  8
0
 10
76.7786
 20
986.358
 11
78.019
 21
985.144
  0
LINE
  8
0
 10
78.019
 20
985.144
 11
77.8434
 21
983.418
  0
LINE
  8
0
 10
77.8434
 20
983.418
 11
76.384
 21
982.478
  0
LINE
  8
0
 10
76.384
 20
982.478
 11
74.7397
 21
983.034
  0
LINE
  8
0
 10
74.7397
 20
983.034
 11
74.1488
 21
984.666
  0
LINE
  8
0
 10
82.4459
 20
1066.24
 11
83.3533
 21
1067.72
  0
LINE
  8
0
 10
83.3533
 20
1067.72
 11
85.0757
 21
1067.94
  0
LINE
  8
0
 10
85.0757
 20
1067.94
 11
86.3161
 21
1066.72
  0
LINE
  8
0
 10
86.3161
 20
1066.72
 11
86.1405
 21
1065
  0
LINE
  8
0
 10
86.1405
 20
1065
 11
84.6811
 21
1064.06
  0
LINE
  8
0
 10
84.6811
 20
1064.06
 11
83.0368
 21
1064.61
  0
LINE
  8
0
 10
83.0368
 20
1064.61
 11
82.4459
 21
1066.24
  0
LINE
  8
0
 10
118.032
 20
979.33
 11
118.208
 21
981.057
  0
LINE
  8
0
 10
118.208
 20
981.057
 11
119.667
 21
981.996
  0
LINE
  8
0
 10
119.667
 20
981.996
 11
121.311
 21
981.441
  0
LINE
  8
0
 10
121.311
 20
981.441
 11
121.902
 21
979.809
  0
LINE
  8
0
 10
121.902
 20
979.809
 11
120.995
 21
978.329
  0
LINE
  8
0
 10
120.995
 20
978.329
 11
119.273
 21
978.116
  0
LINE
  8
0
 10
119.273
 20
978.116
 11
118.032
 21
979.33
  0
LINE
  8
0
 10
126.329
 20
1060.91
 11
126.505
 21
1062.64
  0
LINE
  8
0
 10
126.505
 20
1062.64
 11
127.964
 21
1063.58
  0
LINE
  8
0
 10
127.964
 20
1063.58
 11
129.609
 21
1063.02
  0
LINE
  8
0
 10
129.609
 20
1063.02
 11
130.2
 21
1061.39
  0
LINE
  8
0
 10
130.2
 20
1061.39
 11
129.292
 21
1059.91
  0
LINE
  8
0
 10
129.292
 20
1059.91
 11
127.57
 21
1059.7
  0
LINE
  8
0
 10
127.57
 20
1059.7
 11
126.329
 21
1060.91
  0
LINE
  8
0
 10
144.92
 20
998.576
 11
145.518
 21
1001.44
  0
LINE
  8
0
 10
145.518
 20
1001.44
 11
146.7
 21
1004.12
  0
LINE
  8
0
 10
146.7
 20
1004.12
 11
148.412
 21
1006.49
  0
LINE
  8
0
 10
148.412
 20
1006.49
 11
150.581
 21
1008.46
  0
LINE
  8
0
 10
150.581
 20
1008.46
 11
153.11
 21
1009.93
  0
LINE
  8
0
 10
153.11
 20
1009.93
 11
155.891
 21
1010.84
  0
LINE
  8
0
 10
155.891
 20
1010.84
 11
158.801
 21
1011.16
  0
LINE
  8
0
 10
158.801
 20
1011.16
 11
161.712
 21
1010.86
  0
LINE
  8
0
 10
161.712
 20
1010.86
 11
164.499
 21
1009.97
  0
LINE
  8
0
 10
164.499
 20
1009.97
 11
167.039
 21
1008.51
  0
LINE
  8
0
 10
167.039
 20
1008.51
 11
169.22
 21
1006.56
  0
LINE
  8
0
 10
169.22
 20
1006.56
 11
170.948
 21
1004.2
  0
LINE
  8
0
 10
170.948
 20
1004.2
 11
172.148
 21
1001.53
  0
LINE
  8
0
 10
172.148
 20
1001.53
 11
172.766
 21
998.67
  0
LINE
  8
0
 10
172.766
 20
998.67
 11
172.776
 21
995.743
  0
LINE
  8
0
 10
172.776
 20
995.743
 11
172.177
 21
992.878
  0
LINE
  8
0
 10
172.177
 20
992.878
 11
170.995
 21
990.2
  0
LINE
  8
0
 10
170.995
 20
990.2
 11
169.283
 21
987.827
  0
LINE
  8
0
 10
169.283
 20
987.827
 11
167.115
 21
985.861
  0
LINE
  8
0
 10
167.115
 20
985.861
 11
164.585
 21
984.389
  0
LINE
  8
0
 10
164.585
 20
984.389
 11
161.804
 21
983.475
  0
LINE
  8
0
 10
161.804
 20
983.475
 11
158.895
 21
983.16
  0
LINE
  8
0
 10
158.895
 20
983.16
 11
155.983
 21
983.456
  0
LINE
  8
0
 10
155.983
 20
983.456
 11
153.196
 21
984.351
  0
LINE
  8
0
 10
153.196
 20
984.351
 11
150.657
 21
985.806
  0
LINE
  8
0
 10
150.657
 20
985.806
 11
148.475
 21
987.757
  0
LINE
  8
0
 10
148.475
 20
987.757
 11
146.747
 21
990.119
  0
LINE
  8
0
 10
146.747
 20
990.119
 11
145.548
 21
992.789
  0
LINE
  8
0
 10
145.548
 20
992.789
 11
144.929
 21
995.649
  0
LINE
  8
0
 10
144.929
 20
995.649
 11
144.92
 21
998.576
  0
LINE
  8
0
 10
148.866
 20
1037.38
 11
149.465
 21
1040.24
  0
LINE
  8
0
 10
149.465
 20
1040.24
 11
150.646
 21
1042.92
  0
LINE
  8
0
 10
150.646
 20
1042.92
 11
152.358
 21
1045.29
  0
LINE
  8
0
 10
152.358
 20
1045.29
 11
154.527
 21
1047.26
  0
LINE
  8
0
 10
154.527
 20
1047.26
 11
157.057
 21
1048.73
  0
LINE
  8
0
 10
157.057
 20
1048.73
 11
159.837
 21
1049.64
  0
LINE
  8
0
 10
159.837
 20
1049.64
 11
162.747
 21
1049.96
  0
LINE
  8
0
 10
162.747
 20
1049.96
 11
165.659
 21
1049.66
  0
LINE
  8
0
 10
165.659
 20
1049.66
 11
168.445
 21
1048.77
  0
LINE
  8
0
 10
168.445
 20
1048.77
 11
170.985
 21
1047.31
  0
LINE
  8
0
 10
170.985
 20
1047.31
 11
173.166
 21
1045.36
  0
LINE
  8
0
 10
173.166
 20
1045.36
 11
174.895
 21
1043
  0
LINE
  8
0
 10
174.895
 20
1043
 11
176.094
 21
1040.33
  0
LINE
  8
0
 10
176.094
 20
1040.33
 11
176.712
 21
1037.47
  0
LINE
  8
0
 10
176.712
 20
1037.47
 11
176.722
 21
1034.54
  0
LINE
  8
0
 10
176.722
 20
1034.54
 11
176.123
 21
1031.68
  0
LINE
  8
0
 10
176.123
 20
1031.68
 11
174.942
 21
1029
  0
LINE
  8
0
 10
174.942
 20
1029
 11
173.229
 21
1026.63
  0
LINE
  8
0
 10
173.229
 20
1026.63
 11
171.061
 21
1024.66
  0
LINE
  8
0
 10
171.061
 20
1024.66
 11
168.531
 21
1023.19
  0
LINE
  8
0
 10
168.531
 20
1023.19
 11
165.751
 21
1022.28
  0
LINE
  8
0
 10
165.751
 20
1022.28
 11
162.841
 21
1021.96
  0
LINE
  8
0
 10
162.841
 20
1021.96
 11
159.929
 21
1022.26
  0
LINE
  8
0
 10
159.929
 20
1022.26
 11
157.143
 21
1023.15
  0
LINE
  8
0
 10
157.143
 20
1023.15
 11
154.603
 21
1024.61
  0
LINE
  8
0
 10
154.603
 20
1024.61
 11
152.421
 21
1026.56
  0
LINE
  8
0
 10
152.421
 20
1026.56
 11
150.693
 21
1028.92
  0
LINE
  8
0
 10
150.693
 20
1028.92
 11
149.494
 21
1031.59
  0
LINE
  8
0
 10
149.494
 20
1031.59
 11
148.876
 21
1034.45
  0
LINE
  8
0
 10
148.876
 20
1034.45
 11
148.866
 21
1037.38
  0
LINE
  8
0
 10
177.287
 20
1015.39
 11
177.886
 21
1018.25
  0
LINE
  8
0
 10
177.886
 20
1018.25
 11
179.067
 21
1020.93
  0
LINE
  8
0
 10
179.067
 20
1020.93
 11
180.779
 21
1023.3
  0
LINE
  8
0
 10
180.779
 20
1023.3
 11
182.948
 21
1025.27
  0
LINE
  8
0
 10
182.948
 20
1025.27
 11
185.478
 21
1026.74
  0
LINE
  8
0
 10
185.478
 20
1026.74
 11
188.258
 21
1027.66
  0
LINE
  8
0
 10
188.258
 20
1027.66
 11
191.168
 21
1027.97
  0
LINE
  8
0
 10
191.168
 20
1027.97
 11
194.08
 21
1027.67
  0
LINE
  8
0
 10
194.08
 20
1027.67
 11
196.866
 21
1026.78
  0
LINE
  8
0
 10
196.866
 20
1026.78
 11
199.406
 21
1025.32
  0
LINE
  8
0
 10
199.406
 20
1025.32
 11
201.587
 21
1023.37
  0
LINE
  8
0
 10
201.587
 20
1023.37
 11
203.316
 21
1021.01
  0
LINE
  8
0
 10
203.316
 20
1021.01
 11
204.515
 21
1018.34
  0
LINE
  8
0
 10
204.515
 20
1018.34
 11
205.133
 21
1015.48
  0
LINE
  8
0
 10
205.133
 20
1015.48
 11
205.143
 21
1012.55
  0
LINE
  8
0
 10
205.143
 20
1012.55
 11
204.544
 21
1009.69
  0
LINE
  8
0
 10
204.544
 20
1009.69
 11
203.363
 21
1007.01
  0
LINE
  8
0
 10
203.363
 20
1007.01
 11
201.65
 21
1004.64
  0
LINE
  8
0
 10
201.65
 20
1004.64
 11
199.482
 21
1002.67
  0
LINE
  8
0
 10
199.482
 20
1002.67
 11
196.952
 21
1001.2
  0
LINE
  8
0
 10
196.952
 20
1001.2
 11
194.172
 21
1000.29
  0
LINE
  8
0
 10
194.172
 20
1000.29
 11
191.262
 21
999.971
  0
LINE
  8
0
 10
191.262
 20
999.971
 11
188.35
 21
1000.27
  0
LINE
  8
0
 10
188.35
 20
1000.27
 11
185.564
 21
1001.16
  0
LINE
  8
0
 10
185.564
 20
1001.16
 11
183.024
 21
1002.62
  0
LINE
  8
0
 10
183.024
 20
1002.62
 11
180.842
 21
1004.57
  0
LINE
  8
0
 10
180.842
 20
1004.57
 11
179.114
 21
1006.93
  0
LINE
  8
0
 10
179.114
 20
1006.93
 11
177.915
 21
1009.6
  0
LINE
  8
0
 10
177.915
 20
1009.6
 11
177.297
 21
1012.46
  0
LINE
  8
0
 10
177.297
 20
1012.46
 11
177.287
 21
1015.39
  0
LINE
  8
0
 10
181.233
 20
1054.19
 11
181.832
 21
1057.05
  0
LINE
  8
0
 10
181.832
 20
1057.05
 11
183.013
 21
1059.73
  0
LINE
  8
0
 10
183.013
 20
1059.73
 11
184.726
 21
1062.1
  0
LINE
  8
0
 10
184.726
 20
1062.1
 11
186.894
 21
1064.07
  0
LINE
  8
0
 10
186.894
 20
1064.07
 11
189.424
 21
1065.54
  0
LINE
  8
0
 10
189.424
 20
1065.54
 11
192.204
 21
1066.45
  0
LINE
  8
0
 10
192.204
 20
1066.45
 11
195.114
 21
1066.77
  0
LINE
  8
0
 10
195.114
 20
1066.77
 11
198.026
 21
1066.47
  0
LINE
  8
0
 10
198.026
 20
1066.47
 11
200.812
 21
1065.58
  0
LINE
  8
0
 10
200.812
 20
1065.58
 11
203.352
 21
1064.12
  0
LINE
  8
0
 10
203.352
 20
1064.12
 11
205.533
 21
1062.17
  0
LINE
  8
0
 10
205.533
 20
1062.17
 11
207.262
 21
1059.81
  0
LINE
  8
0
 10
207.262
 20
1059.81
 11
208.461
 21
1057.14
  0
LINE
  8
0
 10
208.461
 20
1057.14
 11
209.079
 21
1054.28
  0
LINE
  8
0
 10
209.079
 20
1054.28
 11
209.089
 21
1051.35
  0
LINE
  8
0
 10
209.089
 20
1051.35
 11
208.49
 21
1048.49
  0
LINE
  8
0
 10
208.49
 20
1048.49
 11
207.309
 21
1045.81
  0
LINE
  8
0
 10
207.309
 20
1045.81
 11
205.596
 21
1043.44
  0
LINE
  8
0
 10
205.596
 20
1043.44
 11
203.428
 21
1041.47
  0
LINE
  8
0
 10
203.428
 20
1041.47
 11
200.898
 21
1040
  0
LINE
  8
0
 10
200.898
 20
1040
 11
198.118
 21
1039.09
  0
LINE
  8
0
 10
198.118
 20
1039.09
 11
195.208
 21
1038.77
  0
LINE
  8
0
 10
195.208
 20
1038.77
 11
192.296
 21
1039.07
  0
LINE
  8
0
 10
192.296
 20
1039.07
 11
189.51
 21
1039.96
  0
LINE
  8
0
 10
189.51
 20
1039.96
 11
186.97
 21
1041.42
  0
LINE
  8
0
 10
186.97
 20
1041.42
 11
184.789
 21
1043.37
  0
LINE
  8
0
 10
184.789
 20
1043.37
 11
183.06
 21
1045.73
  0
LINE
  8
0
 10
183.06
 20
1045.73
 11
181.861
 21
1048.4
  0
LINE
  8
0
 10
181.861
 20
1048.4
 11
181.243
 21
1051.26
  0
LINE
  8
0
 10
181.243
 20
1051.26
 11
181.233
 21
1054.19
  0
LINE
  8
0
 10
206
 20
1116.42
 11
206.306
 21
1119.34
  0
LINE
  8
0
 10
206.306
 20
1119.34
 11
207.21
 21
1122.12
  0
LINE
  8
0
 10
207.21
 20
1122.12
 11
208.674
 21
1124.65
  0
LINE
  8
0
 10
208.674
 20
1124.65
 11
210.632
 21
1126.83
  0
LINE
  8
0
 10
210.632
 20
1126.83
 11
213
 21
1128.55
  0
LINE
  8
0
 10
213
 20
1128.55
 11
215.674
 21
1129.74
  0
LINE
  8
0
 10
215.674
 20
1129.74
 11
218.537
 21
1130.35
  0
LINE
  8
0
 10
218.537
 20
1130.35
 11
221.463
 21
1130.35
  0
LINE
  8
0
 10
221.463
 20
1130.35
 11
224.326
 21
1129.74
  0
LINE
  8
0
 10
224.326
 20
1129.74
 11
227
 21
1128.55
  0
LINE
  8
0
 10
227
 20
1128.55
 11
229.368
 21
1126.83
  0
LINE
  8
0
 10
229.368
 20
1126.83
 11
231.326
 21
1124.65
  0
LINE
  8
0
 10
231.326
 20
1124.65
 11
232.79
 21
1122.12
  0
LINE
  8
0
 10
232.79
 20
1122.12
 11
233.694
 21
1119.34
  0
LINE
  8
0
 10
233.694
 20
1119.34
 11
234
 21
1116.42
  0
LINE
  8
0
 10
234
 20
1116.42
 11
233.694
 21
1113.51
  0
LINE
  8
0
 10
233.694
 20
1113.51
 11
232.79
 21
1110.73
  0
LINE
  8
0
 10
232.79
 20
1110.73
 11
231.326
 21
1108.2
  0
LINE
  8
0
 10
231.326
 20
1108.2
 11
229.368
 21
1106.02
  0
LINE
  8
0
 10
229.368
 20
1106.02
 11
227
 21
1104.3
  0
LINE
  8
0
 10
227
 20
1104.3
 11
224.326
 21
1103.11
  0
LINE
  8
0
 10
224.326
 20
1103.11
 11
221.463
 21
1102.5
  0
LINE
  8
0
 10
221.463
 20
1102.5
 11
218.537
 21
1102.5
  0
LINE
  8
0
 10
218.537
 20
1102.5
 11
215.674
 21
1103.11
  0
LINE
  8
0
 10
215.674
 20
1103.11
 11
213
 21
1104.3
  0
LINE
  8
0
 10
213
 20
1104.3
 11
210.632
 21
1106.02
  0
LINE
  8
0
 10
210.632
 20
1106.02
 11
208.674
 21
1108.2
  0
LINE
  8
0
 10
208.674
 20
1108.2
 11
207.21
 21
1110.73
  0
LINE
  8
0
 10
207.21
 20
1110.73
 11
206.306
 21
1113.51
  0
LINE
  8
0
 10
206.306
 20
1113.51
 11
206
 21
1116.42
  0
LINE
  8
0
 10
213.102
 20
1011.74
 11
213.701
 21
1014.61
  0
LINE
  8
0
 10
213.701
 20
1014.61
 11
214.882
 21
1017.29
  0
LINE
  8
0
 10
214.882
 20
1017.29
 11
216.595
 21
1019.66
  0
LINE
  8
0
 10
216.595
 20
1019.66
 11
218.763
 21
1021.63
  0
LINE
  8
0
 10
218.763
 20
1021.63
 11
221.293
 21
1023.1
  0
LINE
  8
0
 10
221.293
 20
1023.1
 11
224.073
 21
1024.01
  0
LINE
  8
0
 10
224.073
 20
1024.01
 11
226.983
 21
1024.33
  0
LINE
  8
0
 10
226.983
 20
1024.33
 11
229.895
 21
1024.03
  0
LINE
  8
0
 10
229.895
 20
1024.03
 11
232.681
 21
1023.14
  0
LINE
  8
0
 10
232.681
 20
1023.14
 11
235.221
 21
1021.68
  0
LINE
  8
0
 10
235.221
 20
1021.68
 11
237.403
 21
1019.73
  0
LINE
  8
0
 10
237.403
 20
1019.73
 11
239.131
 21
1017.37
  0
LINE
  8
0
 10
239.131
 20
1017.37
 11
240.33
 21
1014.7
  0
LINE
  8
0
 10
240.33
 20
1014.7
 11
240.948
 21
1011.84
  0
LINE
  8
0
 10
240.948
 20
1011.84
 11
240.958
 21
1008.91
  0
LINE
  8
0
 10
240.958
 20
1008.91
 11
240.359
 21
1006.05
  0
LINE
  8
0
 10
240.359
 20
1006.05
 11
239.178
 21
1003.37
  0
LINE
  8
0
 10
239.178
 20
1003.37
 11
237.466
 21
1001
  0
LINE
  8
0
 10
237.466
 20
1001
 11
235.297
 21
999.03
  0
LINE
  8
0
 10
235.297
 20
999.03
 11
232.767
 21
997.558
  0
LINE
  8
0
 10
232.767
 20
997.558
 11
229.987
 21
996.644
  0
LINE
  8
0
 10
229.987
 20
996.644
 11
227.077
 21
996.328
  0
LINE
  8
0
 10
227.077
 20
996.328
 11
224.165
 21
996.624
  0
LINE
  8
0
 10
224.165
 20
996.624
 11
221.379
 21
997.519
  0
LINE
  8
0
 10
221.379
 20
997.519
 11
218.839
 21
998.974
  0
LINE
  8
0
 10
218.839
 20
998.974
 11
216.658
 21
1000.93
  0
LINE
  8
0
 10
216.658
 20
1000.93
 11
214.929
 21
1003.29
  0
LINE
  8
0
 10
214.929
 20
1003.29
 11
213.73
 21
1005.96
  0
LINE
  8
0
 10
213.73
 20
1005.96
 11
213.112
 21
1008.82
  0
LINE
  8
0
 10
213.112
 20
1008.82
 11
213.102
 21
1011.74
  0
LINE
  8
0
 10
217.048
 20
1050.54
 11
217.647
 21
1053.41
  0
LINE
  8
0
 10
217.647
 20
1053.41
 11
218.828
 21
1056.09
  0
LINE
  8
0
 10
218.828
 20
1056.09
 11
220.541
 21
1058.46
  0
LINE
  8
0
 10
220.541
 20
1058.46
 11
222.709
 21
1060.43
  0
LINE
  8
0
 10
222.709
 20
1060.43
 11
225.239
 21
1061.9
  0
LINE
  8
0
 10
225.239
 20
1061.9
 11
228.019
 21
1062.81
  0
LINE
  8
0
 10
228.019
 20
1062.81
 11
230.929
 21
1063.13
  0
LINE
  8
0
 10
230.929
 20
1063.13
 11
233.841
 21
1062.83
  0
LINE
  8
0
 10
233.841
 20
1062.83
 11
236.628
 21
1061.94
  0
LINE
  8
0
 10
236.628
 20
1061.94
 11
239.167
 21
1060.48
  0
LINE
  8
0
 10
239.167
 20
1060.48
 11
241.349
 21
1058.53
  0
LINE
  8
0
 10
241.349
 20
1058.53
 11
243.077
 21
1056.17
  0
LINE
  8
0
 10
243.077
 20
1056.17
 11
244.276
 21
1053.5
  0
LINE
  8
0
 10
244.276
 20
1053.5
 11
244.895
 21
1050.64
  0
LINE
  8
0
 10
244.895
 20
1050.64
 11
244.904
 21
1047.71
  0
LINE
  8
0
 10
244.904
 20
1047.71
 11
244.306
 21
1044.85
  0
LINE
  8
0
 10
244.306
 20
1044.85
 11
243.124
 21
1042.17
  0
LINE
  8
0
 10
243.124
 20
1042.17
 11
241.412
 21
1039.8
  0
LINE
  8
0
 10
241.412
 20
1039.8
 11
239.243
 21
1037.83
  0
LINE
  8
0
 10
239.243
 20
1037.83
 11
236.714
 21
1036.36
  0
LINE
  8
0
 10
236.714
 20
1036.36
 11
233.933
 21
1035.44
  0
LINE
  8
0
 10
233.933
 20
1035.44
 11
231.023
 21
1035.13
  0
LINE
  8
0
 10
231.023
 20
1035.13
 11
228.112
 21
1035.42
  0
LINE
  8
0
 10
228.112
 20
1035.42
 11
225.325
 21
1036.32
  0
LINE
  8
0
 10
225.325
 20
1036.32
 11
222.785
 21
1037.77
  0
LINE
  8
0
 10
222.785
 20
1037.77
 11
220.604
 21
1039.73
  0
LINE
  8
0
 10
220.604
 20
1039.73
 11
218.876
 21
1042.09
  0
LINE
  8
0
 10
218.876
 20
1042.09
 11
217.676
 21
1044.76
  0
LINE
  8
0
 10
217.676
 20
1044.76
 11
217.058
 21
1047.62
  0
LINE
  8
0
 10
217.058
 20
1047.62
 11
217.048
 21
1050.54
  0
LINE
  8
0
 10
246
 20
1116.42
 11
246.306
 21
1119.34
  0
LINE
  8
0
 10
246.306
 20
1119.34
 11
247.21
 21
1122.12
  0
LINE
  8
0
 10
247.21
 20
1122.12
 11
248.674
 21
1124.65
  0
LINE
  8
0
 10
248.674
 20
1124.65
 11
250.632
 21
1126.83
  0
LINE
  8
0
 10
250.632
 20
1126.83
 11
253
 21
1128.55
  0
LINE
  8
0
 10
253
 20
1128.55
 11
255.674
 21
1129.74
  0
LINE
  8
0
 10
255.674
 20
1129.74
 11
258.537
 21
1130.35
  0
LINE
  8
0
 10
258.537
 20
1130.35
 11
261.463
 21
1130.35
  0
LINE
  8
0
 10
261.463
 20
1130.35
 11
264.326
 21
1129.74
  0
LINE
  8
0
 10
264.326
 20
1129.74
 11
267
 21
1128.55
  0
LINE
  8
0
 10
267
 20
1128.55
 11
269.368
 21
1126.83
  0
LINE
  8
0
 10
269.368
 20
1126.83
 11
271.326
 21
1124.65
  0
LINE
  8
0
 10
271.326
 20
1124.65
 11
272.79
 21
1122.12
  0
LINE
  8
0
 10
272.79
 20
1122.12
 11
273.694
 21
1119.34
  0
LINE
  8
0
 10
273.694
 20
1119.34
 11
274
 21
1116.42
  0
LINE
  8
0
 10
274
 20
1116.42
 11
273.694
 21
1113.51
  0
LINE
  8
0
 10
273.694
 20
1113.51
 11
272.79
 21
1110.73
  0
LINE
  8
0
 10
272.79
 20
1110.73
 11
271.326
 21
1108.2
  0
LINE
  8
0
 10
271.326
 20
1108.2
 11
269.368
 21
1106.02
  0
LINE
  8
0
 10
269.368
 20
1106.02
 11
267
 21
1104.3
  0
LINE
  8
0
 10
267
 20
1104.3
 11
264.326
 21
1103.11
  0
LINE
  8
0
 10
264.326
 20
1103.11
 11
261.463
 21
1102.5
  0
LINE
  8
0
 10
261.463
 20
1102.5
 11
258.537
 21
1102.5
  0
LINE
  8
0
 10
258.537
 20
1102.5
 11
255.674
 21
1103.11
  0
LINE
  8
0
 10
255.674
 20
1103.11
 11
253
 21
1104.3
  0
LINE
  8
0
 10
253
 20
1104.3
 11
250.632
 21
1106.02
  0
LINE
  8
0
 10
250.632
 20
1106.02
 11
248.674
 21
1108.2
  0
LINE
  8
0
 10
248.674
 20
1108.2
 11
247.21
 21
1110.73
  0
LINE
  8
0
 10
247.21
 20
1110.73
 11
246.306
 21
1113.51
  0
LINE
  8
0
 10
246.306
 20
1113.51
 11
246
 21
1116.42
  0
LINE
  8
0
 10
326
 20
1116.42
 11
326.306
 21
1119.34
  0
LINE
  8
0
 10
326.306
 20
1119.34
 11
327.21
 21
1122.12
  0
LINE
  8
0
 10
327.21
 20
1122.12
 11
328.674
 21
1124.65
  0
LINE
  8
0
 10
328.674
 20
1124.65
 11
330.632
 21
1126.83
  0
LINE
  8
0
 10
330.632
 20
1126.83
 11
333
 21
1128.55
  0
LINE
  8
0
 10
333
 20
1128.55
 11
335.674
 21
1129.74
  0
LINE
  8
0
 10
335.674
 20
1129.74
 11
338.537
 21
1130.35
  0
LINE
  8
0
 10
338.537
 20
1130.35
 11
341.463
 21
1130.35
  0
LINE
  8
0
 10
341.463
 20
1130.35
 11
344.326
 21
1129.74
  0
LINE
  8
0
 10
344.326
 20
1129.74
 11
347
 21
1128.55
  0
LINE
  8
0
 10
347
 20
1128.55
 11
349.368
 21
1126.83
  0
LINE
  8
0
 10
349.368
 20
1126.83
 11
351.326
 21
1124.65
  0
LINE
  8
0
 10
351.326
 20
1124.65
 11
352.79
 21
1122.12
  0
LINE
  8
0
 10
352.79
 20
1122.12
 11
353.694
 21
1119.34
  0
LINE
  8
0
 10
353.694
 20
1119.34
 11
354
 21
1116.42
  0
LINE
  8
0
 10
354
 20
1116.42
 11
353.694
 21
1113.51
  0
LINE
  8
0
 10
353.694
 20
1113.51
 11
352.79
 21
1110.73
  0
LINE
  8
0
 10
352.79
 20
1110.73
 11
351.326
 21
1108.2
  0
LINE
  8
0
 10
351.326
 20
1108.2
 11
349.368
 21
1106.02
  0
LINE
  8
0
 10
349.368
 20
1106.02
 11
347
 21
1104.3
  0
LINE
  8
0
 10
347
 20
1104.3
 11
344.326
 21
1103.11
  0
LINE
  8
0
 10
344.326
 20
1103.11
 11
341.463
 21
1102.5
  0
LINE
  8
0
 10
341.463
 20
1102.5
 11
338.537
 21
1102.5
  0
LINE
  8
0
 10
338.537
 20
1102.5
 11
335.674
 21
1103.11
  0
LINE
  8
0
 10
335.674
 20
1103.11
 11
333
 21
1104.3
  0
LINE
  8
0
 10
333
 20
1104.3
 11
330.632
 21
1106.02
  0
LINE
  8
0
 10
330.632
 20
1106.02
 11
328.674
 21
1108.2
  0
LINE
  8
0
 10
328.674
 20
1108.2
 11
327.21
 21
1110.73
  0
LINE
  8
0
 10
327.21
 20
1110.73
 11
326.306
 21
1113.51
  0
LINE
  8
0
 10
326.306
 20
1113.51
 11
326
 21
1116.42
  0
LINE
  8
0
 10
345.063
 20
1037.64
 11
364.96
 21
1039.67
  0
LINE
  8
0
 10
364.96
 20
1039.67
 11
363.746
 21
1051.61
  0
LINE
  8
0
 10
363.746
 20
1051.61
 11
388.618
 21
1054.14
  0
LINE
  8
0
 10
388.618
 20
1054.14
 11
389.832
 21
1042.2
  0
LINE
  8
0
 10
389.832
 20
1042.2
 11
409.729
 21
1044.22
  0
LINE
  8
0
 10
409.729
 20
1044.22
 11
415.8
 21
984.53
  0
LINE
  8
0
 10
415.8
 20
984.53
 11
395.903
 21
982.506
  0
LINE
  8
0
 10
395.903
 20
982.506
 11
397.117
 21
970.567
  0
LINE
  8
0
 10
397.117
 20
970.567
 11
372.245
 21
968.038
  0
LINE
  8
0
 10
372.245
 20
968.038
 11
371.031
 21
979.976
  0
LINE
  8
0
 10
371.031
 20
979.976
 11
351.134
 21
977.953
  0
LINE
  8
0
 10
351.134
 20
977.953
 11
345.063
 21
1037.64
  0
LINE
  8
0
 10
352.406
 20
1049.45
 11
352.997
 21
1051.08
  0
LINE
  8
0
 10
352.997
 20
1051.08
 11
354.641
 21
1051.64
  0
LINE
  8
0
 10
354.641
 20
1051.64
 11
356.101
 21
1050.7
  0
LINE
  8
0
 10
356.101
 20
1050.7
 11
356.276
 21
1048.97
  0
LINE
  8
0
 10
356.276
 20
1048.97
 11
355.036
 21
1047.76
  0
LINE
  8
0
 10
355.036
 20
1047.76
 11
353.313
 21
1047.97
  0
LINE
  8
0
 10
353.313
 20
1047.97
 11
352.406
 21
1049.45
  0
LINE
  8
0
 10
360.703
 20
967.869
 11
361.294
 21
969.501
  0
LINE
  8
0
 10
361.294
 20
969.501
 11
362.938
 21
970.056
  0
LINE
  8
0
 10
362.938
 20
970.056
 11
364.398
 21
969.117
  0
LINE
  8
0
 10
364.398
 20
969.117
 11
364.573
 21
967.39
  0
LINE
  8
0
 10
364.573
 20
967.39
 11
363.333
 21
966.177
  0
LINE
  8
0
 10
363.333
 20
966.177
 11
361.611
 21
966.39
  0
LINE
  8
0
 10
361.611
 20
966.39
 11
360.703
 21
967.869
  0
LINE
  8
0
 10
366
 20
1116.42
 11
366.306
 21
1119.34
  0
LINE
  8
0
 10
366.306
 20
1119.34
 11
367.21
 21
1122.12
  0
LINE
  8
0
 10
367.21
 20
1122.12
 11
368.674
 21
1124.65
  0
LINE
  8
0
 10
368.674
 20
1124.65
 11
370.632
 21
1126.83
  0
LINE
  8
0
 10
370.632
 20
1126.83
 11
373
 21
1128.55
  0
LINE
  8
0
 10
373
 20
1128.55
 11
375.674
 21
1129.74
  0
LINE
  8
0
 10
375.674
 20
1129.74
 11
378.537
 21
1130.35
  0
LINE
  8
0
 10
378.537
 20
1130.35
 11
381.463
 21
1130.35
  0
LINE
  8
0
 10
381.463
 20
1130.35
 11
384.326
 21
1129.74
  0
LINE
  8
0
 10
384.326
 20
1129.74
 11
387
 21
1128.55
  0
LINE
  8
0
 10
387
 20
1128.55
 11
389.368
 21
1126.83
  0
LINE
  8
0
 10
389.368
 20
1126.83
 11
391.326
 21
1124.65
  0
LINE
  8
0
 10
391.326
 20
1124.65
 11
392.79
 21
1122.12
  0
LINE
  8
0
 10
392.79
 20
1122.12
 11
393.694
 21
1119.34
  0
LINE
  8
0
 10
393.694
 20
1119.34
 11
394
 21
1116.42
  0
LINE
  8
0
 10
394
 20
1116.42
 11
393.694
 21
1113.51
  0
LINE
  8
0
 10
393.694
 20
1113.51
 11
392.79
 21
1110.73
  0
LINE
  8
0
 10
392.79
 20
1110.73
 11
391.326
 21
1108.2
  0
LINE
  8
0
 10
391.326
 20
1108.2
 11
389.368
 21
1106.02
  0
LINE
  8
0
 10
389.368
 20
1106.02
 11
387
 21
1104.3
  0
LINE
  8
0
 10
387
 20
1104.3
 11
384.326
 21
1103.11
  0
LINE
  8
0
 10
384.326
 20
1103.11
 11
381.463
 21
1102.5
  0
LINE
  8
0
 10
381.463
 20
1102.5
 11
378.537
 21
1102.5
  0
LINE
  8
0
 10
378.537
 20
1102.5
 11
375.674
 21
1103.11
  0
LINE
  8
0
 10
375.674
 20
1103.11
 11
373
 21
1104.3
  0
LINE
  8
0
 10
373
 20
1104.3
 11
370.632
 21
1106.02
  0
LINE
  8
0
 10
370.632
 20
1106.02
 11
368.674
 21
1108.2
  0
LINE
  8
0
 10
368.674
 20
1108.2
 11
367.21
 21
1110.73
  0
LINE
  8
0
 10
367.21
 20
1110.73
 11
366.306
 21
1113.51
  0
LINE
  8
0
 10
366.306
 20
1113.51
 11
366
 21
1116.42
  0
LINE
  8
0
 10
396.289
 20
1054.78
 11
397.53
 21
1056
  0
LINE
  8
0
 10
397.53
 20
1056
 11
399.252
 21
1055.78
  0
LINE
  8
0
 10
399.252
 20
1055.78
 11
400.16
 21
1054.31
  0
LINE
  8
0
 10
400.16
 20
1054.31
 11
399.569
 21
1052.67
  0
LINE
  8
0
 10
399.569
 20
1052.67
 11
397.925
 21
1052.12
  0
LINE
  8
0
 10
397.925
 20
1052.12
 11
396.465
 21
1053.06
  0
LINE
  8
0
 10
396.465
 20
1053.06
 11
396.289
 21
1054.78
  0
LINE
  8
0
 10
404.587
 20
973.205
 11
405.827
 21
974.418
  0
LINE
  8
0
 10
405.827
 20
974.418
 11
407.549
 21
974.205
  0
LINE
  8
0
 10
407.549
 20
974.205
 11
408.457
 21
972.726
  0
LINE
  8
0
 10
408.457
 20
972.726
 11
407.866
 21
971.094
  0
LINE
  8
0
 10
407.866
 20
971.094
 11
406.222
 21
970.539
  0
LINE
  8
0
 10
406.222
 20
970.539
 11
404.762
 21
971.478
  0
LINE
  8
0
 10
404.762
 20
971.478
 11
404.587
 21
973.205
  0
LINE
  8
0
 10
423.278
 20
1034.54
 11
423.288
 21
1037.47
  0
LINE
  8
0
 10
423.288
 20
1037.47
 11
423.906
 21
1040.33
  0
LINE
  8
0
 10
423.906
 20
1040.33
 11
425.105
 21
1043
  0
LINE
  8
0
 10
425.105
 20
1043
 11
426.834
 21
1045.36
  0
LINE
  8
0
 10
426.834
 20
1045.36
 11
429.015
 21
1047.31
  0
LINE
  8
0
 10
429.015
 20
1047.31
 11
431.555
 21
1048.77
  0
LINE
  8
0
 10
431.555
 20
1048.77
 11
434.341
 21
1049.66
  0
LINE
  8
0
 10
434.341
 20
1049.66
 11
437.253
 21
1049.96
  0
LINE
  8
0
 10
437.253
 20
1049.96
 11
440.163
 21
1049.64
  0
LINE
  8
0
 10
440.163
 20
1049.64
 11
442.943
 21
1048.73
  0
LINE
  8
0
 10
442.943
 20
1048.73
 11
445.473
 21
1047.26
  0
LINE
  8
0
 10
445.473
 20
1047.26
 11
447.642
 21
1045.29
  0
LINE
  8
0
 10
447.642
 20
1045.29
 11
449.354
 21
1042.92
  0
LINE
  8
0
 10
449.354
 20
1042.92
 11
450.535
 21
1040.24
  0
LINE
  8
0
 10
450.535
 20
1040.24
 11
451.134
 21
1037.38
  0
LINE
  8
0
 10
451.134
 20
1037.38
 11
451.124
 21
1034.45
  0
LINE
  8
0
 10
451.124
 20
1034.45
 11
450.506
 21
1031.59
  0
LINE
  8
0
 10
450.506
 20
1031.59
 11
449.307
 21
1028.92
  0
LINE
  8
0
 10
449.307
 20
1028.92
 11
447.579
 21
1026.56
  0
LINE
  8
0
 10
447.579
 20
1026.56
 11
445.397
 21
1024.61
  0
LINE
  8
0
 10
445.397
 20
1024.61
 11
442.857
 21
1023.15
  0
LINE
  8
0
 10
442.857
 20
1023.15
 11
440.071
 21
1022.26
  0
LINE
  8
0
 10
440.071
 20
1022.26
 11
437.159
 21
1021.96
  0
LINE
  8
0
 10
437.159
 20
1021.96
 11
434.249
 21
1022.28
  0
LINE
  8
0
 10
434.249
 20
1022.28
 11
431.469
 21
1023.19
  0
LINE
  8
0
 10
431.469
 20
1023.19
 11
428.939
 21
1024.66
  0
LINE
  8
0
 10
428.939
 20
1024.66
 11
426.771
 21
1026.63
  0
LINE
  8
0
 10
426.771
 20
1026.63
 11
425.058
 21
1029
  0
LINE
  8
0
 10
425.058
 20
1029
 11
423.877
 21
1031.68
  0
LINE
  8
0
 10
423.877
 20
1031.68
 11
423.278
 21
1034.54
  0
LINE
  8
0
 10
427.224
 20
995.743
 11
427.234
 21
998.67
  0
LINE
  8
0
 10
427.234
 20
998.67
 11
427.852
 21
1001.53
  0
LINE
  8
0
 10
427.852
 20
1001.53
 11
429.052
 21
1004.2
  0
LINE
  8
0
 10
429.052
 20
1004.2
 11
430.78
 21
1006.56
  0
LINE
  8
0
 10
430.78
 20
1006.56
 11
432.961
 21
1008.51
  0
LINE
  8
0
 10
432.961
 20
1008.51
 11
435.501
 21
1009.97
  0
LINE
  8
0
 10
435.501
 20
1009.97
 11
438.288
 21
1010.86
  0
LINE
  8
0
 10
438.288
 20
1010.86
 11
441.199
 21
1011.16
  0
LINE
  8
0
 10
441.199
 20
1011.16
 11
444.109
 21
1010.84
  0
LINE
  8
0
 10
444.109
 20
1010.84
 11
446.89
 21
1009.93
  0
LINE
  8
0
 10
446.89
 20
1009.93
 11
449.419
 21
1008.46
  0
LINE
  8
0
 10
449.419
 20
1008.46
 11
451.588
 21
1006.49
  0
LINE
  8
0
 10
451.588
 20
1006.49
 11
453.3
 21
1004.12
  0
LINE
  8
0
 10
453.3
 20
1004.12
 11
454.482
 21
1001.44
  0
LINE
  8
0
 10
454.482
 20
1001.44
 11
455.08
 21
998.576
  0
LINE
  8
0
 10
455.08
 20
998.576
 11
455.071
 21
995.649
  0
LINE
  8
0
 10
455.071
 20
995.649
 11
454.452
 21
992.789
  0
LINE
  8
0
 10
454.452
 20
992.789
 11
453.253
 21
990.119
  0
LINE
  8
0
 10
453.253
 20
990.119
 11
451.525
 21
987.757
  0
LINE
  8
0
 10
451.525
 20
987.757
 11
449.343
 21
985.806
  0
LINE
  8
0
 10
449.343
 20
985.806
 11
446.804
 21
984.351
  0
LINE
  8
0
 10
446.804
 20
984.351
 11
444.017
 21
983.456
  0
LINE
  8
0
 10
444.017
 20
983.456
 11
441.105
 21
983.16
  0
LINE
  8
0
 10
441.105
 20
983.16
 11
438.196
 21
983.475
  0
LINE
  8
0
 10
438.196
 20
983.475
 11
435.415
 21
984.389
  0
LINE
  8
0
 10
435.415
 20
984.389
 11
432.885
 21
985.861
  0
LINE
  8
0
 10
432.885
 20
985.861
 11
430.717
 21
987.827
  0
LINE
  8
0
 10
430.717
 20
987.827
 11
429.005
 21
990.2
  0
LINE
  8
0
 10
429.005
 20
990.2
 11
427.823
 21
992.878
  0
LINE
  8
0
 10
427.823
 20
992.878
 11
427.224
 21
995.743
  0
LINE
  8
0
 10
451.598
 20
1057.53
 11
451.608
 21
1060.45
  0
LINE
  8
0
 10
451.608
 20
1060.45
 11
452.226
 21
1063.31
  0
LINE
  8
0
 10
452.226
 20
1063.31
 11
453.425
 21
1065.98
  0
LINE
  8
0
 10
453.425
 20
1065.98
 11
455.153
 21
1068.35
  0
LINE
  8
0
 10
455.153
 20
1068.35
 11
457.335
 21
1070.3
  0
LINE
  8
0
 10
457.335
 20
1070.3
 11
459.875
 21
1071.75
  0
LINE
  8
0
 10
459.875
 20
1071.75
 11
462.661
 21
1072.65
  0
LINE
  8
0
 10
462.661
 20
1072.65
 11
465.573
 21
1072.94
  0
LINE
  8
0
 10
465.573
 20
1072.94
 11
468.483
 21
1072.63
  0
LINE
  8
0
 10
468.483
 20
1072.63
 11
471.263
 21
1071.71
  0
LINE
  8
0
 10
471.263
 20
1071.71
 11
473.793
 21
1070.24
  0
LINE
  8
0
 10
473.793
 20
1070.24
 11
475.961
 21
1068.28
  0
LINE
  8
0
 10
475.961
 20
1068.28
 11
477.674
 21
1065.9
  0
LINE
  8
0
 10
477.674
 20
1065.9
 11
478.855
 21
1063.22
  0
LINE
  8
0
 10
478.855
 20
1063.22
 11
479.454
 21
1060.36
  0
LINE
  8
0
 10
479.454
 20
1060.36
 11
479.444
 21
1057.43
  0
LINE
  8
0
 10
479.444
 20
1057.43
 11
478.826
 21
1054.57
  0
LINE
  8
0
 10
478.826
 20
1054.57
 11
477.627
 21
1051.9
  0
LINE
  8
0
 10
477.627
 20
1051.9
 11
475.898
 21
1049.54
  0
LINE
  8
0
 10
475.898
 20
1049.54
 11
473.717
 21
1047.59
  0
LINE
  8
0
 10
473.717
 20
1047.59
 11
471.177
 21
1046.13
  0
LINE
  8
0
 10
471.177
 20
1046.13
 11
468.391
 21
1045.24
  0
LINE
  8
0
 10
468.391
 20
1045.24
 11
465.479
 21
1044.94
  0
LINE
  8
0
 10
465.479
 20
1044.94
 11
462.569
 21
1045.26
  0
LINE
  8
0
 10
462.569
 20
1045.26
 11
459.789
 21
1046.17
  0
LINE
  8
0
 10
459.789
 20
1046.17
 11
457.259
 21
1047.64
  0
LINE
  8
0
 10
457.259
 20
1047.64
 11
455.09
 21
1049.61
  0
LINE
  8
0
 10
455.09
 20
1049.61
 11
453.378
 21
1051.98
  0
LINE
  8
0
 10
453.378
 20
1051.98
 11
452.197
 21
1054.66
  0
LINE
  8
0
 10
452.197
 20
1054.66
 11
451.598
 21
1057.53
  0
LINE
  8
0
 10
455.544
 20
1018.73
 11
455.554
 21
1021.65
  0
LINE
  8
0
 10
455.554
 20
1021.65
 11
456.172
 21
1024.51
  0
LINE
  8
0
 10
456.172
 20
1024.51
 11
457.371
 21
1027.18
  0
LINE
  8
0
 10
457.371
 20
1027.18
 11
459.1
 21
1029.55
  0
LINE
  8
0
 10
459.1
 20
1029.55
 11
461.281
 21
1031.5
  0
LINE
  8
0
 10
461.281
 20
1031.5
 11
463.821
 21
1032.95
  0
LINE
  8
0
 10
463.821
 20
1032.95
 11
466.607
 21
1033.85
  0
LINE
  8
0
 10
466.607
 20
1033.85
 11
469.519
 21
1034.14
  0
LINE
  8
0
 10
469.519
 20
1034.14
 11
472.429
 21
1033.83
  0
LINE
  8
0
 10
472.429
 20
1033.83
 11
475.209
 21
1032.91
  0
LINE
  8
0
 10
475.209
 20
1032.91
 11
477.739
 21
1031.44
  0
LINE
  8
0
 10
477.739
 20
1031.44
 11
479.908
 21
1029.48
  0
LINE
  8
0
 10
479.908
 20
1029.48
 11
481.62
 21
1027.1
  0
LINE
  8
0
 10
481.62
 20
1027.1
 11
482.801
 21
1024.42
  0
LINE
  8
0
 10
482.801
 20
1024.42
 11
483.4
 21
1021.56
  0
LINE
  8
0
 10
483.4
 20
1021.56
 11
483.39
 21
1018.63
  0
LINE
  8
0
 10
483.39
 20
1018.63
 11
482.772
 21
1015.77
  0
LINE
  8
0
 10
482.772
 20
1015.77
 11
481.573
 21
1013.1
  0
LINE
  8
0
 10
481.573
 20
1013.1
 11
479.845
 21
1010.74
  0
LINE
  8
0
 10
479.845
 20
1010.74
 11
477.663
 21
1008.79
  0
LINE
  8
0
 10
477.663
 20
1008.79
 11
475.123
 21
1007.33
  0
LINE
  8
0
 10
475.123
 20
1007.33
 11
472.337
 21
1006.44
  0
LINE
  8
0
 10
472.337
 20
1006.44
 11
469.425
 21
1006.14
  0
LINE
  8
0
 10
469.425
 20
1006.14
 11
466.515
 21
1006.46
  0
LINE
  8
0
 10
466.515
 20
1006.46
 11
463.735
 21
1007.37
  0
LINE
  8
0
 10
463.735
 20
1007.37
 11
461.205
 21
1008.84
  0
LINE
  8
0
 10
461.205
 20
1008.84
 11
459.037
 21
1010.81
  0
LINE
  8
0
 10
459.037
 20
1010.81
 11
457.324
 21
1013.18
  0
LINE
  8
0
 10
457.324
 20
1013.18
 11
456.143
 21
1015.86
  0
LINE
  8
0
 10
456.143
 20
1015.86
 11
455.544
 21
1018.73
  0
LINE
  8
0
 10
487.413
 20
1061.17
 11
487.423
 21
1064.1
  0
LINE
  8
0
 10
487.423
 20
1064.1
 11
488.041
 21
1066.96
  0
LINE
  8
0
 10
488.041
 20
1066.96
 11
489.24
 21
1069.63
  0
LINE
  8
0
 10
489.24
 20
1069.63
 11
490.969
 21
1071.99
  0
LINE
  8
0
 10
490.969
 20
1071.99
 11
493.15
 21
1073.94
  0
LINE
  8
0
 10
493.15
 20
1073.94
 11
495.69
 21
1075.39
  0
LINE
  8
0
 10
495.69
 20
1075.39
 11
498.476
 21
1076.29
  0
LINE
  8
0
 10
498.476
 20
1076.29
 11
501.388
 21
1076.59
  0
LINE
  8
0
 10
501.388
 20
1076.59
 11
504.298
 21
1076.27
  0
LINE
  8
0
 10
504.298
 20
1076.27
 11
507.078
 21
1075.36
  0
LINE
  8
0
 10
507.078
 20
1075.36
 11
509.608
 21
1073.88
  0
LINE
  8
0
 10
509.608
 20
1073.88
 11
511.777
 21
1071.92
  0
LINE
  8
0
 10
511.777
 20
1071.92
 11
513.489
 21
1069.54
  0
LINE
  8
0
 10
513.489
 20
1069.54
 11
514.67
 21
1066.87
  0
LINE
  8
0
 10
514.67
 20
1066.87
 11
515.269
 21
1064
  0
LINE
  8
0
 10
515.269
 20
1064
 11
515.259
 21
1061.08
  0
LINE
  8
0
 10
515.259
 20
1061.08
 11
514.641
 21
1058.21
  0
LINE
  8
0
 10
514.641
 20
1058.21
 11
513.442
 21
1055.54
  0
LINE
  8
0
 10
513.442
 20
1055.54
 11
511.714
 21
1053.18
  0
LINE
  8
0
 10
511.714
 20
1053.18
 11
509.532
 21
1051.23
  0
LINE
  8
0
 10
509.532
 20
1051.23
 11
506.992
 21
1049.78
  0
LINE
  8
0
 10
506.992
 20
1049.78
 11
504.206
 21
1048.88
  0
LINE
  8
0
 10
504.206
 20
1048.88
 11
501.294
 21
1048.59
  0
LINE
  8
0
 10
501.294
 20
1048.59
 11
498.384
 21
1048.9
  0
LINE
  8
0
 10
498.384
 20
1048.9
 11
495.604
 21
1049.82
  0
LINE
  8
0
 10
495.604
 20
1049.82
 11
493.074
 21
1051.29
  0
LINE
  8
0
 10
493.074
 20
1051.29
 11
490.906
 21
1053.25
  0
LINE
  8
0
 10
490.906
 20
1053.25
 11
489.193
 21
1055.63
  0
LINE
  8
0
 10
489.193
 20
1055.63
 11
488.012
 21
1058.3
  0
LINE
  8
0
 10
488.012
 20
1058.3
 11
487.413
 21
1061.17
  0
LINE
  8
0
 10
491.359
 20
1022.37
 11
491.369
 21
1025.3
  0
LINE
  8
0
 10
491.369
 20
1025.3
 11
491.987
 21
1028.16
  0
LINE
  8
0
 10
491.987
 20
1028.16
 11
493.187
 21
1030.83
  0
LINE
  8
0
 10
493.187
 20
1030.83
 11
494.915
 21
1033.19
  0
LINE
  8
0
 10
494.915
 20
1033.19
 11
497.096
 21
1035.14
  0
LINE
  8
0
 10
497.096
 20
1035.14
 11
499.636
 21
1036.59
  0
LINE
  8
0
 10
499.636
 20
1036.59
 11
502.423
 21
1037.49
  0
LINE
  8
0
 10
502.423
 20
1037.49
 11
505.334
 21
1037.79
  0
LINE
  8
0
 10
505.334
 20
1037.79
 11
508.244
 21
1037.47
  0
LINE
  8
0
 10
508.244
 20
1037.47
 11
511.025
 21
1036.56
  0
LINE
  8
0
 10
511.025
 20
1036.56
 11
513.554
 21
1035.08
  0
LINE
  8
0
 10
513.554
 20
1035.08
 11
515.723
 21
1033.12
  0
LINE
  8
0
 10
515.723
 20
1033.12
 11
517.435
 21
1030.74
  0
LINE
  8
0
 10
517.435
 20
1030.74
 11
518.617
 21
1028.07
  0
LINE
  8
0
 10
518.617
 20
1028.07
 11
519.215
 21
1025.2
  0
LINE
  8
0
 10
519.215
 20
1025.2
 11
519.206
 21
1022.28
  0
LINE
  8
0
 10
519.206
 20
1022.28
 11
518.588
 21
1019.41
  0
LINE
  8
0
 10
518.588
 20
1019.41
 11
517.388
 21
1016.74
  0
LINE
  8
0
 10
517.388
 20
1016.74
 11
515.66
 21
1014.38
  0
LINE
  8
0
 10
515.66
 20
1014.38
 11
513.478
 21
1012.43
  0
LINE
  8
0
 10
513.478
 20
1012.43
 11
510.939
 21
1010.98
  0
LINE
  8
0
 10
510.939
 20
1010.98
 11
508.152
 21
1010.08
  0
LINE
  8
0
 10
508.152
 20
1010.08
 11
505.24
 21
1009.79
  0
LINE
  8
0
 10
505.24
 20
1009.79
 11
502.331
 21
1010.1
  0
LINE
  8
0
 10
502.331
 20
1010.1
 11
499.55
 21
1011.02
  0
LINE
  8
0
 10
499.55
 20
1011.02
 11
497.02
 21
1012.49
  0
LINE
  8
0
 10
497.02
 20
1012.49
 11
494.852
 21
1014.45
  0
LINE
  8
0
 10
494.852
 20
1014.45
 11
493.14
 21
1016.83
  0
LINE
  8
0
 10
493.14
 20
1016.83
 11
491.958
 21
1019.5
  0
LINE
  8
0
 10
491.958
 20
1019.5
 11
491.359
 21
1022.37
  0
LINE
  8
0
 10
11.966
 20
628.424
 11
12.3234
 21
628.269
  0
LINE
  8
0
 10
12.3234
 20
628.269
 11
12.4095
 21
628.247
  0
LINE
  8
0
 10
12.4095
 20
628.247
 11
41.0934
 21
622.671
  0
LINE
  8
0
 10
41.0934
 20
622.671
 11
41.4374
 21
622.611
  0
LINE
  8
0
 10
41.4374
 20
622.611
 11
92.459
 21
614.53
  0
LINE
  8
0
 10
92.459
 20
614.53
 11
92.8053
 21
614.481
  0
LINE
  8
0
 10
92.8053
 20
614.481
 11
144.079
 21
608.185
  0
LINE
  8
0
 10
144.079
 20
608.185
 11
144.427
 21
608.149
  0
LINE
  8
0
 10
144.427
 20
608.149
 11
195.889
 21
603.646
  0
LINE
  8
0
 10
195.889
 20
603.646
 11
196.237
 21
603.622
  0
LINE
  8
0
 10
196.237
 20
603.622
 11
247.826
 21
600.918
  0
LINE
  8
0
 10
247.826
 20
600.918
 11
248.175
 21
600.906
  0
LINE
  8
0
 10
248.175
 20
600.906
 11
299.825
 21
600.005
  0
LINE
  8
0
 10
299.825
 20
600.005
 11
300.175
 21
600.005
  0
LINE
  8
0
 10
300.175
 20
600.005
 11
351.825
 21
600.906
  0
LINE
  8
0
 10
351.825
 20
600.906
 11
352.174
 21
600.918
  0
LINE
  8
0
 10
352.174
 20
600.918
 11
403.763
 21
603.622
  0
LINE
  8
0
 10
403.763
 20
603.622
 11
404.111
 21
603.646
  0
LINE
  8
0
 10
404.111
 20
603.646
 11
455.573
 21
608.149
  0
LINE
  8
0
 10
455.573
 20
608.149
 11
455.921
 21
608.185
  0
LINE
  8
0
 10
455.921
 20
608.185
 11
507.195
 21
614.481
  0
LINE
  8
0
 10
507.195
 20
614.481
 11
507.541
 21
614.53
  0
LINE
  8
0
 10
507.541
 20
614.53
 11
558.563
 21
622.611
  0
LINE
  8
0
 10
558.563
 20
622.611
 11
558.907
 21
622.671
  0
LINE
  8
0
 10
558.907
 20
622.671
 11
587.122
 21
628.156
  0
LINE
  8
0
 10
587.122
 20
628.156
 11
588.043
 21
628.437
  0
LINE
  8
0
 10
588.043
 20
628.437
 11
588.049
 21
628.827
  0
LINE
  8
0
 10
588.049
 20
628.827
 11
588.037
 21
628.915
  0
LINE
  8
0
 10
588.037
 20
628.915
 11
542.097
 21
853.973
  0
LINE
  8
0
 10
542.097
 20
853.973
 11
541.802
 21
854.907
  0
LINE
  8
0
 10
541.802
 20
854.907
 11
541.399
 21
854.996
  0
LINE
  8
0
 10
541.399
 20
854.996
 11
541.323
 21
855
  0
LINE
  8
0
 10
541.323
 20
855
 11
59.1611
 21
855
  0
LINE
  8
0
 10
59.1611
 20
855
 11
58.1872
 21
854.898
  0
LINE
  8
0
 10
58.1872
 20
854.898
 11
58.0195
 21
854.521
  0
LINE
  8
0
 10
58.0195
 20
854.521
 11
58
 21
854.447
  0
LINE
  8
0
 10
58
 20
854.447
 11
12.0589
 21
629.383
  0
LINE
  8
0
 10
12.0589
 20
629.383
 11
11.966
 21
628.424
  0
LINE
  8
0
 10
66.8054
 20
701.469
 11
72.8765
 21
761.161
  0
LINE
  8
0
 10
72.8765
 20
761.161
 11
92.7739
 21
759.138
  0
LINE
  8
0
 10
92.7739
 20
759.138
 11
93.9881
 21
771.076
  0
LINE
  8
0
 10
93.9881
 20
771.076
 11
118.86
 21
768.546
  0
LINE
  8
0
 10
118.86
 20
768.546
 11
117.646
 21
756.608
  0
LINE
  8
0
 10
117.646
 20
756.608
 11
137.543
 21
754.584
  0
LINE
  8
0
 10
137.543
 20
754.584
 11
131.472
 21
694.892
  0
LINE
  8
0
 10
131.472
 20
694.892
 11
111.574
 21
696.916
  0
LINE
  8
0
 10
111.574
 20
696.916
 11
110.36
 21
684.978
  0
LINE
  8
0
 10
110.36
 20
684.978
 11
85.4886
 21
687.507
  0
LINE
  8
0
 10
85.4886
 20
687.507
 11
86.7028
 21
699.446
  0
LINE
  8
0
 10
86.7028
 20
699.446
 11
66.8054
 21
701.469
  0
LINE
  8
0
 10
74.1488
 20
689.666
 11
75.0562
 21
691.145
  0
LINE
  8
0
 10
75.0562
 20
691.145
 11
76.7786
 21
691.358
  0
LINE
  8
0
 10
76.7786
 20
691.358
 11
78.019
 21
690.144
  0
LINE
  8
0
 10
78.019
 20
690.144
 11
77.8434
 21
688.418
  0
LINE
  8
0
 10
77.8434
 20
688.418
 11
76.384
 21
687.478
  0
LINE
  8
0
 10
76.384
 20
687.478
 11
74.7397
 21
688.034
  0
LINE
  8
0
 10
74.7397
 20
688.034
 11
74.1488
 21
689.666
  0
LINE
  8
0
 10
82.4459
 20
771.245
 11
83.3533
 21
772.724
  0
LINE
  8
0
 10
83.3533
 20
772.724
 11
85.0757
 21
772.937
  0
LINE
  8
0
 10
85.0757
 20
772.937
 11
86.3161
 21
771.723
  0
LINE
  8
0
 10
86.3161
 20
771.723
 11
86.1405
 21
769.997
  0
LINE
  8
0
 10
86.1405
 20
769.997
 11
84.6811
 21
769.058
  0
LINE
  8
0
 10
84.6811
 20
769.058
 11
83.0368
 21
769.613
  0
LINE
  8
0
 10
83.0368
 20
769.613
 11
82.4459
 21
771.245
  0
LINE
  8
0
 10
118.032
 20
684.33
 11
118.208
 21
686.057
  0
LINE
  8
0
 10
118.208
 20
686.057
 11
119.667
 21
686.996
  0
LINE
  8
0
 10
119.667
 20
686.996
 11
121.311
 21
686.441
  0
LINE
  8
0
 10
121.311
 20
686.441
 11
121.902
 21
684.809
  0
LINE
  8
0
 10
121.902
 20
684.809
 11
120.995
 21
683.329
  0
LINE
  8
0
 10
120.995
 20
683.329
 11
119.273
 21
683.116
  0
LINE
  8
0
 10
119.273
 20
683.116
 11
118.032
 21
684.33
  0
LINE
  8
0
 10
126.329
 20
765.909
 11
126.505
 21
767.636
  0
LINE
  8
0
 10
126.505
 20
767.636
 11
127.964
 21
768.575
  0
LINE
  8
0
 10
127.964
 20
768.575
 11
129.609
 21
768.02
  0
LINE
  8
0
 10
129.609
 20
768.02
 11
130.2
 21
766.388
  0
LINE
  8
0
 10
130.2
 20
766.388
 11
129.292
 21
764.909
  0
LINE
  8
0
 10
129.292
 20
764.909
 11
127.57
 21
764.696
  0
LINE
  8
0
 10
127.57
 20
764.696
 11
126.329
 21
765.909
  0
LINE
  8
0
 10
144.92
 20
703.576
 11
145.518
 21
706.441
  0
LINE
  8
0
 10
145.518
 20
706.441
 11
146.7
 21
709.119
  0
LINE
  8
0
 10
146.7
 20
709.119
 11
148.412
 21
711.492
  0
LINE
  8
0
 10
148.412
 20
711.492
 11
150.581
 21
713.458
  0
LINE
  8
0
 10
150.581
 20
713.458
 11
153.11
 21
714.93
  0
LINE
  8
0
 10
153.11
 20
714.93
 11
155.891
 21
715.844
  0
LINE
  8
0
 10
155.891
 20
715.844
 11
158.801
 21
716.16
  0
LINE
  8
0
 10
158.801
 20
716.16
 11
161.712
 21
715.863
  0
LINE
  8
0
 10
161.712
 20
715.863
 11
164.499
 21
714.968
  0
LINE
  8
0
 10
164.499
 20
714.968
 11
167.039
 21
713.513
  0
LINE
  8
0
 10
167.039
 20
713.513
 11
169.22
 21
711.562
  0
LINE
  8
0
 10
169.22
 20
711.562
 11
170.948
 21
709.2
  0
LINE
  8
0
 10
170.948
 20
709.2
 11
172.148
 21
706.531
  0
LINE
  8
0
 10
172.148
 20
706.531
 11
172.766
 21
703.67
  0
LINE
  8
0
 10
172.766
 20
703.67
 11
172.776
 21
700.743
  0
LINE
  8
0
 10
172.776
 20
700.743
 11
172.177
 21
697.878
  0
LINE
  8
0
 10
172.177
 20
697.878
 11
170.995
 21
695.2
  0
LINE
  8
0
 10
170.995
 20
695.2
 11
169.283
 21
692.827
  0
LINE
  8
0
 10
169.283
 20
692.827
 11
167.115
 21
690.861
  0
LINE
  8
0
 10
167.115
 20
690.861
 11
164.585
 21
689.389
  0
LINE
  8
0
 10
164.585
 20
689.389
 11
161.804
 21
688.475
  0
LINE
  8
0
 10
161.804
 20
688.475
 11
158.895
 21
688.16
  0
LINE
  8
0
 10
158.895
 20
688.16
 11
155.983
 21
688.456
  0
LINE
  8
0
 10
155.983
 20
688.456
 11
153.196
 21
689.351
  0
LINE
  8
0
 10
153.196
 20
689.351
 11
150.657
 21
690.806
  0
LINE
  8
0
 10
150.657
 20
690.806
 11
148.475
 21
692.757
  0
LINE
  8
0
 10
148.475
 20
692.757
 11
146.747
 21
695.119
  0
LINE
  8
0
 10
146.747
 20
695.119
 11
145.548
 21
697.789
  0
LINE
  8
0
 10
145.548
 20
697.789
 11
144.929
 21
700.649
  0
LINE
  8
0
 10
144.929
 20
700.649
 11
144.92
 21
703.576
  0
LINE
  8
0
 10
148.866
 20
742.376
 11
149.465
 21
745.241
  0
LINE
  8
0
 10
149.465
 20
745.241
 11
150.646
 21
747.919
  0
LINE
  8
0
 10
150.646
 20
747.919
 11
152.358
 21
750.292
  0
LINE
  8
0
 10
152.358
 20
750.292
 11
154.527
 21
752.258
  0
LINE
  8
0
 10
154.527
 20
752.258
 11
157.057
 21
753.73
  0
LINE
  8
0
 10
157.057
 20
753.73
 11
159.837
 21
754.644
  0
LINE
  8
0
 10
159.837
 20
754.644
 11
162.747
 21
754.959
  0
LINE
  8
0
 10
162.747
 20
754.959
 11
165.659
 21
754.663
  0
LINE
  8
0
 10
165.659
 20
754.663
 11
168.445
 21
753.768
  0
LINE
  8
0
 10
168.445
 20
753.768
 11
170.985
 21
752.313
  0
LINE
  8
0
 10
170.985
 20
752.313
 11
173.166
 21
750.362
  0
LINE
  8
0
 10
173.166
 20
750.362
 11
174.895
 21
748
  0
LINE
  8
0
 10
174.895
 20
748
 11
176.094
 21
745.33
  0
LINE
  8
0
 10
176.094
 20
745.33
 11
176.712
 21
742.47
  0
LINE
  8
0
 10
176.712
 20
742.47
 11
176.722
 21
739.543
  0
LINE
  8
0
 10
176.722
 20
739.543
 11
176.123
 21
736.678
  0
LINE
  8
0
 10
176.123
 20
736.678
 11
174.942
 21
734
  0
LINE
  8
0
 10
174.942
 20
734
 11
173.229
 21
731.627
  0
LINE
  8
0
 10
173.229
 20
731.627
 11
171.061
 21
729.661
  0
LINE
  8
0
 10
171.061
 20
729.661
 11
168.531
 21
728.189
  0
LINE
  8
0
 10
168.531
 20
728.189
 11
165.751
 21
727.275
  0
LINE
  8
0
 10
165.751
 20
727.275
 11
162.841
 21
726.96
  0
LINE
  8
0
 10
162.841
 20
726.96
 11
159.929
 21
727.256
  0
LINE
  8
0
 10
159.929
 20
727.256
 11
157.143
 21
728.151
  0
LINE
  8
0
 10
157.143
 20
728.151
 11
154.603
 21
729.606
  0
LINE
  8
0
 10
154.603
 20
729.606
 11
152.421
 21
731.557
  0
LINE
  8
0
 10
152.421
 20
731.557
 11
150.693
 21
733.919
  0
LINE
  8
0
 10
150.693
 20
733.919
 11
149.494
 21
736.588
  0
LINE
  8
0
 10
149.494
 20
736.588
 11
148.876
 21
739.449
  0
LINE
  8
0
 10
148.876
 20
739.449
 11
148.866
 21
742.376
  0
LINE
  8
0
 10
177.287
 20
720.387
 11
177.886
 21
723.252
  0
LINE
  8
0
 10
177.886
 20
723.252
 11
179.067
 21
725.93
  0
LINE
  8
0
 10
179.067
 20
725.93
 11
180.779
 21
728.304
  0
LINE
  8
0
 10
180.779
 20
728.304
 11
182.948
 21
730.269
  0
LINE
  8
0
 10
182.948
 20
730.269
 11
185.478
 21
731.741
  0
LINE
  8
0
 10
185.478
 20
731.741
 11
188.258
 21
732.655
  0
LINE
  8
0
 10
188.258
 20
732.655
 11
191.168
 21
732.971
  0
LINE
  8
0
 10
191.168
 20
732.971
 11
194.08
 21
732.675
  0
LINE
  8
0
 10
194.08
 20
732.675
 11
196.866
 21
731.78
  0
LINE
  8
0
 10
196.866
 20
731.78
 11
199.406
 21
730.325
  0
LINE
  8
0
 10
199.406
 20
730.325
 11
201.587
 21
728.374
  0
LINE
  8
0
 10
201.587
 20
728.374
 11
203.316
 21
726.012
  0
LINE
  8
0
 10
203.316
 20
726.012
 11
204.515
 21
723.342
  0
LINE
  8
0
 10
204.515
 20
723.342
 11
205.133
 21
720.481
  0
LINE
  8
0
 10
205.133
 20
720.481
 11
205.143
 21
717.554
  0
LINE
  8
0
 10
205.143
 20
717.554
 11
204.544
 21
714.689
  0
LINE
  8
0
 10
204.544
 20
714.689
 11
203.363
 21
712.012
  0
LINE
  8
0
 10
203.363
 20
712.012
 11
201.65
 21
709.638
  0
LINE
  8
0
 10
201.65
 20
709.638
 11
199.482
 21
707.672
  0
LINE
  8
0
 10
199.482
 20
707.672
 11
196.952
 21
706.2
  0
LINE
  8
0
 10
196.952
 20
706.2
 11
194.172
 21
705.287
  0
LINE
  8
0
 10
194.172
 20
705.287
 11
191.262
 21
704.971
  0
LINE
  8
0
 10
191.262
 20
704.971
 11
188.35
 21
705.267
  0
LINE
  8
0
 10
188.35
 20
705.267
 11
185.564
 21
706.162
  0
LINE
  8
0
 10
185.564
 20
706.162
 11
183.024
 21
707.617
  0
LINE
  8
0
 10
183.024
 20
707.617
 11
180.842
 21
709.568
  0
LINE
  8
0
 10
180.842
 20
709.568
 11
179.114
 21
711.93
  0
LINE
  8
0
 10
179.114
 20
711.93
 11
177.915
 21
714.6
  0
LINE
  8
0
 10
177.915
 20
714.6
 11
177.297
 21
717.461
  0
LINE
  8
0
 10
177.297
 20
717.461
 11
177.287
 21
720.387
  0
LINE
  8
0
 10
181.233
 20
759.187
 11
181.832
 21
762.052
  0
LINE
  8
0
 10
181.832
 20
762.052
 11
183.013
 21
764.73
  0
LINE
  8
0
 10
183.013
 20
764.73
 11
184.726
 21
767.103
  0
LINE
  8
0
 10
184.726
 20
767.103
 11
186.894
 21
769.069
  0
LINE
  8
0
 10
186.894
 20
769.069
 11
189.424
 21
770.541
  0
LINE
  8
0
 10
189.424
 20
770.541
 11
192.204
 21
771.455
  0
LINE
  8
0
 10
192.204
 20
771.455
 11
195.114
 21
771.771
  0
LINE
  8
0
 10
195.114
 20
771.771
 11
198.026
 21
771.474
  0
LINE
  8
0
 10
198.026
 20
771.474
 11
200.812
 21
770.579
  0
LINE
  8
0
 10
200.812
 20
770.579
 11
203.352
 21
769.124
  0
LINE
  8
0
 10
203.352
 20
769.124
 11
205.533
 21
767.173
  0
LINE
  8
0
 10
205.533
 20
767.173
 11
207.262
 21
764.811
  0
LINE
  8
0
 10
207.262
 20
764.811
 11
208.461
 21
762.142
  0
LINE
  8
0
 10
208.461
 20
762.142
 11
209.079
 21
759.281
  0
LINE
  8
0
 10
209.079
 20
759.281
 11
209.089
 21
756.354
  0
LINE
  8
0
 10
209.089
 20
756.354
 11
208.49
 21
753.489
  0
LINE
  8
0
 10
208.49
 20
753.489
 11
207.309
 21
750.811
  0
LINE
  8
0
 10
207.309
 20
750.811
 11
205.596
 21
748.438
  0
LINE
  8
0
 10
205.596
 20
748.438
 11
203.428
 21
746.472
  0
LINE
  8
0
 10
203.428
 20
746.472
 11
200.898
 21
745
  0
LINE
  8
0
 10
200.898
 20
745
 11
198.118
 21
744.086
  0
LINE
  8
0
 10
198.118
 20
744.086
 11
195.208
 21
743.771
  0
LINE
  8
0
 10
195.208
 20
743.771
 11
192.296
 21
744.067
  0
LINE
  8
0
 10
192.296
 20
744.067
 11
189.51
 21
744.962
  0
LINE
  8
0
 10
189.51
 20
744.962
 11
186.97
 21
746.417
  0
LINE
  8
0
 10
186.97
 20
746.417
 11
184.789
 21
748.368
  0
LINE
  8
0
 10
184.789
 20
748.368
 11
183.06
 21
750.73
  0
LINE
  8
0
 10
183.06
 20
750.73
 11
181.861
 21
753.4
  0
LINE
  8
0
 10
181.861
 20
753.4
 11
181.243
 21
756.26
  0
LINE
  8
0
 10
181.243
 20
756.26
 11
181.233
 21
759.187
  0
LINE
  8
0
 10
206
 20
821.425
 11
206.306
 21
824.336
  0
LINE
  8
0
 10
206.306
 20
824.336
 11
207.21
 21
827.119
  0
LINE
  8
0
 10
207.21
 20
827.119
 11
208.674
 21
829.654
  0
LINE
  8
0
 10
208.674
 20
829.654
 11
210.632
 21
831.829
  0
LINE
  8
0
 10
210.632
 20
831.829
 11
213
 21
833.549
  0
LINE
  8
0
 10
213
 20
833.549
 11
215.674
 21
834.74
  0
LINE
  8
0
 10
215.674
 20
834.74
 11
218.537
 21
835.348
  0
LINE
  8
0
 10
218.537
 20
835.348
 11
221.463
 21
835.348
  0
LINE
  8
0
 10
221.463
 20
835.348
 11
224.326
 21
834.74
  0
LINE
  8
0
 10
224.326
 20
834.74
 11
227
 21
833.549
  0
LINE
  8
0
 10
227
 20
833.549
 11
229.368
 21
831.829
  0
LINE
  8
0
 10
229.368
 20
831.829
 11
231.326
 21
829.654
  0
LINE
  8
0
 10
231.326
 20
829.654
 11
232.79
 21
827.119
  0
LINE
  8
0
 10
232.79
 20
827.119
 11
233.694
 21
824.336
  0
LINE
  8
0
 10
233.694
 20
824.336
 11
234
 21
821.425
  0
LINE
  8
0
 10
234
 20
821.425
 11
233.694
 21
818.514
  0
LINE
  8
0
 10
233.694
 20
818.514
 11
232.79
 21
815.731
  0
LINE
  8
0
 10
232.79
 20
815.731
 11
231.326
 21
813.196
  0
LINE
  8
0
 10
231.326
 20
813.196
 11
229.368
 21
811.021
  0
LINE
  8
0
 10
229.368
 20
811.021
 11
227
 21
809.301
  0
LINE
  8
0
 10
227
 20
809.301
 11
224.326
 21
808.11
  0
LINE
  8
0
 10
224.326
 20
808.11
 11
221.463
 21
807.502
  0
LINE
  8
0
 10
221.463
 20
807.502
 11
218.537
 21
807.502
  0
LINE
  8
0
 10
218.537
 20
807.502
 11
215.674
 21
808.11
  0
LINE
  8
0
 10
215.674
 20
808.11
 11
213
 21
809.301
  0
LINE
  8
0
 10
213
 20
809.301
 11
210.632
 21
811.021
  0
LINE
  8
0
 10
210.632
 20
811.021
 11
208.674
 21
813.196
  0
LINE
  8
0
 10
208.674
 20
813.196
 11
207.21
 21
815.731
  0
LINE
  8
0
 10
207.21
 20
815.731
 11
206.306
 21
818.514
  0
LINE
  8
0
 10
206.306
 20
818.514
 11
206
 21
821.425
  0
LINE
  8
0
 10
213.102
 20
716.745
 11
213.701
 21
719.61
  0
LINE
  8
0
 10
213.701
 20
719.61
 11
214.882
 21
722.287
  0
LINE
  8
0
 10
214.882
 20
722.287
 11
216.595
 21
724.661
  0
LINE
  8
0
 10
216.595
 20
724.661
 11
218.763
 21
726.627
  0
LINE
  8
0
 10
218.763
 20
726.627
 11
221.293
 21
728.099
  0
LINE
  8
0
 10
221.293
 20
728.099
 11
224.073
 21
729.012
  0
LINE
  8
0
 10
224.073
 20
729.012
 11
226.983
 21
729.328
  0
LINE
  8
0
 10
226.983
 20
729.328
 11
229.895
 21
729.032
  0
LINE
  8
0
 10
229.895
 20
729.032
 11
232.681
 21
728.137
  0
LINE
  8
0
 10
232.681
 20
728.137
 11
235.221
 21
726.682
  0
LINE
  8
0
 10
235.221
 20
726.682
 11
237.403
 21
724.731
  0
LINE
  8
0
 10
237.403
 20
724.731
 11
239.131
 21
722.369
  0
LINE
  8
0
 10
239.131
 20
722.369
 11
240.33
 21
719.699
  0
LINE
  8
0
 10
240.33
 20
719.699
 11
240.948
 21
716.838
  0
LINE
  8
0
 10
240.948
 20
716.838
 11
240.958
 21
713.912
  0
LINE
  8
0
 10
240.958
 20
713.912
 11
240.359
 21
711.047
  0
LINE
  8
0
 10
240.359
 20
711.047
 11
239.178
 21
708.369
  0
LINE
  8
0
 10
239.178
 20
708.369
 11
237.466
 21
705.995
  0
LINE
  8
0
 10
237.466
 20
705.995
 11
235.297
 21
704.03
  0
LINE
  8
0
 10
235.297
 20
704.03
 11
232.767
 21
702.558
  0
LINE
  8
0
 10
232.767
 20
702.558
 11
229.987
 21
701.644
  0
LINE
  8
0
 10
229.987
 20
701.644
 11
227.077
 21
701.328
  0
LINE
  8
0
 10
227.077
 20
701.328
 11
224.165
 21
701.624
  0
LINE
  8
0
 10
224.165
 20
701.624
 11
221.379
 21
702.519
  0
LINE
  8
0
 10
221.379
 20
702.519
 11
218.839
 21
703.974
  0
LINE
  8
0
 10
218.839
 20
703.974
 11
216.658
 21
705.925
  0
LINE
  8
0
 10
216.658
 20
705.925
 11
214.929
 21
708.287
  0
LINE
  8
0
 10
214.929
 20
708.287
 11
213.73
 21
710.957
  0
LINE
  8
0
 10
213.73
 20
710.957
 11
213.112
 21
713.818
  0
LINE
  8
0
 10
213.112
 20
713.818
 11
213.102
 21
716.745
  0
LINE
  8
0
 10
217.048
 20
755.545
 11
217.647
 21
758.409
  0
LINE
  8
0
 10
217.647
 20
758.409
 11
218.828
 21
761.087
  0
LINE
  8
0
 10
218.828
 20
761.087
 11
220.541
 21
763.461
  0
LINE
  8
0
 10
220.541
 20
763.461
 11
222.709
 21
765.427
  0
LINE
  8
0
 10
222.709
 20
765.427
 11
225.239
 21
766.898
  0
LINE
  8
0
 10
225.239
 20
766.898
 11
228.019
 21
767.812
  0
LINE
  8
0
 10
228.019
 20
767.812
 11
230.929
 21
768.128
  0
LINE
  8
0
 10
230.929
 20
768.128
 11
233.841
 21
767.832
  0
LINE
  8
0
 10
233.841
 20
767.832
 11
236.628
 21
766.937
  0
LINE
  8
0
 10
236.628
 20
766.937
 11
239.167
 21
765.482
  0
LINE
  8
0
 10
239.167
 20
765.482
 11
241.349
 21
763.531
  0
LINE
  8
0
 10
241.349
 20
763.531
 11
243.077
 21
761.169
  0
LINE
  8
0
 10
243.077
 20
761.169
 11
244.276
 21
758.499
  0
LINE
  8
0
 10
244.276
 20
758.499
 11
244.895
 21
755.638
  0
LINE
  8
0
 10
244.895
 20
755.638
 11
244.904
 21
752.711
  0
LINE
  8
0
 10
244.904
 20
752.711
 11
244.306
 21
749.847
  0
LINE
  8
0
 10
244.306
 20
749.847
 11
243.124
 21
747.169
  0
LINE
  8
0
 10
243.124
 20
747.169
 11
241.412
 21
744.795
  0
LINE
  8
0
 10
241.412
 20
744.795
 11
239.243
 21
742.83
  0
LINE
  8
0
 10
239.243
 20
742.83
 11
236.714
 21
741.358
  0
LINE
  8
0
 10
236.714
 20
741.358
 11
233.933
 21
740.444
  0
LINE
  8
0
 10
233.933
 20
740.444
 11
231.023
 21
740.128
  0
LINE
  8
0
 10
231.023
 20
740.128
 11
228.112
 21
740.424
  0
LINE
  8
0
 10
228.112
 20
740.424
 11
225.325
 21
741.319
  0
LINE
  8
0
 10
225.325
 20
741.319
 11
222.785
 21
742.774
  0
LINE
  8
0
 10
222.785
 20
742.774
 11
220.604
 21
744.725
  0
LINE
  8
0
 10
220.604
 20
744.725
 11
218.876
 21
747.087
  0
LINE
  8
0
 10
218.876
 20
747.087
 11
217.676
 21
749.757
  0
LINE
  8
0
 10
217.676
 20
749.757
 11
217.058
 21
752.618
  0
LINE
  8
0
 10
217.058
 20
752.618
 11
217.048
 21
755.545
  0
LINE
  8
0
 10
246
 20
821.425
 11
246.306
 21
824.336
  0
LINE
  8
0
 10
246.306
 20
824.336
 11
247.21
 21
827.119
  0
LINE
  8
0
 10
247.21
 20
827.119
 11
248.674
 21
829.654
  0
LINE
  8
0
 10
248.674
 20
829.654
 11
250.632
 21
831.829
  0
LINE
  8
0
 10
250.632
 20
831.829
 11
253
 21
833.549
  0
LINE
  8
0
 10
253
 20
833.549
 11
255.674
 21
834.74
  0
LINE
  8
0
 10
255.674
 20
834.74
 11
258.537
 21
835.348
  0
LINE
  8
0
 10
258.537
 20
835.348
 11
261.463
 21
835.348
  0
LINE
  8
0
 10
261.463
 20
835.348
 11
264.326
 21
834.74
  0
LINE
  8
0
 10
264.326
 20
834.74
 11
267
 21
833.549
  0
LINE
  8
0
 10
267
 20
833.549
 11
269.368
 21
831.829
  0
LINE
  8
0
 10
269.368
 20
831.829
 11
271.326
 21
829.654
  0
LINE
  8
0
 10
271.326
 20
829.654
 11
272.79
 21
827.119
  0
LINE
  8
0
 10
272.79
 20
827.119
 11
273.694
 21
824.336
  0
LINE
  8
0
 10
273.694
 20
824.336
 11
274
 21
821.425
  0
LINE
  8
0
 10
274
 20
821.425
 11
273.694
 21
818.514
  0
LINE
  8
0
 10
273.694
 20
818.514
 11
272.79
 21
815.731
  0
LINE
  8
0
 10
272.79
 20
815.731
 11
271.326
 21
813.196
  0
LINE
  8
0
 10
271.326
 20
813.196
 11
269.368
 21
811.021
  0
LINE
  8
0
 10
269.368
 20
811.021
 11
267
 21
809.301
  0
LINE
  8
0
 10
267
 20
809.301
 11
264.326
 21
808.11
  0
LINE
  8
0
 10
264.326
 20
808.11
 11
261.463
 21
807.502
  0
LINE
  8
0
 10
261.463
 20
807.502
 11
258.537
 21
807.502
  0
LINE
  8
0
 10
258.537
 20
807.502
 11
255.674
 21
808.11
  0
LINE
  8
0
 10
255.674
 20
808.11
 11
253
 21
809.301
  0
LINE
  8
0
 10
253
 20
809.301
 11
250.632
 21
811.021
  0
LINE
  8
0
 10
250.632
 20
811.021
 11
248.674
 21
813.196
  0
LINE
  8
0
 10
248.674
 20
813.196
 11
247.21
 21
815.731
  0
LINE
  8
0
 10
247.21
 20
815.731
 11
246.306
 21
818.514
  0
LINE
  8
0
 10
246.306
 20
818.514
 11
246
 21
821.425
  0
LINE
  8
0
 10
326
 20
821.425
 11
326.306
 21
824.336
  0
LINE
  8
0
 10
326.306
 20
824.336
 11
327.21
 21
827.119
  0
LINE
  8
0
 10
327.21
 20
827.119
 11
328.674
 21
829.654
  0
LINE
  8
0
 10
328.674
 20
829.654
 11
330.632
 21
831.829
  0
LINE
  8
0
 10
330.632
 20
831.829
 11
333
 21
833.549
  0
LINE
  8
0
 10
333
 20
833.549
 11
335.674
 21
834.74
  0
LINE
  8
0
 10
335.674
 20
834.74
 11
338.537
 21
835.348
  0
LINE
  8
0
 10
338.537
 20
835.348
 11
341.463
 21
835.348
  0
LINE
  8
0
 10
341.463
 20
835.348
 11
344.326
 21
834.74
  0
LINE
  8
0
 10
344.326
 20
834.74
 11
347
 21
833.549
  0
LINE
  8
0
 10
347
 20
833.549
 11
349.368
 21
831.829
  0
LINE
  8
0
 10
349.368
 20
831.829
 11
351.326
 21
829.654
  0
LINE
  8
0
 10
351.326
 20
829.654
 11
352.79
 21
827.119
  0
LINE
  8
0
 10
352.79
 20
827.119
 11
353.694
 21
824.336
  0
LINE
  8
0
 10
353.694
 20
824.336
 11
354
 21
821.425
  0
LINE
  8
0
 10
354
 20
821.425
 11
353.694
 21
818.514
  0
LINE
  8
0
 10
353.694
 20
818.514
 11
352.79
 21
815.731
  0
LINE
  8
0
 10
352.79
 20
815.731
 11
351.326
 21
813.196
  0
LINE
  8
0
 10
351.326
 20
813.196
 11
349.368
 21
811.021
  0
LINE
  8
0
 10
349.368
 20
811.021
 11
347
 21
809.301
  0
LINE
  8
0
 10
347
 20
809.301
 11
344.326
 21
808.11
  0
LINE
  8
0
 10
344.326
 20
808.11
 11
341.463
 21
807.502
  0
LINE
  8
0
 10
341.463
 20
807.502
 11
338.537
 21
807.502
  0
LINE
  8
0
 10
338.537
 20
807.502
 11
335.674
 21
808.11
  0
LINE
  8
0
 10
335.674
 20
808.11
 11
333
 21
809.301
  0
LINE
  8
0
 10
333
 20
809.301
 11
330.632
 21
811.021
  0
LINE
  8
0
 10
330.632
 20
811.021
 11
328.674
 21
813.196
  0
LINE
  8
0
 10
328.674
 20
813.196
 11
327.21
 21
815.731
  0
LINE
  8
0
 10
327.21
 20
815.731
 11
326.306
 21
818.514
  0
LINE
  8
0
 10
326.306
 20
818.514
 11
326
 21
821.425
  0
LINE
  8
0
 10
345.063
 20
742.645
 11
364.96
 21
744.668
  0
LINE
  8
0
 10
364.96
 20
744.668
 11
363.746
 21
756.607
  0
LINE
  8
0
 10
363.746
 20
756.607
 11
388.618
 21
759.136
  0
LINE
  8
0
 10
388.618
 20
759.136
 11
389.832
 21
747.198
  0
LINE
  8
0
 10
389.832
 20
747.198
 11
409.729
 21
749.222
  0
LINE
  8
0
 10
409.729
 20
749.222
 11
415.8
 21
689.53
  0
LINE
  8
0
 10
415.8
 20
689.53
 11
395.903
 21
687.506
  0
LINE
  8
0
 10
395.903
 20
687.506
 11
397.117
 21
675.567
  0
LINE
  8
0
 10
397.117
 20
675.567
 11
372.245
 21
673.038
  0
LINE
  8
0
 10
372.245
 20
673.038
 11
371.031
 21
684.976
  0
LINE
  8
0
 10
371.031
 20
684.976
 11
351.134
 21
682.953
  0
LINE
  8
0
 10
351.134
 20
682.953
 11
345.063
 21
742.645
  0
LINE
  8
0
 10
352.406
 20
754.448
 11
352.997
 21
756.08
  0
LINE
  8
0
 10
352.997
 20
756.08
 11
354.641
 21
756.635
  0
LINE
  8
0
 10
354.641
 20
756.635
 11
356.101
 21
755.696
  0
LINE
  8
0
 10
356.101
 20
755.696
 11
356.276
 21
753.97
  0
LINE
  8
0
 10
356.276
 20
753.97
 11
355.036
 21
752.756
  0
LINE
  8
0
 10
355.036
 20
752.756
 11
353.313
 21
752.969
  0
LINE
  8
0
 10
353.313
 20
752.969
 11
352.406
 21
754.448
  0
LINE
  8
0
 10
360.703
 20
672.869
 11
361.294
 21
674.501
  0
LINE
  8
0
 10
361.294
 20
674.501
 11
362.938
 21
675.056
  0
LINE
  8
0
 10
362.938
 20
675.056
 11
364.398
 21
674.117
  0
LINE
  8
0
 10
364.398
 20
674.117
 11
364.573
 21
672.39
  0
LINE
  8
0
 10
364.573
 20
672.39
 11
363.333
 21
671.177
  0
LINE
  8
0
 10
363.333
 20
671.177
 11
361.611
 21
671.39
  0
LINE
  8
0
 10
361.611
 20
671.39
 11
360.703
 21
672.869
  0
LINE
  8
0
 10
366
 20
821.425
 11
366.306
 21
824.336
  0
LINE
  8
0
 10
366.306
 20
824.336
 11
367.21
 21
827.119
  0
LINE
  8
0
 10
367.21
 20
827.119
 11
368.674
 21
829.654
  0
LINE
  8
0
 10
368.674
 20
829.654
 11
370.632
 21
831.829
  0
LINE
  8
0
 10
370.632
 20
831.829
 11
373
 21
833.549
  0
LINE
  8
0
 10
373
 20
833.549
 11
375.674
 21
834.74
  0
LINE
  8
0
 10
375.674
 20
834.74
 11
378.537
 21
835.348
  0
LINE
  8
0
 10
378.537
 20
835.348
 11
381.463
 21
835.348
  0
LINE
  8
0
 10
381.463
 20
835.348
 11
384.326
 21
834.74
  0
LINE
  8
0
 10
384.326
 20
834.74
 11
387
 21
833.549
  0
LINE
  8
0
 10
387
 20
833.549
 11
389.368
 21
831.829
  0
LINE
  8
0
 10
389.368
 20
831.829
 11
391.326
 21
829.654
  0
LINE
  8
0
 10
391.326
 20
829.654
 11
392.79
 21
827.119
  0
LINE
  8
0
 10
392.79
 20
827.119
 11
393.694
 21
824.336
  0
LINE
  8
0
 10
393.694
 20
824.336
 11
394
 21
821.425
  0
LINE
  8
0
 10
394
 20
821.425
 11
393.694
 21
818.514
  0
LINE
  8
0
 10
393.694
 20
818.514
 11
392.79
 21
815.731
  0
LINE
  8
0
 10
392.79
 20
815.731
 11
391.326
 21
813.196
  0
LINE
  8
0
 10
391.326
 20
813.196
 11
389.368
 21
811.021
  0
LINE
  8
0
 10
389.368
 20
811.021
 11
387
 21
809.301
  0
LINE
  8
0
 10
387
 20
809.301
 11
384.326
 21
808.11
  0
LINE
  8
0
 10
384.326
 20
808.11
 11
381.463
 21
807.502
  0
LINE
  8
0
 10
381.463
 20
807.502
 11
378.537
 21
807.502
  0
LINE
  8
0
 10
378.537
 20
807.502
 11
375.674
 21
808.11
  0
LINE
  8
0
 10
375.674
 20
808.11
 11
373
 21
809.301
  0
LINE
  8
0
 10
373
 20
809.301
 11
370.632
 21
811.021
  0
LINE
  8
0
 10
370.632
 20
811.021
 11
368.674
 21
813.196
  0
LINE
  8
0
 10
368.674
 20
813.196
 11
367.21
 21
815.731
  0
LINE
  8
0
 10
367.21
 20
815.731
 11
366.306
 21
818.514
  0
LINE
  8
0
 10
366.306
 20
818.514
 11
366
 21
821.425
  0
LINE
  8
0
 10
396.289
 20
759.784
 11
397.53
 21
760.998
  0
LINE
  8
0
 10
397.53
 20
760.998
 11
399.252
 21
760.784
  0
LINE
  8
0
 10
399.252
 20
760.784
 11
400.16
 21
759.305
  0
LINE
  8
0
 10
400.16
 20
759.305
 11
399.569
 21
757.673
  0
LINE
  8
0
 10
399.569
 20
757.673
 11
397.925
 21
757.118
  0
LINE
  8
0
 10
397.925
 20
757.118
 11
396.465
 21
758.057
  0
LINE
  8
0
 10
396.465
 20
758.057
 11
396.289
 21
759.784
  0
LINE
  8
0
 10
404.587
 20
678.205
 11
405.827
 21
679.418
  0
LINE
  8
0
 10
405.827
 20
679.418
 11
407.549
 21
679.205
  0
LINE
  8
0
 10
407.549
 20
679.205
 11
408.457
 21
677.726
  0
LINE
  8
0
 10
408.457
 20
677.726
 11
407.866
 21
676.094
  0
LINE
  8
0
 10
407.866
 20
676.094
 11
406.222
 21
675.539
  0
LINE
  8
0
 10
406.222
 20
675.539
 11
404.762
 21
676.478
  0
LINE
  8
0
 10
404.762
 20
676.478
 11
404.587
 21
678.205
  0
LINE
  8
0
 10
423.278
 20
739.543
 11
423.288
 21
742.47
  0
LINE
  8
0
 10
423.288
 20
742.47
 11
423.906
 21
745.33
  0
LINE
  8
0
 10
423.906
 20
745.33
 11
425.105
 21
748
  0
LINE
  8
0
 10
425.105
 20
748
 11
426.834
 21
750.362
  0
LINE
  8
0
 10
426.834
 20
750.362
 11
429.015
 21
752.313
  0
LINE
  8
0
 10
429.015
 20
752.313
 11
431.555
 21
753.768
  0
LINE
  8
0
 10
431.555
 20
753.768
 11
434.341
 21
754.663
  0
LINE
  8
0
 10
434.341
 20
754.663
 11
437.253
 21
754.959
  0
LINE
  8
0
 10
437.253
 20
754.959
 11
440.163
 21
754.644
  0
LINE
  8
0
 10
440.163
 20
754.644
 11
442.943
 21
753.73
  0
LINE
  8
0
 10
442.943
 20
753.73
 11
445.473
 21
752.258
  0
LINE
  8
0
 10
445.473
 20
752.258
 11
447.642
 21
750.292
  0
LINE
  8
0
 10
447.642
 20
750.292
 11
449.354
 21
747.919
  0
LINE
  8
0
 10
449.354
 20
747.919
 11
450.535
 21
745.241
  0
LINE
  8
0
 10
450.535
 20
745.241
 11
451.134
 21
742.376
  0
LINE
  8
0
 10
451.134
 20
742.376
 11
451.124
 21
739.449
  0
LINE
  8
0
 10
451.124
 20
739.449
 11
450.506
 21
736.588
  0
LINE
  8
0
 10
450.506
 20
736.588
 11
449.307
 21
733.919
  0
LINE
  8
0
 10
449.307
 20
733.919
 11
447.579
 21
731.557
  0
LINE
  8
0
 10
447.579
 20
731.557
 11
445.397
 21
729.606
  0
LINE
  8
0
 10
445.397
 20
729.606
 11
442.857
 21
728.151
  0
LINE
  8
0
 10
442.857
 20
728.151
 11
440.071
 21
727.256
  0
LINE
  8
0
 10
440.071
 20
727.256
 11
437.159
 21
726.96
  0
LINE
  8
0
 10
437.159
 20
726.96
 11
434.249
 21
727.275
  0
LINE
  8
0
 10
434.249
 20
727.275
 11
431.469
 21
728.189
  0
LINE
  8
0
 10
431.469
 20
728.189
 11
428.939
 21
729.661
  0
LINE
  8
0
 10
428.939
 20
729.661
 11
426.771
 21
731.627
  0
LINE
  8
0
 10
426.771
 20
731.627
 11
425.058
 21
734
  0
LINE
  8
0
 10
425.058
 20
734
 11
423.877
 21
736.678
  0
LINE
  8
0
 10
423.877
 20
736.678
 11
423.278
 21
739.543
  0
LINE
  8
0
 10
427.224
 20
700.743
 11
427.234
 21
703.67
  0
LINE
  8
0
 10
427.234
 20
703.67
 11
427.852
 21
706.531
  0
LINE
  8
0
 10
427.852
 20
706.531
 11
429.052
 21
709.2
  0
LINE
  8
0
 10
429.052
 20
709.2
 11
430.78
 21
711.562
  0
LINE
  8
0
 10
430.78
 20
711.562
 11
432.961
 21
713.513
  0
LINE
  8
0
 10
432.961
 20
713.513
 11
435.501
 21
714.968
  0
LINE
  8
0
 10
435.501
 20
714.968
 11
438.288
 21
715.863
  0
LINE
  8
0
 10
438.288
 20
715.863
 11
441.199
 21
716.16
  0
LINE
  8
0
 10
441.199
 20
716.16
 11
444.109
 21
715.844
  0
LINE
  8
0
 10
444.109
 20
715.844
 11
446.89
 21
714.93
  0
LINE
  8
0
 10
446.89
 20
714.93
 11
449.419
 21
713.458
  0
LINE
  8
0
 10
449.419
 20
713.458
 11
451.588
 21
711.492
  0
LINE
  8
0
 10
451.588
 20
711.492
 11
453.3
 21
709.119
  0
LINE
  8
0
 10
453.3
 20
709.119
 11
454.482
 21
706.441
  0
LINE
  8
0
 10
454.482
 20
706.441
 11
455.08
 21
703.576
  0
LINE
  8
0
 10
455.08
 20
703.576
 11
455.071
 21
700.649
  0
LINE
  8
0
 10
455.071
 20
700.649
 11
454.452
 21
697.789
  0
LINE
  8
0
 10
454.452
 20
697.789
 11
453.253
 21
695.119
  0
LINE
  8
0
 10
453.253
 20
695.119
 11
451.525
 21
692.757
  0
LINE
  8
0
 10
451.525
 20
692.757
 11
449.343
 21
690.806
  0
LINE
  8
0
 10
449.343
 20
690.806
 11
446.804
 21
689.351
  0
LINE
  8
0
 10
446.804
 20
689.351
 11
444.017
 21
688.456
  0
LINE
  8
0
 10
444.017
 20
688.456
 11
441.105
 21
688.16
  0
LINE
  8
0
 10
441.105
 20
688.16
 11
438.196
 21
688.475
  0
LINE
  8
0
 10
438.196
 20
688.475
 11
435.415
 21
689.389
  0
LINE
  8
0
 10
435.415
 20
689.389
 11
432.885
 21
690.861
  0
LINE
  8
0
 10
432.885
 20
690.861
 11
430.717
 21
692.827
  0
LINE
  8
0
 10
430.717
 20
692.827
 11
429.005
 21
695.2
  0
LINE
  8
0
 10
429.005
 20
695.2
 11
427.823
 21
697.878
  0
LINE
  8
0
 10
427.823
 20
697.878
 11
427.224
 21
700.743
  0
LINE
  8
0
 10
451.598
 20
762.526
 11
451.608
 21
765.453
  0
LINE
  8
0
 10
451.608
 20
765.453
 11
452.226
 21
768.314
  0
LINE
  8
0
 10
452.226
 20
768.314
 11
453.425
 21
770.984
  0
LINE
  8
0
 10
453.425
 20
770.984
 11
455.153
 21
773.346
  0
LINE
  8
0
 10
455.153
 20
773.346
 11
457.335
 21
775.297
  0
LINE
  8
0
 10
457.335
 20
775.297
 11
459.875
 21
776.752
  0
LINE
  8
0
 10
459.875
 20
776.752
 11
462.661
 21
777.647
  0
LINE
  8
0
 10
462.661
 20
777.647
 11
465.573
 21
777.943
  0
LINE
  8
0
 10
465.573
 20
777.943
 11
468.483
 21
777.627
  0
LINE
  8
0
 10
468.483
 20
777.627
 11
471.263
 21
776.713
  0
LINE
  8
0
 10
471.263
 20
776.713
 11
473.793
 21
775.241
  0
LINE
  8
0
 10
473.793
 20
775.241
 11
475.961
 21
773.276
  0
LINE
  8
0
 10
475.961
 20
773.276
 11
477.674
 21
770.902
  0
LINE
  8
0
 10
477.674
 20
770.902
 11
478.855
 21
768.224
  0
LINE
  8
0
 10
478.855
 20
768.224
 11
479.454
 21
765.359
  0
LINE
  8
0
 10
479.454
 20
765.359
 11
479.444
 21
762.433
  0
LINE
  8
0
 10
479.444
 20
762.433
 11
478.826
 21
759.572
  0
LINE
  8
0
 10
478.826
 20
759.572
 11
477.627
 21
756.902
  0
LINE
  8
0
 10
477.627
 20
756.902
 11
475.898
 21
754.54
  0
LINE
  8
0
 10
475.898
 20
754.54
 11
473.717
 21
752.589
  0
LINE
  8
0
 10
473.717
 20
752.589
 11
471.177
 21
751.134
  0
LINE
  8
0
 10
471.177
 20
751.134
 11
468.391
 21
750.239
  0
LINE
  8
0
 10
468.391
 20
750.239
 11
465.479
 21
749.943
  0
LINE
  8
0
 10
465.479
 20
749.943
 11
462.569
 21
750.259
  0
LINE
  8
0
 10
462.569
 20
750.259
 11
459.789
 21
751.172
  0
LINE
  8
0
 10
459.789
 20
751.172
 11
457.259
 21
752.644
  0
LINE
  8
0
 10
457.259
 20
752.644
 11
455.09
 21
754.61
  0
LINE
  8
0
 10
455.09
 20
754.61
 11
453.378
 21
756.984
  0
LINE
  8
0
 10
453.378
 20
756.984
 11
452.197
 21
759.661
  0
LINE
  8
0
 10
452.197
 20
759.661
 11
451.598
 21
762.526
  0
LINE
  8
0
 10
455.544
 20
723.726
 11
455.554
 21
726.653
  0
LINE
  8
0
 10
455.554
 20
726.653
 11
456.172
 21
729.514
  0
LINE
  8
0
 10
456.172
 20
729.514
 11
457.371
 21
732.184
  0
LINE
  8
0
 10
457.371
 20
732.184
 11
459.1
 21
734.546
  0
LINE
  8
0
 10
459.1
 20
734.546
 11
461.281
 21
736.497
  0
LINE
  8
0
 10
461.281
 20
736.497
 11
463.821
 21
737.952
  0
LINE
  8
0
 10
463.821
 20
737.952
 11
466.607
 21
738.847
  0
LINE
  8
0
 10
466.607
 20
738.847
 11
469.519
 21
739.143
  0
LINE
  8
0
 10
469.519
 20
739.143
 11
472.429
 21
738.827
  0
LINE
  8
0
 10
472.429
 20
738.827
 11
475.209
 21
737.913
  0
LINE
  8
0
 10
475.209
 20
737.913
 11
477.739
 21
736.442
  0
LINE
  8
0
 10
477.739
 20
736.442
 11
479.908
 21
734.476
  0
LINE
  8
0
 10
479.908
 20
734.476
 11
481.62
 21
732.102
  0
LINE
  8
0
 10
481.62
 20
732.102
 11
482.801
 21
729.425
  0
LINE
  8
0
 10
482.801
 20
729.425
 11
483.4
 21
726.56
  0
LINE
  8
0
 10
483.4
 20
726.56
 11
483.39
 21
723.633
  0
LINE
  8
0
 10
483.39
 20
723.633
 11
482.772
 21
720.772
  0
LINE
  8
0
 10
482.772
 20
720.772
 11
481.573
 21
718.102
  0
LINE
  8
0
 10
481.573
 20
718.102
 11
479.845
 21
715.74
  0
LINE
  8
0
 10
479.845
 20
715.74
 11
477.663
 21
713.789
  0
LINE
  8
0
 10
477.663
 20
713.789
 11
475.123
 21
712.334
  0
LINE
  8
0
 10
475.123
 20
712.334
 11
472.337
 21
711.439
  0
LINE
  8
0
 10
472.337
 20
711.439
 11
469.425
 21
711.143
  0
LINE
  8
0
 10
469.425
 20
711.143
 11
466.515
 21
711.459
  0
LINE
  8
0
 10
466.515
 20
711.459
 11
463.735
 21
712.373
  0
LINE
  8
0
 10
463.735
 20
712.373
 11
461.205
 21
713.845
  0
LINE
  8
0
 10
461.205
 20
713.845
 11
459.037
 21
715.81
  0
LINE
  8
0
 10
459.037
 20
715.81
 11
457.324
 21
718.184
  0
LINE
  8
0
 10
457.324
 20
718.184
 11
456.143
 21
720.862
  0
LINE
  8
0
 10
456.143
 20
720.862
 11
455.544
 21
723.726
  0
LINE
  8
0
 10
487.413
 20
766.169
 11
487.423
 21
769.096
  0
LINE
  8
0
 10
487.423
 20
769.096
 11
488.041
 21
771.957
  0
LINE
  8
0
 10
488.041
 20
771.957
 11
489.24
 21
774.626
  0
LINE
  8
0
 10
489.24
 20
774.626
 11
490.969
 21
776.988
  0
LINE
  8
0
 10
490.969
 20
776.988
 11
493.15
 21
778.939
  0
LINE
  8
0
 10
493.15
 20
778.939
 11
495.69
 21
780.394
  0
LINE
  8
0
 10
495.69
 20
780.394
 11
498.476
 21
781.289
  0
LINE
  8
0
 10
498.476
 20
781.289
 11
501.388
 21
781.585
  0
LINE
  8
0
 10
501.388
 20
781.585
 11
504.298
 21
781.27
  0
LINE
  8
0
 10
504.298
 20
781.27
 11
507.078
 21
780.356
  0
LINE
  8
0
 10
507.078
 20
780.356
 11
509.608
 21
778.884
  0
LINE
  8
0
 10
509.608
 20
778.884
 11
511.777
 21
776.918
  0
LINE
  8
0
 10
511.777
 20
776.918
 11
513.489
 21
774.545
  0
LINE
  8
0
 10
513.489
 20
774.545
 11
514.67
 21
771.867
  0
LINE
  8
0
 10
514.67
 20
771.867
 11
515.269
 21
769.002
  0
LINE
  8
0
 10
515.269
 20
769.002
 11
515.259
 21
766.075
  0
LINE
  8
0
 10
515.259
 20
766.075
 11
514.641
 21
763.215
  0
LINE
  8
0
 10
514.641
 20
763.215
 11
513.442
 21
760.545
  0
LINE
  8
0
 10
513.442
 20
760.545
 11
511.714
 21
758.183
  0
LINE
  8
0
 10
511.714
 20
758.183
 11
509.532
 21
756.232
  0
LINE
  8
0
 10
509.532
 20
756.232
 11
506.992
 21
754.777
  0
LINE
  8
0
 10
506.992
 20
754.777
 11
504.206
 21
753.882
  0
LINE
  8
0
 10
504.206
 20
753.882
 11
501.294
 21
753.586
  0
LINE
  8
0
 10
501.294
 20
753.586
 11
498.384
 21
753.901
  0
LINE
  8
0
 10
498.384
 20
753.901
 11
495.604
 21
754.815
  0
LINE
  8
0
 10
495.604
 20
754.815
 11
493.074
 21
756.287
  0
LINE
  8
0
 10
493.074
 20
756.287
 11
490.906
 21
758.253
  0
LINE
  8
0
 10
490.906
 20
758.253
 11
489.193
 21
760.626
  0
LINE
  8
0
 10
489.193
 20
760.626
 11
488.012
 21
763.304
  0
LINE
  8
0
 10
488.012
 20
763.304
 11
487.413
 21
766.169
  0
LINE
  8
0
 10
491.359
 20
727.369
 11
491.369
 21
730.296
  0
LINE
  8
0
 10
491.369
 20
730.296
 11
491.987
 21
733.157
  0
LINE
  8
0
 10
491.987
 20
733.157
 11
493.187
 21
735.826
  0
LINE
  8
0
 10
493.187
 20
735.826
 11
494.915
 21
738.188
  0
LINE
  8
0
 10
494.915
 20
738.188
 11
497.096
 21
740.14
  0
LINE
  8
0
 10
497.096
 20
740.14
 11
499.636
 21
741.594
  0
LINE
  8
0
 10
499.636
 20
741.594
 11
502.423
 21
742.489
  0
LINE
  8
0
 10
502.423
 20
742.489
 11
505.334
 21
742.786
  0
LINE
  8
0
 10
505.334
 20
742.786
 11
508.244
 21
742.47
  0
LINE
  8
0
 10
508.244
 20
742.47
 11
511.025
 21
741.556
  0
LINE
  8
0
 10
511.025
 20
741.556
 11
513.554
 21
740.084
  0
LINE
  8
0
 10
513.554
 20
740.084
 11
515.723
 21
738.119
  0
LINE
  8
0
 10
515.723
 20
738.119
 11
517.435
 21
735.745
  0
LINE
  8
0
 10
517.435
 20
735.745
 11
518.617
 21
733.067
  0
LINE
  8
0
 10
518.617
 20
733.067
 11
519.215
 21
730.202
  0
LINE
  8
0
 10
519.215
 20
730.202
 11
519.206
 21
727.276
  0
LINE
  8
0
 10
519.206
 20
727.276
 11
518.588
 21
724.415
  0
LINE
  8
0
 10
518.588
 20
724.415
 11
517.388
 21
721.745
  0
LINE
  8
0
 10
517.388
 20
721.745
 11
515.66
 21
719.383
  0
LINE
  8
0
 10
515.66
 20
719.383
 11
513.478
 21
717.432
  0
LINE
  8
0
 10
513.478
 20
717.432
 11
510.939
 21
715.977
  0
LINE
  8
0
 10
510.939
 20
715.977
 11
508.152
 21
715.082
  0
LINE
  8
0
 10
508.152
 20
715.082
 11
505.24
 21
714.786
  0
LINE
  8
0
 10
505.24
 20
714.786
 11
502.331
 21
715.102
  0
LINE
  8
0
 10
502.331
 20
715.102
 11
499.55
 21
716.015
  0
LINE
  8
0
 10
499.55
 20
716.015
 11
497.02
 21
717.487
  0
LINE
  8
0
 10
497.02
 20
717.487
 11
494.852
 21
719.453
  0
LINE
  8
0
 10
494.852
 20
719.453
 11
493.14
 21
721.827
  0
LINE
  8
0
 10
493.14
 20
721.827
 11
491.958
 21
724.504
  0
LINE
  8
0
 10
491.958
 20
724.504
 11
491.359
 21
727.369
  0
ENDSEC
  0
SECTION
  2
OBJECTS
  0
DICTIONARY
  0
ENDSEC
  0
EOF
