  0
SECTION
  2
BLOCKS
  0
ENDSEC
  0
SECTION
  2
ENTITIES
  0
LINE
  8
0
 10
10
 20
59.1611
 11
10.1024
 21
58.1872
  0
LINE
  8
0
 10
10.1024
 20
58.1872
 11
10.4792
 21
58.0195
  0
LINE
  8
0
 10
10.4792
 20
58.0195
 11
10.5529
 21
58
  0
LINE
  8
0
 10
10.5529
 20
58
 11
235.617
 21
12.0589
  0
LINE
  8
0
 10
235.617
 20
12.0589
 11
236.576
 21
11.966
  0
LINE
  8
0
 10
236.576
 20
11.966
 11
236.731
 21
12.3234
  0
LINE
  8
0
 10
236.731
 20
12.3234
 11
236.753
 21
12.4095
  0
LINE
  8
0
 10
236.753
 20
12.4095
 11
242.329
 21
41.0934
  0
LINE
  8
0
 10
242.329
 20
41.0934
 11
242.389
 21
41.4374
  0
LINE
  8
0
 10
242.389
 20
41.4374
 11
250.47
 21
92.459
  0
LINE
  8
0
 10
250.47
 20
92.459
 11
250.519
 21
92.8053
  0
LINE
  8
0
 10
250.519
 20
92.8053
 11
256.815
 21
144.079
  0
LINE
  8
0
 10
256.815
 20
144.079
 11
256.851
 21
144.427
  0
LINE
  8
0
 10
256.851
 20
144.427
 11
261.354
 21
195.889
  0
LINE
  8
0
 10
261.354
 20
195.889
 11
261.378
 21
196.237
  0
LINE
  8
0
 10
261.378
 20
196.237
 11
264.082
 21
247.826
  0
LINE
  8
0
 10
264.082
 20
247.826
 11
264.094
 21
248.175
  0
LINE
  8
0
 10
264.094
 20
248.175
 11
264.995
 21
299.825
  0
LINE
  8
0
 10
264.995
 20
299.825
 11
264.995
 21
300.175
  0
LINE
  8
0
 10
264.995
 20
300.175
 11
264.094
 21
351.825
  0
LINE
  8
0
 10
264.094
 20
351.825
 11
264.082
 21
352.174
  0
LINE
  8
0
 10
264.082
 20
352.174
 11
261.378
 21
403.763
  0
LINE
  8
0
 10
261.378
 20
403.763
 11
261.354
 21
404.111
  0
LINE
  8
0
 10
261.354
 20
404.111
 11
256.851
 21
455.573
  0
LINE
  8
0
 10
256.851
 20
455.573
 11
256.815
 21
455.921
  0
LINE
  8
0
 10
256.815
 20
455.921
 11
250.519
 21
507.195
  0
LINE
  8
0
 10
250.519
 20
507.195
 11
250.47
 21
507.541
  0
LINE
  8
0
 10
250.47
 20
507.541
 11
242.389
 21
558.563
  0
LINE
  8
0
 10
242.389
 20
558.563
 11
242.329
 21
558.907
  0
LINE
  8
0
 10
242.329
 20
558.907
 11
236.844
 21
587.122
  0
LINE
  8
0
 10
236.844
 20
587.122
 11
236.563
 21
588.043
  0
LINE
  8
0
 10
236.563
 20
588.043
 11
236.173
 21
588.049
  0
LINE
  8
0
 10
236.173
 20
588.049
 11
236.085
 21
588.037
  0
LINE
  8
0
 10
236.085
 20
588.037
 11
11.027
 21
542.097
  0
LINE
  8
0
 10
11.027
 20
542.097
 11
10.0933
 21
541.802
  0
LINE
  8
0
 10
10.0933
 20
541.802
 11
10.0043
 21
541.399
  0
LINE
  8
0
 10
10.0043
 20
541.399
 11
10
 21
541.323
  0
LINE
  8
0
 10
10
 20
541.323
 11
10
 21
59.1611
  0
LINE
  8
0
 10
29.6517
 20
218.537
 11
29.6517
 21
221.463
  0
LINE
  8
0
 10
29.6517
 20
221.463
 11
30.2602
 21
224.326
  0
LINE
  8
0
 10
30.2602
 20
224.326
 11
31.4506
 21
227
  0
LINE
  8
0
 10
31.4506
 20
227
 11
33.171
 21
229.368
  0
LINE
  8
0
 10
33.171
 20
229.368
 11
35.346
 21
231.326
  0
LINE
  8
0
 10
35.346
 20
231.326
 11
37.8807
 21
232.79
  0
LINE
  8
0
 10
37.8807
 20
232.79
 11
40.6642
 21
233.694
  0
LINE
  8
0
 10
40.6642
 20
233.694
 11
43.575
 21
234
  0
LINE
  8
0
 10
43.575
 20
234
 11
46.4858
 21
233.694
  0
LINE
  8
0
 10
46.4858
 20
233.694
 11
49.2693
 21
232.79
  0
LINE
  8
0
 10
49.2693
 20
232.79
 11
51.804
 21
231.326
  0
LINE
  8
0
 10
51.804
 20
231.326
 11
53.979
 21
229.368
  0
LINE
  8
0
 10
53.979
 20
229.368
 11
55.6994
 21
227
  0
LINE
  8
0
 10
55.6994
 20
227
 11
56.8898
 21
224.326
  0
LINE
  8
0
 10
56.8898
 20
224.326
 11
57.4983
 21
221.463
  0
LINE
  8
0
 10
57.4983
 20
221.463
 11
57.4983
 21
218.537
  0
LINE
  8
0
 10
57.4983
 20
218.537
 11
56.8898
 21
215.674
  0
LINE
  8
0
 10
56.8898
 20
215.674
 11
55.6994
 21
213
  0
LINE
  8
0
 10
55.6994
 20
213
 11
53.979
 21
210.632
  0
LINE
  8
0
 10
53.979
 20
210.632
 11
51.804
 21
208.674
  0
LINE
  8
0
 10
51.804
 20
208.674
 11
49.2693
 21
207.21
  0
LINE
  8
0
 10
49.2693
 20
207.21
 11
46.4858
 21
206.306
  0
LINE
  8
0
 10
46.4858
 20
206.306
 11
43.575
 21
206
  0
LINE
  8
0
 10
43.575
 20
206
 11
40.6642
 21
206.306
  0
LINE
  8
0
 10
40.6642
 20
206.306
 11
37.8807
 21
207.21
  0
LINE
  8
0
 10
37.8807
 20
207.21
 11
35.346
 21
208.674
  0
LINE
  8
0
 10
35.346
 20
208.674
 11
33.171
 21
210.632
  0
LINE
  8
0
 10
33.171
 20
210.632
 11
31.4506
 21
213
  0
LINE
  8
0
 10
31.4506
 20
213
 11
30.2602
 21
215.674
  0
LINE
  8
0
 10
30.2602
 20
215.674
 11
29.6517
 21
218.537
  0
LINE
  8
0
 10
29.6517
 20
258.537
 11
29.6517
 21
261.463
  0
LINE
  8
0
 10
29.6517
 20
261.463
 11
30.2602
 21
264.326
  0
LINE
  8
0
 10
30.2602
 20
264.326
 11
31.4506
 21
267
  0
LINE
  8
0
 10
31.4506
 20
267
 11
33.171
 21
269.368
  0
LINE
  8
0
 10
33.171
 20
269.368
 11
35.346
 21
271.326
  0
LINE
  8
0
 10
35.346
 20
271.326
 11
37.8807
 21
272.79
  0
LINE
  8
0
 10
37.8807
 20
272.79
 11
40.6642
 21
273.694
  0
LINE
  8
0
 10
40.6642
 20
273.694
 11
43.575
 21
274
  0
LINE
  8
0
 10
43.575
 20
274
 11
46.4858
 21
273.694
  0
LINE
  8
0
 10
46.4858
 20
273.694
 11
49.2693
 21
272.79
  0
LINE
  8
0
 10
49.2693
 20
272.79
 11
51.804
 21
271.326
  0
LINE
  8
0
 10
51.804
 20
271.326
 11
53.979
 21
269.368
  0
LINE
  8
0
 10
53.979
 20
269.368
 11
55.6994
 21
267
  0
LINE
  8
0
 10
55.6994
 20
267
 11
56.8898
 21
264.326
  0
LINE
  8
0
 10
56.8898
 20
264.326
 11
57.4983
 21
261.463
  0
LINE
  8
0
 10
57.4983
 20
261.463
 11
57.4983
 21
258.537
  0
LINE
  8
0
 10
57.4983
 20
258.537
 11
56.8898
 21
255.674
  0
LINE
  8
0
 10
56.8898
 20
255.674
 11
55.6994
 21
253
  0
LINE
  8
0
 10
55.6994
 20
253
 11
53.979
 21
250.632
  0
LINE
  8
0
 10
53.979
 20
250.632
 11
51.804
 21
248.674
  0
LINE
  8
0
 10
51.804
 20
248.674
 11
49.2693
 21
247.21
  0
LINE
  8
0
 10
49.2693
 20
247.21
 11
46.4858
 21
246.306
  0
LINE
  8
0
 10
46.4858
 20
246.306
 11
43.575
 21
246
  0
LINE
  8
0
 10
43.575
 20
246
 11
40.6642
 21
246.306
  0
LINE
  8
0
 10
40.6642
 20
246.306
 11
37.8807
 21
247.21
  0
LINE
  8
0
 10
37.8807
 20
247.21
 11
35.346
 21
248.674
  0
LINE
  8
0
 10
35.346
 20
248.674
 11
33.171
 21
250.632
  0
LINE
  8
0
 10
33.171
 20
250.632
 11
31.4506
 21
253
  0
LINE
  8
0
 10
31.4506
 20
253
 11
30.2602
 21
255.674
  0
LINE
  8
0
 10
30.2602
 20
255.674
 11
29.6517
 21
258.537
  0
LINE
  8
0
 10
29.6517
 20
338.537
 11
29.6517
 21
341.463
  0
LINE
  8
0
 10
29.6517
 20
341.463
 11
30.2602
 21
344.326
  0
LINE
  8
0
 10
30.2602
 20
344.326
 11
31.4506
 21
347
  0
LINE
  8
0
 10
31.4506
 20
347
 11
33.171
 21
349.368
  0
LINE
  8
0
 10
33.171
 20
349.368
 11
35.346
 21
351.326
  0
LINE
  8
0
 10
35.346
 20
351.326
 11
37.8807
 21
352.79
  0
LINE
  8
0
 10
37.8807
 20
352.79
 11
40.6642
 21
353.694
  0
LINE
  8
0
 10
40.6642
 20
353.694
 11
43.575
 21
354
  0
LINE
  8
0
 10
43.575
 20
354
 11
46.4858
 21
353.694
  0
LINE
  8
0
 10
46.4858
 20
353.694
 11
49.2693
 21
352.79
  0
LINE
  8
0
 10
49.2693
 20
352.79
 11
51.804
 21
351.326
  0
LINE
  8
0
 10
51.804
 20
351.326
 11
53.979
 21
349.368
  0
LINE
  8
0
 10
53.979
 20
349.368
 11
55.6994
 21
347
  0
LINE
  8
0
 10
55.6994
 20
347
 11
56.8898
 21
344.326
  0
LINE
  8
0
 10
56.8898
 20
344.326
 11
57.4983
 21
341.463
  0
LINE
  8
0
 10
57.4983
 20
341.463
 11
57.4983
 21
338.537
  0
LINE
  8
0
 10
57.4983
 20
338.537
 11
56.8898
 21
335.674
  0
LINE
  8
0
 10
56.8898
 20
335.674
 11
55.6994
 21
333
  0
LINE
  8
0
 10
55.6994
 20
333
 11
53.979
 21
330.632
  0
LINE
  8
0
 10
53.979
 20
330.632
 11
51.804
 21
328.674
  0
LINE
  8
0
 10
51.804
 20
328.674
 11
49.2693
 21
327.21
  0
LINE
  8
0
 10
49.2693
 20
327.21
 11
46.4858
 21
326.306
  0
LINE
  8
0
 10
46.4858
 20
326.306
 11
43.575
 21
326
  0
LINE
  8
0
 10
43.575
 20
326
 11
40.6642
 21
326.306
  0
LINE
  8
0
 10
40.6642
 20
326.306
 11
37.8807
 21
327.21
  0
LINE
  8
0
 10
37.8807
 20
327.21
 11
35.346
 21
328.674
  0
LINE
  8
0
 10
35.346
 20
328.674
 11
33.171
 21
330.632
  0
LINE
  8
0
 10
33.171
 20
330.632
 11
31.4506
 21
333
  0
LINE
  8
0
 10
31.4506
 20
333
 11
30.2602
 21
335.674
  0
LINE
  8
0
 10
30.2602
 20
335.674
 11
29.6517
 21
338.537
  0
LINE
  8
0
 10
29.6517
 20
378.537
 11
29.6517
 21
381.463
  0
LINE
  8
0
 10
29.6517
 20
381.463
 11
30.2602
 21
384.326
  0
LINE
  8
0
 10
30.2602
 20
384.326
 11
31.4506
 21
387
  0
LINE
  8
0
 10
31.4506
 20
387
 11
33.171
 21
389.368
  0
LINE
  8
0
 10
33.171
 20
389.368
 11
35.346
 21
391.326
  0
LINE
  8
0
 10
35.346
 20
391.326
 11
37.8807
 21
392.79
  0
LINE
  8
0
 10
37.8807
 20
392.79
 11
40.6642
 21
393.694
  0
LINE
  8
0
 10
40.6642
 20
393.694
 11
43.575
 21
394
  0
LINE
  8
0
 10
43.575
 20
394
 11
46.4858
 21
393.694
  0
LINE
  8
0
 10
46.4858
 20
393.694
 11
49.2693
 21
392.79
  0
LINE
  8
0
 10
49.2693
 20
392.79
 11
51.804
 21
391.326
  0
LINE
  8
0
 10
51.804
 20
391.326
 11
53.979
 21
389.368
  0
LINE
  8
0
 10
53.979
 20
389.368
 11
55.6994
 21
387
  0
LINE
  8
0
 10
55.6994
 20
387
 11
56.8898
 21
384.326
  0
LINE
  8
0
 10
56.8898
 20
384.326
 11
57.4983
 21
381.463
  0
LINE
  8
0
 10
57.4983
 20
381.463
 11
57.4983
 21
378.537
  0
LINE
  8
0
 10
57.4983
 20
378.537
 11
56.8898
 21
375.674
  0
LINE
  8
0
 10
56.8898
 20
375.674
 11
55.6994
 21
373
  0
LINE
  8
0
 10
55.6994
 20
373
 11
53.979
 21
370.632
  0
LINE
  8
0
 10
53.979
 20
370.632
 11
51.804
 21
368.674
  0
LINE
  8
0
 10
51.804
 20
368.674
 11
49.2693
 21
367.21
  0
LINE
  8
0
 10
49.2693
 20
367.21
 11
46.4858
 21
366.306
  0
LINE
  8
0
 10
46.4858
 20
366.306
 11
43.575
 21
366
  0
LINE
  8
0
 10
43.575
 20
366
 11
40.6642
 21
366.306
  0
LINE
  8
0
 10
40.6642
 20
366.306
 11
37.8807
 21
367.21
  0
LINE
  8
0
 10
37.8807
 20
367.21
 11
35.346
 21
368.674
  0
LINE
  8
0
 10
35.346
 20
368.674
 11
33.171
 21
370.632
  0
LINE
  8
0
 10
33.171
 20
370.632
 11
31.4506
 21
373
  0
LINE
  8
0
 10
31.4506
 20
373
 11
30.2602
 21
375.674
  0
LINE
  8
0
 10
30.2602
 20
375.674
 11
29.6517
 21
378.537
  0
LINE
  8
0
 10
83.4145
 20
501.388
 11
83.7303
 21
504.298
  0
LINE
  8
0
 10
83.7303
 20
504.298
 11
84.644
 21
507.078
  0
LINE
  8
0
 10
84.644
 20
507.078
 11
86.1159
 21
509.608
  0
LINE
  8
0
 10
86.1159
 20
509.608
 11
88.0817
 21
511.777
  0
LINE
  8
0
 10
88.0817
 20
511.777
 11
90.4553
 21
513.489
  0
LINE
  8
0
 10
90.4553
 20
513.489
 11
93.133
 21
514.67
  0
LINE
  8
0
 10
93.133
 20
514.67
 11
95.9979
 21
515.269
  0
LINE
  8
0
 10
95.9979
 20
515.269
 11
98.9247
 21
515.259
  0
LINE
  8
0
 10
98.9247
 20
515.259
 11
101.785
 21
514.641
  0
LINE
  8
0
 10
101.785
 20
514.641
 11
104.455
 21
513.442
  0
LINE
  8
0
 10
104.455
 20
513.442
 11
106.817
 21
511.714
  0
LINE
  8
0
 10
106.817
 20
511.714
 11
108.768
 21
509.532
  0
LINE
  8
0
 10
108.768
 20
509.532
 11
110.223
 21
506.992
  0
LINE
  8
0
 10
110.223
 20
506.992
 11
111.118
 21
504.206
  0
LINE
  8
0
 10
111.118
 20
504.206
 11
111.414
 21
501.294
  0
LINE
  8
0
 10
111.414
 20
501.294
 11
111.099
 21
498.384
  0
LINE
  8
0
 10
111.099
 20
498.384
 11
110.185
 21
495.604
  0
LINE
  8
0
 10
110.185
 20
495.604
 11
108.713
 21
493.074
  0
LINE
  8
0
 10
108.713
 20
493.074
 11
106.747
 21
490.906
  0
LINE
  8
0
 10
106.747
 20
490.906
 11
104.374
 21
489.193
  0
LINE
  8
0
 10
104.374
 20
489.193
 11
101.696
 21
488.012
  0
LINE
  8
0
 10
101.696
 20
488.012
 11
98.831
 21
487.413
  0
LINE
  8
0
 10
98.831
 20
487.413
 11
95.9043
 21
487.423
  0
LINE
  8
0
 10
95.9043
 20
487.423
 11
93.0435
 21
488.041
  0
LINE
  8
0
 10
93.0435
 20
488.041
 11
90.3737
 21
489.24
  0
LINE
  8
0
 10
90.3737
 20
489.24
 11
88.0117
 21
490.969
  0
LINE
  8
0
 10
88.0117
 20
490.969
 11
86.0606
 21
493.15
  0
LINE
  8
0
 10
86.0606
 20
493.15
 11
84.6057
 21
495.69
  0
LINE
  8
0
 10
84.6057
 20
495.69
 11
83.7107
 21
498.476
  0
LINE
  8
0
 10
83.7107
 20
498.476
 11
83.4145
 21
501.388
  0
LINE
  8
0
 10
87.0572
 20
465.573
 11
87.3729
 21
468.483
  0
LINE
  8
0
 10
87.3729
 20
468.483
 11
88.2867
 21
471.263
  0
LINE
  8
0
 10
88.2867
 20
471.263
 11
89.7586
 21
473.793
  0
LINE
  8
0
 10
89.7586
 20
473.793
 11
91.7243
 21
475.961
  0
LINE
  8
0
 10
91.7243
 20
475.961
 11
94.0979
 21
477.674
  0
LINE
  8
0
 10
94.0979
 20
477.674
 11
96.7756
 21
478.855
  0
LINE
  8
0
 10
96.7756
 20
478.855
 11
99.6405
 21
479.454
  0
LINE
  8
0
 10
99.6405
 20
479.454
 11
102.567
 21
479.444
  0
LINE
  8
0
 10
102.567
 20
479.444
 11
105.428
 21
478.826
  0
LINE
  8
0
 10
105.428
 20
478.826
 11
108.098
 21
477.627
  0
LINE
  8
0
 10
108.098
 20
477.627
 11
110.46
 21
475.898
  0
LINE
  8
0
 10
110.46
 20
475.898
 11
112.411
 21
473.717
  0
LINE
  8
0
 10
112.411
 20
473.717
 11
113.866
 21
471.177
  0
LINE
  8
0
 10
113.866
 20
471.177
 11
114.761
 21
468.391
  0
LINE
  8
0
 10
114.761
 20
468.391
 11
115.057
 21
465.479
  0
LINE
  8
0
 10
115.057
 20
465.479
 11
114.741
 21
462.569
  0
LINE
  8
0
 10
114.741
 20
462.569
 11
113.828
 21
459.789
  0
LINE
  8
0
 10
113.828
 20
459.789
 11
112.356
 21
457.259
  0
LINE
  8
0
 10
112.356
 20
457.259
 11
110.39
 21
455.09
  0
LINE
  8
0
 10
110.39
 20
455.09
 11
108.016
 21
453.378
  0
LINE
  8
0
 10
108.016
 20
453.378
 11
105.339
 21
452.197
  0
LINE
  8
0
 10
105.339
 20
452.197
 11
102.474
 21
451.598
  0
LINE
  8
0
 10
102.474
 20
451.598
 11
99.5469
 21
451.608
  0
LINE
  8
0
 10
99.5469
 20
451.608
 11
96.6861
 21
452.226
  0
LINE
  8
0
 10
96.6861
 20
452.226
 11
94.0164
 21
453.425
  0
LINE
  8
0
 10
94.0164
 20
453.425
 11
91.6543
 21
455.153
  0
LINE
  8
0
 10
91.6543
 20
455.153
 11
89.7033
 21
457.335
  0
LINE
  8
0
 10
89.7033
 20
457.335
 11
88.2484
 21
459.875
  0
LINE
  8
0
 10
88.2484
 20
459.875
 11
87.3533
 21
462.661
  0
LINE
  8
0
 10
87.3533
 20
462.661
 11
87.0572
 21
465.573
  0
LINE
  8
0
 10
92.0627
 20
85.0757
 11
93.2766
 21
86.3161
  0
LINE
  8
0
 10
93.2766
 20
86.3161
 11
95.0032
 21
86.1405
  0
LINE
  8
0
 10
95.0032
 20
86.1405
 11
95.9424
 21
84.6811
  0
LINE
  8
0
 10
95.9424
 20
84.6811
 11
95.387
 21
83.0368
  0
LINE
  8
0
 10
95.387
 20
83.0368
 11
93.7552
 21
82.4459
  0
LINE
  8
0
 10
93.7552
 20
82.4459
 11
92.2757
 21
83.3533
  0
LINE
  8
0
 10
92.2757
 20
83.3533
 11
92.0627
 21
85.0757
  0
LINE
  8
0
 10
93.2294
 20
195.114
 11
93.5256
 21
198.026
  0
LINE
  8
0
 10
93.5256
 20
198.026
 11
94.4206
 21
200.812
  0
LINE
  8
0
 10
94.4206
 20
200.812
 11
95.8755
 21
203.352
  0
LINE
  8
0
 10
95.8755
 20
203.352
 11
97.8266
 21
205.533
  0
LINE
  8
0
 10
97.8266
 20
205.533
 11
100.189
 21
207.262
  0
LINE
  8
0
 10
100.189
 20
207.262
 11
102.858
 21
208.461
  0
LINE
  8
0
 10
102.858
 20
208.461
 11
105.719
 21
209.079
  0
LINE
  8
0
 10
105.719
 20
209.079
 11
108.646
 21
209.089
  0
LINE
  8
0
 10
108.646
 20
209.089
 11
111.511
 21
208.49
  0
LINE
  8
0
 10
111.511
 20
208.49
 11
114.189
 21
207.309
  0
LINE
  8
0
 10
114.189
 20
207.309
 11
116.562
 21
205.596
  0
LINE
  8
0
 10
116.562
 20
205.596
 11
118.528
 21
203.428
  0
LINE
  8
0
 10
118.528
 20
203.428
 11
120
 21
200.898
  0
LINE
  8
0
 10
120
 20
200.898
 11
120.914
 21
198.118
  0
LINE
  8
0
 10
120.914
 20
198.118
 11
121.229
 21
195.208
  0
LINE
  8
0
 10
121.229
 20
195.208
 11
120.933
 21
192.296
  0
LINE
  8
0
 10
120.933
 20
192.296
 11
120.038
 21
189.51
  0
LINE
  8
0
 10
120.038
 20
189.51
 11
118.583
 21
186.97
  0
LINE
  8
0
 10
118.583
 20
186.97
 11
116.632
 21
184.789
  0
LINE
  8
0
 10
116.632
 20
184.789
 11
114.27
 21
183.06
  0
LINE
  8
0
 10
114.27
 20
183.06
 11
111.6
 21
181.861
  0
LINE
  8
0
 10
111.6
 20
181.861
 11
108.74
 21
181.243
  0
LINE
  8
0
 10
108.74
 20
181.243
 11
105.813
 21
181.233
  0
LINE
  8
0
 10
105.813
 20
181.233
 11
102.948
 21
181.832
  0
LINE
  8
0
 10
102.948
 20
181.832
 11
100.27
 21
183.013
  0
LINE
  8
0
 10
100.27
 20
183.013
 11
97.8966
 21
184.726
  0
LINE
  8
0
 10
97.8966
 20
184.726
 11
95.9308
 21
186.894
  0
LINE
  8
0
 10
95.9308
 20
186.894
 11
94.4589
 21
189.424
  0
LINE
  8
0
 10
94.4589
 20
189.424
 11
93.5451
 21
192.204
  0
LINE
  8
0
 10
93.5451
 20
192.204
 11
93.2294
 21
195.114
  0
LINE
  8
0
 10
93.9239
 20
93.9881
 11
96.4535
 21
118.86
  0
LINE
  8
0
 10
96.4535
 20
118.86
 11
108.392
 21
117.646
  0
LINE
  8
0
 10
108.392
 20
117.646
 11
110.416
 21
137.543
  0
LINE
  8
0
 10
110.416
 20
137.543
 11
170.108
 21
131.472
  0
LINE
  8
0
 10
170.108
 20
131.472
 11
168.084
 21
111.574
  0
LINE
  8
0
 10
168.084
 20
111.574
 11
180.022
 21
110.36
  0
LINE
  8
0
 10
180.022
 20
110.36
 11
177.493
 21
85.4886
  0
LINE
  8
0
 10
177.493
 20
85.4886
 11
165.554
 21
86.7028
  0
LINE
  8
0
 10
165.554
 20
86.7028
 11
163.531
 21
66.8054
  0
LINE
  8
0
 10
163.531
 20
66.8054
 11
103.839
 21
72.8765
  0
LINE
  8
0
 10
103.839
 20
72.8765
 11
105.862
 21
92.7739
  0
LINE
  8
0
 10
105.862
 20
92.7739
 11
93.9239
 21
93.9881
  0
LINE
  8
0
 10
96.4248
 20
127.964
 11
96.9802
 21
129.609
  0
LINE
  8
0
 10
96.9802
 20
129.609
 11
98.612
 21
130.2
  0
LINE
  8
0
 10
98.612
 20
130.2
 11
100.091
 21
129.292
  0
LINE
  8
0
 10
100.091
 20
129.292
 11
100.304
 21
127.57
  0
LINE
  8
0
 10
100.304
 20
127.57
 11
99.0906
 21
126.329
  0
LINE
  8
0
 10
99.0906
 20
126.329
 11
97.364
 21
126.505
  0
LINE
  8
0
 10
97.364
 20
126.505
 11
96.4248
 21
127.964
  0
LINE
  8
0
 10
96.8721
 20
230.929
 11
97.1682
 21
233.841
  0
LINE
  8
0
 10
97.1682
 20
233.841
 11
98.0633
 21
236.628
  0
LINE
  8
0
 10
98.0633
 20
236.628
 11
99.5182
 21
239.167
  0
LINE
  8
0
 10
99.5182
 20
239.167
 11
101.469
 21
241.349
  0
LINE
  8
0
 10
101.469
 20
241.349
 11
103.831
 21
243.077
  0
LINE
  8
0
 10
103.831
 20
243.077
 11
106.501
 21
244.276
  0
LINE
  8
0
 10
106.501
 20
244.276
 11
109.362
 21
244.895
  0
LINE
  8
0
 10
109.362
 20
244.895
 11
112.289
 21
244.904
  0
LINE
  8
0
 10
112.289
 20
244.904
 11
115.153
 21
244.306
  0
LINE
  8
0
 10
115.153
 20
244.306
 11
117.831
 21
243.124
  0
LINE
  8
0
 10
117.831
 20
243.124
 11
120.205
 21
241.412
  0
LINE
  8
0
 10
120.205
 20
241.412
 11
122.17
 21
239.243
  0
LINE
  8
0
 10
122.17
 20
239.243
 11
123.642
 21
236.714
  0
LINE
  8
0
 10
123.642
 20
236.714
 11
124.556
 21
233.933
  0
LINE
  8
0
 10
124.556
 20
233.933
 11
124.872
 21
231.023
  0
LINE
  8
0
 10
124.872
 20
231.023
 11
124.576
 21
228.112
  0
LINE
  8
0
 10
124.576
 20
228.112
 11
123.681
 21
225.325
  0
LINE
  8
0
 10
123.681
 20
225.325
 11
122.226
 21
222.785
  0
LINE
  8
0
 10
122.226
 20
222.785
 11
120.275
 21
220.604
  0
LINE
  8
0
 10
120.275
 20
220.604
 11
117.913
 21
218.876
  0
LINE
  8
0
 10
117.913
 20
218.876
 11
115.243
 21
217.676
  0
LINE
  8
0
 10
115.243
 20
217.676
 11
112.382
 21
217.058
  0
LINE
  8
0
 10
112.382
 20
217.058
 11
109.455
 21
217.048
  0
LINE
  8
0
 10
109.455
 20
217.048
 11
106.591
 21
217.647
  0
LINE
  8
0
 10
106.591
 20
217.647
 11
103.913
 21
218.828
  0
LINE
  8
0
 10
103.913
 20
218.828
 11
101.539
 21
220.541
  0
LINE
  8
0
 10
101.539
 20
220.541
 11
99.5735
 21
222.709
  0
LINE
  8
0
 10
99.5735
 20
222.709
 11
98.1016
 21
225.239
  0
LINE
  8
0
 10
98.1016
 20
225.239
 11
97.1878
 21
228.019
  0
LINE
  8
0
 10
97.1878
 20
228.019
 11
96.8721
 21
230.929
  0
LINE
  8
0
 10
104.002
 20
397.53
 11
104.216
 21
399.252
  0
LINE
  8
0
 10
104.216
 20
399.252
 11
105.695
 21
400.16
  0
LINE
  8
0
 10
105.695
 20
400.16
 11
107.327
 21
399.569
  0
LINE
  8
0
 10
107.327
 20
399.569
 11
107.882
 21
397.925
  0
LINE
  8
0
 10
107.882
 20
397.925
 11
106.943
 21
396.465
  0
LINE
  8
0
 10
106.943
 20
396.465
 11
105.216
 21
396.289
  0
LINE
  8
0
 10
105.216
 20
396.289
 11
104.002
 21
397.53
  0
LINE
  8
0
 10
105.864
 20
388.618
 11
117.802
 21
389.832
  0
LINE
  8
0
 10
117.802
 20
389.832
 11
115.778
 21
409.729
  0
LINE
  8
0
 10
115.778
 20
409.729
 11
175.47
 21
415.8
  0
LINE
  8
0
 10
175.47
 20
415.8
 11
177.494
 21
395.903
  0
LINE
  8
0
 10
177.494
 20
395.903
 11
189.433
 21
397.117
  0
LINE
  8
0
 10
189.433
 20
397.117
 11
191.962
 21
372.245
  0
LINE
  8
0
 10
191.962
 20
372.245
 11
180.024
 21
371.031
  0
LINE
  8
0
 10
180.024
 20
371.031
 11
182.047
 21
351.134
  0
LINE
  8
0
 10
182.047
 20
351.134
 11
122.355
 21
345.063
  0
LINE
  8
0
 10
122.355
 20
345.063
 11
120.332
 21
364.96
  0
LINE
  8
0
 10
120.332
 20
364.96
 11
108.393
 21
363.746
  0
LINE
  8
0
 10
108.393
 20
363.746
 11
105.864
 21
388.618
  0
LINE
  8
0
 10
108.365
 20
354.641
 11
109.304
 21
356.101
  0
LINE
  8
0
 10
109.304
 20
356.101
 11
111.03
 21
356.276
  0
LINE
  8
0
 10
111.03
 20
356.276
 11
112.244
 21
355.036
  0
LINE
  8
0
 10
112.244
 20
355.036
 11
112.031
 21
353.313
  0
LINE
  8
0
 10
112.031
 20
353.313
 11
110.552
 21
352.406
  0
LINE
  8
0
 10
110.552
 20
352.406
 11
108.92
 21
352.997
  0
LINE
  8
0
 10
108.92
 20
352.997
 11
108.365
 21
354.641
  0
LINE
  8
0
 10
110.041
 20
162.747
 11
110.337
 21
165.659
  0
LINE
  8
0
 10
110.337
 20
165.659
 11
111.232
 21
168.445
  0
LINE
  8
0
 10
111.232
 20
168.445
 11
112.687
 21
170.985
  0
LINE
  8
0
 10
112.687
 20
170.985
 11
114.638
 21
173.166
  0
LINE
  8
0
 10
114.638
 20
173.166
 11
117
 21
174.895
  0
LINE
  8
0
 10
117
 20
174.895
 11
119.67
 21
176.094
  0
LINE
  8
0
 10
119.67
 20
176.094
 11
122.53
 21
176.712
  0
LINE
  8
0
 10
122.53
 20
176.712
 11
125.457
 21
176.722
  0
LINE
  8
0
 10
125.457
 20
176.722
 11
128.322
 21
176.123
  0
LINE
  8
0
 10
128.322
 20
176.123
 11
131
 21
174.942
  0
LINE
  8
0
 10
131
 20
174.942
 11
133.373
 21
173.229
  0
LINE
  8
0
 10
133.373
 20
173.229
 11
135.339
 21
171.061
  0
LINE
  8
0
 10
135.339
 20
171.061
 11
136.811
 21
168.531
  0
LINE
  8
0
 10
136.811
 20
168.531
 11
137.725
 21
165.751
  0
LINE
  8
0
 10
137.725
 20
165.751
 11
138.04
 21
162.841
  0
LINE
  8
0
 10
138.04
 20
162.841
 11
137.744
 21
159.929
  0
LINE
  8
0
 10
137.744
 20
159.929
 11
136.849
 21
157.143
  0
LINE
  8
0
 10
136.849
 20
157.143
 11
135.394
 21
154.603
  0
LINE
  8
0
 10
135.394
 20
154.603
 11
133.443
 21
152.421
  0
LINE
  8
0
 10
133.443
 20
152.421
 11
131.081
 21
150.693
  0
LINE
  8
0
 10
131.081
 20
150.693
 11
128.412
 21
149.494
  0
LINE
  8
0
 10
128.412
 20
149.494
 11
125.551
 21
148.876
  0
LINE
  8
0
 10
125.551
 20
148.876
 11
122.624
 21
148.866
  0
LINE
  8
0
 10
122.624
 20
148.866
 11
119.759
 21
149.465
  0
LINE
  8
0
 10
119.759
 20
149.465
 11
117.081
 21
150.646
  0
LINE
  8
0
 10
117.081
 20
150.646
 11
114.708
 21
152.358
  0
LINE
  8
0
 10
114.708
 20
152.358
 11
112.742
 21
154.527
  0
LINE
  8
0
 10
112.742
 20
154.527
 11
111.27
 21
157.057
  0
LINE
  8
0
 10
111.27
 20
157.057
 11
110.356
 21
159.837
  0
LINE
  8
0
 10
110.356
 20
159.837
 11
110.041
 21
162.747
  0
LINE
  8
0
 10
110.041
 20
437.253
 11
110.356
 21
440.163
  0
LINE
  8
0
 10
110.356
 20
440.163
 11
111.27
 21
442.943
  0
LINE
  8
0
 10
111.27
 20
442.943
 11
112.742
 21
445.473
  0
LINE
  8
0
 10
112.742
 20
445.473
 11
114.708
 21
447.642
  0
LINE
  8
0
 10
114.708
 20
447.642
 11
117.081
 21
449.354
  0
LINE
  8
0
 10
117.081
 20
449.354
 11
119.759
 21
450.535
  0
LINE
  8
0
 10
119.759
 20
450.535
 11
122.624
 21
451.134
  0
LINE
  8
0
 10
122.624
 20
451.134
 11
125.551
 21
451.124
  0
LINE
  8
0
 10
125.551
 20
451.124
 11
128.412
 21
450.506
  0
LINE
  8
0
 10
128.412
 20
450.506
 11
131.081
 21
449.307
  0
LINE
  8
0
 10
131.081
 20
449.307
 11
133.443
 21
447.579
  0
LINE
  8
0
 10
133.443
 20
447.579
 11
135.394
 21
445.397
  0
LINE
  8
0
 10
135.394
 20
445.397
 11
136.849
 21
442.857
  0
LINE
  8
0
 10
136.849
 20
442.857
 11
137.744
 21
440.071
  0
LINE
  8
0
 10
137.744
 20
440.071
 11
138.04
 21
437.159
  0
LINE
  8
0
 10
138.04
 20
437.159
 11
137.725
 21
434.249
  0
LINE
  8
0
 10
137.725
 20
434.249
 11
136.811
 21
431.469
  0
LINE
  8
0
 10
136.811
 20
431.469
 11
135.339
 21
428.939
  0
LINE
  8
0
 10
135.339
 20
428.939
 11
133.373
 21
426.771
  0
LINE
  8
0
 10
133.373
 20
426.771
 11
131
 21
425.058
  0
LINE
  8
0
 10
131
 20
425.058
 11
128.322
 21
423.877
  0
LINE
  8
0
 10
128.322
 20
423.877
 11
125.457
 21
423.278
  0
LINE
  8
0
 10
125.457
 20
423.278
 11
122.53
 21
423.288
  0
LINE
  8
0
 10
122.53
 20
423.288
 11
119.67
 21
423.906
  0
LINE
  8
0
 10
119.67
 20
423.906
 11
117
 21
425.105
  0
LINE
  8
0
 10
117
 20
425.105
 11
114.638
 21
426.834
  0
LINE
  8
0
 10
114.638
 20
426.834
 11
112.687
 21
429.015
  0
LINE
  8
0
 10
112.687
 20
429.015
 11
111.232
 21
431.555
  0
LINE
  8
0
 10
111.232
 20
431.555
 11
110.337
 21
434.341
  0
LINE
  8
0
 10
110.337
 20
434.341
 11
110.041
 21
437.253
  0
LINE
  8
0
 10
122.214
 20
505.334
 11
122.53
 21
508.244
  0
LINE
  8
0
 10
122.53
 20
508.244
 11
123.444
 21
511.025
  0
LINE
  8
0
 10
123.444
 20
511.025
 11
124.916
 21
513.554
  0
LINE
  8
0
 10
124.916
 20
513.554
 11
126.881
 21
515.723
  0
LINE
  8
0
 10
126.881
 20
515.723
 11
129.255
 21
517.435
  0
LINE
  8
0
 10
129.255
 20
517.435
 11
131.933
 21
518.617
  0
LINE
  8
0
 10
131.933
 20
518.617
 11
134.798
 21
519.215
  0
LINE
  8
0
 10
134.798
 20
519.215
 11
137.724
 21
519.206
  0
LINE
  8
0
 10
137.724
 20
519.206
 11
140.585
 21
518.588
  0
LINE
  8
0
 10
140.585
 20
518.588
 11
143.255
 21
517.388
  0
LINE
  8
0
 10
143.255
 20
517.388
 11
145.617
 21
515.66
  0
LINE
  8
0
 10
145.617
 20
515.66
 11
147.568
 21
513.478
  0
LINE
  8
0
 10
147.568
 20
513.478
 11
149.023
 21
510.939
  0
LINE
  8
0
 10
149.023
 20
510.939
 11
149.918
 21
508.152
  0
LINE
  8
0
 10
149.918
 20
508.152
 11
150.214
 21
505.24
  0
LINE
  8
0
 10
150.214
 20
505.24
 11
149.898
 21
502.331
  0
LINE
  8
0
 10
149.898
 20
502.331
 11
148.985
 21
499.55
  0
LINE
  8
0
 10
148.985
 20
499.55
 11
147.513
 21
497.02
  0
LINE
  8
0
 10
147.513
 20
497.02
 11
145.547
 21
494.852
  0
LINE
  8
0
 10
145.547
 20
494.852
 11
143.173
 21
493.14
  0
LINE
  8
0
 10
143.173
 20
493.14
 11
140.496
 21
491.958
  0
LINE
  8
0
 10
140.496
 20
491.958
 11
137.631
 21
491.359
  0
LINE
  8
0
 10
137.631
 20
491.359
 11
134.704
 21
491.369
  0
LINE
  8
0
 10
134.704
 20
491.369
 11
131.843
 21
491.987
  0
LINE
  8
0
 10
131.843
 20
491.987
 11
129.174
 21
493.187
  0
LINE
  8
0
 10
129.174
 20
493.187
 11
126.812
 21
494.915
  0
LINE
  8
0
 10
126.812
 20
494.915
 11
124.86
 21
497.096
  0
LINE
  8
0
 10
124.86
 20
497.096
 11
123.406
 21
499.636
  0
LINE
  8
0
 10
123.406
 20
499.636
 11
122.511
 21
502.423
  0
LINE
  8
0
 10
122.511
 20
502.423
 11
122.214
 21
505.334
  0
LINE
  8
0
 10
125.857
 20
469.519
 11
126.173
 21
472.429
  0
LINE
  8
0
 10
126.173
 20
472.429
 11
127.087
 21
475.209
  0
LINE
  8
0
 10
127.087
 20
475.209
 11
128.558
 21
477.739
  0
LINE
  8
0
 10
128.558
 20
477.739
 11
130.524
 21
479.908
  0
LINE
  8
0
 10
130.524
 20
479.908
 11
132.898
 21
481.62
  0
LINE
  8
0
 10
132.898
 20
481.62
 11
135.575
 21
482.801
  0
LINE
  8
0
 10
135.575
 20
482.801
 11
138.44
 21
483.4
  0
LINE
  8
0
 10
138.44
 20
483.4
 11
141.367
 21
483.39
  0
LINE
  8
0
 10
141.367
 20
483.39
 11
144.228
 21
482.772
  0
LINE
  8
0
 10
144.228
 20
482.772
 11
146.898
 21
481.573
  0
LINE
  8
0
 10
146.898
 20
481.573
 11
149.26
 21
479.845
  0
LINE
  8
0
 10
149.26
 20
479.845
 11
151.211
 21
477.663
  0
LINE
  8
0
 10
151.211
 20
477.663
 11
152.666
 21
475.123
  0
LINE
  8
0
 10
152.666
 20
475.123
 11
153.561
 21
472.337
  0
LINE
  8
0
 10
153.561
 20
472.337
 11
153.857
 21
469.425
  0
LINE
  8
0
 10
153.857
 20
469.425
 11
153.541
 21
466.515
  0
LINE
  8
0
 10
153.541
 20
466.515
 11
152.627
 21
463.735
  0
LINE
  8
0
 10
152.627
 20
463.735
 11
151.155
 21
461.205
  0
LINE
  8
0
 10
151.155
 20
461.205
 11
149.19
 21
459.037
  0
LINE
  8
0
 10
149.19
 20
459.037
 11
146.816
 21
457.324
  0
LINE
  8
0
 10
146.816
 20
457.324
 11
144.138
 21
456.143
  0
LINE
  8
0
 10
144.138
 20
456.143
 11
141.274
 21
455.544
  0
LINE
  8
0
 10
141.274
 20
455.544
 11
138.347
 21
455.554
  0
LINE
  8
0
 10
138.347
 20
455.554
 11
135.486
 21
456.172
  0
LINE
  8
0
 10
135.486
 20
456.172
 11
132.816
 21
457.371
  0
LINE
  8
0
 10
132.816
 20
457.371
 11
130.454
 21
459.1
  0
LINE
  8
0
 10
130.454
 20
459.1
 11
128.503
 21
461.281
  0
LINE
  8
0
 10
128.503
 20
461.281
 11
127.048
 21
463.821
  0
LINE
  8
0
 10
127.048
 20
463.821
 11
126.153
 21
466.607
  0
LINE
  8
0
 10
126.153
 20
466.607
 11
125.857
 21
469.519
  0
LINE
  8
0
 10
132.029
 20
191.168
 11
132.325
 21
194.08
  0
LINE
  8
0
 10
132.325
 20
194.08
 11
133.22
 21
196.866
  0
LINE
  8
0
 10
133.22
 20
196.866
 11
134.675
 21
199.406
  0
LINE
  8
0
 10
134.675
 20
199.406
 11
136.626
 21
201.587
  0
LINE
  8
0
 10
136.626
 20
201.587
 11
138.988
 21
203.316
  0
LINE
  8
0
 10
138.988
 20
203.316
 11
141.658
 21
204.515
  0
LINE
  8
0
 10
141.658
 20
204.515
 11
144.519
 21
205.133
  0
LINE
  8
0
 10
144.519
 20
205.133
 11
147.446
 21
205.143
  0
LINE
  8
0
 10
147.446
 20
205.143
 11
150.311
 21
204.544
  0
LINE
  8
0
 10
150.311
 20
204.544
 11
152.988
 21
203.363
  0
LINE
  8
0
 10
152.988
 20
203.363
 11
155.362
 21
201.65
  0
LINE
  8
0
 10
155.362
 20
201.65
 11
157.328
 21
199.482
  0
LINE
  8
0
 10
157.328
 20
199.482
 11
158.8
 21
196.952
  0
LINE
  8
0
 10
158.8
 20
196.952
 11
159.713
 21
194.172
  0
LINE
  8
0
 10
159.713
 20
194.172
 11
160.029
 21
191.262
  0
LINE
  8
0
 10
160.029
 20
191.262
 11
159.733
 21
188.35
  0
LINE
  8
0
 10
159.733
 20
188.35
 11
158.838
 21
185.564
  0
LINE
  8
0
 10
158.838
 20
185.564
 11
157.383
 21
183.024
  0
LINE
  8
0
 10
157.383
 20
183.024
 11
155.432
 21
180.842
  0
LINE
  8
0
 10
155.432
 20
180.842
 11
153.07
 21
179.114
  0
LINE
  8
0
 10
153.07
 20
179.114
 11
150.4
 21
177.915
  0
LINE
  8
0
 10
150.4
 20
177.915
 11
147.539
 21
177.297
  0
LINE
  8
0
 10
147.539
 20
177.297
 11
144.613
 21
177.287
  0
LINE
  8
0
 10
144.613
 20
177.287
 11
141.748
 21
177.886
  0
LINE
  8
0
 10
141.748
 20
177.886
 11
139.07
 21
179.067
  0
LINE
  8
0
 10
139.07
 20
179.067
 11
136.696
 21
180.779
  0
LINE
  8
0
 10
136.696
 20
180.779
 11
134.731
 21
182.948
  0
LINE
  8
0
 10
134.731
 20
182.948
 11
133.259
 21
185.478
  0
LINE
  8
0
 10
133.259
 20
185.478
 11
132.345
 21
188.258
  0
LINE
  8
0
 10
132.345
 20
188.258
 11
132.029
 21
191.168
  0
LINE
  8
0
 10
135.672
 20
226.983
 11
135.968
 21
229.895
  0
LINE
  8
0
 10
135.968
 20
229.895
 11
136.863
 21
232.681
  0
LINE
  8
0
 10
136.863
 20
232.681
 11
138.318
 21
235.221
  0
LINE
  8
0
 10
138.318
 20
235.221
 11
140.269
 21
237.403
  0
LINE
  8
0
 10
140.269
 20
237.403
 11
142.631
 21
239.131
  0
LINE
  8
0
 10
142.631
 20
239.131
 11
145.301
 21
240.33
  0
LINE
  8
0
 10
145.301
 20
240.33
 11
148.162
 21
240.948
  0
LINE
  8
0
 10
148.162
 20
240.948
 11
151.088
 21
240.958
  0
LINE
  8
0
 10
151.088
 20
240.958
 11
153.953
 21
240.359
  0
LINE
  8
0
 10
153.953
 20
240.359
 11
156.631
 21
239.178
  0
LINE
  8
0
 10
156.631
 20
239.178
 11
159.005
 21
237.466
  0
LINE
  8
0
 10
159.005
 20
237.466
 11
160.97
 21
235.297
  0
LINE
  8
0
 10
160.97
 20
235.297
 11
162.442
 21
232.767
  0
LINE
  8
0
 10
162.442
 20
232.767
 11
163.356
 21
229.987
  0
LINE
  8
0
 10
163.356
 20
229.987
 11
163.672
 21
227.077
  0
LINE
  8
0
 10
163.672
 20
227.077
 11
163.376
 21
224.165
  0
LINE
  8
0
 10
163.376
 20
224.165
 11
162.481
 21
221.379
  0
LINE
  8
0
 10
162.481
 20
221.379
 11
161.026
 21
218.839
  0
LINE
  8
0
 10
161.026
 20
218.839
 11
159.075
 21
216.658
  0
LINE
  8
0
 10
159.075
 20
216.658
 11
156.713
 21
214.929
  0
LINE
  8
0
 10
156.713
 20
214.929
 11
154.043
 21
213.73
  0
LINE
  8
0
 10
154.043
 20
213.73
 11
151.182
 21
213.112
  0
LINE
  8
0
 10
151.182
 20
213.112
 11
148.255
 21
213.102
  0
LINE
  8
0
 10
148.255
 20
213.102
 11
145.39
 21
213.701
  0
LINE
  8
0
 10
145.39
 20
213.701
 11
142.713
 21
214.882
  0
LINE
  8
0
 10
142.713
 20
214.882
 11
140.339
 21
216.595
  0
LINE
  8
0
 10
140.339
 20
216.595
 11
138.373
 21
218.763
  0
LINE
  8
0
 10
138.373
 20
218.763
 11
136.901
 21
221.293
  0
LINE
  8
0
 10
136.901
 20
221.293
 11
135.988
 21
224.073
  0
LINE
  8
0
 10
135.988
 20
224.073
 11
135.672
 21
226.983
  0
LINE
  8
0
 10
148.84
 20
158.801
 11
149.137
 21
161.712
  0
LINE
  8
0
 10
149.137
 20
161.712
 11
150.032
 21
164.499
  0
LINE
  8
0
 10
150.032
 20
164.499
 11
151.487
 21
167.039
  0
LINE
  8
0
 10
151.487
 20
167.039
 11
153.438
 21
169.22
  0
LINE
  8
0
 10
153.438
 20
169.22
 11
155.8
 21
170.948
  0
LINE
  8
0
 10
155.8
 20
170.948
 11
158.469
 21
172.148
  0
LINE
  8
0
 10
158.469
 20
172.148
 11
161.33
 21
172.766
  0
LINE
  8
0
 10
161.33
 20
172.766
 11
164.257
 21
172.776
  0
LINE
  8
0
 10
164.257
 20
172.776
 11
167.122
 21
172.177
  0
LINE
  8
0
 10
167.122
 20
172.177
 11
169.8
 21
170.995
  0
LINE
  8
0
 10
169.8
 20
170.995
 11
172.173
 21
169.283
  0
LINE
  8
0
 10
172.173
 20
169.283
 11
174.139
 21
167.115
  0
LINE
  8
0
 10
174.139
 20
167.115
 11
175.611
 21
164.585
  0
LINE
  8
0
 10
175.611
 20
164.585
 11
176.525
 21
161.804
  0
LINE
  8
0
 10
176.525
 20
161.804
 11
176.84
 21
158.895
  0
LINE
  8
0
 10
176.84
 20
158.895
 11
176.544
 21
155.983
  0
LINE
  8
0
 10
176.544
 20
155.983
 11
175.649
 21
153.196
  0
LINE
  8
0
 10
175.649
 20
153.196
 11
174.194
 21
150.657
  0
LINE
  8
0
 10
174.194
 20
150.657
 11
172.243
 21
148.475
  0
LINE
  8
0
 10
172.243
 20
148.475
 11
169.881
 21
146.747
  0
LINE
  8
0
 10
169.881
 20
146.747
 11
167.211
 21
145.548
  0
LINE
  8
0
 10
167.211
 20
145.548
 11
164.351
 21
144.929
  0
LINE
  8
0
 10
164.351
 20
144.929
 11
161.424
 21
144.92
  0
LINE
  8
0
 10
161.424
 20
144.92
 11
158.559
 21
145.518
  0
LINE
  8
0
 10
158.559
 20
145.518
 11
155.881
 21
146.7
  0
LINE
  8
0
 10
155.881
 20
146.7
 11
153.508
 21
148.412
  0
LINE
  8
0
 10
153.508
 20
148.412
 11
151.542
 21
150.581
  0
LINE
  8
0
 10
151.542
 20
150.581
 11
150.07
 21
153.11
  0
LINE
  8
0
 10
150.07
 20
153.11
 11
149.156
 21
155.891
  0
LINE
  8
0
 10
149.156
 20
155.891
 11
148.84
 21
158.801
  0
LINE
  8
0
 10
148.84
 20
441.199
 11
149.156
 21
444.109
  0
LINE
  8
0
 10
149.156
 20
444.109
 11
150.07
 21
446.89
  0
LINE
  8
0
 10
150.07
 20
446.89
 11
151.542
 21
449.419
  0
LINE
  8
0
 10
151.542
 20
449.419
 11
153.508
 21
451.588
  0
LINE
  8
0
 10
153.508
 20
451.588
 11
155.881
 21
453.3
  0
LINE
  8
0
 10
155.881
 20
453.3
 11
158.559
 21
454.482
  0
LINE
  8
0
 10
158.559
 20
454.482
 11
161.424
 21
455.08
  0
LINE
  8
0
 10
161.424
 20
455.08
 11
164.351
 21
455.071
  0
LINE
  8
0
 10
164.351
 20
455.071
 11
167.211
 21
454.452
  0
LINE
  8
0
 10
167.211
 20
454.452
 11
169.881
 21
453.253
  0
LINE
  8
0
 10
169.881
 20
453.253
 11
172.243
 21
451.525
  0
LINE
  8
0
 10
172.243
 20
451.525
 11
174.194
 21
449.343
  0
LINE
  8
0
 10
174.194
 20
449.343
 11
175.649
 21
446.804
  0
LINE
  8
0
 10
175.649
 20
446.804
 11
176.544
 21
444.017
  0
LINE
  8
0
 10
176.544
 20
444.017
 11
176.84
 21
441.105
  0
LINE
  8
0
 10
176.84
 20
441.105
 11
176.525
 21
438.196
  0
LINE
  8
0
 10
176.525
 20
438.196
 11
175.611
 21
435.415
  0
LINE
  8
0
 10
175.611
 20
435.415
 11
174.139
 21
432.885
  0
LINE
  8
0
 10
174.139
 20
432.885
 11
172.173
 21
430.717
  0
LINE
  8
0
 10
172.173
 20
430.717
 11
169.8
 21
429.005
  0
LINE
  8
0
 10
169.8
 20
429.005
 11
167.122
 21
427.823
  0
LINE
  8
0
 10
167.122
 20
427.823
 11
164.257
 21
427.224
  0
LINE
  8
0
 10
164.257
 20
427.224
 11
161.33
 21
427.234
  0
LINE
  8
0
 10
161.33
 20
427.234
 11
158.469
 21
427.852
  0
LINE
  8
0
 10
158.469
 20
427.852
 11
155.8
 21
429.052
  0
LINE
  8
0
 10
155.8
 20
429.052
 11
153.438
 21
430.78
  0
LINE
  8
0
 10
153.438
 20
430.78
 11
151.487
 21
432.961
  0
LINE
  8
0
 10
151.487
 20
432.961
 11
150.032
 21
435.501
  0
LINE
  8
0
 10
150.032
 20
435.501
 11
149.137
 21
438.288
  0
LINE
  8
0
 10
149.137
 20
438.288
 11
148.84
 21
441.199
  0
LINE
  8
0
 10
173.642
 20
76.7786
 11
174.856
 21
78.019
  0
LINE
  8
0
 10
174.856
 20
78.019
 11
176.582
 21
77.8434
  0
LINE
  8
0
 10
176.582
 20
77.8434
 11
177.522
 21
76.384
  0
LINE
  8
0
 10
177.522
 20
76.384
 11
176.966
 21
74.7397
  0
LINE
  8
0
 10
176.966
 20
74.7397
 11
175.334
 21
74.1488
  0
LINE
  8
0
 10
175.334
 20
74.1488
 11
173.855
 21
75.0562
  0
LINE
  8
0
 10
173.855
 20
75.0562
 11
173.642
 21
76.7786
  0
LINE
  8
0
 10
178.004
 20
119.667
 11
178.559
 21
121.311
  0
LINE
  8
0
 10
178.559
 20
121.311
 11
180.191
 21
121.902
  0
LINE
  8
0
 10
180.191
 20
121.902
 11
181.671
 21
120.995
  0
LINE
  8
0
 10
181.671
 20
120.995
 11
181.884
 21
119.273
  0
LINE
  8
0
 10
181.884
 20
119.273
 11
180.67
 21
118.032
  0
LINE
  8
0
 10
180.67
 20
118.032
 11
178.943
 21
118.208
  0
LINE
  8
0
 10
178.943
 20
118.208
 11
178.004
 21
119.667
  0
LINE
  8
0
 10
185.582
 20
405.827
 11
185.795
 21
407.549
  0
LINE
  8
0
 10
185.795
 20
407.549
 11
187.274
 21
408.457
  0
LINE
  8
0
 10
187.274
 20
408.457
 11
188.906
 21
407.866
  0
LINE
  8
0
 10
188.906
 20
407.866
 11
189.461
 21
406.222
  0
LINE
  8
0
 10
189.461
 20
406.222
 11
188.522
 21
404.762
  0
LINE
  8
0
 10
188.522
 20
404.762
 11
186.795
 21
404.587
  0
LINE
  8
0
 10
186.795
 20
404.587
 11
185.582
 21
405.827
  0
LINE
  8
0
 10
189.944
 20
362.938
 11
190.883
 21
364.398
  0
LINE
  8
0
 10
190.883
 20
364.398
 11
192.61
 21
364.573
  0
LINE
  8
0
 10
192.61
 20
364.573
 11
193.823
 21
363.333
  0
LINE
  8
0
 10
193.823
 20
363.333
 11
193.61
 21
361.611
  0
LINE
  8
0
 10
193.61
 20
361.611
 11
192.131
 21
360.703
  0
LINE
  8
0
 10
192.131
 20
360.703
 11
190.499
 21
361.294
  0
LINE
  8
0
 10
190.499
 20
361.294
 11
189.944
 21
362.938
  0
ENDSEC
  0
SECTION
  2
OBJECTS
  0
DICTIONARY
  0
ENDSEC
  0
EOF
