  0
SECTION
  2
BLOCKS
  0
ENDSEC
  0
SECTION
  2
ENTITIES
  0
LINE
  8
0
 10
-71
 20
-51
 11
-1
 21
-51
  0
LINE
  8
0
 10
-1
 20
-51
 11
-1
 21
51
  0
LINE
  8
0
 10
-1
 20
51
 11
-71
 21
51
  0
LINE
  8
0
 10
-71
 20
51
 11
-71
 21
-51
  0
LINE
  8
0
 10
-66
 20
-27.5
 11
-66
 21
27.5
  0
LINE
  8
0
 10
-66
 20
27.5
 11
-46
 21
27.5
  0
LINE
  8
0
 10
-46
 20
27.5
 11
-46
 21
39.5
  0
LINE
  8
0
 10
-46
 20
39.5
 11
-26
 21
39.5
  0
LINE
  8
0
 10
-26
 20
39.5
 11
-26
 21
27.5
  0
LINE
  8
0
 10
-26
 20
27.5
 11
-6
 21
27.5
  0
LINE
  8
0
 10
-6
 20
27.5
 11
-6
 21
-27.5
  0
LINE
  8
0
 10
-6
 20
-27.5
 11
-26
 21
-27.5
  0
LINE
  8
0
 10
-26
 20
-27.5
 11
-26
 21
-39.5
  0
LINE
  8
0
 10
-26
 20
-39.5
 11
-46
 21
-39.5
  0
LINE
  8
0
 10
-46
 20
-39.5
 11
-46
 21
-27.5
  0
LINE
  8
0
 10
-46
 20
-27.5
 11
-66
 21
-27.5
  0
LINE
  8
0
 10
-60
 20
-41
 11
-59.247
 21
-39.4363
  0
LINE
  8
0
 10
-59.247
 20
-39.4363
 11
-57.555
 21
-39.0501
  0
LINE
  8
0
 10
-57.555
 20
-39.0501
 11
-56.1981
 21
-40.1322
  0
LINE
  8
0
 10
-56.1981
 20
-40.1322
 11
-56.1981
 21
-41.8678
  0
LINE
  8
0
 10
-56.1981
 20
-41.8678
 11
-57.555
 21
-42.9499
  0
LINE
  8
0
 10
-57.555
 20
-42.9499
 11
-59.247
 21
-42.5637
  0
LINE
  8
0
 10
-59.247
 20
-42.5637
 11
-60
 21
-41
  0
LINE
  8
0
 10
-60
 20
41
 11
-59.247
 21
42.5637
  0
LINE
  8
0
 10
-59.247
 20
42.5637
 11
-57.555
 21
42.9499
  0
LINE
  8
0
 10
-57.555
 20
42.9499
 11
-56.1981
 21
41.8678
  0
LINE
  8
0
 10
-56.1981
 20
41.8678
 11
-56.1981
 21
40.1322
  0
LINE
  8
0
 10
-56.1981
 20
40.1322
 11
-57.555
 21
39.0501
  0
LINE
  8
0
 10
-57.555
 20
39.0501
 11
-59.247
 21
39.4363
  0
LINE
  8
0
 10
-59.247
 20
39.4363
 11
-60
 21
41
  0
LINE
  8
0
 10
-15.8019
 20
-41.8678
 11
-15.8019
 21
-40.1322
  0
LINE
  8
0
 10
-15.8019
 20
-40.1322
 11
-14.445
 21
-39.0501
  0
LINE
  8
0
 10
-14.445
 20
-39.0501
 11
-12.753
 21
-39.4363
  0
LINE
  8
0
 10
-12.753
 20
-39.4363
 11
-12
 21
-41
  0
LINE
  8
0
 10
-12
 20
-41
 11
-12.753
 21
-42.5637
  0
LINE
  8
0
 10
-12.753
 20
-42.5637
 11
-14.445
 21
-42.9499
  0
LINE
  8
0
 10
-14.445
 20
-42.9499
 11
-15.8019
 21
-41.8678
  0
LINE
  8
0
 10
-15.8019
 20
40.1322
 11
-15.8019
 21
41.8678
  0
LINE
  8
0
 10
-15.8019
 20
41.8678
 11
-14.445
 21
42.9499
  0
LINE
  8
0
 10
-14.445
 20
42.9499
 11
-12.753
 21
42.5637
  0
LINE
  8
0
 10
-12.753
 20
42.5637
 11
-12
 21
41
  0
LINE
  8
0
 10
-12
 20
41
 11
-12.753
 21
39.4363
  0
LINE
  8
0
 10
-12.753
 20
39.4363
 11
-14.445
 21
39.0501
  0
LINE
  8
0
 10
-14.445
 20
39.0501
 11
-15.8019
 21
40.1322
  0
LINE
  8
0
 10
1
 20
-51
 11
71
 21
-51
  0
LINE
  8
0
 10
71
 20
-51
 11
71
 21
51
  0
LINE
  8
0
 10
71
 20
51
 11
1
 21
51
  0
LINE
  8
0
 10
1
 20
51
 11
1
 21
-51
  0
LINE
  8
0
 10
12
 20
-41
 11
12.753
 21
-39.4363
  0
LINE
  8
0
 10
12.753
 20
-39.4363
 11
14.445
 21
-39.0501
  0
LINE
  8
0
 10
14.445
 20
-39.0501
 11
15.8019
 21
-40.1322
  0
LINE
  8
0
 10
15.8019
 20
-40.1322
 11
15.8019
 21
-41.8678
  0
LINE
  8
0
 10
15.8019
 20
-41.8678
 11
14.445
 21
-42.9499
  0
LINE
  8
0
 10
14.445
 20
-42.9499
 11
12.753
 21
-42.5637
  0
LINE
  8
0
 10
12.753
 20
-42.5637
 11
12
 21
-41
  0
LINE
  8
0
 10
12
 20
41
 11
12.753
 21
42.5637
  0
LINE
  8
0
 10
12.753
 20
42.5637
 11
14.445
 21
42.9499
  0
LINE
  8
0
 10
14.445
 20
42.9499
 11
15.8019
 21
41.8678
  0
LINE
  8
0
 10
15.8019
 20
41.8678
 11
15.8019
 21
40.1322
  0
LINE
  8
0
 10
15.8019
 20
40.1322
 11
14.445
 21
39.0501
  0
LINE
  8
0
 10
14.445
 20
39.0501
 11
12.753
 21
39.4363
  0
LINE
  8
0
 10
12.753
 20
39.4363
 11
12
 21
41
  0
LINE
  8
0
 10
26
 20
0
 11
26.2185
 21
2.07912
  0
LINE
  8
0
 10
26.2185
 20
2.07912
 11
26.8645
 21
4.06737
  0
LINE
  8
0
 10
26.8645
 20
4.06737
 11
27.9098
 21
5.87785
  0
LINE
  8
0
 10
27.9098
 20
5.87785
 11
29.3087
 21
7.43145
  0
LINE
  8
0
 10
29.3087
 20
7.43145
 11
31
 21
8.66025
  0
LINE
  8
0
 10
31
 20
8.66025
 11
32.9098
 21
9.51056
  0
LINE
  8
0
 10
32.9098
 20
9.51056
 11
34.9547
 21
9.94522
  0
LINE
  8
0
 10
34.9547
 20
9.94522
 11
37.0453
 21
9.94522
  0
LINE
  8
0
 10
37.0453
 20
9.94522
 11
39.0902
 21
9.51056
  0
LINE
  8
0
 10
39.0902
 20
9.51056
 11
41
 21
8.66025
  0
LINE
  8
0
 10
41
 20
8.66025
 11
42.6913
 21
7.43145
  0
LINE
  8
0
 10
42.6913
 20
7.43145
 11
44.0902
 21
5.87785
  0
LINE
  8
0
 10
44.0902
 20
5.87785
 11
45.1355
 21
4.06737
  0
LINE
  8
0
 10
45.1355
 20
4.06737
 11
45.7815
 21
2.07912
  0
LINE
  8
0
 10
45.7815
 20
2.07912
 11
46
 21
0
  0
LINE
  8
0
 10
46
 20
0
 11
45.7815
 21
-2.07912
  0
LINE
  8
0
 10
45.7815
 20
-2.07912
 11
45.1355
 21
-4.06737
  0
LINE
  8
0
 10
45.1355
 20
-4.06737
 11
44.0902
 21
-5.87785
  0
LINE
  8
0
 10
44.0902
 20
-5.87785
 11
42.6913
 21
-7.43145
  0
LINE
  8
0
 10
42.6913
 20
-7.43145
 11
41
 21
-8.66025
  0
LINE
  8
0
 10
41
 20
-8.66025
 11
39.0902
 21
-9.51056
  0
LINE
  8
0
 10
39.0902
 20
-9.51056
 11
37.0453
 21
-9.94522
  0
LINE
  8
0
 10
37.0453
 20
-9.94522
 11
34.9547
 21
-9.94522
  0
LINE
  8
0
 10
34.9547
 20
-9.94522
 11
32.9098
 21
-9.51056
  0
LINE
  8
0
 10
32.9098
 20
-9.51056
 11
31
 21
-8.66025
  0
LINE
  8
0
 10
31
 20
-8.66025
 11
29.3087
 21
-7.43145
  0
LINE
  8
0
 10
29.3087
 20
-7.43145
 11
27.9098
 21
-5.87785
  0
LINE
  8
0
 10
27.9098
 20
-5.87785
 11
26.8645
 21
-4.06737
  0
LINE
  8
0
 10
26.8645
 20
-4.06737
 11
26.2185
 21
-2.07912
  0
LINE
  8
0
 10
26.2185
 20
-2.07912
 11
26
 21
0
  0
LINE
  8
0
 10
56.1981
 20
-41.8678
 11
56.1981
 21
-40.1322
  0
LINE
  8
0
 10
56.1981
 20
-40.1322
 11
57.555
 21
-39.0501
  0
LINE
  8
0
 10
57.555
 20
-39.0501
 11
59.247
 21
-39.4363
  0
LINE
  8
0
 10
59.247
 20
-39.4363
 11
60
 21
-41
  0
LINE
  8
0
 10
60
 20
-41
 11
59.247
 21
-42.5637
  0
LINE
  8
0
 10
59.247
 20
-42.5637
 11
57.555
 21
-42.9499
  0
LINE
  8
0
 10
57.555
 20
-42.9499
 11
56.1981
 21
-41.8678
  0
LINE
  8
0
 10
56.1981
 20
40.1322
 11
56.1981
 21
41.8678
  0
LINE
  8
0
 10
56.1981
 20
41.8678
 11
57.555
 21
42.9499
  0
LINE
  8
0
 10
57.555
 20
42.9499
 11
59.247
 21
42.5637
  0
LINE
  8
0
 10
59.247
 20
42.5637
 11
60
 21
41
  0
LINE
  8
0
 10
60
 20
41
 11
59.247
 21
39.4363
  0
LINE
  8
0
 10
59.247
 20
39.4363
 11
57.555
 21
39.0501
  0
LINE
  8
0
 10
57.555
 20
39.0501
 11
56.1981
 21
40.1322
  0
ENDSEC
  0
SECTION
  2
OBJECTS
  0
DICTIONARY
  0
ENDSEC
  0
EOF
